<?xml version="1.0" encoding="UTF-8"?>
<svg width="113px" height="113px" viewBox="0 0 113 113" version="1.1" xmlns="http://www.w3.org/2000/svg" xmlns:xlink="http://www.w3.org/1999/xlink">
    <title>document (1)</title>
    <g id="Page-1" stroke="none" stroke-width="1" fill="none" fill-rule="evenodd">
        <g id="Bootcamp" transform="translate(-238.000000, -2680.000000)" fill-rule="nonzero">
            <g id="document-(1)" transform="translate(238.000000, 2680.000000)">
                <path d="M83.9568035,113 L80.0518359,109.103448 L80.1099222,3.89655172 L110.855685,9.32006466 C112.177519,9.5531817 113.062585,10.8076871 112.836724,12.1280172 L95.9596976,110.973793 C95.759827,112.144062 94.7434555,113 93.5537495,113 L83.9568035,113 Z" id="Path" fill="#FAC0C0"></path>
                <polygon id="Path" fill="#FBB3B3" points="80.1099222 3.89655172 80.0518359 109.103448 83.9568035 113 87.8617711 113 87.8617711 5.26399784"></polygon>
                <g id="Group">
                    <rect id="Rectangle" fill="#FC8F8F" x="0" y="0" width="83.9568035" height="113" rx="10"></rect>
                    <rect id="Rectangle" fill="#FCFEFF" x="9.76241901" y="56.5" width="19.524838" height="19.4827586" rx="9.74137931"></rect>
                    <rect id="Rectangle" fill="#FCFEFF" x="9.76241901" y="85.7241379" width="19.524838" height="19.4827586" rx="9.74137931"></rect>
                    <g transform="translate(14.155508, 55.038793)" id="Path">
                        <path d="M7.32181425,17.0474138 C6.80397613,17.0474138 6.30734043,16.8421808 5.94116415,16.4768125 L0.083712743,10.6319849 L2.84501296,7.87663578 L7.21149892,12.2337112 L17.5542937,0.193122845 L20.5191404,2.72929095 L8.80423758,16.367222 C8.45027122,16.7791828 7.94015971,17.0251715 7.39674082,17.0459526 C7.37184665,17.0474138 7.3462203,17.0474138 7.32181425,17.0474138 L7.32181425,17.0474138 Z" fill="#696969"></path>
                        <path d="M7.32181425,46.2715517 C6.80397613,46.2715517 6.30734043,46.0663187 5.94116415,45.7009504 L0.083712743,39.8561228 L2.84501296,37.1007737 L7.21149892,41.4578491 L17.5542937,29.4172608 L20.5191404,31.9534289 L8.80423758,45.5913599 C8.45027122,46.0033208 7.94015971,46.2493095 7.39674082,46.2700905 C7.37184665,46.2715517 7.3462203,46.2715517 7.32181425,46.2715517 L7.32181425,46.2715517 Z" fill="#696969"></path>
                        <g transform="translate(24.894168, 28.737069)" fill="#FCFEFF">
                            <polygon points="0 0 29.287257 0 29.287257 3.89655172 0 3.89655172"></polygon>
                            <polygon points="0 9.74137931 9.76241901 9.74137931 9.76241901 13.637931 0 13.637931"></polygon>
                        </g>
                    </g>
                    <g transform="translate(7.809935, 5.844828)" fill="#FCFEFF">
                        <polygon id="Path" points="44.9071274 87.6724138 60.5269978 87.6724138 60.5269978 91.5689655 44.9071274 91.5689655"></polygon>
                        <polygon id="Path" points="31.2397408 48.7068966 60.5269978 48.7068966 60.5269978 52.6034483 31.2397408 52.6034483"></polygon>
                        <polygon id="Path" points="31.2397408 58.4482759 41.0021598 58.4482759 41.0021598 62.3448276 31.2397408 62.3448276"></polygon>
                        <polygon id="Path" points="44.9071274 58.4482759 60.5269978 58.4482759 60.5269978 62.3448276 44.9071274 62.3448276"></polygon>
                        <path d="M35.1203024,1.94827586 L17.5723542,9.75623491 L19.0350086,19.022722 C20.4282366,26.5644381 24.6676206,33.2855378 30.8795076,37.8009353 L35.1361663,40.9291358 L39.1914752,37.9874828 C45.4859923,33.4742558 49.78594,26.7054638 51.1904644,19.0991918 L52.6682505,9.75623491 L35.1203024,1.94827586 Z M34.5260151,26.7198728 C33.7635425,27.4806069 32.5274315,27.4806069 31.764959,26.7198728 L25.9075076,20.8750453 L28.6688078,18.1189655 L33.1458531,22.5861185 L43.4801058,12.2741379 L46.241162,15.0292435 L34.5260151,26.7198728 Z" id="Shape"></path>
                        <polygon id="Path" points="0 0 11.7149028 0 11.7149028 3.89655172 0 3.89655172"></polygon>
                        <polygon id="Path" points="0 7.79310345 7.80993521 7.79310345 7.80993521 11.6896552 0 11.6896552"></polygon>
                        <polygon id="Path" points="58.574514 0 62.4794816 0 62.4794816 3.89655172 58.574514 3.89655172"></polygon>
                        <polygon id="Path" points="66.3844492 0 70.2894168 0 70.2894168 3.89655172 66.3844492 3.89655172"></polygon>
                    </g>
                </g>
            </g>
        </g>
    </g>
</svg>