<?xml version="1.0" encoding="UTF-8"?>
<svg width="100px" height="100px" viewBox="0 0 100 100" version="1.1" xmlns="http://www.w3.org/2000/svg" xmlns:xlink="http://www.w3.org/1999/xlink">
    <title>img_jc_golang</title>
    <defs>
        <linearGradient x1="50%" y1="0%" x2="50%" y2="100%" id="linearGradient-1">
            <stop stop-color="#FFF7F7" offset="0%"></stop>
            <stop stop-color="#FFE9E9" offset="59.0444712%"></stop>
            <stop stop-color="#FFD1D1" offset="100%"></stop>
        </linearGradient>
        <filter id="filter-2">
            <feColorMatrix in="SourceGraphic" type="matrix" values="0 0 0 0 0.909804 0 0 0 0 0.000000 0 0 0 0 0.000000 0 0 0 1.000000 0"></feColorMatrix>
        </filter>
    </defs>
    <g id="Page-1" stroke="none" stroke-width="1" fill="none" fill-rule="evenodd">
        <g id="Home" transform="translate(-1142.000000, -1089.000000)">
            <g id="Group" transform="translate(103.000000, 1058.000000)">
                <g id="img_jc_golang" transform="translate(1039.000000, 31.000000)">
                    <circle id="Oval-Copy-6" fill="url(#linearGradient-1)" cx="50" cy="50" r="50"></circle>
                    <g id="11-Programming" transform="translate(21.000000, 23.000000)" filter="url(#filter-2)">
                        <g id="11-Programming">
                            <g stroke="#000000" stroke-linejoin="round" stroke-width="2">
                                <rect id="Rectangle" x="0" y="0" width="55" height="55" rx="4"></rect>
                                <line x1="3.58695652" y1="9.56521739" x2="21.5217391" y2="9.56521739" id="Path"></line>
                                <line x1="4.7826087" y1="4.7826087" x2="7.17391304" y2="4.7826087" id="Path"></line>
                                <line x1="9.56521739" y1="4.7826087" x2="11.9565217" y2="4.7826087" id="Path"></line>
                                <line x1="47.826087" y1="4.7826087" x2="50.2173913" y2="4.7826087" id="Path"></line>
                                <rect id="Rectangle" x="4.7826087" y="19.1304348" width="45.4347826" height="28.6956522" rx="1"></rect>
                                <polyline id="Path" points="17.9347826 19.1304348 27.5 9.56521739 37.0281522 19.0933696"></polyline>
                                <line x1="50.2173913" y1="9.56521739" x2="33.4782609" y2="9.56521739" id="Path"></line>
                            </g>
                            <path d="M20.1229195,39.6754522 C21.1445949,39.6754522 22.1472964,39.5236604 23.1310239,39.2200769 C24.1147514,38.9164933 24.9452276,38.5457711 25.6224524,38.1079102 L25.6224524,38.1079102 L26.7784052,32.59962 L21.0336702,32.59962 L20.5870521,34.7451384 L23.8622516,34.7451384 L23.4681768,36.654212 C23.036154,36.8760615 22.5223972,37.0672607 21.9269064,37.2278097 C21.3314156,37.3883587 20.7505201,37.4686332 20.18422,37.4686332 C19.2384405,37.4686332 18.5203486,37.2102953 18.0299444,36.6936194 C17.5395402,36.1769436 17.2943381,35.3785772 17.2943381,34.2985203 C17.2943381,33.200949 17.4957541,32.1880307 17.8985861,31.2597656 C18.3014181,30.3315005 18.858961,29.6455184 19.5712148,29.2018194 C20.2834685,28.7581203 21.06578,28.5362708 21.9181492,28.5362708 C22.6479174,28.5362708 23.253625,28.7201724 23.735272,29.0879755 C24.2169189,29.4557787 24.5657481,30.0016453 24.7817595,30.7255753 L24.7817595,30.7255753 L27.2425378,30.4453443 C26.9506305,29.1259235 26.3565992,28.1217625 25.4604439,27.4328613 C24.5642886,26.7439602 23.3747665,26.3995096 21.8918775,26.3995096 C20.4089886,26.3995096 19.1187585,26.778989 18.0211872,27.5379479 C16.9236158,28.2969068 16.0770847,29.3652874 15.4815939,30.7430898 C14.9853516,31.8873663 14.7372304,33.0841861 14.7372304,34.3335492 C14.7372304,36.1959175 15.3152068,37.6175059 16.4711596,38.5983144 C17.3176906,39.3164062 18.534944,39.6754522 20.1229195,39.6754522 Z M33.915538,39.6842094 C35.2933403,39.6842094 36.528108,39.3426779 37.6198412,38.6596149 C38.7115744,37.9765519 39.5756199,37.0015816 40.2119778,35.7347041 C40.8483356,34.4678265 41.1665145,33.1571629 41.1665145,31.8027131 C41.1665145,30.1738706 40.6775698,28.866126 39.6996805,27.8794794 C38.7217911,26.8928329 37.4388587,26.3995096 35.8508832,26.3995096 C34.6657396,26.3995096 33.6090353,26.6403331 32.6807702,27.1219801 C31.7525051,27.6036271 30.9833294,28.2589589 30.3732432,29.0879755 C29.7631571,29.9169922 29.3092413,30.8948815 29.0114958,32.0216436 C28.7838082,32.8623365 28.6699643,33.6621624 28.6699643,34.4211213 C28.6699643,35.2384617 28.8392706,36.0485044 29.177883,36.8512494 C29.5164954,37.6539944 30.0915527,38.3268406 30.9030549,38.8697881 C31.7145572,39.4127356 32.7187182,39.6842094 33.915538,39.6842094 Z M34.2045262,37.4773905 C33.3288043,37.4773905 32.6223888,37.179645 32.0852794,36.5841542 C31.54817,35.9886634 31.2796153,35.250138 31.2796153,34.368578 C31.2796153,32.9323943 31.6839069,31.6129734 32.49249,30.4103155 C33.3010732,29.2076575 34.3504798,28.6063285 35.6407099,28.6063285 C36.4814029,28.6063285 37.1732231,28.8938572 37.7161706,29.4689145 C38.2591181,30.0439718 38.5305919,30.8365001 38.5305919,31.8464992 C38.5305919,32.7514118 38.31604,33.6811364 37.8869364,34.6356732 C37.4578327,35.59021 36.9148851,36.3024637 36.2580938,36.7724344 C35.6013024,37.2424051 34.9167799,37.4773905 34.2045262,37.4773905 Z" id="GO" fill="#000000" fill-rule="nonzero"></path>
                        </g>
                    </g>
                </g>
            </g>
        </g>
    </g>
</svg>