<?xml version="1.0" encoding="UTF-8"?>
<svg width="631px" height="434px" viewBox="0 0 631 434" version="1.1" xmlns="http://www.w3.org/2000/svg" xmlns:xlink="http://www.w3.org/1999/xlink">
    <title>Group</title>
    <defs>
        <path d="M147.432806,112.540293 C145.742903,119.267209 138.49479,122.668545 132.395616,119.663989 L132.395616,119.663989 C114.005929,110.604796 92.2490119,107.604738 69.5720446,113.195476 L69.5720446,113.195476 C36.5874955,121.327229 10.677686,147.917467 2.75422206,181.789574 L2.75422206,181.789574 C-11.8986705,244.428724 33.93083,300.281576 92.4633489,300.281576 L92.4633489,300.281576 L434.386992,300.281576 C470.395796,300.281576 499.850701,270.462389 499.886992,233.861584 L499.886992,233.861584 L499.886992,233.734362 C499.886992,232.805122 499.866331,231.870123 499.827165,230.932605 L499.827165,230.932605 C498.447539,197.901745 473.587855,171.121664 441.954905,167.740662 L441.954905,167.740662 C438.020302,167.079541 435.383759,164.447113 435.098096,158.246899 L435.098096,158.246899 C435.135465,155.361647 435.178764,152.355292 435.178764,150.154374 L435.178764,150.154374 C435.178764,67.2416249 369.727991,0.0271718231 288.990478,0.0271718231 L288.990478,0.0271718231 C220.901725,0.0271718231 163.689005,47.8319459 147.432806,112.540293" id="path-1"></path>
        <path d="M3.88027641,3.75679449 C1.41776569,6.22195987 0.0701881975,9.59256374 0.152403529,13.0821619 L0.152403529,13.0821619 L3.89463717,172.039985 C3.89463717,174.820846 6.16220062,177.096161 8.93364712,177.096161 L8.93364712,177.096161 L281.427207,177.096161 C284.198654,177.096161 286.466217,174.820846 286.466217,172.039985 L286.466217,172.039985 L288.73378,14.7605225 C288.73378,11.9796616 285.471555,6.55063656 279.493352,6.9586428 L279.493352,6.9586428 L13.1822769,0.0376815303 C13.0725967,0.0333544647 12.9629164,0.0333544647 12.8534156,0.0333544647 L12.8534156,0.0333544647 C9.49371663,0.0333544647 6.26505954,1.36933599 3.88027641,3.75679449" id="path-3"></path>
        <path d="M1.11536741,0.005260984 C0.556245451,0.005260984 0.0988800898,0.466776271 0.0988800898,1.03097145 L0.0988800898,1.03097145 L0.0988800898,12.8845127 C0.0988800898,13.448345 0.556245451,13.9102231 1.11536741,13.9102231 L1.11536741,13.9102231 L320.829036,13.9102231 C321.388158,13.9102231 321.845703,13.448345 321.845703,12.8845127 L321.845703,12.8845127 L321.845703,1.03097145 C321.845703,0.466776271 321.388338,0.005260984 320.829036,0.005260984 L320.829036,0.005260984 L1.11536741,0.005260984 Z" id="path-5"></path>
        <path d="M96.7166656,1.0775641 C70.2175216,28.2744546 29.6718962,38.7744982 7.94022009,36.8141951 L7.94022009,36.8141951 C5.90826695,36.6308832 3.89568281,37.325993 2.40713814,38.7243079 L2.40713814,38.7243079 C0.918593471,40.1229825 0.0973831032,42.0922803 0.142294473,44.1376733 L0.142294473,44.1376733 C1.53069021,104.491517 -2.7573945,185.946009 97.4901708,248.580547 L97.4901708,248.580547 C99.5558404,249.870745 102.144294,250.022576 104.343036,248.977932 L104.343036,248.977932 C124.45722,239.421072 221.438595,185.280222 206.016376,35.8708318 L206.016376,35.8708318 C205.654104,32.3650606 202.807934,29.6357113 199.299991,29.4421455 L199.299991,29.4421455 C182.341701,28.5065176 133.490534,23.9312776 104.01986,1.83743568 L104.01986,1.83743568 C102.709224,0.855215317 100.918307,0.0712379298 99.3085268,0.0712379298 L99.3085268,0.0712379298 C98.3273427,0.0712379298 97.4134121,0.362486088 96.7166656,1.0775641" id="path-7"></path>
        <linearGradient x1="122.382251%" y1="-45.2816822%" x2="94.6275991%" y2="-12.5262807%" id="linearGradient-9">
            <stop stop-color="#FF918E" offset="0%"></stop>
            <stop stop-color="#FD7062" offset="100%"></stop>
        </linearGradient>
        <path d="M2.92135632,18.0656338 C2.39859105,19.4591406 -1.07849291,29.7467291 0.371672926,29.5139651 L0.371672926,29.5139651 C19.6853019,26.4150911 33.9836627,13.3942454 33.9836627,13.3942454 L33.9836627,13.3942454 C33.2274883,0.507338584 27.0615663,0.175930469 27.0615663,0.175930469 L27.0615663,0.175930469 C13.2410707,7.16482264 5.40850032,11.4351185 2.92135632,18.0656338" id="path-10"></path>
        <path d="M0.283614945,11.9803201 C-0.291825321,15.488482 0.543312708,18.9681443 6.20543789,18.2010175 L6.20543789,18.2010175 C12.0290933,17.4122892 19.0536054,13.7727029 23.6030462,11.0852178 L23.6030462,11.0852178 C28.5526535,6.79195819 31.2622561,2.72742067 31.2622561,2.72742067 L31.2622561,2.72742067 L27.013208,0.0840463075 C14.4490124,1.65024834 5.74565683,7.11271375 0.283614945,11.9803201" id="path-12"></path>
        <path d="M14.3711525,45.8720258 L2.79771759,44.5284 L0.0667368647,48.8189385 L27.2147523,49.6711457 C27.2147523,49.6711457 50.4206031,40.6144677 62.715698,15.9361844 L62.715698,15.9361844 C63.1218911,15.1205893 69.8924362,1.3459363 53.5483976,0.107525612 L53.5483976,0.107525612 C53.5483976,0.107525612 46.9077189,32.8996383 14.3711525,45.8720258" id="path-14"></path>
        <linearGradient x1="27.880069%" y1="32.9551305%" x2="73.0168316%" y2="73.6728683%" id="linearGradient-16">
            <stop stop-color="#FDBABA" offset="0%"></stop>
            <stop stop-color="#FF918E" offset="100%"></stop>
        </linearGradient>
        <path d="M19.2609097,4.45428028 C18.117672,4.73962252 2.85352124,25.2726063 0.329431782,30.5018482 L0.329431782,30.5018482 C-0.232592826,31.6661737 0.187221982,33.0613197 1.29889733,33.7207813 L1.29889733,33.7207813 C4.73201765,35.7574541 10.2245798,40.4784245 10.2245798,40.4784245 L10.2245798,40.4784245 C8.61095584,60.3105174 1.1034261,80.7208273 1.1034261,80.7208273 L1.1034261,80.7208273 C10.6732669,90.5089092 21.1880049,93.7497227 32.4347737,91.9185823 L32.4347737,91.9185823 C67.3864635,58.3211923 76.6193407,25.8788017 68.9152637,15.3397909 L68.9152637,15.3397909 C60.1468549,3.34465586 49.5824421,0.101152121 40.3418538,0.101152121 L40.3418538,0.101152121 C30.6649521,0.101152121 22.4400968,3.66066656 19.2609097,4.45428028" id="path-17"></path>
        <linearGradient x1="114.334332%" y1="-45.7157359%" x2="41.5123124%" y2="52.4036117%" id="linearGradient-19">
            <stop stop-color="#FF918E" offset="0%"></stop>
            <stop stop-color="#FD7062" offset="100%"></stop>
        </linearGradient>
        <path d="M24.505784,28.4886372 C24.505784,28.4886372 17.5521807,22.1907025 12.3812604,24.4391432 L12.3812604,24.4391432 C7.21052096,26.6875839 0.120678932,36.6129695 0.120678932,36.6129695 L0.120678932,36.6129695 L34.6681442,36.6129695 C34.6681442,36.6129695 67.33414,35.4694264 83.6572773,15.7903126 L83.6572773,15.7903126 C82.3437405,8.9040697 78.4103672,4.79094563 72.4567526,0.114138609 L72.4567526,0.114138609 C72.4567526,0.114138609 51.4117581,24.8698142 24.505784,28.4886372" id="path-20"></path>
        <linearGradient x1="53.9462052%" y1="55.5467029%" x2="-15.8010338%" y2="14.1290227%" id="linearGradient-22">
            <stop stop-color="#FDBABA" offset="0%"></stop>
            <stop stop-color="#FF918E" offset="100%"></stop>
        </linearGradient>
        <path d="M0.00159976731,3.32488307 L1.07415487,16.5824621 C1.15147696,17.5394978 1.76347683,18.3808931 2.65650249,18.713471 L2.65650249,18.713471 C10.4656777,21.6213318 16.1581831,18.6290267 18.3359996,17.1244477 L18.3359996,17.1244477 C18.9316463,16.7131626 19.1877868,15.9580045 18.9803503,15.2607561 L18.9803503,15.2607561 L14.4563861,0.042311804 L0.00159976731,3.32488307 Z" id="path-23"></path>
        <linearGradient x1="55.256314%" y1="106.193841%" x2="45.1084536%" y2="9.98786645%" id="linearGradient-25">
            <stop stop-color="#FDBABA" offset="0%"></stop>
            <stop stop-color="#FF918E" offset="100%"></stop>
        </linearGradient>
        <path d="M0.0547569627,10.4331217 C0.0547569627,10.4331217 2.31605688,26.1276632 8.42444004,30.9542283 L8.42444004,30.9542283 C14.5326425,35.7806151 26.4336979,32.146422 30.4533649,20.3145596 L30.4533649,20.3145596 L22.4442104,0.0847235194 L0.0547569627,10.4331217 Z" id="path-26"></path>
        <linearGradient x1="39.906012%" y1="82.0212344%" x2="66.3756706%" y2="-11.3517821%" id="linearGradient-28">
            <stop stop-color="#FDBABA" offset="0%"></stop>
            <stop stop-color="#FF918E" offset="100%"></stop>
        </linearGradient>
        <path d="M24.6495383,4.21006682 C24.3426083,4.60489978 23.7450262,4.61256125 23.4230842,4.22948775 L23.4230842,4.22948775 C22.3288434,2.92739421 19.6730033,0.770244989 14.8221704,2.28489978 L14.8221704,2.28489978 C9.63854355,3.90342984 9.41770585,8.94610245 9.58175155,11.1381737 L9.58175155,11.1381737 C9.61973346,11.6459688 9.15255593,12.0445434 8.64468348,11.9506459 L8.64468348,11.9506459 C-4.70812946,9.47991091 0.409662066,22.8162138 5.46198001,25.4661915 L5.46198001,25.4661915 C10.6443408,28.1842316 19.446197,23.6197773 25.3062637,20.512784 L25.3062637,20.512784 C31.1665112,17.4054343 30.5830366,19.4622717 30.5830366,19.4622717 L30.5830366,19.4622717 C31.6984388,21.4130958 32.2491766,24.2772383 32.4701951,25.7243653 L32.4701951,25.7243653 C32.5425416,26.2004454 33.0292527,26.4940757 33.4942599,26.3463697 L33.4942599,26.3463697 L34.980257,25.8747439 C35.3712899,25.7503786 35.7937934,25.9419154 35.9527749,26.3150111 L35.9527749,26.3150111 L39.3767539,34.3517149 C39.6012089,34.8782183 40.3129177,35.0034744 40.697801,34.5765702 L40.697801,34.5765702 C45.1449405,29.646147 45.4616373,20.905657 45.474298,18.9017372 L45.474298,18.9017372 C45.4759257,18.6424944 45.6122989,18.4044543 45.8313279,18.2610245 L45.8313279,18.2610245 C47.1695574,17.3847661 51.6306235,14.0436526 48.5090528,10.1906459 L48.5090528,10.1906459 C46.2509376,7.40347439 43.8937078,7.74877506 42.4281485,8.41389755 L42.4281485,8.41389755 C41.8871775,8.65942094 41.2832651,8.26209354 41.3089481,7.67572383 L41.3089481,7.67572383 C41.3878058,5.86636971 40.6435412,2.96302895 35.8587244,0.885523385 L35.8587244,0.885523385 C34.5304426,0.308953229 33.2996478,0.0721603563 32.1737554,0.0721603563 L32.1737554,0.0721603563 C28.3750214,0.0721603563 25.7703665,2.76864143 24.6495383,4.21006682" id="path-29"></path>
        <path d="M0.13025329,6.21955774 L0.860926371,10.4013251 C4.18213764,9.26274795 7.83682373,3.28805889 4.93773879,0.573195123 L4.93773879,0.573195123 C4.53278147,0.194083727 4.14746946,0.0308971349 3.7836187,0.0310745599 L3.7836187,0.0310745599 C1.54306401,0.0317849836 0.13025329,6.21955774 0.13025329,6.21955774" id="path-31"></path>
        <linearGradient x1="24.8847697%" y1="205.812331%" x2="71.9247148%" y2="-89.4599306%" id="linearGradient-33">
            <stop stop-color="#FDBABA" offset="0%"></stop>
            <stop stop-color="#FF918E" offset="100%"></stop>
        </linearGradient>
        <path d="M0.212201507,4.06581299 L17.5508556,53.2094151 C18.1093092,54.7925444 19.5379155,55.9114979 21.215809,56.0801419 L21.215809,56.0801419 L41.8366215,58.358365 L44.3723662,56.7628169 L28.8624803,5.30301522 C28.2298557,3.20369505 26.3553186,1.71415683 24.1575044,1.56477105 L24.1575044,1.56477105 L3.21721364,0.13930674 C3.1464798,0.134447202 3.07610778,0.132107425 3.00664028,0.132107425 L3.00664028,0.132107425 C0.98593198,0.132107425 -0.470714681,2.12955729 0.212201507,4.06581299" id="path-34"></path>
        <path d="M45.7561115,0.0368427617 L1.93451561,2.18035813 C0.851425029,2.23309042 0.0176816387,3.12604722 0.0721699537,4.17440713 L0.0721699537,4.17440713 C0.125395295,5.19028953 0.993058563,5.97935323 2.03212547,5.97935323 L2.03212547,5.97935323 C2.0656845,5.97935323 2.09924353,5.97848018 2.13298298,5.97655947 L2.13298298,5.97655947 L45.9543984,3.83321871 C47.0378499,3.78048641 47.8714128,2.88770423 47.8169245,1.83916971 L47.8169245,1.83916971 C47.7644209,0.832541648 46.9083048,0.0326521158 45.8849349,0.0326521158 L45.8849349,0.0326521158 C45.8421742,0.0326521158 45.799233,0.0340489978 45.7561115,0.0368427617" id="path-36"></path>
        <path d="M3.65237784,0.347446225 C3.61620128,0.471926431 0.0294502618,12.8934035 0.0601730657,22.2792112 L0.0601730657,22.2792112 C0.0609002327,22.448907 0.197607621,22.5860182 0.366128563,22.5860182 L0.366128563,22.5860182 L0.367219314,22.5860182 C0.536285631,22.5854691 0.672993019,22.4470764 0.672265852,22.2766483 L0.672265852,22.2766483 C0.641906632,12.9818211 4.20375218,0.644185071 4.23974695,0.520620159 L4.23974695,0.520620159 C4.28737638,0.357514477 4.1944808,0.186171133 4.03214078,0.138392701 L4.03214078,0.138392701 C4.00341768,0.13015504 3.9745128,0.126127739 3.94615329,0.126127739 L3.94615329,0.126127739 C3.81344532,0.126127739 3.69146306,0.213446943 3.65237784,0.347446225" id="path-38"></path>
        <linearGradient x1="56.555763%" y1="-497.878203%" x2="45.1122515%" y2="452.850565%" id="linearGradient-40">
            <stop stop-color="#E1463D" offset="0%"></stop>
            <stop stop-color="#E86059" offset="100%"></stop>
        </linearGradient>
        <path d="M13.3267199,0.370496528 C10.0071645,8.76847897 0.309176082,21.0777676 0.211444842,21.2013887 L0.211444842,21.2013887 C0.105814274,21.335281 0.128777441,21.5295166 0.262514926,21.6349797 L0.262514926,21.6349797 C0.319279875,21.6795493 0.386883439,21.7013756 0.453935887,21.7013756 L0.453935887,21.7013756 C0.54560485,21.7013756 0.636171581,21.6608411 0.697161753,21.5836237 L0.697161753,21.5836237 C0.795260402,21.460186 10.5489115,9.07973274 13.9020851,0.59701297 L13.9020851,0.59701297 C13.9647286,0.438543168 13.8868375,0.259530984 13.7281161,0.19661994 L13.7281161,0.19661994 C13.6900891,0.181029739 13.6509599,0.173876588 13.6127492,0.173876588 L13.6127492,0.173876588 C13.4894829,0.173876588 13.3742996,0.249443207 13.3267199,0.370496528" id="path-41"></path>
        <linearGradient x1="74.5024256%" y1="-538.601207%" x2="33.1315061%" y2="455.228837%" id="linearGradient-43">
            <stop stop-color="#E1463D" offset="0%"></stop>
            <stop stop-color="#E86059" offset="100%"></stop>
        </linearGradient>
        <path d="M23.76064,0.17121279 C23.6782461,0.330811968 15.4074725,16.099985 2.04789748,21.8788126 L2.04789748,21.8788126 L0.615813811,19.8805675 C0.519865989,19.747011 0.332250545,19.7144577 0.197424237,19.810006 L0.197424237,19.810006 C0.0620629037,19.9043226 0.0296047184,20.0894366 0.125552541,20.2231691 L0.125552541,20.2231691 L1.83852435,22.6129336 L2.06162979,22.518793 C15.7538121,16.7339826 24.2114878,0.602676059 24.2953083,0.440789351 L24.2953083,0.440789351 C24.3707469,0.295091314 24.3120725,0.11631208 24.1644055,0.0422313151 L24.1644055,0.0422313151 C24.1203552,0.0200598747 24.0736296,0.00950204589 24.0277958,0.00950204589 L24.0277958,0.00950204589 C23.9184724,0.00950204589 23.8134291,0.0689778146 23.76064,0.17121279" id="path-44"></path>
        <linearGradient x1="87.0176024%" y1="-478.453826%" x2="31.3305732%" y2="309.981634%" id="linearGradient-46">
            <stop stop-color="#E1463D" offset="0%"></stop>
            <stop stop-color="#E86059" offset="100%"></stop>
        </linearGradient>
    </defs>
    <g id="Page-1" stroke="none" stroke-width="1" fill="none" fill-rule="evenodd">
        <g id="Register-Page" transform="translate(-160.000000, -497.000000)">
            <g id="Group" transform="translate(160.820312, 497.500000)">
                <path d="M324.811,432.5 C496.787461,432.5 629.179688,393.887913 629.179688,236.948463 C629.179688,80.0090124 541.290933,-4.27328501 346.933957,0.708919765 C152.576981,5.69112454 0.1796875,175.383756 0.1796875,298.976263 C0.1796875,422.568771 152.834539,432.5 324.811,432.5 Z" id="Oval" fill="#FFEDED"></path>
                <g id="Group-102" transform="translate(63.179688, 39.500000)">
                    <g id="Group-6" transform="translate(0.000000, 34.048998)">
                        <mask id="mask-2" fill="white">
                            <use xlink:href="#path-1"></use>
                        </mask>
                        <g id="Clip-5"></g>
                        <path d="M147.432806,112.540293 C145.742903,119.267209 138.49479,122.668545 132.395616,119.663989 L132.395616,119.663989 C114.005929,110.604796 92.2490119,107.604738 69.5720446,113.195476 L69.5720446,113.195476 C36.5874955,121.327229 10.677686,147.917467 2.75422206,181.789574 L2.75422206,181.789574 C-11.8986705,244.428724 33.93083,300.281576 92.4633489,300.281576 L92.4633489,300.281576 L434.386992,300.281576 C470.395796,300.281576 499.850701,270.462389 499.886992,233.861584 L499.886992,233.861584 L499.886992,233.734362 C499.886992,232.805122 499.866331,231.870123 499.827165,230.932605 L499.827165,230.932605 C498.447539,197.901745 473.587855,171.121664 441.954905,167.740662 L441.954905,167.740662 C438.020302,167.079541 435.383759,164.447113 435.098096,158.246899 L435.098096,158.246899 C435.135465,155.361647 435.178764,152.355292 435.178764,150.154374 L435.178764,150.154374 C435.178764,67.2416249 369.727991,0.0271718231 288.990478,0.0271718231 L288.990478,0.0271718231 C220.901725,0.0271718231 163.689005,47.8319459 147.432806,112.540293" id="Fill-4" fill="#FFD3D3" mask="url(#mask-2)"></path>
                    </g>
                    <path d="M29.5120502,227.731815 C36.5935503,197.495348 59.7504529,173.759212 89.2301169,166.500402 C109.497734,161.509475 128.942771,164.187722 145.37839,172.274455 C150.829654,174.95648 157.307616,171.920222 158.8179,165.91553 C173.346871,108.152327 224.480348,65.4788419 285.334274,65.4788419 C357.493028,65.4788419 415.989272,125.478625 415.989272,199.492115 C415.989272,201.456858 415.950786,204.140502 415.917157,206.716203 C416.172707,212.250803 418.528771,214.600903 422.045693,215.190992 C450.317022,218.2089 472.535527,242.114687 473.7685,271.60041 C475.184009,305.456027 448.319376,333.505568 415.281607,333.505568 L109.689083,333.505568 C57.3760453,333.505568 16.4162117,283.647753 29.5120502,227.731815" id="Fill-7" fill="#FAC0C0"></path>
                    <g id="Group-11" transform="translate(65.445026, 202.547884)">
                        <mask id="mask-4" fill="white">
                            <use xlink:href="#path-3"></use>
                        </mask>
                        <g id="Clip-10"></g>
                        <path d="M3.88027641,3.75679449 C1.41776569,6.22195987 0.0701881975,9.59256374 0.152403529,13.0821619 L0.152403529,13.0821619 L3.89463717,172.039985 C3.89463717,174.820846 6.16220062,177.096161 8.93364712,177.096161 L8.93364712,177.096161 L281.427207,177.096161 C284.198654,177.096161 286.466217,174.820846 286.466217,172.039985 L286.466217,172.039985 L288.73378,14.7605225 C288.73378,11.9796616 285.471555,6.55063656 279.493352,6.9586428 L279.493352,6.9586428 L13.1822769,0.0376815303 C13.0725967,0.0333544647 12.9629164,0.0333544647 12.8534156,0.0333544647 L12.8534156,0.0333544647 C9.49371663,0.0333544647 6.26505954,1.36933599 3.88027641,3.75679449" id="Fill-9" fill="#7B7B7B" mask="url(#mask-4)"></path>
                    </g>
                    <g id="Group-18" transform="translate(69.808028, 208.659243)">
                        <path d="M3.85280319,160.225161 C3.85280319,162.841797 6.00341672,164.983301 8.63180442,164.983301 L270.49577,164.983301 C273.124338,164.983301 275.274952,162.841797 275.274952,160.225161 L277.419807,18.3436011 C277.167153,9.80553549 269.648554,6.73687703 265.090894,6.9181873 L9.22618786,0.0837574632 C6.77703296,0.0185430961 4.40921663,0.957880806 2.67465351,2.6803284 C0.940090384,4.40295516 -0.013838355,6.76034703 0.047525482,9.19871938 L3.85280319,160.225161 Z" id="Fill-12" fill="#CACACA"></path>
                        <path d="M272.445233,92.8215078 L272.438215,92.8215078 C272.047718,92.8159538 271.738739,92.4991983 271.744677,92.1136452 L271.914373,80.607251 C271.919771,80.2258186 272.232349,79.9203502 272.614028,79.9203502 L272.621047,79.9203502 C273.011364,79.9259041 273.320342,80.2426596 273.314584,80.6280336 L273.145069,92.1344278 C273.13931,92.5158602 272.826912,92.8215078 272.445233,92.8215078" id="Fill-14" fill="#FFFFFF"></path>
                        <path d="M272.861193,64.6249295 L272.850576,64.6249295 C272.463678,64.6193756 272.154699,64.3019034 272.160638,63.9172461 L272.810447,19.8475626 C272.79821,17.2298508 272.0003,15.1397661 270.438132,13.6496895 C267.52236,10.8684043 262.892899,11.0102993 262.69783,11.0194364 L180.917831,8.83600926 C180.531293,8.8263346 180.226273,8.50545841 180.23645,8.12062198 C180.246788,7.73578555 180.543889,7.40792211 180.955621,7.44267922 L262.687033,9.6261064 C263.195579,9.59618662 268.124661,9.51126461 271.407176,12.64245 C273.25385,14.4041337 274.197162,16.8310398 274.211198,19.8543707 L273.561029,63.9380287 C273.555271,64.3194611 273.242873,64.6249295 272.861193,64.6249295" id="Fill-16" fill="#FFFFFF"></path>
                    </g>
                    <g id="Group-21" transform="translate(47.120419, 378.031180)">
                        <mask id="mask-6" fill="white">
                            <use xlink:href="#path-5"></use>
                        </mask>
                        <g id="Clip-20"></g>
                        <path d="M1.11536741,0.005260984 C0.556245451,0.005260984 0.0988800898,0.466776271 0.0988800898,1.03097145 L0.0988800898,1.03097145 L0.0988800898,12.8845127 C0.0988800898,13.448345 0.556245451,13.9102231 1.11536741,13.9102231 L1.11536741,13.9102231 L320.829036,13.9102231 C321.388158,13.9102231 321.845703,13.448345 321.845703,12.8845127 L321.845703,12.8845127 L321.845703,1.03097145 C321.845703,0.466776271 321.388338,0.005260984 320.829036,0.005260984 L320.829036,0.005260984 L1.11536741,0.005260984 Z" id="Fill-19" fill="#5E5E5E" mask="url(#mask-6)"></path>
                    </g>
                    <g id="Group-38" transform="translate(79.406632, 222.628062)">
                        <path d="M107.267484,144.789353 L6.72124935,144.789353 C3.01403079,144.789353 0.00866776342,141.781993 0.00866776342,138.07209 L0.00866776342,6.73312013 C0.00866776342,2.92246898 3.1726706,-0.125118085 6.97787258,0.020526765 L107.524108,3.87104617 C111.128856,4.00914837 113.980066,6.97358678 113.980066,10.5834599 L113.980066,138.07209 C113.980066,141.781993 110.974703,144.789353 107.267484,144.789353" id="Fill-22" fill="#ACACAC"></path>
                        <path d="M87.2685496,60.4007692 L20.6680037,60.4007692 C20.1395034,60.4007692 19.7109606,59.971916 19.7109606,59.4430331 L19.7109606,52.5009278 C19.7109606,51.9718653 20.1395034,51.5431917 20.6680037,51.5431917 L87.2685496,51.5431917 C87.7972293,51.5431917 88.2255927,51.9718653 88.2255927,52.5009278 L88.2255927,59.4430331 C88.2255927,59.971916 87.7972293,60.4007692 87.2685496,60.4007692" id="Fill-24" fill="#FFFFFF"></path>
                        <path d="M87.4032319,74.5456857 L20.802686,74.5456857 C20.2741858,74.5456857 19.8456429,74.1168325 19.8456429,73.5879496 L19.8456429,66.6458444 C19.8456429,66.1167818 20.2741858,65.6881082 20.802686,65.6881082 L87.4032319,65.6881082 C87.9319116,65.6881082 88.360275,66.1167818 88.360275,66.6458444 L88.360275,73.5879496 C88.360275,74.1168325 87.9319116,74.5456857 87.4032319,74.5456857" id="Fill-26" fill="#FFFFFF"></path>
                        <path d="M87.8047306,88.9869922 L21.2041847,88.9869922 C20.6756845,88.9869922 20.2469622,88.558139 20.2469622,88.0290765 L20.2469622,81.0871508 C20.2469622,80.5580883 20.6756845,80.1294147 21.2041847,80.1294147 L87.8047306,80.1294147 C88.3332309,80.1294147 88.7617737,80.5580883 88.7617737,81.0871508 L88.7617737,88.0290765 C88.7617737,88.558139 88.3332309,88.9869922 87.8047306,88.9869922" id="Fill-28" fill="#FFFFFF"></path>
                        <path d="M87.9394129,103.131891 L21.3388671,103.131891 C20.8103668,103.131891 20.381824,102.703038 20.381824,102.174155 L20.381824,95.2320494 C20.381824,94.7029869 20.8103668,94.2743133 21.3388671,94.2743133 L87.9394129,94.2743133 C88.4679132,94.2743133 88.896456,94.7029869 88.896456,95.2320494 L88.896456,102.174155 C88.896456,102.703038 88.4679132,103.131891 87.9394129,103.131891" id="Fill-30" fill="#FFFFFF"></path>
                        <path d="M233.33009,60.390425 L136.740339,60.390425 C136.211659,60.390425 135.783116,59.9615718 135.783116,59.4326889 L135.783116,52.4905836 C135.783116,51.9615211 136.211659,51.5328475 136.740339,51.5328475 L233.33009,51.5328475 C233.85859,51.5328475 234.287133,51.9615211 234.287133,52.4905836 L234.287133,59.4326889 C234.287133,59.9615718 233.85859,60.390425 233.33009,60.390425" id="Fill-32" fill="#FFFFFF"></path>
                        <path d="M233.634502,74.5456857 L137.044751,74.5456857 C136.516251,74.5456857 136.087708,74.1168325 136.087708,73.5879496 L136.087708,66.6458444 C136.087708,66.1167818 136.516251,65.6881082 137.044751,65.6881082 L233.634502,65.6881082 C234.163182,65.6881082 234.591725,66.1167818 234.591725,66.6458444 L234.591725,73.5879496 C234.591725,74.1168325 234.163182,74.5456857 233.634502,74.5456857" id="Fill-34" fill="#FFFFFF"></path>
                        <path d="M193.499276,88.9869922 L137.044859,88.9869922 C136.516179,88.9869922 136.087816,88.558139 136.087816,88.0290765 L136.087816,81.0871508 C136.087816,80.5580883 136.516179,80.1294147 137.044859,80.1294147 L193.499276,80.1294147 C194.027956,80.1294147 194.456499,80.5580883 194.456499,81.0871508 L194.456499,88.0290765 C194.456499,88.558139 194.027956,88.9869922 193.499276,88.9869922" id="Fill-36" fill="#FFFFFF"></path>
                    </g>
                    <g id="Group-41" transform="translate(254.799302, 55.875278)">
                        <mask id="mask-8" fill="white">
                            <use xlink:href="#path-7"></use>
                        </mask>
                        <g id="Clip-40"></g>
                        <path d="M96.7166656,1.0775641 C70.2175216,28.2744546 29.6718962,38.7744982 7.94022009,36.8141951 L7.94022009,36.8141951 C5.90826695,36.6308832 3.89568281,37.325993 2.40713814,38.7243079 L2.40713814,38.7243079 C0.918593471,40.1229825 0.0973831032,42.0922803 0.142294473,44.1376733 L0.142294473,44.1376733 C1.53069021,104.491517 -2.7573945,185.946009 97.4901708,248.580547 L97.4901708,248.580547 C99.5558404,249.870745 102.144294,250.022576 104.343036,248.977932 L104.343036,248.977932 C124.45722,239.421072 221.438595,185.280222 206.016376,35.8708318 L206.016376,35.8708318 C205.654104,32.3650606 202.807934,29.6357113 199.299991,29.4421455 L199.299991,29.4421455 C182.341701,28.5065176 133.490534,23.9312776 104.01986,1.83743568 L104.01986,1.83743568 C102.709224,0.855215317 100.918307,0.0712379298 99.3085268,0.0712379298 L99.3085268,0.0712379298 C98.3273427,0.0712379298 97.4134121,0.362486088 96.7166656,1.0775641" id="Fill-39" fill="url(#linearGradient-9)" mask="url(#mask-8)"></path>
                    </g>
                    <path d="M356.923904,293.09017 L357.147584,293.524121 L356.923904,293.09017 C366.912115,287.97457 392.470994,272.964888 414.032789,244.149111 C442.918253,205.543616 454.983645,156.629276 449.894075,98.764249 C449.833251,98.0767417 449.289618,97.5407584 448.601123,97.489832 C426.514049,95.8677162 385.119973,90.2765632 356.047,71.0530745 C355.513983,70.7007135 354.809833,70.751102 354.334041,71.176625 C327.850931,94.8239028 291.731054,105.40854 267.682869,105.40854 L267.682329,105.40854 C267.276358,105.40854 266.916455,105.558271 266.648687,105.830297 C266.384878,106.097482 266.243256,106.451995 266.250193,106.827847 L266.319376,110.662933 C266.8245,139.351035 267.397825,171.865616 279.077941,203.728912 C292.142784,239.368299 317.148132,268.576245 355.524061,293.021491 C355.944247,293.289213 356.481043,293.31647 356.923904,293.09017 M356.286155,294.218263 C355.836636,294.218263 355.387297,294.09256 354.996263,293.843846 C316.433184,269.278995 291.299351,239.911455 278.158208,204.063341 C266.421588,172.046548 265.847543,139.444819 265.340079,110.681044 L265.270907,106.845958 C265.259281,106.206149 265.500776,105.602563 265.950295,105.146018 C266.403593,104.686424 267.011649,104.432868 267.661814,104.432868 L267.662714,104.432868 C291.544625,104.432868 327.390075,93.9247995 353.680997,70.4496675 C354.488079,69.7288068 355.682778,69.6420167 356.588294,70.2404027 C385.475557,89.3403409 426.681584,94.9020857 448.672924,96.5170287 C449.842969,96.603281 450.7663,97.5122468 450.869232,98.6788934 C455.980936,156.789766 443.851482,205.929151 414.817738,244.732076 C393.133216,273.71157 367.420118,288.811091 357.371263,293.958251 C357.031515,294.13219 356.658475,294.218263 356.286155,294.218263" id="Fill-42" fill="#FFFFFF"></path>
                    <g id="Group-46" transform="translate(36.649215, 135.322940)">
                        <mask id="mask-11" fill="white">
                            <use xlink:href="#path-10"></use>
                        </mask>
                        <g id="Clip-45"></g>
                        <path d="M2.92135632,18.0656338 C2.39859105,19.4591406 -1.07849291,29.7467291 0.371672926,29.5139651 L0.371672926,29.5139651 C19.6853019,26.4150911 33.9836627,13.3942454 33.9836627,13.3942454 L33.9836627,13.3942454 C33.2274883,0.507338584 27.0615663,0.175930469 27.0615663,0.175930469 L27.0615663,0.175930469 C13.2410707,7.16482264 5.40850032,11.4351185 2.92135632,18.0656338" id="Fill-44" fill="#616161" mask="url(#mask-11)"></path>
                    </g>
                    <path d="M133.200768,121.0459 L120.190714,121.0459 C120.190714,121.0459 80.2596624,76.9155261 54.0701358,72.4632517 C54.0701358,72.4632517 35.8394919,95.7503853 55.0410354,139.26163 C56.5857456,142.761769 60.9058034,144.316811 64.1282993,142.257267 C65.092073,141.641168 65.784173,140.815603 66.2045992,139.780572 L64.6606017,102.629082 C64.6606017,102.629082 98.721897,132.439979 104.642247,138.192906 C110.562596,143.945833 140.656921,140.439277 133.200768,121.0459" id="Fill-47" fill="#767676"></path>
                    <g id="Group-51" transform="translate(6.980803, 201.674833)">
                        <mask id="mask-13" fill="white">
                            <use xlink:href="#path-12"></use>
                        </mask>
                        <g id="Clip-50"></g>
                        <path d="M0.283614945,11.9803201 C-0.291825321,15.488482 0.543312708,18.9681443 6.20543789,18.2010175 L6.20543789,18.2010175 C12.0290933,17.4122892 19.0536054,13.7727029 23.6030462,11.0852178 L23.6030462,11.0852178 C28.5526535,6.79195819 31.2622561,2.72742067 31.2622561,2.72742067 L31.2622561,2.72742067 L27.013208,0.0840463075 C14.4490124,1.65024834 5.74565683,7.11271375 0.283614945,11.9803201" id="Fill-49" fill="#717070" mask="url(#mask-13)"></path>
                    </g>
                    <g id="Group-58" transform="translate(2.617801, 130.084633)">
                        <path d="M37.4875942,23.2363664 C40.879181,24.3288085 42.3708029,29.1099207 50.9765903,25.94805 C59.3024737,22.8892838 65.4920208,18.9442845 68.676378,16.6691839 C68.7474333,17.2858418 68.8071557,17.9297078 68.8483498,18.616355 C68.8483498,18.616355 53.6277628,33.0226999 34.1280272,36.0875521 C32.6642878,36.3175682 31.5040175,34.8635444 32.0318056,33.485417 C32.97873,31.0125205 34.6858563,27.2620951 37.4875942,23.2363664" id="Fill-52" fill="#565656"></path>
                        <path d="M0.815625012,87.6920598 C1.90088244,86.4648301 3.28601126,85.0551986 4.96291657,83.5931198 C4.38296134,87.0524898 5.22447207,90.4837568 10.9310229,89.7272993 C16.8005513,88.9493617 23.8803584,85.360574 28.4651348,82.7104667 C22.7186491,87.5873443 13.9752483,92.7635114 2.93972906,92.459568 C0.488590701,92.3920846 -0.804076276,89.5239543 0.815625012,87.6920598" id="Fill-54" fill="#565656"></path>
                        <path d="M131.489452,0.01721988 L69.9699444,0.680059959 C69.9699444,0.680059959 34.8375009,29.6037303 28.4651888,73.7077452 C28.4651888,73.7077452 27.4074541,76.9515982 33.7579999,77.5066798 C33.7579999,77.5066798 54.9985007,63.7021357 68.8483498,39.2957303 C85.830389,9.37019232 119.474089,22.8408999 119.474089,22.8408999 C135.637283,26.3904864 148.501892,25.0698182 157.91645,10.6534493 L131.489452,0.01721988 Z" id="Fill-56" fill="#767676"></path>
                    </g>
                    <g id="Group-61" transform="translate(78.534031, 81.193764)">
                        <mask id="mask-15" fill="white">
                            <use xlink:href="#path-14"></use>
                        </mask>
                        <g id="Clip-60"></g>
                        <path d="M14.3711525,45.8720258 L2.79771759,44.5284 L0.0667368647,48.8189385 L27.2147523,49.6711457 C27.2147523,49.6711457 50.4206031,40.6144677 62.715698,15.9361844 L62.715698,15.9361844 C63.1218911,15.1205893 69.8924362,1.3459363 53.5483976,0.107525612 L53.5483976,0.107525612 C53.5483976,0.107525612 46.9077189,32.8996383 14.3711525,45.8720258" id="Fill-59" fill="url(#linearGradient-16)" mask="url(#mask-15)"></path>
                    </g>
                    <g id="Group-64" transform="translate(127.399651, 48.017817)">
                        <mask id="mask-18" fill="white">
                            <use xlink:href="#path-17"></use>
                        </mask>
                        <g id="Clip-63"></g>
                        <path d="M19.2609097,4.45428028 C18.117672,4.73962252 2.85352124,25.2726063 0.329431782,30.5018482 L0.329431782,30.5018482 C-0.232592826,31.6661737 0.187221982,33.0613197 1.29889733,33.7207813 L1.29889733,33.7207813 C4.73201765,35.7574541 10.2245798,40.4784245 10.2245798,40.4784245 L10.2245798,40.4784245 C8.61095584,60.3105174 1.1034261,80.7208273 1.1034261,80.7208273 L1.1034261,80.7208273 C10.6732669,90.5089092 21.1880049,93.7497227 32.4347737,91.9185823 L32.4347737,91.9185823 C67.3864635,58.3211923 76.6193407,25.8788017 68.9152637,15.3397909 L68.9152637,15.3397909 C60.1468549,3.34465586 49.5824421,0.101152121 40.3418538,0.101152121 L40.3418538,0.101152121 C30.6649521,0.101152121 22.4400968,3.66066656 19.2609097,4.45428028" id="Fill-62" fill="url(#linearGradient-19)" mask="url(#mask-18)"></path>
                    </g>
                    <g id="Group-67" transform="translate(85.514834, 93.416481)">
                        <mask id="mask-21" fill="white">
                            <use xlink:href="#path-20"></use>
                        </mask>
                        <g id="Clip-66"></g>
                        <path d="M24.505784,28.4886372 C24.505784,28.4886372 17.5521807,22.1907025 12.3812604,24.4391432 L12.3812604,24.4391432 C7.21052096,26.6875839 0.120678932,36.6129695 0.120678932,36.6129695 L0.120678932,36.6129695 L34.6681442,36.6129695 C34.6681442,36.6129695 67.33414,35.4694264 83.6572773,15.7903126 L83.6572773,15.7903126 C82.3437405,8.9040697 78.4103672,4.79094563 72.4567526,0.114138609 L72.4567526,0.114138609 C72.4567526,0.114138609 51.4117581,24.8698142 24.505784,28.4886372" id="Fill-65" fill="url(#linearGradient-22)" mask="url(#mask-21)"></path>
                    </g>
                    <g id="Group-70" transform="translate(155.322862, 35.795100)">
                        <mask id="mask-24" fill="white">
                            <use xlink:href="#path-23"></use>
                        </mask>
                        <g id="Clip-69"></g>
                        <path d="M0.00159976731,3.32488307 L1.07415487,16.5824621 C1.15147696,17.5394978 1.76347683,18.3808931 2.65650249,18.713471 L2.65650249,18.713471 C10.4656777,21.6213318 16.1581831,18.6290267 18.3359996,17.1244477 L18.3359996,17.1244477 C18.9316463,16.7131626 19.1877868,15.9580045 18.9803503,15.2607561 L18.9803503,15.2607561 L14.4563861,0.042311804 L0.00159976731,3.32488307 Z" id="Fill-68" fill="url(#linearGradient-25)" mask="url(#mask-24)"></path>
                    </g>
                    <g id="Group-73" transform="translate(143.106457, 13.095768)">
                        <mask id="mask-27" fill="white">
                            <use xlink:href="#path-26"></use>
                        </mask>
                        <g id="Clip-72"></g>
                        <path d="M0.0547569627,10.4331217 C0.0547569627,10.4331217 2.31605688,26.1276632 8.42444004,30.9542283 L8.42444004,30.9542283 C14.5326425,35.7806151 26.4336979,32.146422 30.4533649,20.3145596 L30.4533649,20.3145596 L22.4442104,0.0847235194 L0.0547569627,10.4331217 Z" id="Fill-71" fill="url(#linearGradient-28)" mask="url(#mask-27)"></path>
                    </g>
                    <g id="Group-76" transform="translate(132.635253, 0.000000)">
                        <mask id="mask-30" fill="white">
                            <use xlink:href="#path-29"></use>
                        </mask>
                        <g id="Clip-75"></g>
                        <path d="M23.4230842,4.22948775 C22.3288434,2.92739421 19.6730033,0.770244989 14.8221704,2.28489978 C9.63854355,3.90342984 9.41770585,8.94610245 9.58175155,11.1381737 C9.61973346,11.6459688 9.15255593,12.0445434 8.64468348,11.9506459 C-4.70812946,9.47991091 0.409662066,22.8162138 5.46198001,25.4661915 C10.6443408,28.1842316 19.446197,23.6197773 25.3062637,20.512784 C31.1665112,17.4054343 30.5830366,19.4622717 30.5830366,19.4622717 C31.6984388,21.4130958 32.2491766,24.2772383 32.4701951,25.7243653 C32.5425416,26.2004454 33.0292527,26.4940757 33.4942599,26.3463697 L34.980257,25.8747439 C35.3712899,25.7503786 35.7937934,25.9419154 35.9527749,26.3150111 L39.3767539,34.3517149 C39.6012089,34.8782183 40.3129177,35.0034744 40.697801,34.5765702 C45.1449405,29.646147 45.4616373,20.905657 45.474298,18.9017372 C45.4759257,18.6424944 45.6122989,18.4044543 45.8313279,18.2610245 C47.1695574,17.3847661 51.6306235,14.0436526 48.5090528,10.1906459 C46.2509376,7.40347439 43.8937078,7.74877506 42.4281485,8.41389755 C41.8871775,8.65942094 41.2832651,8.26209354 41.3089481,7.67572383 C41.3878058,5.86636971 40.6435412,2.96302895 35.8587244,0.885523385 C34.5304426,0.308953229 33.2996478,0.0721603563 32.1737554,0.0721603563 C28.3750214,0.0721603563 25.7703665,2.76864143 24.6495383,4.21006682 C24.3426083,4.60489978 23.7450262,4.61256125 23.4230842,4.22948775 Z" id="Fill-74" fill="#4B4B4B" mask="url(#mask-30)"></path>
                    </g>
                    <g id="Group-79" transform="translate(165.794066, 21.826281)">
                        <mask id="mask-32" fill="white">
                            <use xlink:href="#path-31"></use>
                        </mask>
                        <g id="Clip-78"></g>
                        <path d="M0.13025329,6.21955774 L0.860926371,10.4013251 C4.18213764,9.26274795 7.83682373,3.28805889 4.93773879,0.573195123 L4.93773879,0.573195123 C4.53278147,0.194083727 4.14746946,0.0308971349 3.7836187,0.0310745599 L3.7836187,0.0310745599 C1.54306401,0.0317849836 0.13025329,6.21955774 0.13025329,6.21955774" id="Fill-77" fill="url(#linearGradient-33)" mask="url(#mask-32)"></path>
                    </g>
                    <g id="Group-82" transform="translate(42.757417, 75.082405)">
                        <mask id="mask-35" fill="white">
                            <use xlink:href="#path-34"></use>
                        </mask>
                        <g id="Clip-81"></g>
                        <path d="M0.212201507,4.06581299 L17.5508556,53.2094151 C18.1093092,54.7925444 19.5379155,55.9114979 21.215809,56.0801419 L21.215809,56.0801419 L41.8366215,58.358365 L44.3723662,56.7628169 L28.8624803,5.30301522 C28.2298557,3.20369505 26.3553186,1.71415683 24.1575044,1.56477105 L24.1575044,1.56477105 L3.21721364,0.13930674 C3.1464798,0.134447202 3.07610778,0.132107425 3.00664028,0.132107425 L3.00664028,0.132107425 C0.98593198,0.132107425 -0.470714681,2.12955729 0.212201507,4.06581299" id="Fill-80" fill="#ACACAC" mask="url(#mask-35)"></path>
                    </g>
                    <path d="M59.2308486,98.0751429 C60.3485328,100.397811 62.278856,101.758407 63.5419911,101.113971 C64.8053008,100.469714 64.9233377,98.0647169 63.8056535,95.742229 C62.6879693,93.4195614 60.7579953,92.0589645 59.4946856,92.703401 C58.2313759,93.3474779 58.113339,95.752655 59.2308486,98.0751429" id="Fill-83" fill="#747474"></path>
                    <g id="Group-87" transform="translate(82.897033, 128.338530)">
                        <mask id="mask-37" fill="white">
                            <use xlink:href="#path-36"></use>
                        </mask>
                        <g id="Clip-86"></g>
                        <path d="M45.7561115,0.0368427617 L1.93451561,2.18035813 C0.851425029,2.23309042 0.0176816387,3.12604722 0.0721699537,4.17440713 L0.0721699537,4.17440713 C0.125395295,5.19028953 0.993058563,5.97935323 2.03212547,5.97935323 L2.03212547,5.97935323 C2.0656845,5.97935323 2.09924353,5.97848018 2.13298298,5.97655947 L2.13298298,5.97655947 L45.9543984,3.83321871 C47.0378499,3.78048641 47.8714128,2.88770423 47.8169245,1.83916971 L47.8169245,1.83916971 C47.7644209,0.832541648 46.9083048,0.0326521158 45.8849349,0.0326521158 L45.8849349,0.0326521158 C45.8421742,0.0326521158 45.799233,0.0340489978 45.7561115,0.0368427617" id="Fill-85" fill="#909090" mask="url(#mask-37)"></path>
                    </g>
                    <g id="Group-90" transform="translate(137.870855, 67.224944)">
                        <mask id="mask-39" fill="white">
                            <use xlink:href="#path-38"></use>
                        </mask>
                        <g id="Clip-89"></g>
                        <path d="M3.65237784,0.347446225 C3.61620128,0.471926431 0.0294502618,12.8934035 0.0601730657,22.2792112 L0.0601730657,22.2792112 C0.0609002327,22.448907 0.197607621,22.5860182 0.366128563,22.5860182 L0.366128563,22.5860182 L0.367219314,22.5860182 C0.536285631,22.5854691 0.672993019,22.4470764 0.672265852,22.2766483 L0.672265852,22.2766483 C0.641906632,12.9818211 4.20375218,0.644185071 4.23974695,0.520620159 L4.23974695,0.520620159 C4.28737638,0.357514477 4.1944808,0.186171133 4.03214078,0.138392701 L4.03214078,0.138392701 C4.00341768,0.13015504 3.9745128,0.126127739 3.94615329,0.126127739 L3.94615329,0.126127739 C3.81344532,0.126127739 3.69146306,0.213446943 3.65237784,0.347446225" id="Fill-88" fill="url(#linearGradient-40)" mask="url(#mask-39)"></path>
                    </g>
                    <g id="Group-93" transform="translate(157.068063, 72.463252)">
                        <mask id="mask-42" fill="white">
                            <use xlink:href="#path-41"></use>
                        </mask>
                        <g id="Clip-92"></g>
                        <path d="M13.3267199,0.370496528 C10.0071645,8.76847897 0.309176082,21.0777676 0.211444842,21.2013887 L0.211444842,21.2013887 C0.105814274,21.335281 0.128777441,21.5295166 0.262514926,21.6349797 L0.262514926,21.6349797 C0.319279875,21.6795493 0.386883439,21.7013756 0.453935887,21.7013756 L0.453935887,21.7013756 C0.54560485,21.7013756 0.636171581,21.6608411 0.697161753,21.5836237 L0.697161753,21.5836237 C0.795260402,21.460186 10.5489115,9.07973274 13.9020851,0.59701297 L13.9020851,0.59701297 C13.9647286,0.438543168 13.8868375,0.259530984 13.7281161,0.19661994 L13.7281161,0.19661994 C13.6900891,0.181029739 13.6509599,0.173876588 13.6127492,0.173876588 L13.6127492,0.173876588 C13.4894829,0.173876588 13.3742996,0.249443207 13.3267199,0.370496528" id="Fill-91" fill="url(#linearGradient-43)" mask="url(#mask-42)"></path>
                    </g>
                    <g id="Group-96" transform="translate(169.284468, 89.924276)">
                        <mask id="mask-45" fill="white">
                            <use xlink:href="#path-44"></use>
                        </mask>
                        <g id="Clip-95"></g>
                        <path d="M23.76064,0.17121279 C23.6782461,0.330811968 15.4074725,16.099985 2.04789748,21.8788126 L2.04789748,21.8788126 L0.615813811,19.8805675 C0.519865989,19.747011 0.332250545,19.7144577 0.197424237,19.810006 L0.197424237,19.810006 C0.0620629037,19.9043226 0.0296047184,20.0894366 0.125552541,20.2231691 L0.125552541,20.2231691 L1.83852435,22.6129336 L2.06162979,22.518793 C15.7538121,16.7339826 24.2114878,0.602676059 24.2953083,0.440789351 L24.2953083,0.440789351 C24.3707469,0.295091314 24.3120725,0.11631208 24.1644055,0.0422313151 L24.1644055,0.0422313151 C24.1203552,0.0200598747 24.0736296,0.00950204589 24.0277958,0.00950204589 L24.0277958,0.00950204589 C23.9184724,0.00950204589 23.8134291,0.0689778146 23.76064,0.17121279" id="Fill-94" fill="url(#linearGradient-46)" mask="url(#mask-45)"></path>
                    </g>
                    <g id="Group-101" transform="translate(311.518325, 108.258352)" fill="#FFFFFF">
                        <path d="M71.6225862,23.0801641 C71.6225862,36.5403093 60.7054248,51.0718989 47.2387154,51.0718989 C33.7716457,51.0718989 22.8546645,36.5403093 22.8546645,23.0801641 C22.8546645,9.61965875 33.7716457,0.0701328765 47.2387154,0.0701328765 C60.7054248,0.0701328765 71.6225862,9.61965875 71.6225862,23.0801641" id="Fill-97"></path>
                        <path d="M16.9778743,102.89534 L76.5036669,102.89534 C82.7695114,102.89534 88.3171073,98.8473005 90.2266105,92.8822238 L93.4297178,82.8761318 C95.7749272,75.5494615 91.9618672,67.6169181 84.7337932,64.9754985 C60.5088525,56.1226187 35.4597099,57.2581805 9.79971369,65.7924547 C2.61128207,68.1831681 -1.37782627,75.8684274 0.605736138,83.1769071 L3.07221527,92.2642836 C4.77503729,98.5391409 10.4732744,102.89534 16.9778743,102.89534" id="Fill-99"></path>
                    </g>
                    <g id="Group-101" transform="translate(121.291449, 232.231626)" fill="#FFFFFF">
                        <path d="M20.9424084,6.69608011 C20.9424084,10.6130765 17.8169707,14.8418708 13.9616314,14.8418708 C10.1061889,14.8418708 6.98080279,10.6130765 6.98080279,6.69608011 C6.98080279,2.77897886 10.1061889,0 13.9616314,0 C17.8169707,0 20.9424084,2.77897886 20.9424084,6.69608011" id="Fill-97"></path>
                        <path d="M4.85639476,29.6837416 L21.9823374,29.6837416 C23.78506,29.6837416 25.381138,28.4803427 25.930514,26.7070478 L26.852068,23.7324422 C27.5267994,21.5543735 26.4297582,19.1961912 24.3501961,18.4109514 C17.3805293,15.779172 10.1737344,16.1167513 2.79119308,18.6538157 C0.723036375,19.3645257 -0.42465503,21.6491955 0.146028274,23.8218565 L0.855649737,26.5233469 C1.34556228,28.3887331 2.98498071,29.6837416 4.85639476,29.6837416" id="Fill-99"></path>
                    </g>
                </g>
            </g>
        </g>
    </g>
</svg>