<?xml version="1.0" encoding="UTF-8"?>
<svg width="82px" height="82px" viewBox="0 0 82 82" version="1.1" xmlns="http://www.w3.org/2000/svg" xmlns:xlink="http://www.w3.org/1999/xlink">
    <title>img_benefit3</title>
    <g id="Page-1" stroke="none" stroke-width="1" fill="none" fill-rule="evenodd">
        <g id="Home" transform="translate(-835.000000, -2389.000000)" fill-rule="nonzero">
            <g id="diploma" transform="translate(835.000000, 2389.000000)">
                <path d="M55.9168399,4.1 L55.9168399,80.6333333 L4.09147609,80.6333333 C2.5869014,80.6288304 1.3683189,79.4077092 1.36382536,77.9 L1.36382536,4.1 C1.3683189,2.59229078 2.5869014,1.37116956 4.09147609,1.36666667 L53.1891892,1.36666667 C54.6937639,1.37116956 55.9123464,2.59229078 55.9168399,4.1 L55.9168399,4.1 Z" id="Path" fill="#FFEDED"></path>
                <path d="M55.9168399,4.1 L55.9168399,80.6333333 L50.4615385,80.6333333 L50.4615385,4.1 C50.4570449,2.59229078 49.2384624,1.37116956 47.7338877,1.36666667 L53.1891892,1.36666667 C54.6937639,1.37116956 55.9123464,2.59229078 55.9168399,4.1 L55.9168399,4.1 Z" id="Path" fill="#FAC0C0"></path>
                <ellipse id="Oval" fill="#00D7DF" cx="65.4636175" cy="65.6" rx="15.002079" ry="15.0333333"></ellipse>
                <path d="M80.4657141,65.6 C80.4713405,72.4033074 75.9168224,78.3624383 69.3607269,80.1297405 C62.8046315,81.8970427 55.8812828,79.0319577 52.48,73.144 C58.3655562,76.5572438 65.8056657,75.5796158 70.6140757,70.7611883 C75.4224856,65.9427608 76.3980811,58.4871511 72.9919335,52.5893333 C77.6245667,55.2760644 80.4738931,60.2363015 80.4657141,65.6 L80.4657141,65.6 Z" id="Path" fill="#00B6BD"></path>
                <path d="M65.4636175,68.3333156 C70.4774797,68.3237321 74.6372449,72.217059 74.9694802,77.2303333 C69.4410622,81.7677737 61.4861727,81.7677737 55.9577547,77.2303333 C56.28999,72.217059 60.4497553,68.3237321 65.4636175,68.3333156 L65.4636175,68.3333156 Z" id="Path" fill="#FFDAAA"></path>
                <ellipse id="Oval" fill="#FFDAAA" cx="65.4636175" cy="62.8666667" rx="5.45530146" ry="5.46666667"></ellipse>
                <rect id="Rectangle" fill="#00D7DF" x="6.81912682" y="58.7666667" width="38.1871102" height="16.4" rx="8.2"></rect>
                <path d="M45.006237,61.5 L45.006237,72.4333333 C45.0017435,73.9410426 43.783161,75.1621638 42.2785863,75.1666667 L36.8232848,75.1666667 C38.3278595,75.1621638 39.546442,73.9410426 39.5509356,72.4333333 L39.5509356,61.5 C39.546442,59.9922908 38.3278595,58.7711696 36.8232848,58.7666667 L42.2785863,58.7666667 C43.783161,58.7711696 45.0017435,59.9922908 45.006237,61.5 L45.006237,61.5 Z" id="Path" fill="#00B6BD"></path>
                <path d="M41.3375468,22.7686667 L35.5549272,24.6956667 L33.6319335,30.4903333 L26.3627443,23.206 C30.5241028,22.9859852 33.8488002,19.6543613 34.0683576,15.4843333 L41.3375468,22.7686667 Z" id="Path" fill="#FF7956"></path>
                <path d="M25.4626195,23.206 L18.1934304,30.4903333 L16.2704366,24.6956667 L10.487817,22.7686667 L17.7570062,15.4843333 C17.9765637,19.6543613 21.301261,22.9859852 25.4626195,23.206 L25.4626195,23.206 Z" id="Path" fill="#FF7956"></path>
                <path d="M74.9694802,77.2303333 C71.5505784,80.0287396 67.0784623,81.182821 62.7359667,80.3873333 C65.2268146,79.9306711 67.5599698,78.8439876 69.5141788,77.2303333 C69.2540791,73.2539969 66.5488327,69.8613031 62.7359667,68.7296667 C65.5108719,67.9031154 68.5102083,68.3840984 70.8891309,70.0371335 C73.2680534,71.6901687 74.7691076,74.3363593 74.9694802,77.2303333 L74.9694802,77.2303333 Z" id="Path" fill="#FFC477"></path>
                <path d="M70.9189189,62.8666667 C70.9189189,65.8858233 68.4764973,68.3333333 65.4636175,68.3333333 C65.0030029,68.3375062 64.544032,68.2777156 64.0997921,68.1556667 C66.5007253,67.5268385 68.1756059,65.3534213 68.1756059,62.8666667 C68.1756059,60.379912 66.5007253,58.2064948 64.0997921,57.5776667 C64.544032,57.4556177 65.0030029,57.3958272 65.4636175,57.4 C68.4764973,57.4 70.9189189,59.84751 70.9189189,62.8666667 Z" id="Path" fill="#FFC477"></path>
                <ellipse id="Oval" fill="#57A4FF" cx="66.8274428" cy="15.0333333" rx="13.6382536" ry="13.6666667"></ellipse>
                <path d="M80.4656989,15.0333333 C80.4615811,21.2794885 76.2320562,26.7280122 70.1914801,28.2686995 C64.1509039,29.8093868 57.8366271,27.0501268 54.8530561,21.566 C56.8508716,22.6641108 59.0935264,23.2376963 61.3721414,23.2333333 C68.9043409,23.2333333 75.010395,17.1145582 75.010395,9.56666667 C75.014749,7.28330454 74.4423559,5.0359776 73.3465281,3.034 C77.7363237,5.42245944 80.4686556,10.0277952 80.4656989,15.0333333 L80.4656989,15.0333333 Z" id="Path" fill="#2488FF"></path>
                <ellipse id="Oval" fill="#FFDE55" cx="25.9126819" cy="15.0333333" rx="8.18295218" ry="8.2"></ellipse>
                <path d="M34.0956341,15.0333333 C34.0908402,19.0940641 31.1208921,22.5396837 27.1123881,23.1350268 C23.1038841,23.7303698 19.2642828,21.2961047 18.0843243,17.4113333 C18.8532213,17.6477577 19.6531006,17.7675289 20.4573805,17.7666667 C24.9767002,17.7666667 28.6403326,14.0954016 28.6403326,9.56666667 C28.641193,8.76071121 28.5216708,7.95916552 28.285738,7.18866667 C31.7350415,8.23605831 34.0943366,11.4216375 34.0956341,15.0333333 L34.0956341,15.0333333 Z" id="Path" fill="#FFCD00"></path>
                <path d="M10.0513929,24.0601667 L15.1902869,25.7780667 L16.9114345,30.9276667 C17.061035,31.3766121 17.4317932,31.7160291 17.8914683,31.8248553 C18.3511434,31.9336815 18.8342842,31.7964217 19.1685655,31.4620333 L25.9126819,24.6970333 L32.6636175,31.4620333 C32.9978988,31.7964217 33.4810396,31.9336815 33.9407146,31.8248553 C34.4003897,31.7160291 34.771148,31.3766121 34.9207484,30.9276667 L36.6350769,25.7780667 L41.7739709,24.0601667 C42.221983,23.9102545 42.5606943,23.5387239 42.6692943,23.0780911 C42.7778942,22.6174584 42.6409198,22.133311 42.3072266,21.7983333 L35.4594595,14.9308333 C35.2854862,9.7761252 31.0650698,5.68753282 25.9181372,5.68753282 C20.7712046,5.68753282 16.5507882,9.7761252 16.376815,14.9308333 L9.51813721,21.7983333 C9.18444403,22.133311 9.0474696,22.6174584 9.15606957,23.0780911 C9.26466954,23.5387239 9.60338086,23.9102545 10.0513929,24.0601667 L10.0513929,24.0601667 Z M35.1253222,23.4014333 C34.7177551,23.5363672 34.3980379,23.8567504 34.2633846,24.2651667 L33.0359418,27.9661 L29.11358,24.0355667 C31.8108005,23.067086 33.9338239,20.9396396 34.9002911,18.2368 L38.8226528,22.1673333 L35.1253222,23.4014333 Z M25.9126819,8.2 C29.6787817,8.2 32.7318087,11.2593875 32.7318087,15.0333333 C32.7318087,18.8072791 29.6787817,21.8666667 25.9126819,21.8666667 C22.1465822,21.8666667 19.0935551,18.8072791 19.0935551,15.0333333 C19.0980641,11.2612607 22.1484514,8.20451836 25.9126819,8.2 L25.9126819,8.2 Z M16.9291642,18.2368 C17.8956314,20.9396396 20.0186548,23.067086 22.7158753,24.0355667 L18.7935135,27.9661 L17.5660707,24.2651667 C17.4314174,23.8567504 17.1117002,23.5363672 16.7041331,23.4014333 L13.010894,22.1714333 L16.9291642,18.2368 Z" id="Shape" fill="#000000"></path>
                <polygon id="Path" fill="#000000" points="10.9106029 62.8666667 40.9147609 62.8666667 40.9147609 65.6 10.9106029 65.6"></polygon>
                <polygon id="Path" fill="#000000" points="10.9106029 68.3333333 40.9147609 68.3333333 40.9147609 71.0666667 10.9106029 71.0666667"></polygon>
                <polygon id="Path" fill="#000000" points="5.45530146 46.4666667 8.18295218 46.4666667 8.18295218 49.2 5.45530146 49.2"></polygon>
                <polygon id="Path" fill="#000000" points="10.9106029 46.4666667 51.8253638 46.4666667 51.8253638 49.2 10.9106029 49.2"></polygon>
                <polygon id="Path" fill="#000000" points="5.45530146 35.5333333 8.18295218 35.5333333 8.18295218 38.2666667 5.45530146 38.2666667"></polygon>
                <polygon id="Path" fill="#000000" points="10.9106029 35.5333333 51.8253638 35.5333333 51.8253638 38.2666667 10.9106029 38.2666667"></polygon>
                <polygon id="Path" fill="#000000" points="5.45530146 41 10.9106029 41 10.9106029 43.7333333 5.45530146 43.7333333"></polygon>
                <polygon id="Path" fill="#000000" points="13.6382536 41 51.8253638 41 51.8253638 43.7333333 13.6382536 43.7333333"></polygon>
                <polygon id="Path" fill="#000000" points="5.45530146 51.9333333 16.3659044 51.9333333 16.3659044 54.6666667 5.45530146 54.6666667"></polygon>
                <polygon id="Path" fill="#000000" points="19.0935551 51.9333333 51.8253638 51.9333333 51.8253638 54.6666667 19.0935551 54.6666667"></polygon>
                <path d="M65.4636175,49.2 C62.5890007,49.2030467 59.766171,49.9667986 57.2806653,51.414 L57.2806653,26.6226667 C63.3901814,31.6859939 72.3765651,31.1114779 77.7944348,25.3111837 C83.2123046,19.5108895 83.1910171,10.4875013 77.7458405,4.7129416 C72.3006639,-1.06161814 63.31167,-1.59355062 57.2261123,3.49866667 C56.9233356,1.49566748 55.2107935,0.0114643663 53.1891892,-1.94215014e-14 L4.09147609,-1.94215014e-14 C1.83461406,0.00675434228 0.00674029999,1.83843617 9.69056205e-15,4.1 L9.69056205e-15,77.9 C0.00674029999,80.1615638 1.83461406,81.9932457 4.09147609,82.0001052 L55.9168399,82.0001052 C56.6700599,82.0001052 57.2806653,81.3881225 57.2806653,80.6333333 L57.2806653,79.786 C63.2386438,83.2492979 70.7228779,82.6037913 76.0026779,78.171248 C81.2824779,73.7387048 83.2276991,66.4679136 80.868701,59.9831687 C78.5097029,53.4984237 72.3514307,49.1877889 65.4636175,49.2 L65.4636175,49.2 Z M75.9923493,6.87433333 C77.6770198,8.77100781 78.7346358,11.1436664 79.0200416,13.6666667 L75.4195426,13.6666667 C75.3360653,11.7170026 75.0154698,9.78483254 74.4648649,7.913 C74.9957883,7.6000577 75.5060096,7.25311484 75.9923493,6.87433333 L75.9923493,6.87433333 Z M75.4195426,16.4 L79.0200416,16.4 C78.7346358,18.9230003 77.6770198,21.2956589 75.9923493,23.1923333 C75.5060096,22.8135518 74.9957883,22.466609 74.4648649,22.1536667 C75.0154698,20.2818341 75.3360653,18.349664 75.4195426,16.4 L75.4195426,16.4 Z M73.9193347,5.01566667 C73.7693139,5.11133333 73.6192931,5.22066667 73.4692723,5.33 C73.3192516,5.01566667 73.1555925,4.70133333 72.9919335,4.41433333 C73.3056133,4.60566667 73.6192931,4.797 73.9193347,5.01566667 L73.9193347,5.01566667 Z M73.4692723,24.7366667 C73.6192931,24.846 73.7693139,24.9553333 73.9193347,25.051 C73.6192931,25.2696667 73.3056133,25.461 72.9919335,25.6523333 C73.1555925,25.3653333 73.3192516,25.051 73.4692723,24.7366667 Z M68.1912682,3.12966667 C69.4489212,3.96357173 70.4314139,5.15262925 71.0143867,6.54633333 C70.1019367,6.87403162 69.1545213,7.09417983 68.1912682,7.20233333 L68.1912682,3.12966667 Z M68.1912682,9.963 C69.4815078,9.83542949 70.7506818,9.54617124 71.9690644,9.102 C72.3735628,10.5929842 72.6159152,12.1234432 72.6918919,13.6666667 L68.1912682,13.6666667 L68.1912682,9.963 Z M68.1912682,16.4 L72.6918919,16.4 C72.6159152,17.9432235 72.3735628,19.4736825 71.9690644,20.9646667 C70.7506818,20.5204954 69.4815078,20.2312372 68.1912682,20.1036667 L68.1912682,16.4 Z M68.1912682,22.8643333 C69.1545213,22.9724868 70.1019367,23.192635 71.0143867,23.5203333 C70.4314139,24.9140374 69.4489212,26.1030949 68.1912682,26.937 L68.1912682,22.8643333 Z M65.4636175,26.937 C64.2059645,26.1030949 63.2234717,24.9140374 62.640499,23.5203333 C63.552949,23.192635 64.5003644,22.9724868 65.4636175,22.8643333 L65.4636175,26.937 Z M65.4636175,3.12966667 L65.4636175,7.20233333 C64.5003644,7.09417983 63.552949,6.87403162 62.640499,6.54633333 C63.2234717,5.15262925 64.2059645,3.96357173 65.4636175,3.12966667 L65.4636175,3.12966667 Z M61.6858212,9.102 C62.9042039,9.54617124 64.1733778,9.83542949 65.4636175,9.963 L65.4636175,13.6666667 L60.9629938,13.6666667 C61.0389704,12.1234432 61.2813228,10.5929842 61.6858212,9.102 L61.6858212,9.102 Z M65.4636175,16.4 L65.4636175,20.1036667 C64.1733778,20.2312372 62.9042039,20.5204954 61.6858212,20.9646667 C61.2813228,19.4736825 61.0389704,17.9432235 60.9629938,16.4 L65.4636175,16.4 Z M60.6629522,4.41433333 C60.4992931,4.70133333 60.3356341,5.01566667 60.1856133,5.33 C60.0355925,5.22066667 59.8855717,5.11133333 59.7355509,5.01566667 C60.0355925,4.797 60.3492723,4.60566667 60.6629522,4.41433333 L60.6629522,4.41433333 Z M60.1856133,24.7366667 C60.3356341,25.051 60.4992931,25.3653333 60.6629522,25.6523333 C60.3492723,25.461 60.0355925,25.2696667 59.7355509,25.051 C59.8855717,24.9553333 60.0355925,24.846 60.1856133,24.7366667 Z M57.6625364,6.87433333 C58.1488761,7.25311484 58.6590974,7.6000577 59.1900208,7.913 C58.6394159,9.78483254 58.3188203,11.7170026 58.235343,13.6666667 L54.6348441,13.6666667 C54.9202499,11.1436664 55.9778659,8.77100781 57.6625364,6.87433333 L57.6625364,6.87433333 Z M58.235343,16.4 C58.3188203,18.349664 58.6394159,20.2818341 59.1900208,22.1536667 C58.6590974,22.466609 58.1488761,22.8135518 57.6625364,23.1923333 C55.9778659,21.2956589 54.9202499,18.9230003 54.6348441,16.4 L58.235343,16.4 Z M54.5530146,79.2666667 L4.09147609,79.2666667 C3.33825614,79.2666667 2.72765073,78.6547892 2.72765073,77.9 L2.72765073,4.1 C2.72765073,3.34521084 3.33825614,2.73333333 4.09147609,2.73333333 L53.1891892,2.73333333 C53.9424091,2.73333333 54.5530146,3.34521084 54.5530146,4.1 L54.5530146,6.42333333 C50.9163507,11.5849149 50.9163507,18.4817518 54.5530146,23.6433333 L54.5530146,53.4093333 C51.0827055,56.5071892 49.0978504,60.9427489 49.0978504,65.6 C49.0978504,70.2572511 51.0827055,74.6928108 54.5530146,77.7906667 L54.5530146,79.2666667 Z M65.4636175,79.2666667 C62.5615849,79.265116 59.7365304,78.3310495 57.4034096,76.6016667 C58.0288309,72.6264858 61.4477018,69.6983144 65.4636175,69.6983144 C69.4795331,69.6983144 72.898404,72.6264858 73.5238254,76.6016667 C71.1907045,78.3310495 68.36565,79.265116 65.4636175,79.2666667 L65.4636175,79.2666667 Z M61.3721414,62.8666667 C61.3721414,60.6022992 63.2039576,58.7666667 65.4636175,58.7666667 C67.7232773,58.7666667 69.5550936,60.6022992 69.5550936,62.8666667 C69.5550936,65.1310341 67.7232773,66.9666667 65.4636175,66.9666667 C63.2067554,66.9599123 61.3788817,65.1282305 61.3721414,62.8666667 L61.3721414,62.8666667 Z M75.8014137,74.4833333 C74.8494245,71.5888993 72.7329852,69.2252432 69.9642412,67.9643333 C72.0966541,66.0870683 72.8456249,63.0824591 71.8446326,60.4208599 C70.8436403,57.7592607 68.302045,55.9973517 65.4636175,55.9973517 C62.6251899,55.9973517 60.0835946,57.7592607 59.0826023,60.4208599 C58.08161,63.0824591 58.8305808,66.0870683 60.9629938,67.9643333 C58.1942498,69.2252432 56.0778104,71.5888993 55.1258212,74.4833333 C52.9941883,72.0170258 51.822265,68.8627403 51.8253577,65.6 C51.8253577,58.0521084 57.931418,51.9333333 65.4636175,51.9333333 C72.995817,51.9333333 79.1018772,58.0521084 79.1018772,65.6 C79.1049699,68.8627403 77.9330467,72.0170258 75.8014137,74.4833333 L75.8014137,74.4833333 Z" id="Shape" fill="#000000"></path>
                <path d="M42.2785863,57.4 L9.54677755,57.4 C7.28991552,57.4067543 5.46204176,59.2384362 5.45530146,61.5 L5.45530146,72.4333333 C5.46204176,74.6948972 7.28991552,76.526579 9.54677755,76.5333333 L42.2785863,76.5333333 C44.5354483,76.526579 46.3633221,74.6948972 46.3700624,72.4333333 L46.3700624,61.5 C46.3633221,59.2384362 44.5354483,57.4067543 42.2785863,57.4 L42.2785863,57.4 Z M43.6424116,72.4333333 C43.6424116,73.1881225 43.0318062,73.8 42.2785863,73.8 L9.54677755,73.8 C8.7935576,73.8 8.18295218,73.1881225 8.18295218,72.4333333 L8.18295218,61.5 C8.18295218,60.7452108 8.7935576,60.1333333 9.54677755,60.1333333 L42.2785863,60.1333333 C43.0318062,60.1333333 43.6424116,60.7452108 43.6424116,61.5 L43.6424116,72.4333333 Z" id="Shape" fill="#000000"></path>
            </g>
        </g>
    </g>
</svg>