<?xml version="1.0" encoding="utf-8"?>
<!-- Generator: Adobe Illustrator 25.0.0, SVG Export Plug-In . SVG Version: 6.00 Build 0)  -->
<svg version="1.1" id="Layer_1" xmlns="http://www.w3.org/2000/svg" xmlns:xlink="http://www.w3.org/1999/xlink" x="0px" y="0px"
	 viewBox="0 0 667 424.5" style="enable-background:new 0 0 667 424.5;" xml:space="preserve">
<style type="text/css">
	.st0{fill-rule:evenodd;clip-rule:evenodd;fill:#FFEDED;}
	.st1{fill-rule:evenodd;clip-rule:evenodd;fill:#FCBEBE;}
	.st2{fill-rule:evenodd;clip-rule:evenodd;fill:#FFFFFF;}
	.st3{fill:#5B5B5B;}
	.st4{fill:#A8A8A8;}
	.st5{fill:#FFB27D;}
	.st6{fill:#EA8E50;}
	.st7{fill:#992525;}
	.st8{fill:#233862;}
	.st9{fill:#6B6B6B;}
	.st10{fill:#515151;}
	.st11{fill:#858585;}
	.st12{fill:#FFB07B;}
	.st13{fill:url(#SVGID_1_);}
	.st14{fill:url(#SVGID_2_);}
	.st15{fill:#3F3F3F;}
	.st16{fill:url(#SVGID_3_);}
	.st17{fill:#BC3F3F;}
	.st18{fill:#ED985F;}
	.st19{fill:url(#SVGID_4_);}
	.st20{fill:#ED7D2B;}
	.st21{fill:#ED975D;}
	.st22{fill:#2E3552;}
</style>
<g id="Page-1">
	<g id="Login-Page" transform="translate(-126.000000, -250.000000)">
		<g id="Group-149" transform="translate(97.000000, 211.000000)">
			<path id="Fill-1" class="st0" d="M309.8,93C166.1,107.6,109,180.9,95.6,197.4C29.8,278.3,52.8,414,147,449.2
				c37.2,0,431.1-2.4,503.7-0.8C712.3,350,673.3,76.1,309.8,93z"/>
			<g id="Group-12" transform="translate(304.506104, 0.000000)">
				<path id="Fill-4" class="st1" d="M-27.9,206.4c0-2.2,3-2.9,4-1c9.9,19,37.4,68.2,68.7,90.8C95.7,333,138.7,401,120.1,444.7
					C120.1,444.7-29.5,448.3-27.9,206.4"/>
				<path id="Fill-6" class="st2" d="M-17.9,234.4c0.2,0.7,0.4,1.2,0.6,1.7l0.6,1.7l1.3,3.3c0.9,2.2,1.8,4.4,2.7,6.6
					c1.8,4.4,3.7,8.7,5.6,13.1c3.8,8.7,7.9,17.3,12.1,25.8c4.2,8.5,8.6,16.9,13.2,25.2c4.6,8.3,9.4,16.5,14.4,24.6
					c10,16.2,20.9,31.8,32.8,46.6c6,7.3,12.3,14.5,18.9,21.3c6.7,6.8,13.7,13.2,21.1,19.2c0.2,0.1,0.4,0.1,0.5-0.1
					c0.1-0.2,0.1-0.4,0-0.5l0,0c-7.2-6.2-14-12.8-20.4-19.7c-6.5-6.9-12.6-14.1-18.5-21.5c-5.9-7.4-11.5-15-16.9-22.8
					c-5.4-7.8-10.5-15.7-15.5-23.8c-10-16.1-19.2-32.7-27.9-49.5c-4.3-8.4-8.5-16.9-12.5-25.5c-2-4.3-4-8.6-5.9-12.9l-2.8-6.5
					l-1.4-3.3l-0.7-1.6c-0.2-0.5-0.4-1.1-0.6-1.6l0-0.1c-0.1-0.2-0.3-0.3-0.5-0.2C-17.8,234-17.9,234.2-17.9,234.4"/>
				<path id="Fill-8" class="st1" d="M32.3,112.4c0.6-2,3.6-1.9,4,0.2c3.9,20.2,15.7,72.7,38.2,102c36.7,47.6,57.5,121.7,28.6,156.8
					C103.1,371.4-35.1,333.8,32.3,112.4"/>
				<path id="Fill-10" class="st2" d="M33.9,140.9c0,0.6,0,1.2,0.1,1.8l0.1,1.7l0.3,3.4c0.2,2.3,0.4,4.5,0.7,6.8
					c0.5,4.5,1,9,1.6,13.5c1.2,9,2.6,18,4.1,26.9c1.5,9,3.3,17.9,5.3,26.7c2,8.9,4.1,17.7,6.5,26.5c4.7,17.5,10.4,34.9,17.4,51.7
					c3.5,8.4,7.3,16.7,11.5,24.7c4.3,8,8.9,15.9,14.1,23.3c0.1,0.2,0.3,0.2,0.5,0.1c0.2-0.1,0.2-0.3,0.1-0.5l0,0
					c-4.9-7.6-9.3-15.5-13.4-23.6c-4.1-8.1-7.7-16.4-11.1-24.8c-3.4-8.4-6.4-16.9-9.3-25.5c-2.8-8.6-5.3-17.3-7.8-26
					c-4.8-17.5-8.7-35.2-12.1-53c-1.7-8.9-3.2-17.8-4.5-26.8c-0.7-4.5-1.3-9-1.9-13.5l-0.8-6.7l-0.4-3.4l-0.2-1.7
					c0-0.6-0.1-1.1-0.1-1.6l0-0.1c0-0.2-0.2-0.4-0.4-0.3C34,140.5,33.9,140.7,33.9,140.9"/>
			</g>
			<g id="Group-12_1_" transform="translate(304.506104, 0.000000)">
				<path id="Fill-4_1_" class="st1" d="M355.7,173.2c-0.8-1.9-3.7-1.4-3.8,0.6c-1.6,20-7.3,72.3-26,103.1
					c-30.4,50.2-42.6,124.4-10.6,155.2C315.3,432.2,445.3,380.7,355.7,173.2"/>
				<path id="Fill-6_1_" class="st2" d="M357.3,201c0.1,0.6,0.1,1.2,0.1,1.7l0.1,1.7l0.1,3.3c0.1,2.2,0.1,4.4,0.1,6.7
					c0,4.4,0,8.9-0.1,13.3c-0.1,8.9-0.5,17.7-1.1,26.6c-0.5,8.9-1.3,17.7-2.2,26.5c-0.9,8.8-2,17.6-3.4,26.4
					c-2.7,17.5-6.3,35-11.2,52c-2.5,8.5-5.3,17-8.5,25.2c-3.3,8.3-6.9,16.4-11.1,24.2c-0.1,0.2-0.3,0.2-0.5,0.1
					c-0.2-0.1-0.2-0.3-0.1-0.5l0,0c3.9-7.9,7.4-16.1,10.4-24.4c3.1-8.3,5.7-16.7,8-25.2c2.4-8.5,4.4-17.1,6.2-25.8
					c1.8-8.6,3.3-17.4,4.7-26.1c2.8-17.5,4.6-35.1,5.9-52.7c0.7-8.8,1.1-17.7,1.4-26.5c0.2-4.4,0.3-8.8,0.4-13.3l0.1-6.6l0-3.3
					l0-1.7c0-0.5,0-1.1-0.1-1.6l0-0.1c0-0.2,0.1-0.4,0.3-0.4C357.2,200.6,357.3,200.8,357.3,201"/>
				<path id="Fill-8_1_" class="st1" d="M269.7,114.3c-1.3-1.5-3.7-0.3-3.3,1.6c4,18.8,13,68.3,4.3,101.7
					c-14.2,54.3-5.1,125.7,32.6,145.3C303.2,362.9,408.4,280.2,269.7,114.3"/>
				<path id="Fill-10_1_" class="st2" d="M278.7,139.3c0.2,0.6,0.4,1,0.6,1.5l0.5,1.5l1,3c0.7,2,1.3,4,1.9,6.1
					c1.2,4.1,2.4,8.1,3.6,12.2c2.3,8.2,4.4,16.4,6.3,24.7c2,8.3,3.7,16.6,5.2,24.9c1.5,8.3,3,16.7,4.1,25.1
					c2.3,16.8,3.7,33.8,3.9,50.8c0,8.5-0.2,17-0.9,25.5c-0.8,8.5-1.9,16.9-3.6,25.2c0,0.2-0.2,0.3-0.4,0.3c-0.2,0-0.3-0.2-0.3-0.4
					l0,0c1.4-8.3,2.4-16.8,2.9-25.2c0.6-8.4,0.6-16.9,0.5-25.3c-0.2-8.5-0.6-16.9-1.3-25.3c-0.7-8.4-1.7-16.8-2.8-25.2
					c-2.2-16.8-5.4-33.4-8.9-50c-1.8-8.3-3.8-16.5-5.9-24.7c-1.1-4.1-2.1-8.2-3.3-12.3l-1.8-6.1l-0.9-3l-0.5-1.5
					c-0.2-0.5-0.3-1-0.5-1.5l0-0.1c-0.1-0.2,0-0.4,0.2-0.4C278.5,139.1,278.7,139.2,278.7,139.3"/>
			</g>
			<g>
				<g>
					<g>
						<g>
							<path class="st3" d="M590.1,447.9H421.2c-16.9,0-30.6-13.7-30.6-30.6V271.1c0-15.5,3-30.6,9-44.8c5.8-13.7,14.1-26,24.7-36.6
								c10.6-10.6,22.9-18.9,36.6-24.6c12.2-5.2,9.3-8.3,22.6-9c2.1-0.1,20.1,0,22.2,0c15.5,0,30.6,3,44.8,9
								c13.7,5.8,26,14.1,36.6,24.6c10.6,10.6,18.9,22.9,24.6,36.6c6,14.2,9,29.3,9,44.8v146.2C620.7,434.2,607,447.9,590.1,447.9z
								 M426.6,277.2h158.2v-6.1c0-43.6-35.5-79.1-79.1-79.1s-79.1,35.5-79.1,79.1V277.2z"/>
						</g>
						<g>
							<path class="st4" d="M569.7,447.9H400.9c-16.9,0-30.6-13.7-30.6-30.6V271.1c0-15.5,3-30.6,9-44.8c5.8-13.7,14.1-26,24.7-36.6
								c10.6-10.6,22.9-18.9,36.6-24.6c14.2-6,29.3-9,44.8-9c15.5,0,30.6,3,44.8,9c13.7,5.8,26,14.1,36.6,24.6
								c10.6,10.6,18.9,22.9,24.6,36.6c6,14.2,9,29.3,9,44.8v146.2C600.4,434.2,586.6,447.9,569.7,447.9z M406.2,277.2h158.2v-6.1
								c0-43.6-35.5-79.1-79.1-79.1s-79.1,35.5-79.1,79.1V277.2z"/>
						</g>
						<path class="st3" d="M499.5,334.5c0-3.6-1.3-6.8-3.5-9.3c-2-2.9-6.1-4.9-10.8-4.9c-4.7,0-8.8,2-10.8,4.9
							c-2.2,2.5-3.5,5.7-3.5,9.3c0,6.4,4.2,11.8,10,13.6v21.6c0,1.7,1.9,3.1,4.3,3.1c2.3,0,4.3-1.4,4.3-3.1v-21.6
							C495.3,346.3,499.5,340.9,499.5,334.5z"/>
					</g>
					<g>
						<path class="st5" d="M296.1,316.3c-0.3,1.8-2.4,3.9-4.6,5.5c-2.4,1.7-3.4,3.5-4.2,4.3c-0.3,0.4-0.5,0.6-0.5,0.6l-2.6-3
							c0,0,0,0,0.1-0.1c0.6-0.6,2-2.2,3-3.9c2.1-3.9,5.1-4.5,5.1-4.5S295.2,315.6,296.1,316.3z"/>
						<g>
							<g>
								<path class="st6" d="M163.9,353.6l1.7,1.4c0,0,4.7-1.7,5.8,3.9c0,0,0.3,2.4-1.2,2.4c-1.5,0-0.9-0.3-3-0.2
									c-2.1,0.1-3.9-1.1-4.2-2.8l-1-1.5L163.9,353.6z"/>
								<path class="st7" d="M163.7,356.6c1.4-1.4,1.3-2.5,1.3-2.5S149,341,147.4,340c-1.1-0.7-12.2-11.4-18.4-17.5
									c-3-2.9-6.1-1.9-10-0.8l-3.2,0.9c-3.8,1.1-4.8,6.5-1.7,9.1c8.9,7.4,23.7,15.6,26.4,17.4c6.9,4.3,20.3,9.4,20.3,9.4
									S162.5,357.9,163.7,356.6z"/>
							</g>
							<path class="st8" d="M181.9,437c0,0,3.9,2.9,9.8,1.4c0,0,4.8-1.1,5.8,1.3c0,0-7.3,3.7-9.2,4.8c-1.4,0.8-2.9,2-3.9,2.9
								c-0.8,0.7-2.1,0.6-2.8-0.2c-0.3-0.4-0.7-0.9-1.1-1.4c-1.1-1.5-3.8-6.5-3.8-6.5L181.9,437z"/>
							<path class="st9" d="M184.2,435.5c0,0-2.4,5.4-7.8,4.4c0,0-11.1-9.2-18.7-18.7c-2.5-3.1-4.6-6.2-5.8-9.1
								c-5.1-11.7-18.7-29.2-27.4-38l21.7-7.9c0,0,7,14,16.2,31.2C169,409.8,176.9,423.8,184.2,435.5z"/>
							<path class="st10" d="M162.4,397.4l-4.7,23.8c-2.5-3.1-4.6-6.2-5.8-9.1c-5.1-11.7-18.7-29.2-27.4-38l21.7-7.9
								C146.2,366.2,153.1,380.2,162.4,397.4z"/>
							<path class="st8" d="M144.6,440.1c0,0-0.2,4.3,5,4.9c0,0,3,0,3,2.8l-15.3,0c0,0-0.4-1.1-0.6-3.5c-0.1-1.8,1.8-6.6,1.8-6.6
								L144.6,440.1z"/>
							<path class="st11" d="M139,366.2c0,0,9.7,10.6,15.8,29.8c3.3,10.4-6.1,36.6-8,45.7c0,0-6.3,0.5-10.7-1.1
								c0,0-0.3-18.8,2.2-33.3c1.4-8.1-12.7-17.3-18.9-32c-4.2-10,0.9-9.8,7.2-10L139,366.2z"/>
							<path class="st12" d="M127.9,318.8c-5.4,3-16.4,0.2-16.4,0.2s4.5-5.1,2.4-13.4l4.2,2.1l4.5,2.3c0,0,0.3,1.5,0.5,4.1
								c0.1,0.7,0.1,1.4,0.1,2.2C126.1,317.3,127.9,318.8,127.9,318.8z"/>
							<linearGradient id="SVGID_1_" gradientUnits="userSpaceOnUse" x1="107.4162" y1="343.4192" x2="147.6082" y2="343.4192">
								<stop  offset="0" style="stop-color:#E1463D"/>
								<stop  offset="1" style="stop-color:#E86059"/>
							</linearGradient>
							<path class="st13" d="M147.6,365.7c0,0.9-1.1,1.4-1.3,1.4c-2.2,0.4-8.2,2.8-13.7,3.3c-4.6,0.5-8.9,0-13.6-0.9
								c-0.6-0.1-2.1-0.5-2.2-1.1c-0.1-0.6-18.1-36.6-4.1-52.1c0.3-0.4,3.1,0.3,5.6,0.9c2.3,0.6,4.5,0.2,6.4-0.5l2.4,1.2
								c2.9,1.6,8.4,7.4,9,11.9c0.3,2.3,1.6,4,2,6c0.1,0.7,0.3,1.5,0.4,2.2c0.3,1.4,0.6,2.7,0.9,4c0.8,3.4,1.7,6.3,2.5,8.9
								c0.9,2.7,1.8,4.9,2.6,6.8c1,2.4,1.9,4.2,2.4,5.6C147.4,364.3,147.6,365.1,147.6,365.7z"/>
							<path class="st7" d="M147,363.3c-25.4-11.9-34.1-34.9-34.1-34.9s20.6,7.6,25.7,9.6c0.3,1.4,0.6,2.7,0.9,4
								c0.8,3.4,1.7,6.3,2.5,8.9c0.9,2.7,1.8,4.9,2.6,6.8C145.6,360.1,146.5,361.9,147,363.3z"/>
							<g>
								<g>
									<g>
										<path class="st4" d="M179.2,357.4h-14c-13.4,0-24.3-10.9-24.3-24.3v-45.6c0-13.4,10.9-24.3,24.3-24.3h14
											c13.4,0,24.3,10.9,24.3,24.3v45.6C203.5,346.5,192.6,357.4,179.2,357.4z M165.2,277.5c-5.5,0-10,4.5-10,10v45.6
											c0,5.5,4.5,10,10,10h14c5.5,0,10-4.5,10-10v-45.6c0-5.5-4.5-10-10-10H165.2z"/>
									</g>
									<path class="st4" d="M325.9,318.7H197.6v-16.8h128.3c4.6,0,8.4,3.8,8.4,8.4l0,0C334.3,314.9,330.6,318.7,325.9,318.7z"/>
									<path class="st4" d="M316.6,354.9L316.6,354.9c-3.7,0-6.7-3-6.7-6.7v-32.9h13.5v32.9C323.3,351.9,320.3,354.9,316.6,354.9z
										"/>
								</g>
								<path class="st12" d="M161.8,356.4l2.2,0.8c0,0,4.4-3.1,7.1,1.9c0,0,1,2.2-0.6,2.7c-1.6,0.5-1,0-3.2,0.8
									c-2.2,0.7-4.4,0.2-5.2-1.4l-1.5-1.1L161.8,356.4z"/>
								<linearGradient id="SVGID_2_" gradientUnits="userSpaceOnUse" x1="109.4705" y1="341.6412" x2="164.8201" y2="341.6412">
									<stop  offset="0" style="stop-color:#E1463D"/>
									<stop  offset="1" style="stop-color:#E86059"/>
								</linearGradient>
								<path class="st14" d="M163.6,359.5c0.8-2.1,1.2-3.1,1.2-3.1s-16.6-13.5-18.2-14.7c-1.1-0.8-12.6-9.3-18.2-16
									c-2.8-3.3-7.1-4.8-11.4-3.9l-3.5,0.7c-4.2,0.9-5.6,6.2-2.3,9c9.2,7.9,24.6,17,27.5,18.9c7.2,4.7,23,11.3,23,11.3
									S163,361.1,163.6,359.5z"/>
							</g>
							<path class="st6" d="M123.2,314.2c-5.3,0.3-8.7-4.1-8.7-4.1s2.4-1.3,3.7-2.3l4.5,2.3C122.7,310.1,123,311.6,123.2,314.2z"/>
							<path class="st12" d="M125.4,308.8c0,0-8,5.8-11.5,0.7c-3.5-5-6.9-7.7-1.9-11.6c5-3.9,7.3-2.7,8.9-1.3
								C122.4,298,127.4,307.1,125.4,308.8z"/>
							<path class="st15" d="M121.7,292.1c-0.3-1.9-0.9-3.3-0.9-3.3s-0.5,2.1-4.3,1.8c-3.8-0.3-9.8,0.4-11.9,4.7
								c-0.1,0.3-0.2,0.6-0.3,0.9c-0.4-1-0.5-2.4-0.5-2.4c-0.7,1.9,0,4.2,0,4.2h0c0,0.1,0,0.1,0,0.2c-0.8,0.7-1.5,2.9-1.5,2.9
								c0.3-0.6,0.9-1,1.4-1.3c0,3.4,1.4,6.7,3.8,7.7c3.5,1.4,3.5,0.3,7,2.7c0,0,0.9-1.2,0.3-2c-0.6-0.8-3.1-1.9-1.7-3.1
								c1.4-1.2,1.9,0.1,2.4-0.6c0.5-0.8-2-3.1,1.2-5.2C119.8,297,122,294,121.7,292.1z"/>
						</g>
						<g>
							<path class="st9" d="M262.2,443.3l-3,1.1c0,0-12.8-17.8-14.4-33.5c-0.3-2.8-0.2-5.5,0.4-8c0,0-0.1-0.7-0.3-2
								c-0.1-0.6-0.2-1.3-0.4-2.1c-0.4-2.4-1-5.7-1.6-9.4c-1.5-8.6-3.5-19.5-5-27.6l0.8-0.3l8.6-2.8l1.8-5.7l6.4-1.7
								c0,0,1.4,2.8,2.7,16c0.2,1.7,0.5,3.7,0.6,5.7c0.5,6.3,0.5,14.2-0.6,23.2c-0.3,2.3-0.7,4.7-1.1,7.1c-0.3,1.8-0.4,4.2-0.2,7
								C257.5,423.4,262.2,443.3,262.2,443.3z"/>
							<path class="st10" d="M258.8,373.3L244.9,401c-0.1-0.6-0.2-1.3-0.4-2.1c-0.4-2.4-1-5.7-1.6-9.4c-1.5-8.6-3.5-19.5-5-27.6
								l0.8-0.3l8.6-2.8l1.8-5.7l6.4-1.7c0,0,1.4,2.8,2.7,16C258.4,369.3,258.7,371.2,258.8,373.3z"/>
							<path class="st11" d="M252.7,355.1l-0.3-2.8c-5.4,1.4-19.8-4-19.8-4s-5.2,4.6-4.5,15.6c0.3,5.4,0.9,28.3,1.6,35
								c0.2,2.5,0.4,4.2,0.5,4.9c0,0,0,0,0,0c0,0.2,0,0.4-0.2,0.6c-0.9,1.6-1.7,3.3-2.4,5c-6.3,16.7,1,37.3,1,37.3l1.9-0.8
								c0,0,4.1-22.9,7.5-33.1c0.6-1.7,1.1-3.1,1.6-3.9c1.5-2.4,2.8-6.2,4-10.8c2.3-8.6,4.2-19.9,5.4-28.6
								C249.2,369.7,252.7,355.1,252.7,355.1z"/>
							<path class="st7" d="M285.7,320.8c1.6,0.7,3.2,1.9,4.8,3.5c0,0-9.2,16.1-14.5,18.4c-2.9,1.3-12-8.4-13.9-13.9
								c-0.5-1.3,1.2-5.8,0.7-6.7c-0.7-1.2-1.1-2.4-1.2-3.5c0-0.2-0.1-0.3-0.1-0.5c-0.2-1.7,0.2-2.8,0.2-2.8
								c0.2-0.5,0.8-0.8,1.7-0.8l0.3,0c4.8,2.8,11,16.6,12.1,16.9C278.4,328,285.7,320.8,285.7,320.8z"/>
							<path class="st5" d="M263,321.5c-1.7,0.8-3.7,1.3-6.2,1.5c-9.3,0.5-11.4-7.6-11.8-13c1.3-0.5,2.5-0.4,3.2-0.4
								c0.7,0,1.3,0.1,1.9,0.2c1.1-0.6,3.2-3.5,4.4-8.3l0.4,0.2l6.7,3.2c0,0-0.7,2.2-1.2,4.3c-0.4,1.6-0.7,3.2-0.5,3.7
								c0.5,0.2,0.8,0.3,0.8,0.3s0,0,0,0C260.8,313.2,262.2,316.9,263,321.5z"/>
							<linearGradient id="SVGID_3_" gradientUnits="userSpaceOnUse" x1="229.8257" y1="332.581" x2="266.0635" y2="332.581">
								<stop  offset="0" style="stop-color:#E1463D"/>
								<stop  offset="1" style="stop-color:#E86059"/>
							</linearGradient>
							<path class="st16" d="M265.3,327.6c-0.1,0.2-0.1,0.4-0.2,0.6c-2.4,5.1-6.7,26.1-6.7,26.1c0.6,3.8-28.4-0.7-28.4-4.2
								c-1-3.6,3.6-9.5,6.2-12.4c0.3-0.4,0.6-0.8,0.9-1.2c0.6-1,1.1-2.2,1.2-3.5c0.5-4.9-1.4-16.1-0.9-18.3c0.2-0.8,4,4,4.5,3.5
								c0.5-0.5,0.8-1.1,0.9-1.7c0-0.5,0-0.9,0-1.4c0-0.2-0.1-0.4-0.1-0.7c-0.4-2.4-4.9-1.4-4.9-1.4c1.7-4,10.4-3.7,10.4-3.6
								c0,0.1,0,0.2,0,0.6c0,1.6,0,5.8,0.5,6.6c0.6,1,12.5,5.3,13.1,3.9c0.6-1.3-1.1-7.4-1.1-7.7c0,0,0,0,0,0
								c1.3,0.5,2.9,1.5,2.9,1.5C265.1,317.5,267.2,322.7,265.3,327.6z"/>
							<path class="st17" d="M257.3,283.9c0-0.4-0.3-4.7-6.9-5c0,0,3.2,0.4,3.8,1.8c0,0-2.2-1.8-4-1.2c-1.8,0.6-2.9,3.7-2.9,4.8
								c0,1,1,4.4,2.1,4.7c0.4,0.1,0.9,0.1,1.4,0c-0.3,0.5-0.6,1-0.9,1.6c-2.6,5.4,0.1,10.7,2.3,10.1c1.4-0.4,1.8,2.1,1.8,2.1
								l13.9-11.3C268,291.5,262.9,280.9,257.3,283.9z"/>
							<path class="st18" d="M261.6,304.8c0,0-0.7,2.2-1.2,4.3c-3.9-1.1-5.1-5.2-5.5-7.4L261.6,304.8z"/>
							<path class="st5" d="M262.4,307.1c0,0-9.4-2.2-7.9-8c1.4-5.8,1.2-10,7.2-8.9c6,1.1,6.7,3.6,6.6,5.7
								C268.3,298,264.9,307.5,262.4,307.1z"/>
							<path class="st17" d="M268.9,292.6c-1-2.1-2.2-2-2.9-1.6c-4.4-4.1-8.7-0.7-8.7-0.7c-1.7,4-5.3,5.7-5.3,5.7s1.4,1.5,5.6,1.4
								c1.3,0,2.6-0.6,3.7-1.4c-2.2,2.3-4.9,3.6-4.9,3.6c5.2-1,8.7-7,9.1-7.7c0.4,0.7,1.3,2,1.4,3.2c0.1,1.6-0.5,4.7,0.5,4.8
								C267.3,299.9,270.4,295.8,268.9,292.6z"/>
							<path class="st8" d="M239.5,448.3h-14.9c0,0-0.4-2.3,0.4-4c0.7-1.7,1.9-2.4,1.6-4.4c0.9,1,2.5,2.1,4.6,1.8
								c0.3,0.4,1.7,2.7,2.6,3.3C234.8,445.7,239.2,445.5,239.5,448.3z"/>
							<path class="st8" d="M271.4,448.3h-14.9c0,0-0.6-2.4,0.4-4c0.9-1.4,0.5-2.2-0.1-3.4c0.7,0.3,1.5,0.5,2.5,0.5
								c0.7,0,1.5-0.4,2.2-0.8c0.6,0.7,3.4,3.8,4.2,4.5C266.8,445.7,271.1,445.5,271.4,448.3z"/>
						</g>
						<polygon class="st4" points="291.7,318.7 314.3,318.7 313.1,309.9 292.8,310.7 						"/>
						<path class="st5" d="M295.7,301.9c-1.1,1.1-1,4.4-3.3,6c-2.4,1.7-3.4,3.5-4.2,4.3c-0.3,0.4-0.5,0.6-0.5,0.6l-2.6-3
							c0,0,0,0,0.1-0.1c0.6-0.6,2-2.2,3-3.9c2.1-3.9,5.1-4.5,5.1-4.5S294.8,301.2,295.7,301.9z"/>
						<linearGradient id="SVGID_4_" gradientUnits="userSpaceOnUse" x1="237.3882" y1="316.8806" x2="290.4601" y2="316.8806">
							<stop  offset="0" style="stop-color:#E1463D"/>
							<stop  offset="1" style="stop-color:#E86059"/>
						</linearGradient>
						<path class="st19" d="M286.7,307.5l3.8,4.2c0,0-10.1,8.8-12.2,10.6c-1.5,1.3-2.9,2.3-4.1,2.9c-0.1,0.1-0.2,0.1-0.4,0.2
							c-3,1.3-9.4,1.2-15.7,0.2c-0.9-0.1-1.8-0.3-2.6-0.4c-3.2-0.6-6.1-1.3-8.6-2.1c-1.5-0.5-2.8-1-3.8-1.5c-0.4-0.2-0.7-0.4-1-0.6
							c-5-3-4.8-5.8-4.7-6.8c0.1-1,0.8-2.3,2.5-2.9c4-1.3,17.3,3.8,19.2,4.2c1.2,0.2,4.2,1.3,5.3,1.5c2,0.4,3.6,0.6,4.7,0.6
							c0.7,0,2-0.4,3.5-1.1C275.3,315.4,286.7,307.5,286.7,307.5z"/>
						<path class="st5" d="M288.2,320.2c-0.3-0.5-0.3-1.4-0.3-1.4c0.4-1.1,1.4-2.4,1.8-2.6c0.4-0.2,0.8-0.9,0.9-0.4
							c0.1,0.4-0.4,2.5-1.1,3.3C288.8,320,288.2,320.2,288.2,320.2z"/>
					</g>
					<g>
						<path class="st20" d="M512.6,269.5c3.2,5.5,7.2,7.7,7.2,7.7h16.6C536.4,277.2,510.1,265.3,512.6,269.5z"/>
						<g>
							<path class="st5" d="M524.3,312.6c0.4,0.5,0.8,0.5,0.6,1.1c0,0-0.1,0.3-0.1,0.3c-0.4,1.1-1.1,1.9-2.7,3.1
								c-0.2,0.2-0.4,0.3-0.5,0.4c0,0-0.3,0.1-0.3,0.1c0,0-0.3,0.5-0.3,0.5c-1.4,1.3-1.1,0.9-3.7,3.6c-2.9,3-2.8,2.7-3.4,2.4
								c-0.5-0.2-0.7-0.8,0.4-2.6c0.1-0.1,0.1-0.2,0.2-0.3c0.1-0.2,0.3-0.5,0.4-0.7c1.3-2.2,0.9-3.2,0.6-6.4
								c-0.2-2.6-4.1-14.7-4.1-14.7l5.6-1c0,0,1.7,9.6,3.5,11.1c1,0.8,2.1,0.8,3,1.4c0.1,0,0.1,0.1,0.2,0.1
								C524.3,311.4,523.9,312.1,524.3,312.6z"/>
							<path class="st17" d="M525.3,312.3c0.4,0.5,0.5,1.1,0.3,1.6c0,0,0,0,0,0c-0.5,1.1-1.8,2.3-3.2,3.5c-0.2,0.2-0.4,0.3-0.5,0.4
								c0,0-0.1,0.1-0.1,0.1c0,0-0.1,0.1-0.1,0.1c-1.4,1.3-0.9,1.6-3.4,4.3c-2.9,3-4.9,3.1-5.5,2.8c-0.5-0.2,0.5-1.8,1.6-3.6
								c0.6-0.2,3.2-1.3,5.2-3.8c1.7-2.2,2.9-5.1,4.1-6.8c0.1,0,0.1,0.1,0.2,0.1C524.3,311.4,524.9,311.8,525.3,312.3z"/>
							<path class="st5" d="M479.4,308.5c-0.3,1.7-1.5,1.2-4.2,0.6c-2.7-0.7-2.1,0-6-0.4c-3.9-0.4-4.2-1-4.4-1.6
								c-0.1-0.5,0.7-0.9,2.8-1.1c0.3,0,0.5-0.1,0.8-0.1c2.3-0.3,4-1.8,6.2-3c2-1.2,5-5.9,5-5.9l5.3,0.4c0,0-2.8,4.3-3.9,6.1
								c-0.6,1.1-0.6,2.5-0.5,3.6C480.5,307.6,479.5,307.9,479.4,308.5z"/>
							<path class="st17" d="M474.9,309.6c-2.7-0.7-2.1,0.1-6-0.3c-3.9-0.4-5.1-1.9-5.2-2.5c-0.1-0.5,1.8-0.7,3.9-0.9l0,0
								c0,0,2.3,1.7,5.6,1.7c2.6,0.1,5.4-0.7,7.3-0.7c0,0.6,0.1,1.2,0,1.8C480.1,310.5,477.6,310.2,474.9,309.6z"/>
							<path class="st10" d="M500.9,274.6l5,13.4l6.5,17.5c0,0,1.8,0.2,3.5-0.3c1.6-0.5,3.3-1.6,3.3-1.6s-1.8-18.8-5.2-29.6
								c-0.9-2.8-1.8-5-2.9-6.3C505.9,261.6,500.9,274.6,500.9,274.6z"/>
							<path class="st11" d="M506,253.3c3.3-1.1,12.6,0.3,22,2.1l2-3.2l20.2-1.6c0,0,6.7,14.8,3,24.3c-0.9,2.3-3.8,2.3-3.8,2.3
								c0,0-12,0-15.9,0c-10.1,0-21.3-6.9-22.8-7.2c-2.4-0.5-3.3,4.3-5.7,9.3c-2.4,5-22.4,22.1-22.4,22.1s-3.1,0-4.3-0.4
								c-1.4-0.5-1.9-1.2-1.9-1.2S498.6,255.7,506,253.3z"/>
							<path class="st15" d="M530,224.3c7.2,4,21.8,12.2,21.9,12.1c0,0,5.4,2,8.4,0c5.1-3.4,7.8-12.5-1.5-20.3
								c-4.6-3.9-7.9-4.8-8.4-11.1c-0.3-3.4-4.9-14.5-12.6-13.5c-0.6,0.1-1.3,0.1-1.9,0.1c-0.9,0-2.4,0.1-3.9,1
								C527.7,195.3,519.2,222.8,530,224.3z"/>
							<path class="st5" d="M536.1,220.9c0,0,3.5,1.2,5.9,0.2c2.3-1,4-4.7,3.9-4.7c-1,0-2.1-0.9-3-6.8l-0.4,0.2l-7.3,2.6
								c0,0,0.5,2.4,0.9,4.6C536.3,218.9,536.5,220.7,536.1,220.9z"/>
							<path class="st21" d="M535.2,212.4c0,0,0.5,2.4,0.9,4.6c4.2-0.8,5.9-5,6.5-7.2L535.2,212.4z"/>
							<path class="st5" d="M534.1,214.7c0,0,10-1.3,9.1-7.6c-0.9-6.2-0.3-10.6-6.7-10c-6.4,0.6-7.3,3.2-7.5,5.3
								C528.7,204.6,531.4,214.9,534.1,214.7z"/>
							<path class="st15" d="M529.3,199.1c0,0,6.4,5.5,10.8,6c4.4,0.4,6-1,6-1s-2.6-2.1-4.1-5.6c-0.5-1-1.4-1.7-2.5-1.8
								C536.3,196.4,530.4,196.3,529.3,199.1z"/>
							<path class="st8" d="M533.3,198.6c0,0-2.1,2.1-2.8,3.6c-0.7,1.5-0.8,5-0.3,6.5c0,0-3.3-6.5-1.5-9.7
								C530.7,195.6,533.3,198.6,533.3,198.6z"/>
							<path class="st17" d="M527.6,235.7c0.3,20.3,0.1,16.1,2.3,18c0.5,0.5,2,0.7,4,0.9c6.2,0.4,17.2-0.6,17.6-1.8
								c1.4-4,0.4-5.2,1.6-11.3c0.1-0.6,0.3-1.3,0.5-2.1c1-4.2,2-5.6-1.6-12.3c-3.2-6.1-6.6-11-6.9-10.9c-8.5,5-9.2,0.8-9.2,0.8
								S527.5,225.8,527.6,235.7z"/>
							<path class="st9" d="M505.9,288.1l6.5,17.5c0,0,1.8,0.2,3.5-0.3c1.6-0.5,3.3-1.6,3.3-1.6s-1.8-18.8-5.2-29.6L505.9,288.1z"/>
							<path class="st17" d="M536,217c0,0-8.7,1.5-9.8,5.2c-1,3.8-7.1,25.8-7.1,25.8s4.4,0.8,6.5-1.3c2-2,7.1-19,7.1-19L536,217z"/>
							<path class="st7" d="M534,254.6c6.2,0.4,17.2-0.6,17.6-1.8c1.4-4,0.4-5.2,1.6-11.3l-3-8.5c0,0,0.5,9.4-2.3,11.9
								c-2.8,2.5-11.4,4.8-12.7,6.9C534.5,252.8,534.1,253.8,534,254.6z"/>
							<path class="st5" d="M541.1,250.6c0,0-6.1-1.4-7.1-0.8c-1,0.5-3.4,2.5-3.7,3.2c-0.3,0.7,2.2-0.5,3-0.7
								c0.5-0.1,1.9,0.3,2.6,0.6c2.9,1,4.7,0.5,4.7,0.5L541.1,250.6z"/>
							<path class="st17" d="M545.2,216.2c0,0,8.2,0.5,11.1,4.5c4,5.6,12,29.5,7.4,32.7c-5.1,3.6-23.4,0.9-23.4,0.9
								s-0.6-2.8,0.2-4.2c0.8-1.4,14.6-3.6,15.2-4.2c0.6-0.6-7.9-12.4-7.9-14.3S545.2,216.2,545.2,216.2z"/>
							<path class="st5" d="M533.7,251.5c0,0-1.3,1.7-1.7,1.9c-0.4,0.2-0.7,0.1-0.7,0.1l0.9-1.6L533.7,251.5z"/>
							<path class="st5" d="M534,249.8l-3.7,1.8c0,0,0.2,0.3,0.6,0.2c0.5,0,1.6-0.4,1.6-0.4L534,249.8z"/>
						</g>
						<g>
							<g>
								<polygon class="st4" points="532,255.9 502.4,255.9 493.5,233.8 523,233.8 								"/>
								<polygon class="st4" points="502,255.1 541.1,255.1 541.1,255.9 502.4,255.9 								"/>
							</g>
							<path class="st4" d="M509.8,244.8c-0.2-0.8,0.2-1.4,1-1.4s1.6,0.6,1.8,1.4c0.2,0.8-0.2,1.4-1,1.4
								C510.9,246.3,510.1,245.6,509.8,244.8z"/>
						</g>
					</g>
				</g>
				<path class="st22" d="M650,449.2H82.7c-0.4,0-0.8-0.3-0.8-0.8l0,0c0-0.4,0.3-0.8,0.8-0.8H650c0.4,0,0.8,0.3,0.8,0.8l0,0
					C650.7,448.9,650.4,449.2,650,449.2z"/>
			</g>
		</g>
	</g>
</g>
</svg>
