<?xml version="1.0" encoding="UTF-8"?>
<svg width="667px" height="523px" viewBox="0 0 667 523" version="1.1" xmlns="http://www.w3.org/2000/svg" xmlns:xlink="http://www.w3.org/1999/xlink">
    <title>Group 149</title>
    <defs>
        <path d="M28.7581976,1.0027875 C16.1776881,1.81924286 6.319904,12.1248129 6.00758491,24.7294811 L6.00758491,24.7294811 C4.0968091,101.810881 -2.09968979,367.694026 0.858426748,461.915178 L0.858426748,461.915178 C1.1717475,471.897171 9.17264539,479.908652 19.1530333,480.235234 L19.1530333,480.235234 C54.7980771,481.401914 138.76864,483.8625 213.076143,483.8625 L213.076143,483.8625 L213.131034,483.8625 C241.706528,483.8625 268.835418,483.498651 291.257885,482.557774 L291.257885,482.557774 C308.074836,481.852317 321.448063,468.228833 321.797443,451.398432 L321.797443,451.398432 C323.475032,370.491613 327.176784,142.931179 318.37816,38.6855582 L318.37816,38.6855582 C317.324008,26.1952939 307.521917,16.2487639 295.05119,15.00114 L295.05119,15.00114 C248.967597,10.3905214 137.459865,0.0705256091 62.6206787,0.0705256091 L62.6206787,0.0705256091 C50.157364,0.0705256091 38.7163485,0.356435357 28.7581976,1.0027875" id="path-1"></path>
        <path d="M0.065508879,4.50843643 C0.356793008,6.99086143 4.02028191,7.74240107 7.46180189,7.71915964 L7.46180189,7.71915964 L112.82432,8.23067143 C114.982707,8.21624571 116.9041,6.64865143 117.13829,4.715205 L117.13829,4.715205 C117.374082,2.76673179 115.811484,1.15726286 113.626252,1.1346225 L113.626252,1.1346225 L5.9224434,0.0152271429 C5.89139179,0.0148264286 5.86013984,0.0146260714 5.82928857,0.0146260714 L5.82928857,0.0146260714 C2.36452997,0.0146260714 -0.226376249,2.02280571 0.065508879,4.50843643" id="path-3"></path>
        <linearGradient x1="52.654201%" y1="31.9438605%" x2="51.1044161%" y2="42.4901696%" id="linearGradient-5">
            <stop stop-color="#E1463D" offset="0%"></stop>
            <stop stop-color="#E86059" offset="100%"></stop>
        </linearGradient>
        <path d="M31.5588524,6.11990893 C30.698222,8.73517071 24.2487026,9.07217143 23.6116437,14.2159404 L23.6116437,14.2159404 C23.282697,16.8714739 21.3178313,18.9984654 18.6730355,19.4037879 L18.6730355,19.4037879 C12.0858873,20.4133875 1.93461543,23.8344857 0.310516093,35.2724743 L0.310516093,35.2724743 C-0.929344617,44.0032371 3.52085183,47.3135379 8.19121421,48.45918 L8.19121421,48.45918 C11.6213152,49.3008804 13.900904,52.6378286 13.2071509,56.1012021 L13.2071509,56.1012021 C12.5416448,59.4231236 13.5340943,63.2635693 19.2884584,66.3003825 L19.2884584,66.3003825 C32.1838912,73.1057132 45.0618951,50.1780439 45.0618951,50.1780439 L45.0618951,50.1780439 L47.7010816,10.1454846 L38.463929,0.0228407143 C38.463929,0.0228407143 32.6312347,2.86049893 31.5588524,6.11990893" id="path-6"></path>
        <path d="M0.180900666,48.7466925 C0.180900666,48.7466925 6.14661598,65.7403843 10.7512691,67.6852511 L10.7512691,67.6852511 C10.7512691,67.6852511 48.4186743,36.2524211 58.0983624,5.93698286 L58.0983624,5.93698286 L56.5449806,0.149466429 C56.5449806,0.149466429 30.7975871,40.8794689 0.180900666,48.7466925" id="path-8"></path>
        <linearGradient x1="21.602399%" y1="89.1617989%" x2="105.586295%" y2="-38.0444265%" id="linearGradient-10">
            <stop stop-color="#FDBABA" offset="0%"></stop>
            <stop stop-color="#FF918E" offset="100%"></stop>
        </linearGradient>
        <path d="M4.77012819,0.171906429 C2.54983796,2.51167714 1.0100788,6.48756429 0.168279689,9.13608536 L0.168279689,9.13608536 C-0.293287458,10.5884743 0.690547725,12.1236107 2.20626693,12.2836961 L2.20626693,12.2836961 C5.65900555,12.6489471 9.18807103,12.3912879 11.3873263,12.14004 L11.3873263,12.14004 C12.6898912,11.991375 13.714394,10.9621404 13.872657,9.66062036 L13.872657,9.66062036 L14.7070438,2.79979071 C14.8771265,1.40270036 13.7871149,0.171906429 12.3799761,0.171906429 L12.3799761,0.171906429 L4.77012819,0.171906429 Z" id="path-11"></path>
        <path d="M5.81506493,6.33569357 L1.88333019,13.7228614 C0.531283019,16.2629893 -0.060300222,19.1389157 0.179097669,22.0064271 L0.179097669,22.0064271 L4.25487181,70.8202393 L1.14309989,75.0992668 L1.52152886,77.4192021 L20.5301221,88.6369982 L13.0506909,76.4899457 C11.6167075,74.1607939 10.9097325,71.4603804 11.029732,68.7279096 L11.029732,68.7279096 C11.7948036,51.2982407 16.0961526,7.72416857 16.0961526,7.72416857 L16.0961526,7.72416857 L14.8116176,0.167698929 L5.81506493,6.33569357 Z" id="path-13"></path>
        <linearGradient x1="51.7959572%" y1="160.225884%" x2="46.2923264%" y2="-118.721856%" id="linearGradient-15">
            <stop stop-color="#FDBABA" offset="0%"></stop>
            <stop stop-color="#FF918E" offset="100%"></stop>
        </linearGradient>
        <path d="M0.13181909,6.925545 L1.92219478,18.0680068 L3.33574417,18.0680068 C3.33574417,18.0680068 3.01340844,9.1008225 5.53519978,9.26952321 L5.53519978,9.26952321 C7.40871365,9.39454607 11.3266254,14.1890925 13.2177686,16.6466732 L13.2177686,16.6466732 C13.9101193,17.5464771 14.980899,18.0680068 16.1165866,18.0680068 L16.1165866,18.0680068 L22.182268,18.0680068 C24.1275011,18.0680068 24.3947453,15.2333539 22.4807642,14.8871368 L22.4807642,14.8871368 C21.1906199,14.6541214 20.0154667,14.8218204 20.0154667,14.8218204 L20.0154667,14.8218204 C20.0154667,14.8218204 10.4207198,8.06738036 7.29492453,6.18121821 L7.29492453,6.18121821 C4.16872863,4.29505607 3.59217037,0.0310553571 3.59217037,0.0310553571 L3.59217037,0.0310553571 C1.07498668,1.34459679 -0.318930078,4.12214786 0.13181909,6.925545" id="path-16"></path>
        <path d="M32.7049573,3.155625 C22.1970927,11.1939536 19.469359,19.9203086 17.0565488,27.9650486 L17.0565488,27.9650486 C14.6435383,36.0097886 10.2436254,59.1474321 8.19842619,64.2531332 L8.19842619,64.2531332 C6.48517869,68.5293557 1.8596909,77.9575618 0.401867925,80.9078207 L0.401867925,80.9078207 C-0.00881465039,81.7393029 0.016427303,82.7270636 0.503837403,83.51607 L0.503837403,83.51607 C1.07538735,84.4409186 2.24272752,85.3962214 4.62628912,85.3962214 L4.62628912,85.3962214 C9.24496559,85.3962214 10.9203502,84.1043186 11.00449,82.7571171 L11.00449,82.7571171 C11.0581792,81.8945796 12.4613113,72.7895496 16.4669689,61.8750943 L16.4669689,61.8750943 C20.4726265,50.9602382 45.6709073,3.155625 45.6709073,3.155625 L45.6709073,3.155625 C43.7531199,0.800026071 41.6736637,0.0152271045 39.7526709,0.0152271045 L39.7526709,0.0152271045 C35.911086,0.0152271045 32.7049573,3.155625 32.7049573,3.155625" id="path-18"></path>
        <linearGradient x1="55.4686063%" y1="169.796671%" x2="42.2713491%" y2="-119.316905%" id="linearGradient-20">
            <stop stop-color="#FDBABA" offset="0%"></stop>
            <stop stop-color="#FF918E" offset="100%"></stop>
        </linearGradient>
        <path d="M0.13722808,14.5351093 C0.13722808,14.5351093 16.603596,30.1152814 10.103793,57.6617839 L10.103793,57.6617839 C22.1021349,64.8692314 32.681919,59.8617054 32.681919,59.8617054 L32.681919,59.8617054 C32.681919,59.8617054 44.1229345,29.6272114 45.3790222,23.5678104 L45.3790222,23.5678104 C47.5219839,13.2297825 29.4579606,0.0218389286 29.4579606,0.0218389286 L29.4579606,0.0218389286 C29.4579606,0.0218389286 10.5272969,4.56072964 0.13722808,14.5351093" id="path-21"></path>
        <linearGradient x1="-36.8740452%" y1="303.902919%" x2="43.6787756%" y2="56.1099313%" id="linearGradient-23">
            <stop stop-color="#E1463D" offset="0%"></stop>
            <stop stop-color="#E86059" offset="100%"></stop>
        </linearGradient>
        <path d="M15.3248707,13.7969936 C12.6794739,21.7670004 10.3632242,60.8474625 0.0518862375,79.1566993 L0.0518862375,79.1566993 C0.0518862375,79.1566993 24.9492669,85.7380307 41.137773,82.4573829 L41.137773,82.4573829 C41.137773,82.4573829 51.4120494,28.2866218 53.0493707,19.8579975 L53.0493707,19.8579975 C54.6868923,11.4289725 52.3145494,2.35920536 52.3145494,2.35920536 L52.3145494,2.35920536 C52.3145494,2.35920536 41.7347653,7.36673143 29.7364234,0.159283929 L29.7364234,0.159283929 C29.7364234,0.159283929 17.9700671,5.82678643 15.3248707,13.7969936" id="path-24"></path>
        <path d="M5.42842231,2.45497607 L0.143638735,26.1954943 C-0.362402331,28.2866218 1.54376582,27.9442114 3.65787958,27.5457011 L3.65787958,27.5457011 C7.11963319,26.8929375 11.5814489,25.5487414 13.0729279,22.8545389 L13.0729279,22.8545389 C13.2247802,22.58025 13.3007064,22.2702975 13.3433774,21.9597439 L13.3433774,21.9597439 L15.6139512,5.49759964 C15.7942508,4.19147143 15.0878768,2.92401214 13.8830744,2.38965964 L13.8830744,2.38965964 L9.50179245,0.446596071 C9.10954051,0.272686071 8.70266426,0.191140714 8.304202,0.191140714 L8.304202,0.191140714 C6.98881576,0.191140714 5.76137569,1.07812179 5.42842231,2.45497607" id="path-26"></path>
        <linearGradient x1="59.1327027%" y1="-101.230311%" x2="45.1650045%" y2="140.878465%" id="linearGradient-28">
            <stop stop-color="#FDBABA" offset="0%"></stop>
            <stop stop-color="#FF918E" offset="100%"></stop>
        </linearGradient>
        <path d="M1.52753885,18.9057 C6.5867475,25.8645043 12.4258524,27.1099243 16.4531459,27.3233046 L16.4531459,27.3233046 C20.4804395,27.5364846 24.4091693,24.0570825 21.9915511,14.3571921 L21.9915511,14.3571921 C19.5739329,4.6577025 13.9479822,0.848712857 13.9479822,0.848712857 L13.9479822,0.848712857 C13.0240466,0.265473214 12.0582414,0.00280488556 11.0838219,0.00280488556 L11.0838219,0.00280488556 C4.28151609,0.0042075 -2.89761598,12.8190504 1.52753885,18.9057" id="path-29"></path>
        <linearGradient x1="70.3454232%" y1="134.008855%" x2="3.93511216%" y2="-111.657199%" id="linearGradient-31">
            <stop stop-color="#FDBABA" offset="0%"></stop>
            <stop stop-color="#FF918E" offset="100%"></stop>
        </linearGradient>
        <path d="M4.92718923,8.07198857 C0.128814095,16.8257925 -1.61268036,22.9771575 2.40900388,28.4164532 L2.40900388,28.4164532 C6.43108879,33.8561496 9.45631687,29.1906332 9.45631687,29.1906332 L9.45631687,29.1906332 C9.45631687,29.1906332 7.61185128,24.4830418 9.14219478,22.4626404 L9.14219478,22.4626404 C10.6727386,20.4424393 12.6472203,23.6375346 12.6472203,23.6375346 L12.6472203,23.6375346 L13.4407392,23.4085264 C13.4407392,23.4085264 11.3795133,9.50955107 22.9176903,11.6353404 L22.9176903,11.6353404 L25.250768,14.0646707 C25.250768,14.0646707 30.8981543,7.70353179 24.6485671,2.89536107 L24.6485671,2.89536107 C22.2714162,1.06650107 19.5440832,0.111398571 16.8125433,0.111398571 L16.8125433,0.111398571 C12.3619462,0.111398571 7.90073141,2.64731893 4.92718923,8.07198857" id="path-32"></path>
        <path d="M1.38470144,0.458016429 C-2.26676748,2.50266107 2.70088901,7.13812393 4.69259933,8.71533536 L4.69259933,8.71533536 L6.05406215,5.56491964 C6.05406215,5.56491964 5.27476693,0.0913628571 2.63437847,0.0905614286 L2.63437847,0.0905614286 C2.25675083,0.0905614286 1.84166093,0.202360714 1.38470144,0.458016429" id="path-34"></path>
        <linearGradient x1="114.936243%" y1="330.985942%" x2="-61.5541544%" y2="-447.45979%" id="linearGradient-36">
            <stop stop-color="#FDBABA" offset="0%"></stop>
            <stop stop-color="#FF918E" offset="100%"></stop>
        </linearGradient>
        <path d="M1.99191065,11.9775504 C0.79972919,13.0356364 0.31432242,19.8451746 0.0408679245,21.4003468 L0.0408679245,21.4003468 C1.03512042,24.9821314 4.15911265,24.4012961 4.08138346,23.5611986 L4.08138346,23.5611986 C4.08138346,23.5611986 6.90667925,24.1476439 9.49017314,21.7629932 L9.49017314,21.7629932 C10.855242,20.5031475 12.3693585,18.8433889 13.4942281,17.5578975 L13.4942281,17.5578975 C14.6148907,16.2772146 15.2383269,14.6242682 15.1646043,12.9354579 L15.1646043,12.9354579 C15.0674428,10.7058836 14.2070128,8.97920571 13.6174329,7.02632464 L13.6174329,7.02632464 L19.2694267,3.211725 C19.2694267,3.211725 20.930187,1.93805464 19.6638824,0.00440785714 L19.6638824,0.00440785714 C19.6638824,0.00440785714 8.34146393,6.34310679 1.99191065,11.9775504" id="path-37"></path>
        <linearGradient x1="-126.782521%" y1="324.78995%" x2="100.378964%" y2="-30.346238%" id="linearGradient-39">
            <stop stop-color="#FDBABA" offset="0%"></stop>
            <stop stop-color="#FF918E" offset="100%"></stop>
        </linearGradient>
        <path d="M2.2206909,3.00475607 L0.0703168701,6.37296 L0.850613762,6.87104786 L2.8709717,3.70700786 L7.44857991,1.25924464 C7.63348724,1.45619571 7.72964706,1.65034179 7.7420677,1.84609071 L7.7420677,1.84609071 C7.76410433,2.20633286 7.52290344,2.65312929 7.02407436,3.17425821 L7.02407436,3.17425821 C5.71269478,4.54490143 3.00098779,11.1354493 2.88599667,11.4157489 L2.88599667,11.4157489 L3.74322142,11.7667746 C4.50689068,9.90565714 6.70514428,4.84804179 7.69398779,3.81439929 L7.69398779,3.81439929 C8.38794118,3.08910643 8.70606992,2.42612464 8.666404,1.78878857 L8.666404,1.78878857 C8.63374972,1.25343429 8.35408491,0.778587857 7.81298557,0.336800357 L7.81298557,0.336800357 L7.57418868,0.1416525 L2.2206909,3.00475607 Z" id="path-40"></path>
        <linearGradient x1="56.2799078%" y1="-22.2798504%" x2="94.772161%" y2="-372.698775%" id="linearGradient-42">
            <stop stop-color="#FDBABA" offset="0%"></stop>
            <stop stop-color="#FF918E" offset="100%"></stop>
        </linearGradient>
        <path d="M58.4341204,0.510109286 C58.4341204,0.510109286 29.1780954,60.5855957 18.5828857,65.8375575 L18.5828857,65.8375575 C18.5828857,65.8375575 7.82560655,66.9615611 1.24226471,68.9529107 L1.24226471,68.9529107 C-0.414088235,69.4538036 -0.358596004,71.8059964 1.31077858,72.2614082 L1.31077858,72.2614082 C5.89539845,73.5118371 13.4914234,74.5569 20.4525932,70.7773629 L20.4525932,70.7773629 C20.4525932,70.7773629 16.7131781,76.3835561 18.8946038,78.5670482 L18.8946038,78.5670482 C18.8946038,78.5670482 23.8804906,72.6472961 25.7503984,70.7773629 L25.7503984,70.7773629 C27.3963341,69.1312286 57.3563291,36.4643989 69.9518635,16.7632811 L69.9518635,16.7632811 C70.9697553,15.1716439 70.2633812,10.4410114 69.5564062,8.68908857 L69.5564062,8.68908857 C68.1648935,5.23994036 65.3213674,0.0302539286 60.8445266,0.0302539286 L60.8445266,0.0302539286 C60.087869,0.0302539286 59.2851349,0.178918929 58.4341204,0.510109286" id="path-43"></path>
        <linearGradient x1="5.02053801e-05%" y1="50.0000169%" x2="99.9999213%" y2="50.0000169%" id="linearGradient-45">
            <stop stop-color="#FDBABA" offset="0%"></stop>
            <stop stop-color="#FF918E" offset="100%"></stop>
        </linearGradient>
        <path d="M0.0897491676,7.13672143 C-0.0356592675,11.0434854 3.02322475,14.2439904 6.91789789,14.2850636 L6.91789789,14.2850636 C10.8079634,14.3261368 14.0593674,11.1991629 14.1845755,7.30101429 L14.1845755,7.30101429 C14.3097836,3.40286571 11.2613169,0.202360714 7.37165205,0.153072857 L7.37165205,0.153072857 C7.34100111,0.152672143 7.31075083,0.152471786 7.28030022,0.152471786 L7.28030022,0.152471786 C3.42669534,0.152672143 0.214155938,3.26101286 0.0897491676,7.13672143" id="path-46"></path>
        <linearGradient x1="293.562552%" y1="-1738.01561%" x2="117.566143%" y2="-446.010601%" id="linearGradient-48">
            <stop stop-color="#E1463D" offset="0%"></stop>
            <stop stop-color="#E86059" offset="100%"></stop>
        </linearGradient>
        <path d="M0.126610433,7.04435679 C0.00180299667,10.9352925 3.03544506,14.1225739 6.89846559,14.1630461 L6.89846559,14.1630461 C10.7568785,14.2039189 13.9826398,11.0895675 14.1070466,7.20724714 L14.1070466,7.20724714 C14.2318541,3.32492679 11.2086293,0.137645357 7.35041676,0.0885578571 L7.35041676,0.0885578571 C7.32016648,0.0881571429 7.2905172,0.0879567857 7.26046726,0.0879567857 L7.26046726,0.0879567857 C3.43771365,0.0883575 0.250616537,3.18407571 0.126610433,7.04435679" id="path-49"></path>
        <linearGradient x1="290.443836%" y1="-1722.30945%" x2="114.444709%" y2="-425.018709%" id="linearGradient-51">
            <stop stop-color="#E1463D" offset="0%"></stop>
            <stop stop-color="#E86059" offset="100%"></stop>
        </linearGradient>
        <path d="M0.033054939,7.10847107 C-0.0923534961,11.0154354 2.96673085,14.2155396 6.86120366,14.2566129 L6.86120366,14.2566129 C10.7512691,14.2976861 14.0028735,11.1709125 14.1278812,7.27276393 L14.1278812,7.27276393 C14.2530893,3.37461536 11.2046226,0.174310714 7.31495782,0.1248225 L7.31495782,0.1248225 C7.28430688,0.124421786 7.25385627,0.124221429 7.22320533,0.124221429 L7.22320533,0.124221429 C3.36960044,0.124421786 0.157461709,3.2327625 0.033054939,7.10847107" id="path-52"></path>
        <linearGradient x1="287.243019%" y1="-1691.59872%" x2="111.241655%" y2="-399.57566%" id="linearGradient-54">
            <stop stop-color="#E1463D" offset="0%"></stop>
            <stop stop-color="#E86059" offset="100%"></stop>
        </linearGradient>
        <path d="M0.163071032,6.97343036 C0.038063263,10.8641657 3.07190566,14.0512468 6.93492619,14.0921196 L6.93492619,14.0921196 C10.7935394,14.1327921 14.0191004,11.0184407 14.1435072,7.13612036 L14.1435072,7.13612036 C14.2683147,3.2538 11.2450899,0.0667189286 7.38687736,0.0176314286 L7.38687736,0.0176314286 C7.35662708,0.0172307143 7.32657714,0.0170303571 7.29652719,0.0170303571 L7.29652719,0.0170303571 C3.47357325,0.0170303571 0.286876804,3.11294893 0.163071032,6.97343036" id="path-55"></path>
        <linearGradient x1="280.638245%" y1="-1650.02947%" x2="104.639049%" y2="-352.739677%" id="linearGradient-57">
            <stop stop-color="#E1463D" offset="0%"></stop>
            <stop stop-color="#E86059" offset="100%"></stop>
        </linearGradient>
        <path d="M0.0697158713,7.03754464 C-0.0560932297,10.9441082 3.00299112,14.1444129 6.89786459,14.1856864 L6.89786459,14.1856864 C10.7875294,14.2267596 14.0391337,11.0997857 14.1643418,7.2018375 L14.1643418,7.2018375 C14.2895499,3.30348857 11.2410832,0.103183929 7.35141842,0.0536957143 L7.35141842,0.0536957143 C7.32076748,0.053295 7.29071754,0.0530946429 7.26006659,0.0530946429 L7.26006659,0.0530946429 C3.40646171,0.053295 0.193922309,3.16163571 0.0697158713,7.03754464" id="path-58"></path>
        <linearGradient x1="277.427308%" y1="-1619.58907%" x2="101.43312%" y2="-327.584147%" id="linearGradient-60">
            <stop stop-color="#E1463D" offset="0%"></stop>
            <stop stop-color="#E86059" offset="100%"></stop>
        </linearGradient>
        <path d="M0.0699162042,7.01610643 C-0.054891232,10.9068418 2.97875083,14.0943236 6.8419717,14.1349961 L6.8419717,14.1349961 C10.7003846,14.1756686 13.9259456,11.0613171 14.0503524,7.17899679 L14.0503524,7.17899679 C14.1749595,3.29647607 11.1519351,0.109595357 7.29372253,0.0605078571 L7.29372253,0.0605078571 C7.26347225,0.0601071429 7.23342231,0.0599067857 7.20337236,0.0599067857 L7.20337236,0.0599067857 C3.38061876,0.0599067857 0.193721976,3.15582536 0.0699162042,7.01610643" id="path-61"></path>
        <linearGradient x1="284.116806%" y1="-1675.67448%" x2="108.117748%" y2="-378.383558%" id="linearGradient-63">
            <stop stop-color="#E1463D" offset="0%"></stop>
            <stop stop-color="#E86059" offset="100%"></stop>
        </linearGradient>
        <path d="M0.141034406,0.401115 C-0.272252497,1.18871893 0.763869589,1.52010964 2.95931853,2.50927286 L2.95931853,2.50927286 C3.30669589,2.66575179 3.71898113,2.51728714 3.88004883,2.17708071 L3.88004883,2.17708071 C4.0409162,1.83707464 3.88986515,1.43415643 3.54208713,1.27747714 L3.54208713,1.27747714 C1.99191065,0.578431071 1.16673918,0.0368657143 0.662901776,0.0368657143 L0.662901776,0.0368657143 C0.436124861,0.0368657143 0.27445616,0.146661429 0.141034406,0.401115" id="path-64"></path>
        <linearGradient x1="-0.000137678312%" y1="49.9987552%" x2="100.000316%" y2="49.9987552%" id="linearGradient-66">
            <stop stop-color="#DAE2FD" offset="0%"></stop>
            <stop stop-color="#E8EFFD" offset="100%"></stop>
        </linearGradient>
    </defs>
    <g id="Page-1" stroke="none" stroke-width="1" fill="none" fill-rule="evenodd">
        <g id="Login-Page" transform="translate(-126.000000, -250.000000)">
            <g id="Group-149" transform="translate(97.000000, 211.000000)">
                <path d="M360.485728,39.3517017 C345.690611,39.3575292 331.085927,40.0921675 316.875364,41.5407659 C173.163598,56.1906717 102.456695,147.541853 89.0710161,164.000909 C15.8916313,253.981506 1.20089061,390.292062 95.5447384,476.81264 C157.90349,534.000509 244.155908,547.661999 288.777249,554.729603 C318.994703,559.515843 461.174817,579.114406 581.334006,511.879964 C591.556345,506.160199 604.494148,498.920591 618.168368,487.694611 C721.788662,402.623007 732.759712,199.213544 578.648193,98.5242974 C517.306444,58.4466579 436.457472,39.3716279 360.78825,39.3517017 L360.485728,39.3517017 Z" id="Fill-1" fill="#FFEDED"></path>
                <g transform="translate(132.820755, 71.126786)">
                    <g id="Group-12" transform="translate(304.506104, 0.000000)">
                        <path d="M223.631447,139.994264 C223.610011,136.737459 219.227727,135.671759 217.726032,138.561911 C203.209504,166.502115 162.849424,238.573986 116.967165,271.714259 C42.2605992,325.674044 -20.7799774,425.454105 6.47331898,489.634909 C6.47331898,489.634909 225.970935,494.846599 223.631447,139.994264" id="Fill-4" fill="#FC8F8F"></path>
                        <path d="M208.941211,181.11875 C208.663549,182.073051 208.358843,182.838415 208.067158,183.676108 L207.153239,186.126476 L205.273314,191.001967 C203.998195,194.242744 202.673994,197.462683 201.349393,200.682823 C198.677352,207.112885 195.925378,213.509087 193.114907,219.880444 C187.470525,232.612138 181.482172,245.189157 175.305707,257.673812 C169.146069,270.168083 162.637452,282.490047 155.870605,294.668957 C149.093341,306.841454 142.140985,318.92299 134.794976,330.768906 C120.152039,354.485381 104.205535,377.428077 86.7022435,399.151801 C77.8381108,409.918993 68.6879027,420.460384 58.9457107,430.448388 C49.1356058,440.36246 38.8985914,449.864598 28.0151025,458.577529 C27.7783089,458.767067 27.4331352,458.728598 27.2434199,458.491976 C27.0587129,458.261165 27.0907662,457.926769 27.3117335,457.734626 L27.3175431,457.729818 C37.8163927,448.634004 47.8073983,438.990614 57.3041824,428.877387 C66.8306158,418.789004 75.7616597,408.156251 84.4026214,397.307112 C93.0401774,386.449558 101.239004,375.246188 109.179402,363.865902 C117.117195,352.479406 124.579598,340.770334 131.974088,329.022393 C146.666908,305.456786 160.095627,281.115597 172.843414,256.430395 C179.191565,244.072367 185.291303,231.585308 191.168071,218.992862 C194.116571,212.701247 197.007576,206.382183 199.81965,200.027856 L203.962336,190.46501 L205.983896,185.664453 L206.96713,183.255759 C207.276243,182.461543 207.622218,181.613031 207.864221,180.906972 L207.903887,180.790364 C208.001449,180.506058 208.310963,180.354387 208.595035,180.451761 C208.870894,180.54653 209.021144,180.841656 208.941211,181.11875" id="Fill-6" fill="#FFFFFF"></path>
                        <path d="M135.293224,2.14865004 C134.385315,-0.832063179 130.075552,-0.613673893 129.486974,2.44618039 C123.795514,32.029714 106.442473,109.134756 73.4059644,152.044244 C19.6147607,221.910583 -10.9798891,330.613749 31.5193467,382.035009 C31.5193467,382.035009 234.231264,326.927579 135.293224,2.14865004" id="Fill-8" fill="#FC8F8F"></path>
                        <path d="M133.049034,43.8691181 C133.054684,44.8220166 132.984166,45.6062145 132.945302,46.4541259 L132.776421,48.9509766 L132.383768,53.9352613 C132.099296,57.2553795 131.763738,60.5696874 131.42778,63.8839952 C130.732624,70.5100063 129.955533,77.1270013 129.117139,83.7367834 C127.415912,96.953142 125.356088,110.121215 123.099337,123.256228 C120.861017,136.395249 118.253684,149.471357 115.370492,162.486758 C112.476281,175.498952 109.396362,188.475684 105.891337,201.344222 C98.9325709,227.089514 90.5644627,252.480374 80.4364294,277.177998 C75.2425969,289.47031 69.7246258,301.633792 63.5129016,313.450856 C57.2174382,325.218632 50.4191391,336.724542 42.8108938,347.681874 C42.6424138,347.924707 42.3092601,347.984814 42.0666569,347.816313 C41.8298633,347.652021 41.7667584,347.331048 41.9198128,347.090219 L41.9240198,347.084208 C49.066491,335.87603 55.5959432,324.306006 61.5434282,312.439653 C67.5257712,300.588929 72.8135598,288.401204 77.7766086,276.094066 C82.7342484,263.780717 87.1964649,251.270417 91.3734072,238.667953 C95.5461425,226.06068 99.1940054,213.28671 102.771551,200.496712 C109.819465,174.878446 115.493296,148.893127 120.454141,122.778777 C122.906817,109.71489 125.095655,96.5995116 127.052307,83.4488702 C128.041551,76.8751524 128.970495,70.291617 129.817303,63.6974627 L131.010085,53.798217 L131.555993,48.844587 L131.8012,46.3673713 C131.868312,45.5551234 131.954255,44.6817666 131.984104,43.9704988 L131.988912,43.8502845 C132.001132,43.5577631 132.247943,43.3303577 132.540629,43.3421091 C132.824301,43.3544006 133.04647,43.5882174 133.049034,43.8691181" id="Fill-10" fill="#FFFFFF"></path>
                    </g>
                    <g id="Group-15" transform="translate(75.725860, 6.010714)">
                        <mask id="mask-2" fill="white">
                            <use xlink:href="#path-1"></use>
                        </mask>
                        <g id="Clip-14"></g>
                        <path d="M28.7581976,1.0027875 C16.1776881,1.81924286 6.319904,12.1248129 6.00758491,24.7294811 L6.00758491,24.7294811 C4.0968091,101.810881 -2.09968979,367.694026 0.858426748,461.915178 L0.858426748,461.915178 C1.1717475,471.897171 9.17264539,479.908652 19.1530333,480.235234 L19.1530333,480.235234 C54.7980771,481.401914 138.76864,483.8625 213.076143,483.8625 L213.076143,483.8625 L213.131034,483.8625 C241.706528,483.8625 268.835418,483.498651 291.257885,482.557774 L291.257885,482.557774 C308.074836,481.852317 321.448063,468.228833 321.797443,451.398432 L321.797443,451.398432 C323.475032,370.491613 327.176784,142.931179 318.37816,38.6855582 L318.37816,38.6855582 C317.324008,26.1952939 307.521917,16.2487639 295.05119,15.00114 L295.05119,15.00114 C248.967597,10.3905214 137.459865,0.0705256091 62.6206787,0.0705256091 L62.6206787,0.0705256091 C50.157364,0.0705256091 38.7163485,0.356435357 28.7581976,1.0027875" id="Fill-13" fill="#565656" mask="url(#mask-2)"></path>
                    </g>
                    <g id="Group-24" transform="translate(92.754162, 15.828214)">
                        <path d="M9.03677958,38.862734 C6.34069856,101.991864 -2.16323541,312.008024 0.53585061,389.667655 C0.930306215,401.018488 9.8755737,410.196849 21.2128168,410.860231 C67.8909982,413.592101 187.616788,419.616239 256.082181,414.132865 C268.410672,413.145705 278.084951,403.17393 278.750457,390.822714 C282.220024,326.417509 292.181981,130.863128 289.594681,54.0738483 C289.181795,41.8240126 279.694025,31.8195794 267.487538,30.7234255 C216.989007,26.1889426 87.2918434,15.3997105 29.1117452,18.5743694 C18.1899927,19.1702315 9.50355538,27.9336526 9.03677958,38.862734" id="Fill-16" fill="#FFDFDF"></path>
                        <path d="M110.973383,4.65399589 L110.973383,4.65399589 C110.973383,7.01921196 112.816447,8.96988911 115.178172,9.09350946 C126.83715,9.70419804 159.681138,11.432078 174.359534,12.2837962 C177.253544,12.4516955 179.52512,9.84985768 178.976207,7.00298304 L178.882452,6.51731732 C178.507829,4.57465446 176.896952,3.11244804 174.927078,2.93212661 C165.005187,2.02290589 135.066627,-0.498388393 115.230459,0.20967375 C112.847498,0.294825536 110.973383,2.26954554 110.973383,4.65399589" id="Fill-18" fill="#FFFFFF"></path>
                        <path d="M241.56906,266.496138 L43.1084083,262.685545 C36.6384549,262.561324 31.7661569,270.098359 32.300445,279.434601 C32.829324,288.676475 39.5775398,291.462241 45.9190798,291.364667 L240.067765,292.919037 C244.044975,292.857728 247.591269,287.014312 248.028596,279.81568 C248.469328,272.559947 245.595953,266.573476 241.56906,266.496138" id="Fill-20" fill="#FFFFFF"></path>
                        <path d="M242.106273,327.376519 L43.6456212,323.565926 C37.1756678,323.441705 32.3033698,330.97874 32.8376578,340.314982 C33.3665368,349.556856 40.1147527,352.342622 46.4562927,352.245048 L240.604977,353.799418 C244.582188,353.738109 248.128482,347.894693 248.565809,340.696061 C249.006541,333.440328 246.133166,327.453857 242.106273,327.376519" id="Fill-22" fill="#FFFFFF"></path>
                    </g>
                    <g id="Group-27" transform="translate(136.026082, 289.516071)">
                        <mask id="mask-4" fill="white">
                            <use xlink:href="#path-3"></use>
                        </mask>
                        <g id="Clip-26"></g>
                        <path d="M0.065508879,4.50843643 C0.356793008,6.99086143 4.02028191,7.74240107 7.46180189,7.71915964 L7.46180189,7.71915964 L112.82432,8.23067143 C114.982707,8.21624571 116.9041,6.64865143 117.13829,4.715205 L117.13829,4.715205 C117.374082,2.76673179 115.811484,1.15726286 113.626252,1.1346225 L113.626252,1.1346225 L5.9224434,0.0152271429 C5.89139179,0.0148264286 5.86013984,0.0146260714 5.82928857,0.0146260714 L5.82928857,0.0146260714 C2.36452997,0.0146260714 -0.226376249,2.02280571 0.065508879,4.50843643" id="Fill-25" fill="url(#linearGradient-5)" mask="url(#mask-4)"></path>
                    </g>
                    <g id="Group-30" transform="translate(33.455605, 224.600357)">
                        <mask id="mask-7" fill="white">
                            <use xlink:href="#path-6"></use>
                        </mask>
                        <g id="Clip-29"></g>
                        <path d="M23.6116437,14.2159404 C23.282697,16.8714739 21.3178313,18.9984654 18.6730355,19.4037879 C12.0858873,20.4133875 1.93461543,23.8344857 0.310516093,35.2724743 C-0.929344617,44.0032371 3.52085183,47.3135379 8.19121421,48.45918 C11.6213152,49.3008804 13.900904,52.6378286 13.2071509,56.1012021 C12.5416448,59.4231236 13.5340943,63.2635693 19.2884584,66.3003825 C32.1838912,73.1057132 45.0618951,50.1780439 45.0618951,50.1780439 L47.7010816,10.1454846 L38.463929,0.0228407143 C38.463929,0.0228407143 32.6312347,2.86049893 31.5588524,6.11990893 C30.698222,8.73517071 24.2487026,9.07217143 23.6116437,14.2159404 Z" id="Fill-28" fill="#303030" mask="url(#mask-7)"></path>
                    </g>
                    <g id="Group-33" transform="translate(85.542175, 214.983214)">
                        <mask id="mask-9" fill="white">
                            <use xlink:href="#path-8"></use>
                        </mask>
                        <g id="Clip-32"></g>
                        <path d="M0.180900666,48.7466925 C0.180900666,48.7466925 6.14661598,65.7403843 10.7512691,67.6852511 L10.7512691,67.6852511 C10.7512691,67.6852511 48.4186743,36.2524211 58.0983624,5.93698286 L58.0983624,5.93698286 L56.5449806,0.149466429 C56.5449806,0.149466429 30.7975871,40.8794689 0.180900666,48.7466925" id="Fill-31" fill="url(#linearGradient-10)" mask="url(#mask-9)"></path>
                    </g>
                    <g id="Group-36" transform="translate(4.206992, 472.842857)">
                        <mask id="mask-12" fill="white">
                            <use xlink:href="#path-11"></use>
                        </mask>
                        <g id="Clip-35"></g>
                        <path d="M4.77012819,0.171906429 C2.54983796,2.51167714 1.0100788,6.48756429 0.168279689,9.13608536 L0.168279689,9.13608536 C-0.293287458,10.5884743 0.690547725,12.1236107 2.20626693,12.2836961 L2.20626693,12.2836961 C5.65900555,12.6489471 9.18807103,12.3912879 11.3873263,12.14004 L11.3873263,12.14004 C12.6898912,11.991375 13.714394,10.9621404 13.872657,9.66062036 L13.872657,9.66062036 L14.7070438,2.79979071 C14.8771265,1.40270036 13.7871149,0.171906429 12.3799761,0.171906429 L12.3799761,0.171906429 L4.77012819,0.171906429 Z" id="Fill-34" fill="#303030" mask="url(#mask-12)"></path>
                    </g>
                    <g id="Group-39" transform="translate(63.705882, 395.104286)">
                        <mask id="mask-14" fill="white">
                            <use xlink:href="#path-13"></use>
                        </mask>
                        <g id="Clip-38"></g>
                        <path d="M5.81506493,6.33569357 L1.88333019,13.7228614 C0.531283019,16.2629893 -0.060300222,19.1389157 0.179097669,22.0064271 L0.179097669,22.0064271 L4.25487181,70.8202393 L1.14309989,75.0992668 L1.52152886,77.4192021 L20.5301221,88.6369982 L13.0506909,76.4899457 C11.6167075,74.1607939 10.9097325,71.4603804 11.029732,68.7279096 L11.029732,68.7279096 C11.7948036,51.2982407 16.0961526,7.72416857 16.0961526,7.72416857 L16.0961526,7.72416857 L14.8116176,0.167698929 L5.81506493,6.33569357 Z" id="Fill-37" fill="url(#linearGradient-15)" mask="url(#mask-14)"></path>
                    </g>
                    <g id="Group-42" transform="translate(63.305216, 467.433214)">
                        <mask id="mask-17" fill="white">
                            <use xlink:href="#path-16"></use>
                        </mask>
                        <g id="Clip-41"></g>
                        <path d="M0.13181909,6.925545 L1.92219478,18.0680068 L3.33574417,18.0680068 C3.33574417,18.0680068 3.01340844,9.1008225 5.53519978,9.26952321 L5.53519978,9.26952321 C7.40871365,9.39454607 11.3266254,14.1890925 13.2177686,16.6466732 L13.2177686,16.6466732 C13.9101193,17.5464771 14.980899,18.0680068 16.1165866,18.0680068 L16.1165866,18.0680068 L22.182268,18.0680068 C24.1275011,18.0680068 24.3947453,15.2333539 22.4807642,14.8871368 L22.4807642,14.8871368 C21.1906199,14.6541214 20.0154667,14.8218204 20.0154667,14.8218204 L20.0154667,14.8218204 C20.0154667,14.8218204 10.4207198,8.06738036 7.29492453,6.18121821 L7.29492453,6.18121821 C4.16872863,4.29505607 3.59217037,0.0310553571 3.59217037,0.0310553571 L3.59217037,0.0310553571 C1.07498668,1.34459679 -0.318930078,4.12214786 0.13181909,6.925545" id="Fill-40" fill="#303030" mask="url(#mask-17)"></path>
                    </g>
                    <g id="Group-45" transform="translate(6.811321, 395.705357)">
                        <mask id="mask-19" fill="white">
                            <use xlink:href="#path-18"></use>
                        </mask>
                        <g id="Clip-44"></g>
                        <path d="M32.7049573,3.155625 C22.1970927,11.1939536 19.469359,19.9203086 17.0565488,27.9650486 L17.0565488,27.9650486 C14.6435383,36.0097886 10.2436254,59.1474321 8.19842619,64.2531332 L8.19842619,64.2531332 C6.48517869,68.5293557 1.8596909,77.9575618 0.401867925,80.9078207 L0.401867925,80.9078207 C-0.00881465039,81.7393029 0.016427303,82.7270636 0.503837403,83.51607 L0.503837403,83.51607 C1.07538735,84.4409186 2.24272752,85.3962214 4.62628912,85.3962214 L4.62628912,85.3962214 C9.24496559,85.3962214 10.9203502,84.1043186 11.00449,82.7571171 L11.00449,82.7571171 C11.0581792,81.8945796 12.4613113,72.7895496 16.4669689,61.8750943 L16.4669689,61.8750943 C20.4726265,50.9602382 45.6709073,3.155625 45.6709073,3.155625 L45.6709073,3.155625 C43.7531199,0.800026071 41.6736637,0.0152271045 39.7526709,0.0152271045 L39.7526709,0.0152271045 C35.911086,0.0152271045 32.7049573,3.155625 32.7049573,3.155625" id="Fill-43" fill="url(#linearGradient-20)" mask="url(#mask-19)"></path>
                    </g>
                    <g id="Group-48" transform="translate(58.296892, 262.868571)">
                        <mask id="mask-22" fill="white">
                            <use xlink:href="#path-21"></use>
                        </mask>
                        <g id="Clip-47"></g>
                        <path d="M0.13722808,14.5351093 C0.13722808,14.5351093 16.603596,30.1152814 10.103793,57.6617839 L10.103793,57.6617839 C22.1021349,64.8692314 32.681919,59.8617054 32.681919,59.8617054 L32.681919,59.8617054 C32.681919,59.8617054 44.1229345,29.6272114 45.3790222,23.5678104 L45.3790222,23.5678104 C47.5219839,13.2297825 29.4579606,0.0218389286 29.4579606,0.0218389286 L29.4579606,0.0218389286 C29.4579606,0.0218389286 10.5272969,4.56072964 0.13722808,14.5351093" id="Fill-46" fill="url(#linearGradient-23)" mask="url(#mask-22)"></path>
                    </g>
                    <g id="Group-51" transform="translate(38.664262, 320.371071)">
                        <mask id="mask-25" fill="white">
                            <use xlink:href="#path-24"></use>
                        </mask>
                        <g id="Clip-50"></g>
                        <path d="M15.3248707,13.7969936 C12.6794739,21.7670004 10.3632242,60.8474625 0.0518862375,79.1566993 L0.0518862375,79.1566993 C0.0518862375,79.1566993 24.9492669,85.7380307 41.137773,82.4573829 L41.137773,82.4573829 C41.137773,82.4573829 51.4120494,28.2866218 53.0493707,19.8579975 L53.0493707,19.8579975 C54.6868923,11.4289725 52.3145494,2.35920536 52.3145494,2.35920536 L52.3145494,2.35920536 C52.3145494,2.35920536 41.7347653,7.36673143 29.7364234,0.159283929 L29.7364234,0.159283929 C29.7364234,0.159283929 17.9700671,5.82678643 15.3248707,13.7969936" id="Fill-49" fill="#858585" mask="url(#mask-25)"></path>
                    </g>
                    <g id="Group-54" transform="translate(70.517203, 242.231786)">
                        <mask id="mask-27" fill="white">
                            <use xlink:href="#path-26"></use>
                        </mask>
                        <g id="Clip-53"></g>
                        <path d="M5.42842231,2.45497607 L0.143638735,26.1954943 C-0.362402331,28.2866218 1.54376582,27.9442114 3.65787958,27.5457011 L3.65787958,27.5457011 C7.11963319,26.8929375 11.5814489,25.5487414 13.0729279,22.8545389 L13.0729279,22.8545389 C13.2247802,22.58025 13.3007064,22.2702975 13.3433774,21.9597439 L13.3433774,21.9597439 L15.6139512,5.49759964 C15.7942508,4.19147143 15.0878768,2.92401214 13.8830744,2.38965964 L13.8830744,2.38965964 L9.50179245,0.446596071 C9.10954051,0.272686071 8.70266426,0.191140714 8.304202,0.191140714 L8.304202,0.191140714 C6.98881576,0.191140714 5.76137569,1.07812179 5.42842231,2.45497607" id="Fill-52" fill="url(#linearGradient-28)" mask="url(#mask-27)"></path>
                    </g>
                    <g id="Group-57" transform="translate(72.119867, 222.196071)">
                        <mask id="mask-30" fill="white">
                            <use xlink:href="#path-29"></use>
                        </mask>
                        <g id="Clip-56"></g>
                        <path d="M1.52753885,18.9057 C6.5867475,25.8645043 12.4258524,27.1099243 16.4531459,27.3233046 L16.4531459,27.3233046 C20.4804395,27.5364846 24.4091693,24.0570825 21.9915511,14.3571921 L21.9915511,14.3571921 C19.5739329,4.6577025 13.9479822,0.848712857 13.9479822,0.848712857 L13.9479822,0.848712857 C13.0240466,0.265473214 12.0582414,0.00280488556 11.0838219,0.00280488556 L11.0838219,0.00280488556 C4.28151609,0.0042075 -2.89761598,12.8190504 1.52753885,18.9057" id="Fill-55" fill="url(#linearGradient-31)" mask="url(#mask-30)"></path>
                    </g>
                    <g id="Group-60" transform="translate(65.308546, 213.781071)">
                        <mask id="mask-33" fill="white">
                            <use xlink:href="#path-32"></use>
                        </mask>
                        <g id="Clip-59"></g>
                        <path d="M4.92718923,8.07198857 C0.128814095,16.8257925 -1.61268036,22.9771575 2.40900388,28.4164532 L2.40900388,28.4164532 C6.43108879,33.8561496 9.45631687,29.1906332 9.45631687,29.1906332 L9.45631687,29.1906332 C9.45631687,29.1906332 7.61185128,24.4830418 9.14219478,22.4626404 L9.14219478,22.4626404 C10.6727386,20.4424393 12.6472203,23.6375346 12.6472203,23.6375346 L12.6472203,23.6375346 L13.4407392,23.4085264 C13.4407392,23.4085264 11.3795133,9.50955107 22.9176903,11.6353404 L22.9176903,11.6353404 L25.250768,14.0646707 C25.250768,14.0646707 30.8981543,7.70353179 24.6485671,2.89536107 L24.6485671,2.89536107 C22.2714162,1.06650107 19.5440832,0.111398571 16.8125433,0.111398571 L16.8125433,0.111398571 C12.3619462,0.111398571 7.90073141,2.64731893 4.92718923,8.07198857" id="Fill-58" fill="#303030" mask="url(#mask-33)"></path>
                    </g>
                    <g id="Group-63" transform="translate(71.118202, 232.815000)">
                        <mask id="mask-35" fill="white">
                            <use xlink:href="#path-34"></use>
                        </mask>
                        <g id="Clip-62"></g>
                        <path d="M1.38470144,0.458016429 C-2.26676748,2.50266107 2.70088901,7.13812393 4.69259933,8.71533536 L4.69259933,8.71533536 L6.05406215,5.56491964 C6.05406215,5.56491964 5.27476693,0.0913628571 2.63437847,0.0905614286 L2.63437847,0.0905614286 C2.25675083,0.0905614286 1.84166093,0.202360714 1.38470144,0.458016429" id="Fill-61" fill="url(#linearGradient-36)" mask="url(#mask-35)"></path>
                    </g>
                    <g id="Group-66" transform="translate(137.829079, 199.956429)">
                        <mask id="mask-38" fill="white">
                            <use xlink:href="#path-37"></use>
                        </mask>
                        <g id="Clip-65"></g>
                        <path d="M1.99191065,11.9775504 C0.79972919,13.0356364 0.31432242,19.8451746 0.0408679245,21.4003468 L0.0408679245,21.4003468 C1.03512042,24.9821314 4.15911265,24.4012961 4.08138346,23.5611986 L4.08138346,23.5611986 C4.08138346,23.5611986 6.90667925,24.1476439 9.49017314,21.7629932 L9.49017314,21.7629932 C10.855242,20.5031475 12.3693585,18.8433889 13.4942281,17.5578975 L13.4942281,17.5578975 C14.6148907,16.2772146 15.2383269,14.6242682 15.1646043,12.9354579 L15.1646043,12.9354579 C15.0674428,10.7058836 14.2070128,8.97920571 13.6174329,7.02632464 L13.6174329,7.02632464 L19.2694267,3.211725 C19.2694267,3.211725 20.930187,1.93805464 19.6638824,0.00440785714 L19.6638824,0.00440785714 C19.6638824,0.00440785714 8.34146393,6.34310679 1.99191065,11.9775504" id="Fill-64" fill="url(#linearGradient-39)" mask="url(#mask-38)"></path>
                    </g>
                    <g id="Group-69" transform="translate(141.234739, 208.972500)">
                        <mask id="mask-41" fill="white">
                            <use xlink:href="#path-40"></use>
                        </mask>
                        <g id="Clip-68"></g>
                        <path d="M2.2206909,3.00475607 L0.0703168701,6.37296 L0.850613762,6.87104786 L2.8709717,3.70700786 L7.44857991,1.25924464 C7.63348724,1.45619571 7.72964706,1.65034179 7.7420677,1.84609071 L7.7420677,1.84609071 C7.76410433,2.20633286 7.52290344,2.65312929 7.02407436,3.17425821 L7.02407436,3.17425821 C5.71269478,4.54490143 3.00098779,11.1354493 2.88599667,11.4157489 L2.88599667,11.4157489 L3.74322142,11.7667746 C4.50689068,9.90565714 6.70514428,4.84804179 7.69398779,3.81439929 L7.69398779,3.81439929 C8.38794118,3.08910643 8.70606992,2.42612464 8.666404,1.78878857 L8.666404,1.78878857 C8.63374972,1.25343429 8.35408491,0.778587857 7.81298557,0.336800357 L7.81298557,0.336800357 L7.57418868,0.1416525 L2.2206909,3.00475607 Z" id="Fill-67" fill="url(#linearGradient-42)" mask="url(#mask-41)"></path>
                    </g>
                    <g id="Group-72" transform="translate(0.000000, 276.893571)">
                        <mask id="mask-44" fill="white">
                            <use xlink:href="#path-43"></use>
                        </mask>
                        <g id="Clip-71"></g>
                        <path d="M58.4341204,0.510109286 C58.4341204,0.510109286 29.1780954,60.5855957 18.5828857,65.8375575 L18.5828857,65.8375575 C18.5828857,65.8375575 7.82560655,66.9615611 1.24226471,68.9529107 L1.24226471,68.9529107 C-0.414088235,69.4538036 -0.358596004,71.8059964 1.31077858,72.2614082 L1.31077858,72.2614082 C5.89539845,73.5118371 13.4914234,74.5569 20.4525932,70.7773629 L20.4525932,70.7773629 C20.4525932,70.7773629 16.7131781,76.3835561 18.8946038,78.5670482 L18.8946038,78.5670482 C18.8946038,78.5670482 23.8804906,72.6472961 25.7503984,70.7773629 L25.7503984,70.7773629 C27.3963341,69.1312286 57.3563291,36.4643989 69.9518635,16.7632811 L69.9518635,16.7632811 C70.9697553,15.1716439 70.2633812,10.4410114 69.5564062,8.68908857 L69.5564062,8.68908857 C68.1648935,5.23994036 65.3213674,0.0302539286 60.8445266,0.0302539286 L60.8445266,0.0302539286 C60.087869,0.0302539286 59.2851349,0.178918929 58.4341204,0.510109286" id="Fill-70" fill="url(#linearGradient-45)" mask="url(#mask-44)"></path>
                    </g>
                    <path d="M325.524418,154.589721 C325.524418,203.060922 286.235518,242.354765 237.769966,242.354765 C189.304614,242.354765 150.015513,203.060922 150.015513,154.589721 C150.015513,106.11852 189.304614,66.8246771 237.769966,66.8246771 C286.235518,66.8246771 325.524418,106.11852 325.524418,154.589721" id="Fill-73" fill="#FFFFFF"></path>
                    <path d="M272.425196,141.452143 C276.644678,141.452143 280.065483,144.872483 280.065483,149.09159 L280.065483,149.09159 L280.065483,201.93364 C280.065483,206.152909 276.644678,209.573571 272.425196,209.573571 L272.425196,209.573571 L203.565925,209.573571 C199.346282,209.573571 195.925638,206.152909 195.925638,201.93364 L195.925638,201.93364 L195.925638,149.09159 C195.925638,144.872483 199.346282,141.452143 203.565925,141.452143 L203.565925,141.452143 Z M250.759239,167.772295 C250.759239,160.453836 244.598986,154.57419 237.180446,155.035048 C230.778624,155.432578 225.588193,160.675725 225.249932,167.080202 C224.988863,172.025402 227.545563,176.395175 231.456758,178.733143 L231.456758,178.733143 L228.143281,192.524079 C227.715741,194.304345 229.064757,196.015965 230.895783,196.015965 L230.895783,196.015965 L245.095338,196.015965 C246.926042,196.015965 248.275219,194.304345 247.847679,192.524401 L247.847679,192.524401 L244.534202,178.733143 C248.262165,176.504749 250.759239,172.430829 250.759239,167.772295 Z M250.620456,99.9782143 C261.903667,99.9782143 271.050499,109.135889 271.050499,120.432674 L271.050499,134.377804 C271.050499,136.403768 269.41017,138.046071 267.38664,138.046071 L263.31169,138.046071 C261.28816,138.046071 259.647831,136.403768 259.647831,134.377804 L259.647831,120.432674 C259.647831,115.441042 255.606091,111.394439 250.620456,111.394439 L225.370504,111.394439 C220.384708,111.394439 216.343129,115.441042 216.343129,120.432674 L216.343129,134.377804 C216.343129,136.403768 214.702799,138.046071 212.679269,138.046071 L208.60432,138.046071 C206.580951,138.046071 204.940622,136.403768 204.940622,134.377804 L204.940622,120.432674 C204.940622,109.135889 214.087454,99.9782143 225.370504,99.9782143 L250.620456,99.9782143 Z" id="Combined-Shape" fill="#E80000"></path>
                    <g id="Group-83" transform="translate(141.234739, 346.217143)">
                        <mask id="mask-47" fill="white">
                            <use xlink:href="#path-46"></use>
                        </mask>
                        <g id="Clip-82"></g>
                        <path d="M0.0897491676,7.13672143 C-0.0356592675,11.0434854 3.02322475,14.2439904 6.91789789,14.2850636 L6.91789789,14.2850636 C10.8079634,14.3261368 14.0593674,11.1991629 14.1845755,7.30101429 L14.1845755,7.30101429 C14.3097836,3.40286571 11.2613169,0.202360714 7.37165205,0.153072857 L7.37165205,0.153072857 C7.34100111,0.152672143 7.31075083,0.152471786 7.28030022,0.152471786 L7.28030022,0.152471786 C3.42669534,0.152672143 0.214155938,3.26101286 0.0897491676,7.13672143" id="Fill-81" fill="url(#linearGradient-48)" mask="url(#mask-47)"></path>
                    </g>
                    <g id="Group-86" transform="translate(167.678690, 346.617857)">
                        <mask id="mask-50" fill="white">
                            <use xlink:href="#path-49"></use>
                        </mask>
                        <g id="Clip-85"></g>
                        <path d="M0.126610433,7.04435679 C0.00180299667,10.9352925 3.03544506,14.1225739 6.89846559,14.1630461 L6.89846559,14.1630461 C10.7568785,14.2039189 13.9826398,11.0895675 14.1070466,7.20724714 L14.1070466,7.20724714 C14.2318541,3.32492679 11.2086293,0.137645357 7.35041676,0.0885578571 L7.35041676,0.0885578571 C7.32016648,0.0881571429 7.2905172,0.0879567857 7.26046726,0.0879567857 L7.26046726,0.0879567857 C3.43771365,0.0883575 0.250616537,3.18407571 0.126610433,7.04435679" id="Fill-84" fill="url(#linearGradient-51)" mask="url(#mask-50)"></path>
                    </g>
                    <g id="Group-89" transform="translate(195.925638, 347.018571)">
                        <mask id="mask-53" fill="white">
                            <use xlink:href="#path-52"></use>
                        </mask>
                        <g id="Clip-88"></g>
                        <path d="M0.033054939,7.10847107 C-0.0923534961,11.0154354 2.96673085,14.2155396 6.86120366,14.2566129 L6.86120366,14.2566129 C10.7512691,14.2976861 14.0028735,11.1709125 14.1278812,7.27276393 L14.1278812,7.27276393 C14.2530893,3.37461536 11.2046226,0.174310714 7.31495782,0.1248225 L7.31495782,0.1248225 C7.28430688,0.124421786 7.25385627,0.124221429 7.22320533,0.124221429 L7.22320533,0.124221429 C3.36960044,0.124421786 0.157461709,3.2327625 0.033054939,7.10847107" id="Fill-87" fill="url(#linearGradient-54)" mask="url(#mask-53)"></path>
                    </g>
                    <g id="Group-92" transform="translate(251.818535, 347.820000)">
                        <mask id="mask-56" fill="white">
                            <use xlink:href="#path-55"></use>
                        </mask>
                        <g id="Clip-91"></g>
                        <path d="M0.163071032,6.97343036 C0.038063263,10.8641657 3.07190566,14.0512468 6.93492619,14.0921196 L6.93492619,14.0921196 C10.7935394,14.1327921 14.0191004,11.0184407 14.1435072,7.13612036 L14.1435072,7.13612036 C14.2683147,3.2538 11.2450899,0.0667189286 7.38687736,0.0176314286 L7.38687736,0.0176314286 C7.35662708,0.0172307143 7.32657714,0.0170303571 7.29652719,0.0170303571 L7.29652719,0.0170303571 C3.47357325,0.0170303571 0.286876804,3.11294893 0.163071032,6.97343036" id="Fill-90" fill="url(#linearGradient-57)" mask="url(#mask-56)"></path>
                    </g>
                    <g id="Group-95" transform="translate(280.065483, 348.220714)">
                        <mask id="mask-59" fill="white">
                            <use xlink:href="#path-58"></use>
                        </mask>
                        <g id="Clip-94"></g>
                        <path d="M0.0697158713,7.03754464 C-0.0560932297,10.9441082 3.00299112,14.1444129 6.89786459,14.1856864 L6.89786459,14.1856864 C10.7875294,14.2267596 14.0391337,11.0997857 14.1643418,7.2018375 L14.1643418,7.2018375 C14.2895499,3.30348857 11.2410832,0.103183929 7.35141842,0.0536957143 L7.35141842,0.0536957143 C7.32076748,0.053295 7.29071754,0.0530946429 7.26006659,0.0530946429 L7.26006659,0.0530946429 C3.40646171,0.053295 0.193922309,3.16163571 0.0697158713,7.03754464" id="Fill-93" fill="url(#linearGradient-60)" mask="url(#mask-59)"></path>
                    </g>
                    <g id="Group-98" transform="translate(222.369589, 347.419286)">
                        <mask id="mask-62" fill="white">
                            <use xlink:href="#path-61"></use>
                        </mask>
                        <g id="Clip-97"></g>
                        <path d="M0.0699162042,7.01610643 C-0.054891232,10.9068418 2.97875083,14.0943236 6.8419717,14.1349961 L6.8419717,14.1349961 C10.7003846,14.1756686 13.9259456,11.0613171 14.0503524,7.17899679 L14.0503524,7.17899679 C14.1749595,3.29647607 11.1519351,0.109595357 7.29372253,0.0605078571 L7.29372253,0.0605078571 C7.26347225,0.0601071429 7.23342231,0.0599067857 7.20337236,0.0599067857 L7.20337236,0.0599067857 C3.38061876,0.0599067857 0.193721976,3.15582536 0.0699162042,7.01610643" id="Fill-96" fill="url(#linearGradient-63)" mask="url(#mask-62)"></path>
                    </g>
                    <g id="Group-114" transform="translate(19.031632, 186.532500)">
                        <mask id="mask-65" fill="white">
                            <use xlink:href="#path-64"></use>
                        </mask>
                        <g id="Clip-113"></g>
                        <path d="M0.141034406,0.401115 C-0.272252497,1.18871893 0.763869589,1.52010964 2.95931853,2.50927286 L2.95931853,2.50927286 C3.30669589,2.66575179 3.71898113,2.51728714 3.88004883,2.17708071 L3.88004883,2.17708071 C4.0409162,1.83707464 3.88986515,1.43415643 3.54208713,1.27747714 L3.54208713,1.27747714 C1.99191065,0.578431071 1.16673918,0.0368657143 0.662901776,0.0368657143 L0.662901776,0.0368657143 C0.436124861,0.0368657143 0.27445616,0.146661429 0.141034406,0.401115" id="Fill-112" fill="url(#linearGradient-66)" mask="url(#mask-65)"></path>
                    </g>
                </g>
            </g>
        </g>
    </g>
</svg>