<?xml version="1.0" encoding="UTF-8"?>
<svg width="86px" height="86px" viewBox="0 0 86 86" version="1.1" xmlns="http://www.w3.org/2000/svg" xmlns:xlink="http://www.w3.org/1999/xlink">
    <title>img_benefit1</title>
    <g id="Page-1" stroke="none" stroke-width="1" fill="none" fill-rule="evenodd">
        <g id="Home" transform="translate(-202.000000, -2383.000000)" fill-rule="nonzero">
            <g id="online-learning" transform="translate(202.000000, 2383.000000)">
                <path d="M81.7,27.3555094 L81.7,78.8482328 L4.3,78.8482328 L4.3,27.3555094 C4.30472255,25.7775408 5.58541066,24.4995152 7.16666667,24.4948025 L78.8333333,24.4948025 C80.4145893,24.4995152 81.6952775,25.7775408 81.7,27.3555094 Z" id="Path" fill="#FFEDED"></path>
                <path d="M81.7,27.3555094 L81.7,78.8482328 L75.9666667,78.8482328 L75.9666667,27.3555094 C75.9619441,25.7775408 74.681256,24.4995152 73.1,24.4948025 L78.8333333,24.4948025 C80.4145893,24.4995152 81.6952775,25.7775408 81.7,27.3555094 L81.7,27.3555094 Z" id="Path" fill="#FAC0C0"></path>
                <path d="M84.5666667,75.987526 L83.5346667,82.1809563 C83.3005176,83.556329 82.1089761,84.5643175 80.711,84.5696466 L5.289,84.5696466 C3.89102386,84.5643175 2.69948236,83.556329 2.46533333,82.1809563 L1.43333333,75.987526 L37.2666667,75.987526 L37.2666667,78.8482328 L48.7333333,78.8482328 L48.7333333,75.987526 L84.5666667,75.987526 Z" id="Path" fill="#C6C5CA"></path>
                <path d="M84.5666667,75.987526 L83.5346667,82.1809563 C83.3005176,83.556329 82.1089761,84.5643175 80.711,84.5696466 L73.5443333,84.5696466 C74.9423095,84.5643175 76.133851,83.556329 76.368,82.1809563 L77.4,75.987526 L84.5666667,75.987526 Z" id="Path" fill="#ACABB1"></path>
                <ellipse id="Oval" fill="#FF7956" cx="70.2333333" cy="15.9126819" rx="14.3333333" ry="14.3035343"></ellipse>
                <path d="M84.5666692,15.9126819 C84.5623416,22.4499083 80.117257,28.1523336 73.7688202,29.7648171 C67.4203834,31.3773006 60.7842966,28.4894588 57.6486667,22.7497713 C59.7483017,23.8990542 62.1052544,24.4993688 64.5,24.4948025 C72.4160814,24.4948025 78.8333333,18.0908921 78.8333333,10.1912682 C78.8379092,7.80150122 78.2363439,5.44944869 77.0846667,3.35417879 C81.6981902,5.85394061 84.5697766,10.6738854 84.5666692,15.9126819 L84.5666692,15.9126819 Z" id="Path" fill="#FF6243"></path>
                <polygon id="Path" fill="#FFDE55" points="78.8333333 15.9126819 64.5 23.0644491 64.5 8.76091476"></polygon>
                <path d="M75.9666667,38.7983368 L75.9666667,50.2411642 C75.9619441,51.8191328 74.681256,53.0971584 73.1,53.1018711 L63.0666667,53.1018711 L57.3333333,58.8232848 L57.3333333,53.1018711 L54.4666667,53.1018711 C52.8854107,53.0971584 51.6047225,51.8191328 51.6,50.2411642 L51.6,38.7983368 C51.6047225,37.2203682 52.8854107,35.9423427 54.4666667,35.9376299 L73.1,35.9376299 C74.681256,35.9423427 75.9619441,37.2203682 75.9666667,38.7983368 L75.9666667,38.7983368 Z" id="Path" fill="#00D7DF"></path>
                <path d="M75.9666667,38.7983368 L75.9666667,50.2411642 C75.9619441,51.8191328 74.681256,53.0971584 73.1,53.1018711 L67.3666667,53.1018711 C68.9479227,53.0971584 70.2286108,51.8191328 70.2333333,50.2411642 L70.2333333,38.7983368 C70.2286108,37.2203682 68.9479227,35.9423427 67.3666667,35.9376299 L73.1,35.9376299 C74.681256,35.9423427 75.9619441,37.2203682 75.9666667,38.7983368 L75.9666667,38.7983368 Z" id="Path" fill="#00B6BD"></path>
                <path d="M55.9,75.987526 L48.7333333,75.987526 L48.7333333,78.8482328 L37.2666667,78.8482328 L37.2666667,75.987526 L10.0333333,75.987526 C10.0333333,69.6678269 15.1671349,64.5446985 21.5,64.5446985 L24.8396667,64.5446985 L22.9333333,65.975052 L25.8,70.2661123 L40.1333333,70.2661123 L43,65.975052 L41.0936667,64.5446985 L44.4333333,64.5446985 C50.7661985,64.5446985 55.9,69.6678269 55.9,75.987526 Z" id="Path" fill="#C0AB91"></path>
                <path d="M55.9,75.987526 L50.1666667,75.987526 C50.1662663,70.7685044 46.6297304,66.2099758 41.5666667,64.9022869 L41.0936667,64.5446985 L44.4333333,64.5446985 C50.7661985,64.5446985 55.9,69.6678269 55.9,75.987526 Z" id="Path" fill="#B39A7C"></path>
                <path d="M45.8666667,45.950104 L45.8666667,47.3804574 C45.8666667,48.1704198 45.2249415,48.8108108 44.4333333,48.8108108 L41.5666667,48.8108108 L41.5666667,44.5197505 L44.4333333,44.5197505 C45.2249415,44.5197505 45.8666667,45.1601416 45.8666667,45.950104 Z" id="Path" fill="#FFDAAA"></path>
                <path d="M45.8666674,30.2162162 L45.8666674,33.0769231 C45.8679568,36.1410637 44.2280369,38.972227 41.5666667,40.5004574 L41.5666667,40.2286902 L37.1233333,39.1130146 C36.9275225,40.0609479 36.482264,40.9397395 35.8333333,41.6590437 C33.927,43.7044491 30.53,43.890395 30.1,43.0893971 C29.8276667,42.5744699 30.9313333,41.9594179 31.5333333,40.2286902 C31.6915218,39.2816545 31.6915218,38.3150191 31.5333333,37.3679834 L30.1,37.3679834 L24.3666667,40.2286902 L24.3666667,41.6590437 L22.9333333,41.6590437 C21.3520773,41.6543309 20.0713892,40.3763054 20.0666667,38.7983368 L20.0666667,35.9376299 C20.0666667,32.7777804 22.6335674,30.2162162 25.8,30.2162162 L45.8666674,30.2162162 Z" id="Path" fill="#FFDE55"></path>
                <path d="M43,65.975052 L40.1333333,70.2661123 L25.8,70.2661123 L22.9333333,65.975052 L24.8396667,64.5446985 L28.6666667,61.6839917 L28.6666667,56.2343451 C29.9693217,56.9998537 31.4549439,57.4001377 32.9666667,57.3929314 C33.4466777,57.3915175 33.9258688,57.3532619 34.4,57.2785031 C34.5207235,57.2615617 34.6403668,57.2376828 34.7583333,57.2069854 C34.916,57.1783784 35.0736667,57.1354678 35.2313333,57.0925572 C35.480432,57.0287766 35.7247063,56.9475211 35.9623333,56.8493971 C36.1329038,56.7913243 36.3003498,56.7244852 36.464,56.6491476 C36.7387353,56.525178 37.0066692,56.3867149 37.2666667,56.2343451 L37.2666667,61.6839917 L41.0936667,64.5446985 L43,65.975052 Z" id="Path" fill="#FFDAAA"></path>
                <path d="M41.5666674,40.2286902 L41.5666674,48.8108108 C41.5679568,51.8749515 39.9280369,54.7061147 37.2666667,56.2343451 C34.6089439,57.7789935 31.3243894,57.7789935 28.6666667,56.2343451 C26.0052964,54.7061147 24.3653765,51.8749515 24.3666659,48.8108108 L24.3666659,40.2286902 L30.1,37.3679834 L31.5333333,37.3679834 C31.6915218,38.3150191 31.6915218,39.2816545 31.5333333,40.2286902 C30.9313333,41.9594179 29.8276667,42.5744699 30.1,43.0893971 C30.53,43.890395 33.927,43.7044491 35.8333333,41.6590437 C36.482264,40.9397395 36.9275225,40.0609479 37.1233333,39.1130146 L41.5666674,40.2286902 Z" id="Path" fill="#FFDAAA"></path>
                <path d="M43,65.975052 L40.1333333,70.2661123 L38.9006667,70.2661123 L40.1333333,65.975052 L38.227,64.5446985 L34.4,61.6839917 L34.4,57.2785031 C34.5207235,57.2615617 34.6403668,57.2376828 34.7583333,57.2069854 C34.916,57.1783784 35.0736667,57.1354678 35.2313333,57.0925572 C35.480432,57.0287766 35.7247063,56.9475211 35.9623333,56.8493971 C36.1329038,56.7913243 36.3003498,56.7244852 36.464,56.6491476 C36.7387353,56.525178 37.0066692,56.3867149 37.2666667,56.2343451 L37.2666667,61.6839917 L41.0936667,64.5446985 L43,65.975052 Z" id="Path" fill="#FFC477"></path>
                <path d="M45.8666674,30.2162162 L45.8666674,33.0769231 C45.8679568,36.1410637 44.2280369,38.972227 41.5666667,40.5004574 L41.5666667,40.2286902 L39.7606667,39.7709771 C41.8076098,38.1499122 43.0005628,35.6846853 43,33.0769231 L43,30.2162162 L45.8666674,30.2162162 Z" id="Path" fill="#FFCD00"></path>
                <path d="M41.5666674,40.2286902 L41.5666674,48.8108108 C41.5679568,51.8749515 39.9280369,54.7061147 37.2666667,56.2343451 C36.3840022,56.7562329 35.4120173,57.1102698 34.4,57.2785031 L34.4,56.2343451 C37.0613702,54.7061147 38.7012902,51.8749515 38.7,48.8108108 L38.7,40.2286902 L36.937,39.7852807 C37.0105492,39.5645067 37.0727415,39.3401252 37.1233333,39.1130146 L41.5666674,40.2286902 Z" id="Path" fill="#FFC477"></path>
                <ellipse id="Oval" fill="#FFDE55" cx="24.3666667" cy="4.46985447" rx="2.86666667" ry="2.86070686"></ellipse>
                <path d="M24.3666667,44.5197505 L24.3666667,48.8108108 L21.5,48.8108108 C20.7083919,48.8108108 20.0666667,48.1704198 20.0666667,47.3804574 L20.0666667,45.950104 C20.0666667,45.1601416 20.7083919,44.5197505 21.5,44.5197505 L24.3666667,44.5197505 Z" id="Path" fill="#FFDAAA"></path>
                <ellipse id="Oval" fill="#FFDE55" cx="4.3" cy="4.46985447" rx="2.86666667" ry="2.86070686"></ellipse>
                <path d="M63.7460667,24.2816798 C64.1686004,24.5424311 64.6963071,24.5662449 65.1407,24.3446154 L79.4740333,17.1928482 C79.9605275,16.9508847 80.2680052,16.4551207 80.2680052,15.9126819 C80.2680052,15.3702431 79.9605275,14.8744792 79.4740333,14.6325156 L65.1407,7.48074844 C64.6962783,7.25913189 64.1685499,7.28298293 63.7460223,7.54378184 C63.3234947,7.80458074 63.0664351,8.26512847 63.0666665,8.76091476 L63.0666665,23.0644491 C63.0664106,23.560279 63.3234924,24.0208733 63.7460667,24.2816798 L63.7460667,24.2816798 Z M65.9333333,11.0752266 L75.6284,15.9126819 L65.9333333,20.7501372 L65.9333333,11.0752266 Z" id="Shape" fill="#000000"></path>
                <path d="M84.5666667,74.5571726 L83.1333333,74.5571726 L83.1333333,24.9239085 C85.0041053,22.2904562 86.006102,19.1407285 86.0003577,15.9126819 C86.0032103,8.06314016 80.2048436,1.41361993 72.41394,0.332297772 C64.6230363,-0.749024387 57.2264,4.06912301 55.083,11.6216216 L25.8,11.6216216 L25.8,8.50345114 C27.7744836,7.8068171 28.9588833,5.79197845 28.6047405,3.73217392 C28.2505976,1.67236939 26.4609228,0.166740412 24.3666667,0.166740412 C22.2724106,0.166740412 20.4827357,1.67236939 20.1285929,3.73217392 C19.77445,5.79197845 20.9588498,7.8068171 22.9333333,8.50345114 L22.9333333,11.6216216 L5.73333333,11.6216216 L5.73333333,8.50345114 C7.70781692,7.8068171 8.89221666,5.79197845 8.53807381,3.73217392 C8.18393096,1.67236939 6.3942561,0.166740412 4.3,0.166740412 C2.2057439,0.166740412 0.416069043,1.67236939 0.0619261935,3.73217392 C-0.292216656,5.79197845 0.892183084,7.8068171 2.86666667,8.50345114 L2.86666667,13.0519751 C2.86666667,13.8419374 3.50839186,14.4823285 4.3,14.4823285 L22.9333333,14.4823285 L22.9333333,18.7733888 C22.9333333,19.5633512 23.5750585,20.2037422 24.3666667,20.2037422 L55.083,20.2037422 C55.3568361,21.1928948 55.7314568,22.1514636 56.201,23.0644491 L4.3,23.0644491 C3.50839186,23.0644491 2.86666667,23.7048401 2.86666667,24.4948025 L2.86666667,74.5571726 L1.43333333,74.5571726 C1.01481497,74.5592358 0.617628931,74.7417701 0.344,75.0577963 C0.0751930258,75.3802601 -0.0445439777,75.8010659 0.0143333333,76.2163825 L1.06066667,82.4098129 C1.39120311,84.4827069 3.18566315,86.0063444 5.289,86.0000197 L80.711,86.0000197 C82.8143368,86.0063444 84.6087969,84.4827069 84.9393333,82.4098129 L85.9856667,76.2163825 C86.044544,75.8010659 85.924807,75.3802601 85.656,75.0577963 C85.3823711,74.7417701 84.985185,74.5592358 84.5666667,74.5571726 Z M4.3,5.9002079 C3.50839186,5.9002079 2.86666667,5.25981686 2.86666667,4.46985447 C2.86666667,3.67989208 3.50839186,3.03950104 4.3,3.03950104 C5.09160814,3.03950104 5.73333333,3.67989208 5.73333333,4.46985447 C5.73333333,5.25981686 5.09160814,5.9002079 4.3,5.9002079 Z M24.3666667,5.9002079 C23.5750585,5.9002079 22.9333333,5.25981686 22.9333333,4.46985447 C22.9333333,3.67989208 23.5750585,3.03950104 24.3666667,3.03950104 C25.1582748,3.03950104 25.8,3.67989208 25.8,4.46985447 C25.8,5.25981686 25.1582748,5.9002079 24.3666667,5.9002079 Z M54.5383333,17.3430353 L25.8,17.3430353 L25.8,14.4823285 L54.5383333,14.4823285 C54.4953333,14.9543451 54.4666667,15.4263617 54.4666667,15.9126819 C54.4666667,16.3990021 54.4953333,16.8710187 54.5383333,17.3430353 Z M70.2333333,3.03950104 C77.3578066,3.03950104 83.1333333,8.80302043 83.1333333,15.9126819 C83.1333333,23.0223434 77.3578066,28.7858628 70.2333333,28.7858628 C63.1088601,28.7858628 57.3333333,23.0223434 57.3333333,15.9126819 C57.344383,8.80759284 63.113442,3.05052769 70.2333333,3.03950104 L70.2333333,3.03950104 Z M5.73333333,25.9251559 L58.0786667,25.9251559 C60.7374942,29.145364 64.5705512,31.1781025 68.7327624,31.5752126 C72.8949736,31.9723228 77.0445621,30.7011964 80.2666667,28.042079 L80.2666667,74.5571726 L57.2473333,74.5571726 C56.5077151,68.0490293 50.9968269,63.1278382 44.4333333,63.1143451 L41.5666667,63.1143451 L38.7,60.968815 L38.7,57.0210395 C40.9735153,55.4348688 42.4883635,52.9809469 42.8853333,50.2411642 L44.4333333,50.2411642 C46.0145893,50.2364515 47.2952775,48.958426 47.3,47.3804574 L47.3,45.950104 C47.2952775,44.3721354 46.0145893,43.0941098 44.4333333,43.0893971 L43,43.0893971 L43,41.2585447 C45.6874324,39.3968096 47.2931382,36.341629 47.3,33.0769231 L47.3,30.2162162 C47.3,29.4262538 46.6582748,28.7858628 45.8666667,28.7858628 L25.8,28.7858628 C21.8419593,28.7858628 18.6333333,31.987818 18.6333333,35.9376299 L18.6333333,38.7983368 C18.6404172,41.1652897 20.5614493,43.082328 22.9333333,43.0893971 L21.5,43.0893971 C19.918744,43.0941098 18.6380559,44.3721354 18.6333333,45.950104 L18.6333333,47.3804574 C18.6380559,48.958426 19.918744,50.2364515 21.5,50.2411642 L23.048,50.2411642 C23.4449699,52.9809469 24.959818,55.4348688 27.2333333,57.0210395 L27.2333333,60.968815 L24.3666667,63.1143451 L21.5,63.1143451 C14.9365064,63.1278382 9.42561824,68.0490293 8.686,74.5571726 L5.73333333,74.5571726 L5.73333333,25.9251559 Z M37.2666667,74.5571726 L11.5813333,74.5571726 C12.293202,69.6354313 16.5168989,65.98088 21.5,65.975052 L21.5286667,65.975052 C21.5148558,66.2534077 21.5901545,66.5289293 21.7436667,66.7617464 L24.6103333,71.0528067 C24.874043,71.4524262 25.3205226,71.6939903 25.8,71.6964657 L40.1333333,71.6964657 C40.6128107,71.6939903 41.0592903,71.4524262 41.323,71.0528067 L44.1896667,66.7617464 C44.3431788,66.5289293 44.4184776,66.2534077 44.4046667,65.975052 L44.4333333,65.975052 C49.4164345,65.98088 53.6401313,69.6354313 54.352,74.5571726 L48.7333333,74.5571726 C47.9417252,74.5571726 47.3,75.1975636 47.3,75.987526 L47.3,77.4178794 L38.7,77.4178794 L38.7,75.987526 C38.7,75.1975636 38.0582748,74.5571726 37.2666667,74.5571726 L37.2666667,74.5571726 Z M41.5953333,38.7554262 L37.4673333,37.7255717 C37.0913685,37.6304895 36.6928085,37.6924736 36.3636667,37.8972141 C36.0352816,38.1046711 35.8031882,38.4340733 35.7186667,38.8126403 C35.579926,39.5085596 35.2584041,40.1552029 34.787,40.6864033 C34.1008236,41.3672072 33.2280415,41.8300643 32.2786667,42.016632 C32.5238277,41.5996508 32.7255469,41.1587083 32.8806667,40.7007069 C33.1383755,39.5345245 33.1627305,38.3290307 32.9523333,37.1534304 C32.8499763,36.4513919 32.2442222,35.9323813 31.5333333,35.9376299 L30.1,35.9376299 C29.8756228,35.9389724 29.6546953,35.9928647 29.455,36.0949688 L23.7216667,38.9556757 C23.2368351,39.1949566 22.9309311,39.6889358 22.9333333,40.2286902 C22.1417252,40.2286902 21.5,39.5882992 21.5,38.7983368 L21.5,35.9376299 C21.5070838,33.5706771 23.428116,31.6536387 25.8,31.6465696 L44.4333333,31.6465696 L44.4333333,33.0769231 C44.4284269,35.3082998 43.3784934,37.4090929 41.5953333,38.7554262 L41.5953333,38.7554262 Z M43,45.950104 L44.4333333,45.950104 L44.4333333,47.3804574 L43,47.3804574 L43,45.950104 Z M25.8,41.1155094 L30.229,38.8984615 C30.2515656,39.1851893 30.2371139,39.4736222 30.186,39.7566736 C29.9795274,40.3033582 29.6894194,40.8148168 29.326,41.2728482 C28.6717754,41.9265119 28.4791362,42.9103213 28.8386667,43.7616632 C29.2546767,44.454485 29.9935228,44.8904128 30.8023333,44.9202495 C33.0758128,45.1003227 35.310711,44.2554508 36.894,42.6173805 C37.3764068,42.0858971 37.7729351,41.4826899 38.0693333,40.8294387 L40.1333333,41.3443659 L40.1333333,48.8108108 C40.1333333,52.7606227 36.9247074,55.962578 32.9666667,55.962578 C29.008626,55.962578 25.8,52.7606227 25.8,48.8108108 L25.8,41.1155094 Z M29.5266667,62.8282744 C29.8851352,62.5561099 30.0968959,62.133469 30.1,61.6839917 L30.1,58.4084823 C31.9709353,58.9615156 33.962398,58.9615156 35.8333333,58.4084823 L35.8333333,61.6839917 C35.8364374,62.133469 36.0481982,62.5561099 36.4066667,62.8282744 L41.0506667,66.3040333 L39.3593333,68.8357588 L26.574,68.8357588 L24.8826667,66.3040333 L29.5266667,62.8282744 Z M22.9333333,45.950104 L22.9333333,47.3804574 L21.5,47.3804574 L21.5,45.950104 L22.9333333,45.950104 Z M82.1156667,81.9520998 C82.0036107,82.6386389 81.4080301,83.1420105 80.711,83.1393041 L5.289,83.1393041 C4.59196986,83.1420105 3.99638933,82.6386389 3.88433333,81.9520998 L3.12466667,77.4178794 L35.8333333,77.4178794 L35.8333333,78.8482328 C35.8333333,79.6381952 36.4750585,80.2785863 37.2666667,80.2785863 L48.7333333,80.2785863 C49.5249415,80.2785863 50.1666667,79.6381952 50.1666667,78.8482328 L50.1666667,77.4178794 L82.8753333,77.4178794 L82.1156667,81.9520998 Z" id="Shape" fill="#000000"></path>
                <path d="M54.4666667,54.5322245 L55.9,54.5322245 L55.9,58.8232848 C55.8998541,59.4017614 56.2488866,59.9233749 56.7843667,60.1449314 C56.9582755,60.2172868 57.1449161,60.2542455 57.3333333,60.2536456 C57.7134459,60.2536456 58.0779604,60.1028066 58.3467,59.8345447 L63.6600667,54.5322245 L73.1,54.5322245 C75.4748244,54.5322245 77.4,52.6110514 77.4,50.2411642 L77.4,38.7983368 C77.4,36.4284496 75.4748244,34.5072765 73.1,34.5072765 L54.4666667,34.5072765 C52.0918422,34.5072765 50.1666667,36.4284496 50.1666667,38.7983368 L50.1666667,50.2411642 C50.1666667,52.6110514 52.0918422,54.5322245 54.4666667,54.5322245 L54.4666667,54.5322245 Z M53.0333333,38.7983368 C53.0333333,38.0083744 53.6750585,37.3679834 54.4666667,37.3679834 L73.1,37.3679834 C73.8916081,37.3679834 74.5333333,38.0083744 74.5333333,38.7983368 L74.5333333,50.2411642 C74.5333333,51.0311266 73.8916081,51.6715177 73.1,51.6715177 L63.0666667,51.6715177 C62.6865541,51.6715987 62.3220396,51.8223493 62.0533,52.0906112 L58.7666667,55.3704116 L58.7666667,53.1018711 C58.7666667,52.3119087 58.1249415,51.6715177 57.3333333,51.6715177 L54.4666667,51.6715177 C53.6750585,51.6715177 53.0333333,51.0311266 53.0333333,50.2411642 L53.0333333,38.7983368 Z" id="Shape" fill="#000000"></path>
                <polygon id="Path" fill="#000000" points="55.9 40.2286902 71.6666667 40.2286902 71.6666667 43.0893971 55.9 43.0893971"></polygon>
                <polygon id="Path" fill="#000000" points="55.9 45.950104 71.6666667 45.950104 71.6666667 48.8108108 55.9 48.8108108"></polygon>
            </g>
        </g>
    </g>
</svg>