<?xml version="1.0" encoding="UTF-8"?>
<svg width="100px" height="100px" viewBox="0 0 100 100" version="1.1" xmlns="http://www.w3.org/2000/svg" xmlns:xlink="http://www.w3.org/1999/xlink">
    <title>img_jc_db</title>
    <defs>
        <linearGradient x1="50%" y1="0%" x2="50%" y2="100%" id="linearGradient-1">
            <stop stop-color="#FFF7F7" offset="0%"></stop>
            <stop stop-color="#FFE9E9" offset="59.0444712%"></stop>
            <stop stop-color="#FFD1D1" offset="100%"></stop>
        </linearGradient>
    </defs>
    <g id="Page-1" stroke="none" stroke-width="1" fill="none" fill-rule="evenodd">
        <g id="Syllabus" transform="translate(-503.000000, -1015.000000)">
            <g id="img_jc_db" transform="translate(503.000000, 1015.000000)">
                <circle id="Oval-Copy" fill="url(#linearGradient-1)" cx="50" cy="50" r="50"></circle>
                <g id="Group" transform="translate(23.000000, 22.000000)" stroke="#E80000" stroke-linejoin="round" stroke-width="2">
                    <g id="Group-39">
                        <path d="M0,29.3479435 L0,28.1740304 C0.00352173913,23.4443348 3.52408696,19.4553783 8.2173913,18.8637261 L8.2173913,18.7827261 C8.2173913,13.5963783 12.4223478,9.39142174 17.6086957,9.39142174 L18.7826087,9.39142174 C18.7826087,4.20507391 22.9875652,0.000117391304 28.173913,0.000117391304 C33.3602609,0.000117391304 37.5652174,4.20507391 37.5652174,9.39142174 L37.5652174,9.47242174 C42.2585217,10.0640739 45.779087,14.0530304 45.7826087,18.7827261 L45.7826087,18.8637261 C50.475913,19.4553783 53.9964783,23.4443348 54,28.1740304 L54,29.3479435" id="Stroke-1"></path>
                        <path d="M23.4782609,9.39142174 C23.4782609,6.79824783 25.5807391,4.69576957 28.173913,4.69576957" id="Stroke-3"></path>
                        <path d="M32.8695652,54.0001174 C33.5187391,54.0001174 34.0434783,53.4742043 34.0434783,52.8262043 L34.0434783,41.0870739 L30.5217391,37.5653348 L21.1304348,37.5653348 C20.4824348,37.5653348 19.9565217,38.0900739 19.9565217,38.7392478 L19.9565217,52.8262043 C19.9565217,53.4742043 20.4824348,54.0001174 21.1304348,54.0001174 L32.8695652,54.0001174 Z" id="Stroke-5"></path>
                        <polyline id="Stroke-7" points="30.5217391 37.5653348 30.5217391 41.0870739 34.0434783 41.0870739"></polyline>
                        <path d="M52.826087,54.0001174 C53.4752609,54.0001174 54,53.4742043 54,52.8262043 L54,41.0870739 L50.4782609,37.5653348 L41.0869565,37.5653348 C40.4377826,37.5653348 39.9130435,38.0900739 39.9130435,38.7392478 L39.9130435,52.8262043 C39.9130435,53.4742043 40.4377826,54.0001174 41.0869565,54.0001174 L52.826087,54.0001174 Z" id="Stroke-9"></path>
                        <polyline id="Stroke-11" points="50.4782609 37.5653348 50.4782609 41.0870739 54 41.0870739"></polyline>
                        <path d="M12.9130435,54.0001174 C13.5610435,54.0001174 14.0869565,53.4742043 14.0869565,52.8262043 L14.0869565,41.0870739 L10.5652174,37.5653348 L1.17391304,37.5653348 C0.525913043,37.5653348 0,38.0900739 0,38.7392478 L0,52.8262043 C0,53.4742043 0.525913043,54.0001174 1.17391304,54.0001174 L12.9130435,54.0001174 Z" id="Stroke-13"></path>
                        <polyline id="Stroke-15" points="10.5652174 37.5653348 10.5652174 41.0870739 14.0869565 41.0870739"></polyline>
                        <line x1="3.52173913" y1="44.608813" x2="8.2173913" y2="44.608813" id="Stroke-17"></line>
                        <line x1="3.52173913" y1="49.3044652" x2="10.5652174" y2="49.3044652" id="Stroke-19"></line>
                        <line x1="23.4782609" y1="44.608813" x2="28.173913" y2="44.608813" id="Stroke-21"></line>
                        <line x1="23.4782609" y1="49.3044652" x2="30.5217391" y2="49.3044652" id="Stroke-23"></line>
                        <line x1="43.4347826" y1="44.608813" x2="48.1304348" y2="44.608813" id="Stroke-25"></line>
                        <line x1="43.4347826" y1="49.3044652" x2="50.4782609" y2="49.3044652" id="Stroke-27"></line>
                        <path d="M28.173913,23.4783783 L28.173913,27.0001174 C28.1997391,28.2702913 27.1936957,29.3209435 25.9235217,29.3479435 L25.826087,29.3479435 L10.5652174,29.3479435 C9.29504348,29.3209435 8.2443913,30.3281609 8.2173913,31.5983348 C8.2173913,31.6300304 8.2173913,31.6640739 8.2173913,31.6957696 L8.2173913,34.0435957" id="Stroke-29"></path>
                        <path d="M30.5217391,29.3479435 L43.4347826,29.3479435 C44.7049565,29.3209435 45.7567826,30.3281609 45.7826087,31.5983348 C45.7837826,31.6300304 45.7837826,31.6640739 45.7826087,31.6957696 L45.7826087,34.0435957" id="Stroke-31"></path>
                        <path d="M28.173913,12.9131609 C30.119087,12.9131609 31.6956522,14.4897261 31.6956522,16.4349 C31.6956522,18.3800739 30.119087,19.9566391 28.173913,19.9566391 C26.2287391,19.9566391 24.6521739,18.3800739 24.6521739,16.4349 C24.6521739,14.4897261 26.2287391,12.9131609 28.173913,12.9131609 Z" id="Stroke-33"></path>
                        <line x1="31.6956522" y1="16.4349" x2="37.5652174" y2="16.4349" id="Stroke-35"></line>
                        <line x1="18.7826087" y1="16.4349" x2="24.6521739" y2="16.4349" id="Stroke-37"></line>
                    </g>
                </g>
            </g>
        </g>
    </g>
</svg>