<?xml version="1.0" encoding="UTF-8"?>
<svg width="665px" height="564px" viewBox="0 0 665 564" version="1.1" xmlns="http://www.w3.org/2000/svg" xmlns:xlink="http://www.w3.org/1999/xlink">
    <title>Group 19</title>
    <defs>
        <path d="M432,563.632812 C586.237222,563.632812 624,418.119129 624,267.811755 C624,117.504382 358.237222,0.4609375 204,0.4609375 C49.7627783,0.4609375 0,232.334119 0,382.641493 C0,532.948866 277.762778,563.632812 432,563.632812 Z" id="path-1"></path>
        <filter id="filter-3">
            <feColorMatrix in="SourceGraphic" type="matrix" values="0 0 0 0 1.000000 0 0 0 0 0.726105 0 0 0 0 0.726105 0 0 0 1.000000 0"></feColorMatrix>
        </filter>
        <filter id="filter-4">
            <feColorMatrix in="SourceGraphic" type="matrix" values="0 0 0 0 1.000000 0 0 0 0 0.725490 0 0 0 0 0.725490 0 0 0 1.000000 0"></feColorMatrix>
        </filter>
        <path d="M13.7975962,13.8381122 C8.07944712,19.5515934 3.5921875,26.0273124 0.325240385,32.9350102 L0.325240385,32.9350102 L32.9114183,0.378075353 C25.9954327,3.64103454 19.5157452,8.12595212 13.7975962,13.8381122" id="path-5"></path>
        <linearGradient x1="0.000405323163%" y1="49.9999992%" x2="99.9963476%" y2="49.9999992%" id="linearGradient-7">
            <stop stop-color="#ED1D79" offset="0%"></stop>
            <stop stop-color="#6B00AA" offset="100%"></stop>
        </linearGradient>
        <path d="M54.1208825,0.909529891 L0.870990489,54.1594219 C0.486881114,56.25725 0.202974185,58.3692092 0.0231236413,60.4888764 L0.0231236413,60.4888764 L60.450337,0.0603783967 C58.3306698,0.241513587 56.2187106,0.52413587 54.1208825,0.909529891" id="path-8"></path>
        <linearGradient x1="-0.000637782219%" y1="49.9994764%" x2="99.9999991%" y2="49.9994764%" id="linearGradient-10">
            <stop stop-color="#ED1D79" offset="0%"></stop>
            <stop stop-color="#6B00AA" offset="100%"></stop>
        </linearGradient>
        <path d="M72.4152,0.0377 L0,72.4529 C0.1352,74.1091 0.3328,75.7627 0.5902,77.4085 L0.5902,77.4085 L77.3708,0.6279 C75.7263,0.3692 74.0714,0.1742 72.4152,0.0377 Z" id="path-11"></path>
        <linearGradient x1="0%" y1="50.0007606%" x2="100.000171%" y2="50.0007606%" id="linearGradient-13">
            <stop stop-color="#ED1D79" offset="0%"></stop>
            <stop stop-color="#6B00AA" offset="100%"></stop>
        </linearGradient>
        <path d="M0.0776470588,83.5598824 C0.498235294,84.9445882 0.960235294,86.3215294 1.474,87.6829412 L1.474,87.6829412 L87.6454118,1.51152941 C86.284,0.999058824 84.9070588,0.535764706 83.5223529,0.115176471 L83.5223529,0.115176471 L0.0776470588,83.5598824 Z" id="path-14"></path>
        <linearGradient x1="-0.000590991044%" y1="50.0000746%" x2="99.9995561%" y2="50.0000746%" id="linearGradient-16">
            <stop stop-color="#ED1D79" offset="0%"></stop>
            <stop stop-color="#6B00AA" offset="100%"></stop>
        </linearGradient>
        <path d="M0.398185002,90.4123274 C1.0255196,91.5935714 1.69149905,92.7606456 2.39612333,93.9109737 L2.39612333,93.9109737 L93.8723289,2.43348002 C92.7232889,1.73014389 91.5562147,1.06287628 90.3736825,0.435541683 L90.3736825,0.435541683 L0.398185002,90.4123274 Z" id="path-17"></path>
        <linearGradient x1="0%" y1="50.00014%" x2="100.000551%" y2="50.00014%" id="linearGradient-19">
            <stop stop-color="#ED1D79" offset="0%"></stop>
            <stop stop-color="#6B00AA" offset="100%"></stop>
        </linearGradient>
        <path d="M0.523824561,94.7556842 C1.33392982,95.7787018 2.17519298,96.7835439 3.05150877,97.7689123 L3.05150877,97.7689123 L97.7299649,3.08915789 C96.7458947,2.21284211 95.7410526,1.37157895 94.7180351,0.56277193 L94.7180351,0.56277193 L0.523824561,94.7556842 Z" id="path-20"></path>
        <linearGradient x1="0.000934624374%" y1="49.9997994%" x2="100.000262%" y2="49.9997994%" id="linearGradient-22">
            <stop stop-color="#ED1D79" offset="0%"></stop>
            <stop stop-color="#6B00AA" offset="100%"></stop>
        </linearGradient>
        <path d="M0.231087719,94.9484912 C1.21645614,95.824807 2.22,96.6660702 3.24431579,97.4761754 L3.24431579,97.4761754 L97.4372281,3.28196491 C96.6284211,2.25894737 95.7858596,1.25410526 94.9108421,0.270035088 L94.9108421,0.270035088 L0.231087719,94.9484912 Z" id="path-23"></path>
        <linearGradient x1="0.000534223706%" y1="49.9994652%" x2="100.000004%" y2="49.9994652%" id="linearGradient-25">
            <stop stop-color="#ED1D79" offset="0%"></stop>
            <stop stop-color="#6B00AA" offset="100%"></stop>
        </linearGradient>
        <path d="M0.0890262657,91.6051648 C1.2393544,92.308501 2.40514046,92.9744804 3.58767263,93.601815 L3.58767263,93.601815 L93.5644583,3.62631747 C92.9384119,2.44378531 92.2698561,1.27799924 91.5678081,0.127671108 L91.5678081,0.127671108 L0.0890262657,91.6051648 Z" id="path-26"></path>
        <linearGradient x1="0.000276304003%" y1="49.999864%" x2="99.9995858%" y2="49.999864%" id="linearGradient-28">
            <stop stop-color="#ED1D79" offset="0%"></stop>
            <stop stop-color="#6B00AA" offset="100%"></stop>
        </linearGradient>
        <path d="M0.317058824,86.526 C1.67847059,87.0397647 3.05541176,87.5017647 4.44141176,87.9236471 L4.44141176,87.9236471 L87.8848235,4.47894118 C87.4629412,3.09294118 87.0009412,1.716 86.4884706,0.354588235 L86.4884706,0.354588235 L0.317058824,86.526 Z" id="path-29"></path>
        <linearGradient x1="-1.62563178e-06%" y1="49.9998507%" x2="99.999999%" y2="49.9998507%" id="linearGradient-31">
            <stop stop-color="#ED1D79" offset="0%"></stop>
            <stop stop-color="#6B00AA" offset="100%"></stop>
        </linearGradient>
        <path d="M0.5915,77.4111 C2.2373,77.6685 3.8909,77.8648 5.5484,78 L5.5484,78 L77.9623,5.5861 C77.8258,3.9286 77.6308,2.275 77.3734,0.6292 L77.3734,0.6292 L0.5915,77.4111 Z" id="path-32"></path>
        <linearGradient x1="-0.000842966597%" y1="49.9999145%" x2="99.9993281%" y2="49.9999145%" id="linearGradient-34">
            <stop stop-color="#ED1D79" offset="0%"></stop>
            <stop stop-color="#6B00AA" offset="100%"></stop>
        </linearGradient>
        <path d="M0.511123641,60.978161 C2.63207541,60.7970258 4.74275,60.5131189 6.84057813,60.1290095 L6.84057813,60.1290095 L60.0904701,6.87911753 C60.4758641,4.7812894 60.7584864,2.66933016 60.9396216,0.549663043 L60.9396216,0.549663043 L0.511123641,60.978161 Z" id="path-35"></path>
        <linearGradient x1="0.00127638768%" y1="49.9992559%" x2="99.9997874%" y2="49.9992559%" id="linearGradient-37">
            <stop stop-color="#ED1D79" offset="0%"></stop>
            <stop stop-color="#6B00AA" offset="100%"></stop>
        </linearGradient>
        <path d="M0.0515625,32.6615557 C6.96622596,29.3972755 13.4459135,24.913679 19.1640625,19.2001978 L19.1640625,19.2001978 C24.8808894,13.4867166 29.3694712,7.01231868 32.6350962,0.103299843 L32.6350962,0.103299843 L0.0515625,32.6615557 Z" id="path-38"></path>
        <linearGradient x1="-0.00161736661%" y1="49.9999972%" x2="100.00244%" y2="49.9999972%" id="linearGradient-40">
            <stop stop-color="#ED1D79" offset="0%"></stop>
            <stop stop-color="#6B00AA" offset="100%"></stop>
        </linearGradient>
    </defs>
    <g id="Page-1" stroke="none" stroke-width="1" fill="none" fill-rule="evenodd">
        <g id="Home" transform="translate(-30.000000, -1571.000000)">
            <g id="Group-19" transform="translate(30.000000, 1571.000000)">
                <g id="portrait-happy-young-asian-woman-celebrating-with-mobile-phone-isolated-blue-background" transform="translate(41.000000, 0.000000)">
                    <mask id="mask-2" fill="white">
                        <use xlink:href="#path-1"></use>
                    </mask>
                    <use id="Mask" fill="#FFEDED" xlink:href="#path-1"></use>
                </g>
                <path d="M608.596807,501.006564 C579.106008,539.611234 535.666876,563.632812 473,563.632812 C373.205221,563.632812 221.698116,550.787388 127.174398,501.00578 Z" id="Combined-Shape" fill="#FBC4C4"></path>
                <g id="Group-10-Copy" transform="translate(0.000000, 381.000000)" filter="url(#filter-3)">
                    <g>
                        <path d="M170.832314,73.0067275 C168.088061,77.765702 165.718356,81.8755785 161.17676,81.8755785 L161.17676,81.8755785 C156.634932,81.8755785 154.265342,77.765702 151.52109,73.0067275 L151.52109,73.0067275 C148.587131,67.9221074 145.262873,62.1586067 138.432874,62.1586067 L138.432874,62.1586067 C131.602644,62.1586067 128.278386,67.9212993 125.346628,73.0059195 L125.346628,73.0059195 C122.602027,77.765702 120.232554,81.8755785 115.690958,81.8755785 L115.690958,81.8755785 C111.149014,81.8755785 108.779425,77.765702 106.035056,73.0067275 L106.035056,73.0067275 C103.101213,67.9221074 99.7771868,62.1586067 92.9470722,62.1586067 L92.9470722,62.1586067 C86.1147572,62.1586067 82.7925841,67.9221074 79.858741,73.0078819 L79.858741,73.0078819 C77.1142565,77.765702 74.7448991,81.8755785 70.2050399,81.8755785 L70.2050399,81.8755785 C65.6649489,81.8755785 63.2955915,77.765702 60.5511071,73.0059195 L60.5511071,73.0059195 C57.6193487,67.9212993 54.2950909,62.1586067 47.4668294,62.1586067 L47.4668294,62.1586067 C40.6367148,62.1586067 37.312457,67.9221074 34.3787298,73.0067275 L34.3787298,73.0067275 C31.6341295,77.765702 29.2648879,81.8755785 24.722944,81.8755785 L24.722944,81.8755785 C20.1811158,81.8755785 17.8117584,77.765702 15.067274,73.0067275 L15.067274,73.0067275 C12.1334309,67.9221074 8.80928892,62.1586067 1.97894271,62.1586067 L1.97894271,62.1586067 C0.885063512,62.1586067 0,63.0418094 0,64.1310658 L0,64.1310658 C0,65.220553 0.885063512,66.1036403 1.97894271,66.1036403 L1.97894271,66.1036403 C6.52088667,66.1036403 8.89047572,70.2135168 11.6347285,74.9727221 L11.6347285,74.9727221 C14.5685716,80.0573423 17.8927136,85.8209584 24.722944,85.8209584 L24.722944,85.8209584 C31.5531743,85.8209584 34.8773163,80.0573423 37.8111594,74.9727221 L37.8111594,74.9727221 C40.5554122,70.2135168 42.9250012,66.1036403 47.4668294,66.1036403 L47.4668294,66.1036403 C52.0049514,66.1036403 54.374193,70.2135168 57.1186775,74.9716832 L57.1186775,74.9716832 C60.0505517,80.0573423 63.3748095,85.8209584 70.2050399,85.8209584 L70.2050399,85.8209584 C77.0351544,85.8209584 80.3594122,80.0582658 83.2911706,74.9735302 L83.2911706,74.9735302 C86.0355392,70.2135168 88.4050125,66.1036403 92.9470722,66.1036403 L92.9470722,66.1036403 C97.4887846,66.1036403 99.858142,70.2135168 102.602742,74.9727221 L102.602742,74.9727221 C105.536469,80.0573423 108.860727,85.8209584 115.690958,85.8209584 L115.690958,85.8209584 C122.522809,85.8209584 125.845214,80.0573423 128.779057,74.9716832 L128.779057,74.9716832 C131.52331,70.2135168 133.893015,66.1036403 138.432874,66.1036403 L138.432874,66.1036403 C142.974471,66.1036403 145.34406,70.2135168 148.08866,74.9727221 L148.08866,74.9727221 C151.022387,80.0573423 154.346645,85.8209584 161.17676,85.8209584 L161.17676,85.8209584 C168.006874,85.8209584 171.331016,80.0573423 174.264743,74.9727221 L174.264743,74.9727221 C177.009344,70.2135168 179.378817,66.1036403 183.920529,66.1036403 L183.920529,66.1036403 C185.014408,66.1036403 185.899819,65.220553 185.899819,64.1310658 L185.899819,64.1310658 C185.899819,63.0418094 185.014408,62.1586067 183.920529,62.1586067 L183.920529,62.1586067 C177.090531,62.1586067 173.766273,67.9221074 170.832314,73.0067275" id="Clip-2" fill="#FF0000"></path>
                        <path d="M170.832314,41.9857772 C168.088061,46.7447517 165.718356,50.8546282 161.17676,50.8546282 L161.17676,50.8546282 C156.634932,50.8546282 154.265342,46.7447517 151.52109,41.9857772 L151.52109,41.9857772 C148.587131,36.901157 145.262873,31.1375409 138.432874,31.1375409 L138.432874,31.1375409 C131.602644,31.1375409 128.278386,36.9000027 125.346628,41.9847383 L125.346628,41.9847383 C122.602027,46.7447517 120.232554,50.8546282 115.690958,50.8546282 L115.690958,50.8546282 C111.149014,50.8546282 108.779425,46.7447517 106.035056,41.9857772 L106.035056,41.9857772 C103.101213,36.901157 99.7771868,31.1375409 92.9470722,31.1375409 L92.9470722,31.1375409 C86.1147572,31.1375409 82.7925841,36.901157 79.858741,41.9865852 L79.858741,41.9865852 C77.1142565,46.7447517 74.7448991,50.8546282 70.2050399,50.8546282 L70.2050399,50.8546282 C65.6649489,50.8546282 63.2955915,46.7447517 60.5511071,41.9847383 L60.5511071,41.9847383 C57.6193487,36.9000027 54.2950909,31.1375409 47.4668294,31.1375409 L47.4668294,31.1375409 C40.6367148,31.1375409 37.312457,36.901157 34.3787298,41.9857772 L34.3787298,41.9857772 C31.6341295,46.7447517 29.2648879,50.8546282 24.722944,50.8546282 L24.722944,50.8546282 C20.1811158,50.8546282 17.8117584,46.7447517 15.067274,41.9857772 L15.067274,41.9857772 C12.1334309,36.901157 8.80928892,31.1375409 1.97894271,31.1375409 L1.97894271,31.1375409 C0.885063512,31.1375409 0,32.0206282 0,33.11 L0,33.11 C0,34.1993718 0.885063512,35.0825745 1.97894271,35.0825745 L1.97894271,35.0825745 C6.52088667,35.0825745 8.89047572,39.192451 11.6347285,43.9515409 L11.6347285,43.9515409 C14.5685716,49.0361611 17.8927136,54.7997772 24.722944,54.7997772 L24.722944,54.7997772 C31.5531743,54.7997772 34.8773163,49.0361611 37.8111594,43.9515409 L37.8111594,43.9515409 C40.5554122,39.192451 42.9250012,35.0825745 47.4668294,35.0825745 L47.4668294,35.0825745 C52.0049514,35.0825745 54.374193,39.192451 57.1186775,43.9506174 L57.1186775,43.9506174 C60.0505517,49.0361611 63.3748095,54.7997772 70.2050399,54.7997772 L70.2050399,54.7997772 C77.0351544,54.7997772 80.3594122,49.0372 83.2911706,43.9525799 L83.2911706,43.9525799 C86.0355392,39.192451 88.4050125,35.0825745 92.9470722,35.0825745 L92.9470722,35.0825745 C97.4887846,35.0825745 99.858142,39.192451 102.602742,43.9515409 L102.602742,43.9515409 C105.536469,49.0361611 108.860727,54.7997772 115.690958,54.7997772 L115.690958,54.7997772 C122.522809,54.7997772 125.845214,49.0361611 128.779057,43.9506174 L128.779057,43.9506174 C131.52331,39.192451 133.893015,35.0825745 138.432874,35.0825745 L138.432874,35.0825745 C142.974471,35.0825745 145.34406,39.192451 148.08866,43.9515409 L148.08866,43.9515409 C151.022387,49.0361611 154.346645,54.7997772 161.17676,54.7997772 L161.17676,54.7997772 C168.006874,54.7997772 171.331016,49.0361611 174.264743,43.9515409 L174.264743,43.9515409 C177.009344,39.192451 179.378817,35.0825745 183.920529,35.0825745 L183.920529,35.0825745 C185.014408,35.0825745 185.899819,34.1993718 185.899819,33.11 L185.899819,33.11 C185.899819,32.0206282 185.014408,31.1375409 183.920529,31.1375409 L183.920529,31.1375409 C177.090531,31.1375409 173.766273,36.901157 170.832314,41.9857772" id="Clip-5" fill="#FF0000"></path>
                    </g>
                </g>
                <g filter="url(#filter-4)" id="Group-37">
                    <g transform="translate(526.000000, 0.000000)">
                        <g id="Group-3" transform="translate(6.000000, 4.000000)">
                            <mask id="mask-6" fill="white">
                                <use xlink:href="#path-5"></use>
                            </mask>
                            <g id="Clip-2"></g>
                            <path d="M13.7975962,13.8381122 C8.07944712,19.5515934 3.5921875,26.0273124 0.325240385,32.9350102 L0.325240385,32.9350102 L32.9114183,0.378075353 C25.9954327,3.64103454 19.5157452,8.12595212 13.7975962,13.8381122" id="Fill-1" fill="url(#linearGradient-7)" mask="url(#mask-6)"></path>
                        </g>
                        <g id="Group-6">
                            <mask id="mask-9" fill="white">
                                <use xlink:href="#path-8"></use>
                            </mask>
                            <g id="Clip-5"></g>
                            <path d="M54.1208825,0.909529891 L0.870990489,54.1594219 C0.486881114,56.25725 0.202974185,58.3692092 0.0231236413,60.4888764 L0.0231236413,60.4888764 L60.450337,0.0603783967 C58.3306698,0.241513587 56.2187106,0.52413587 54.1208825,0.909529891" id="Fill-4" fill="url(#linearGradient-10)" mask="url(#mask-9)"></path>
                        </g>
                        <g id="Group-9">
                            <mask id="mask-12" fill="white">
                                <use xlink:href="#path-11"></use>
                            </mask>
                            <g id="Clip-8"></g>
                            <path d="M72.4152,0.0377 L0,72.4529 C0.1352,74.1091 0.3328,75.7627 0.5902,77.4085 L0.5902,77.4085 L77.3708,0.6279 C75.7263,0.3692 74.0714,0.1742 72.4152,0.0377 Z" id="Fill-7" fill="url(#linearGradient-13)" mask="url(#mask-12)"></path>
                        </g>
                        <g id="Group-12" transform="translate(3.000000, 3.000000)">
                            <mask id="mask-15" fill="white">
                                <use xlink:href="#path-14"></use>
                            </mask>
                            <g id="Clip-11"></g>
                            <path d="M0.0776470588,83.5598824 C0.498235294,84.9445882 0.960235294,86.3215294 1.474,87.6829412 L1.474,87.6829412 L87.6454118,1.51152941 C86.284,0.999058824 84.9070588,0.535764706 83.5223529,0.115176471 L83.5223529,0.115176471 L0.0776470588,83.5598824 Z" id="Fill-10" fill="url(#linearGradient-16)" mask="url(#mask-15)"></path>
                        </g>
                        <g id="Group-15" transform="translate(7.000000, 7.000000)">
                            <mask id="mask-18" fill="white">
                                <use xlink:href="#path-17"></use>
                            </mask>
                            <g id="Clip-14"></g>
                            <path d="M0.398185002,90.4123274 C1.0255196,91.5935714 1.69149905,92.7606456 2.39612333,93.9109737 L2.39612333,93.9109737 L93.8723289,2.43348002 C92.7232889,1.73014389 91.5562147,1.06287628 90.3736825,0.435541683 L90.3736825,0.435541683 L0.398185002,90.4123274 Z" id="Fill-13" fill="url(#linearGradient-19)" mask="url(#mask-18)"></path>
                        </g>
                        <g id="Group-18" transform="translate(13.000000, 13.000000)">
                            <mask id="mask-21" fill="white">
                                <use xlink:href="#path-20"></use>
                            </mask>
                            <g id="Clip-17"></g>
                            <path d="M0.523824561,94.7556842 C1.33392982,95.7787018 2.17519298,96.7835439 3.05150877,97.7689123 L3.05150877,97.7689123 L97.7299649,3.08915789 C96.7458947,2.21284211 95.7410526,1.37157895 94.7180351,0.56277193 L94.7180351,0.56277193 L0.523824561,94.7556842 Z" id="Fill-16" fill="url(#linearGradient-22)" mask="url(#mask-21)"></path>
                        </g>
                        <g id="Group-21" transform="translate(21.000000, 21.000000)">
                            <mask id="mask-24" fill="white">
                                <use xlink:href="#path-23"></use>
                            </mask>
                            <g id="Clip-20"></g>
                            <path d="M0.231087719,94.9484912 C1.21645614,95.824807 2.22,96.6660702 3.24431579,97.4761754 L3.24431579,97.4761754 L97.4372281,3.28196491 C96.6284211,2.25894737 95.7858596,1.25410526 94.9108421,0.270035088 L94.9108421,0.270035088 L0.231087719,94.9484912 Z" id="Fill-19" fill="url(#linearGradient-25)" mask="url(#mask-24)"></path>
                        </g>
                        <g id="Group-24" transform="translate(31.000000, 31.000000)">
                            <mask id="mask-27" fill="white">
                                <use xlink:href="#path-26"></use>
                            </mask>
                            <g id="Clip-23"></g>
                            <path d="M0.0890262657,91.6051648 C1.2393544,92.308501 2.40514046,92.9744804 3.58767263,93.601815 L3.58767263,93.601815 L93.5644583,3.62631747 C92.9384119,2.44378531 92.2698561,1.27799924 91.5678081,0.127671108 L91.5678081,0.127671108 L0.0890262657,91.6051648 Z" id="Fill-22" fill="url(#linearGradient-28)" mask="url(#mask-27)"></path>
                        </g>
                        <g id="Group-27" transform="translate(41.000000, 41.000000)">
                            <mask id="mask-30" fill="white">
                                <use xlink:href="#path-29"></use>
                            </mask>
                            <g id="Clip-26"></g>
                            <path d="M0.317058824,86.526 C1.67847059,87.0397647 3.05541176,87.5017647 4.44141176,87.9236471 L4.44141176,87.9236471 L87.8848235,4.47894118 C87.4629412,3.09294118 87.0009412,1.716 86.4884706,0.354588235 L86.4884706,0.354588235 L0.317058824,86.526 Z" id="Fill-25" fill="url(#linearGradient-31)" mask="url(#mask-30)"></path>
                        </g>
                        <g id="Group-30" transform="translate(54.000000, 54.000000)">
                            <mask id="mask-33" fill="white">
                                <use xlink:href="#path-32"></use>
                            </mask>
                            <g id="Clip-29"></g>
                            <path d="M0.5915,77.4111 C2.2373,77.6685 3.8909,77.8648 5.5484,78 L5.5484,78 L77.9623,5.5861 C77.8258,3.9286 77.6308,2.275 77.3734,0.6292 L77.3734,0.6292 L0.5915,77.4111 Z" id="Fill-28" fill="url(#linearGradient-34)" mask="url(#mask-33)"></path>
                        </g>
                        <g id="Group-33" transform="translate(71.000000, 71.000000)">
                            <mask id="mask-36" fill="white">
                                <use xlink:href="#path-35"></use>
                            </mask>
                            <g id="Clip-32"></g>
                            <path d="M0.511123641,60.978161 C2.63207541,60.7970258 4.74275,60.5131189 6.84057813,60.1290095 L6.84057813,60.1290095 L60.0904701,6.87911753 C60.4758641,4.7812894 60.7584864,2.66933016 60.9396216,0.549663043 L60.9396216,0.549663043 L0.511123641,60.978161 Z" id="Fill-31" fill="url(#linearGradient-37)" mask="url(#mask-36)"></path>
                        </g>
                        <g id="Group-36" transform="translate(94.000000, 93.000000)">
                            <mask id="mask-39" fill="white">
                                <use xlink:href="#path-38"></use>
                            </mask>
                            <g id="Clip-35"></g>
                            <path d="M0.0515625,32.6615557 C6.96622596,29.3972755 13.4459135,24.913679 19.1640625,19.2001978 L19.1640625,19.2001978 C24.8808894,13.4867166 29.3694712,7.01231868 32.6350962,0.103299843 L32.6350962,0.103299843 L0.0515625,32.6615557 Z" id="Fill-34" fill="url(#linearGradient-40)" mask="url(#mask-39)"></path>
                        </g>
                    </g>
                </g>
                <g id="02" transform="translate(86.000000, 50.000000)" fill-rule="nonzero">
                    <g>
                        <polygon id="Path" fill="#50BFA5" points="179.58394 87.0589103 174.65249 88.5617337 171.364857 80.9427685 163.950196 82.2358956 160.557639 76.9585389 157.864578 78.6710587 162.411304 85.7657832 169.441242 84.5076054 172.868774 92.4411151 180.248461 90.1694053"></polygon>
                        <polygon id="Path" fill="#50BFA5" points="493.97258 360.957216 489.076105 362.46004 485.753497 354.841074 478.338836 356.169151 474.946279 350.856845 472.253218 352.569365 476.799944 359.664089 483.829882 358.405911 487.257415 366.339421 494.637101 364.067711"></polygon>
                        <path d="M149.365697,451.126622 C149.365697,451.126622 123.204533,362.529938 121.106044,342.993234 C119.007555,323.456529 133.627029,329.502773 133.627029,329.502773 C133.627029,329.502773 121.315893,292.246731 130.234471,283.404538 C139.118075,274.562344 147.162283,291.058452 147.162283,291.058452 C147.162283,291.058452 149.855344,245.833934 159.33352,245.833934 C176.995803,245.799003 176.646055,295.14753 176.646055,295.14753 C176.646055,295.14753 181.157806,275.820522 190.635982,281.132828 C204.905708,289.101287 184.445439,327.825202 184.445439,327.825202 C184.445439,327.825202 202.632345,327.825202 209.032736,337.01689 C220.469502,353.40815 149.365697,451.126622 149.365697,451.126622 Z" id="Path" fill="#50BFA5"></path>
                        <g id="Group" transform="translate(22.092334, 308.952536)">
                            <path d="M135.807219,130.431093 C135.807219,130.431093 60.4015109,117.814366 43.9983212,104.463702 C27.5951315,91.1130386 43.8234471,85.1017449 43.8234471,85.1017449 C43.8234471,85.1017449 5.94571908,65.704838 6.40039172,52.4939716 C6.85506435,39.2831053 25.6715165,45.9933866 25.6715165,45.9933866 C25.6715165,45.9933866 -6.26049245,9.61108002 1.29406827,2.72605179 C15.3539452,-10.1353208 52.2873531,27.6799105 52.2873531,27.6799105 C52.2873531,27.6799105 41.340235,9.68097879 52.881925,6.85007885 C70.2993844,2.55130488 83.1351427,46.9020705 83.1351427,46.9020705 C83.1351427,46.9020705 79.8824846,29.3924302 91.8788472,31.7340388 C113.353386,35.8930152 135.807219,130.431093 135.807219,130.431093 Z" id="Path" fill="#50BFA5"></path>
                            <path d="M91.8438724,31.6990894 C79.812535,29.5322277 83.1001679,46.8671211 83.1001679,46.8671211 C83.1001679,46.8671211 70.2644096,2.5163555 52.8469502,6.81512947 C41.3052602,9.6460294 52.2523783,27.6449611 52.2523783,27.6449611 C52.2523783,27.6449611 15.3539452,-10.1702701 1.25909345,2.69110241 L135.562395,130.431093 C133.184107,118.268708 111.989368,35.3687745 91.8438724,31.6990894 Z" id="Path" fill="#3C8F7C"></path>
                        </g>
                        <g id="Group" transform="translate(16.496363, 387.239151)">
                            <path d="M162.877728,62.5244442 C162.877728,62.5244442 123.146335,22.1579081 103.175713,17.9639823 C83.1701175,13.7700565 86.7725238,27.9944549 86.7725238,27.9944549 C86.7725238,27.9944549 47.0761052,-6.67533194 37.877728,1.71251971 C28.6793509,10.1003714 38.6121992,18.208628 38.6121992,18.208628 C38.6121992,18.208628 5.56099608,12.3720812 0.839395635,23.2063896 C-6.43536654,39.8772447 47.9155008,48.9291347 47.9155008,48.9291347 C47.9155008,48.9291347 25.1468942,50.5018568 30.4280918,60.951722 C38.4023503,76.7138933 162.877728,62.5244442 162.877728,62.5244442 Z" id="Path" fill="#355389"></path>
                            <path d="M0.839395635,23.2063896 C5.56099608,12.3720812 38.6121992,18.208628 38.6121992,18.208628 C38.6121992,18.208628 28.6793509,10.1003714 37.877728,1.71251971 C47.0761052,-6.67533194 85.5134303,23.2762883 85.5134303,23.2762883 C85.5134303,23.2762883 76.4549524,5.9763443 96.4605484,10.1702701 C116.466144,14.364196 162.877728,62.5593936 162.877728,62.5593936 L0.839395635,23.2063896 Z" id="Path" fill="#466EB6"></path>
                        </g>
                        <g id="Group" transform="translate(213.754337, 12.232284)">
                            <path d="M28.854225,21.2841736 C15.4938444,23.4859846 11.5067152,41.0305744 22.6287073,48.8592359 C24.622272,50.2572112 26.0212647,52.3891235 26.5808618,54.7656814 L28.6094012,62.9088874 C29.1689983,65.1456479 31.3724119,66.6135219 33.645775,66.2290787 L38.7171237,65.3902935 C40.9904868,65.0058503 42.6343033,62.9438368 42.4244544,60.6371776 C41.724958,52.2143766 40.8505876,49.1737803 43.5786234,45.3992471 C51.5878567,34.4251412 42.2146055,19.0823625 28.854225,21.2841736 Z" id="Path" fill="#F7CC7F"></path>
                            <path d="M30.2182429,56.9325431 C29.3438724,49.7329704 28.1197538,42.1140052 27.700056,39.9471435 C20.0405708,40.3665361 22.9434807,32.2932289 26.4759373,35.5784708 C27.4902071,36.5221041 27.9448797,37.7802818 28.259653,39.1782571 C30.8128148,38.9336114 33.2960269,38.2346238 35.56939,37.0463448 C35.4644656,35.2639263 35.2546167,33.9358498 35.7792389,32.7825202 C36.5137101,31.0700005 38.7171237,30.5807092 39.5914941,32.2582795 C39.9412423,32.8873684 39.9762171,33.6912042 39.7313934,34.3552424 C39.2067711,35.7881671 37.6678791,36.7318004 36.338836,37.4657374 C36.7585339,43.197436 37.2831561,48.964084 38.0176273,54.6608333 L37.2831561,54.7656814 C36.5836598,49.1737803 36.0240627,43.4770311 35.6393397,37.8501806 C33.4009513,38.9685608 30.952714,39.6675485 28.4345271,39.9121941 C28.9591494,42.6731953 30.1133184,50.0824643 30.9177392,56.8626444 L30.2182429,56.9325431 Z M24.0626749,38.2346238 C24.7271964,38.9685608 25.8813654,39.2831053 27.5601567,39.2132065 C27.2803581,37.9899781 26.8606603,36.8715979 25.9862899,36.1027115 C24.0976497,34.3552424 22.9085059,37.0113954 24.0626749,38.2346238 Z M36.4437605,33.0621153 C36.0240627,34.0057486 36.1989368,35.228977 36.2688864,36.6619016 C37.3531058,36.0328127 38.647174,35.2639263 39.031897,34.1105967 C39.3116956,33.306761 38.9969222,32.1883807 38.1925014,31.9786844 C38.1225518,31.9437351 36.7585339,32.398077 36.4437605,33.0621153 Z" id="Shape" fill="#FAE0B2"></path>
                            <path d="M26.545887,54.5559851 C26.5808618,54.6258839 26.5808618,54.6957827 26.6158366,54.7656814 L28.644376,62.9088874 C29.2039731,65.1456479 31.4073867,66.6135219 33.6807499,66.2290787 L38.7520985,65.3902935 C41.0254617,65.0058503 42.6692781,62.9438368 42.4594292,60.6371776 C42.1446558,56.8975937 41.7949077,54.2064913 41.7599328,52.0396296 L26.545887,54.5559851 Z" id="Path" fill="#96D9C9"></path>
                            <path d="M18.9213766,15.2029811 L14.9342473,7.89856031 C14.5495243,7.19957267 14.7943481,6.29088874 15.5288193,5.90644554 C16.2283156,5.52200234 17.1376609,5.76664801 17.5223839,6.50058503 L21.5095132,13.8050059 C21.8942361,14.5039935 21.6494124,15.4126774 20.9149412,15.7971206 C20.2154449,16.1466144 19.3060996,15.9019688 18.9213766,15.2029811 Z" id="Path" fill="#FAE0B2"></path>
                            <path d="M10.2126469,32.8174696 L1.50391718,32.0485832 C0.699496363,31.9786844 0.104924454,31.2796968 0.174874091,30.475861 C0.244823727,29.6720252 0.94432009,29.0778857 1.74874091,29.1477845 L10.4574706,29.9166709 C11.2618914,29.9865697 11.8564633,30.6855573 11.7865137,31.4893931 C11.7165641,32.3281783 11.0170677,32.8873684 10.2126469,32.8174696 Z" id="Path" fill="#FAE0B2"></path>
                            <path d="M1.57386682,59.5187974 C1.01426973,58.9596073 1.01426973,58.015974 1.57386682,57.4567838 C3.70733072,55.3248715 6.08561835,53.4376049 8.56883044,51.7600346 C9.23335199,51.3056926 10.1426973,51.4804395 10.5973699,52.1794272 C11.0520425,52.8434654 10.8771684,53.7521494 10.1776721,54.2064913 C7.83435926,55.7792135 5.63094572,57.561632 3.60240627,59.5537468 C3.04280918,60.1129369 2.13346391,60.1129369 1.57386682,59.5187974 Z" id="Path" fill="#FAE0B2"></path>
                            <path d="M40.4658646,14.8185379 C39.6964186,14.6088416 39.2417459,13.8050059 39.41662,13.0361194 C40.3959149,9.33148497 41.0254617,5.52200234 41.2003358,1.71251971 C41.2353106,0.908683929 41.9348069,0.279595055 42.7392278,0.349493819 C43.5436486,0.384443201 44.1731953,1.08343084 44.1032457,1.88726662 C43.8933968,5.90644554 43.26385,9.92562446 42.2146055,13.8050059 C42.0397314,14.5389429 41.2353106,14.9932848 40.4658646,14.8185379 Z" id="Path" fill="#FAE0B2"></path>
                            <path d="M49.4543928,26.0023401 C49.2095691,25.2334537 49.6642417,24.4296179 50.4336877,24.1849723 L59.4921656,21.4589205 C60.2616116,21.2142748 61.0660325,21.6686168 61.3108562,22.4375032 C61.5556799,23.2063896 61.1010073,24.0102254 60.3315613,24.254871 L51.2730834,26.9809228 C50.5036374,27.1906191 49.6642417,26.7712265 49.4543928,26.0023401 Z" id="Path" fill="#FAE0B2"></path>
                            <path d="M64.3186905,50.0824643 C64.1787913,50.0824643 64.038892,50.0475149 63.9339675,50.0125655 C60.7862339,49.138831 57.7434247,47.9156026 54.8754896,46.3778298 C54.1759933,45.9933866 53.8961947,45.119652 54.2809177,44.4206644 C54.6656407,43.7216768 55.5400112,43.4420817 56.2395076,43.8265249 C58.9325686,45.2594496 61.8005036,46.4127792 64.7383884,47.2166149 C65.5078344,47.4263112 65.962507,48.230147 65.7526581,48.9990334 C65.5428092,49.6630717 64.9482373,50.0824643 64.3186905,50.0824643 Z" id="Path" fill="#FAE0B2"></path>
                        </g>
                        <path d="M410.767487,126.726459 L406.185786,115.9271 L394.679071,113.550542 C393.385003,113.270947 392.93033,111.628326 393.9446,110.754591 L402.828204,103.065727 L401.534135,91.427583 C401.394236,90.0995065 402.828204,89.1908226 403.982373,89.8548609 L414.020145,95.9011039 L424.72244,91.0431398 C425.946558,90.4839497 427.275602,91.5673806 426.960828,92.8605077 L424.302742,104.288956 L432.207051,112.956402 C433.116396,113.934985 432.486849,115.542657 431.157806,115.647505 L419.476217,116.661037 L413.670397,126.866256 C413.005876,128.054535 411.29211,127.949687 410.767487,126.726459 Z" id="Path" fill="#F7CC7F"></path>
                        <polygon id="Path" fill="#F48C7F" points="483.515109 89.680114 481.661444 97.2291804 469.140459 95.5516101 465.01343 106.28107 455.465305 106.525716 455.605204 111.38368 468.405988 110.999237 472.288193 100.863916 485.298825 102.611385 488.131785 91.2178868"></polygon>
                        <path d="M372.085339,452.105204 L152.233632,452.105204 C143.839675,452.105204 137.019586,445.045429 137.019586,436.343033 L137.019586,426.976599 C137.019586,418.274203 143.839675,411.214427 152.233632,411.214427 L372.120313,411.214427 L372.120313,411.214427 C362.047566,422.607926 361.872692,440.012718 371.700616,451.615913 L372.085339,452.105204 Z" id="Path" fill="#B75742"></path>
                        <path d="M368.692781,415.897645 L246.73559,415.897645 C238.341634,415.897645 231.521544,422.95742 231.521544,431.659816 L231.521544,431.659816 C231.521544,440.362212 238.341634,447.421987 246.73559,447.421987 L368.692781,447.421987 C362.991886,437.741008 363.026861,425.543674 368.692781,415.897645 Z" id="Path" fill="#FFFFFF"></path>
                        <path d="M294.86094,382.80058 C295.175713,382.20644 294.686066,381.507453 293.951595,381.507453 L177.590375,381.507453 C168.461947,381.507453 161.082261,388.147835 161.082261,396.36094 L161.082261,396.36094 C161.082261,404.574045 168.461947,411.214427 177.590375,411.214427 L293.951595,411.214427 C294.686066,411.214427 295.175713,410.51544 294.86094,409.9213 L294.86094,409.9213 C290.279239,401.323752 290.279239,391.363179 294.86094,382.80058 Z" id="Path" fill="#86B1F2"></path>
                        <path d="M294.126469,384.268454 L236.452994,384.268454 C225.750699,384.268454 217.076945,389.825406 217.076945,396.710434 C217.076945,403.595462 225.750699,409.152414 236.452994,409.152414 L294.476217,409.152414 C290.524063,401.253854 290.419138,392.236913 294.126469,384.268454 Z" id="Path" fill="#FFFFFF"></path>
                        <g id="Group" transform="translate(268.664801, 390.035102)">
                            <path d="M10.5623951,0.139797528 L3.04280918,0.139797528 C1.43396754,0.139797528 0.104924454,0.698987638 0.104924454,1.36302589 L0.104924454,1.46787404 L10.5274203,1.46787404 L10.5274203,0.139797528 L10.5623951,0.139797528 Z" id="Path" fill="#B75742"></path>
                            <path d="M16.9627868,3.18039375 C16.9627868,1.50282342 15.004197,0.139797528 12.5909345,0.139797528 L2.93788472,0.139797528 C4.75657527,0.139797528 6.26049245,1.1533296 6.26049245,2.44645673 L6.22551763,34.9843313 L11.54169,30.7904055 L16.9627868,34.9843313 L16.9627868,3.18039375 Z" id="Path" fill="#F47458"></path>
                        </g>
                        <g id="Group" transform="translate(153.247902, 353.338251)">
                            <path d="M120.20845,27.1207204 L52.497202,27.1207204 C46.4815333,27.1207204 41.6200336,21.3540723 41.6200336,14.2243984 L41.6200336,14.2243984 C41.6200336,7.09472453 46.4815333,1.32807651 52.497202,1.32807651 L120.173475,1.32807651 L120.173475,1.32807651 C114.997202,8.45775042 114.787353,18.942565 119.683828,26.3867833 L120.20845,27.1207204 Z" id="Path" fill="#FFFFFF"></path>
                            <path d="M41.6550084,14.2243984 L41.6550084,14.2243984 C41.6550084,7.09472453 46.6214326,1.32807651 52.7770006,1.32807651 L121.502518,1.32807651 C121.817292,1.32807651 122.09709,1.01353208 122.062115,0.664038256 L122.062115,0.664038256 C122.062115,0.314544437 121.817292,-7.94656942e-14 121.502518,-7.94656942e-14 L12.4860101,-7.94656942e-14 C5.70089536,-7.94656942e-14 0.209848909,6.36078751 0.209848909,14.2243984 L0.209848909,14.2243984 C0.209848909,22.0880094 5.70089536,28.4487969 12.4860101,28.4487969 L121.502518,28.4487969 C121.817292,28.4487969 122.062115,28.1692018 122.062115,27.7847586 L122.062115,27.7847586 C122.062115,27.4003154 121.817292,27.1207204 121.502518,27.1207204 L52.7770006,27.1207204 C46.6214326,27.1207204 41.6550084,21.3540723 41.6550084,14.2243984 Z" id="Path" fill="#466EB6"></path>
                            <g transform="translate(97.929491, 7.339370)" id="Path">
                                <path d="M10.4574706,0.314544437 L2.93788472,0.314544437 C1.32904309,0.314544437 0,0.838785166 0,1.50282342 L0,1.60767157 L10.4224958,1.60767157 L10.4224958,0.314544437 L10.4574706,0.314544437 Z" fill="#184655"></path>
                                <path d="M16.8578623,3.2852419 C16.8578623,1.64262095 14.8992725,0.314544437 12.4860101,0.314544437 L2.83296027,0.314544437 C4.65165081,0.314544437 6.15556799,1.32807651 6.15556799,2.58625426 L6.12059317,34.4950399 L11.4367655,30.4059623 L16.8578623,34.4950399 L16.8578623,3.2852419 Z" fill="#3C8F7C"></path>
                            </g>
                        </g>
                        <g id="Group" transform="translate(169.336318, 88.771430)">
                            <g transform="translate(123.810856, 72.345221)" id="Path">
                                <path d="M88.1715165,2.79595055 L98.1743145,0.174746909 L91.3891998,90.4490004 L79.3928372,90.8334436 L85.4434807,6.08119245 C85.5484051,4.54341965 86.6326245,3.21534313 88.1715165,2.79595055 Z" fill="#969696"></path>
                                <g fill="#C1C1C1">
                                    <path d="M92.2635702,93.0352546 C92.0537213,93.070204 91.8088976,93.070204 91.5640739,93.0352546 C89.5705092,92.7906089 88.1015669,90.8334436 88.276441,88.6316325 L94.9216564,3.73958386 C95.0965305,1.5377728 96.8452714,-0.0698987638 98.838836,0.174746909 C100.832401,0.419392583 102.301343,2.37655797 102.126469,4.57836903 L95.4812535,89.4704177 C95.3413542,91.3926337 93.9773363,92.8605077 92.2635702,93.0352546 Z"></path>
                                    <path d="M0.314773363,97.5437249 C0.314773363,97.6136236 0.314773363,97.6835224 0.314773363,97.7184718 L0.314773363,97.7184718 C0.629546726,101.178461 3.32260772,103.764715 6.29546726,103.48512 L90.6897034,95.9360533 C93.662563,95.6564583 95.8659765,92.6508114 95.5512031,89.1908226 C95.5512031,89.0510251 95.5162283,88.9112276 95.4812535,88.77143 L0.314773363,97.5437249 Z"></path>
                                </g>
                            </g>
                            <path d="M182.883324,261.071883 C177.357303,264.147428 160.464466,258.765224 160.464466,258.275932 C160.219642,262.889251 141.543089,308.043852 141.543089,308.043852 L141.543089,321.953706 C141.543089,321.953706 180.015389,323.771074 179.455792,320.380984 C178.896195,316.990894 176.83268,319.192705 169.173195,312.762019 C168.508674,312.202829 157.701455,309.686473 160.63934,303.325686 C166.515109,290.499262 179.001119,269.075291 182.883324,261.071883 Z" id="Path" fill="#F7A491"></path>
                            <path d="M140.283996,322.442997 L182.393677,322.442997 C183.897594,322.3032 184.282317,321.045022 183.72272,320.311085 C182.603525,318.773312 174.559317,315.103627 169.103246,312.69212 C159.660045,313.8105 143.047006,310.175764 141.508114,308.008903 C137.55596,313.356158 139.4446,322.26825 140.283996,322.442997 Z" id="Path" fill="#3C8F7C"></path>
                            <path d="M131.050644,228.638856 C130.491046,226.926337 167.31953,211.303963 168.963346,213.086381 C171.866256,216.231826 149.0277,275.505978 149.0277,275.505978 L175.258814,283.509386 C175.258814,283.509386 202.539172,215.043547 201.419978,202.531668 C200.265809,190.019789 186.62563,175.795391 157.001959,184.88223 C127.378288,193.96907 131.050644,228.638856 131.050644,228.638856 Z" id="Path" fill="#484848"></path>
                            <path d="M207.330722,268.865595 C201.105204,267.747215 193.060996,267.397721 186.590655,267.292873 C187.360101,273.024571 191.032457,302.451951 190.367935,304.269319 C187.639899,311.608689 181.554281,315.033728 181.554281,315.033728 C181.554281,315.033728 210.163682,340.826372 211.877448,337.855675 C213.591214,334.884977 210.618355,335.269421 208.729715,325.448644 C208.554841,324.57491 204.427812,310.874752 204.182988,303.465483 C203.693341,289.345933 207.120873,276.694256 207.330722,268.865595 Z" id="Path" fill="#F7A491"></path>
                            <path d="M198.132345,172.580048 C194.145215,170.448136 183.792669,170.378237 172.390879,171.112174 C150.181869,172.545098 128.252658,176.913771 107.162843,183.903648 L93.0330162,188.586865 L93.067991,174.117821 C93.067991,174.117821 48.0903749,166.603704 46.5514829,177.752556 C44.2081701,194.52826 47.11108,228.568958 62.115277,236.152973 C108.631785,259.743806 173.859821,198.547439 174.104645,206.550847 C174.419418,217.315257 183.477896,257.332299 185.821209,274.841939 C192.256575,274.946787 203.343593,274.946787 208.170118,273.863357 C209.079463,239.508114 209.499161,178.626291 198.132345,172.580048 Z" id="Path" fill="#666666"></path>
                            <path d="M180.714885,315.627868 L212.856743,341.280714 C214.115837,342.119499 215.200056,341.385562 215.235031,340.476878 C215.37493,338.589612 211.422776,330.656102 208.764689,325.343796 C200.755456,320.206237 190.193061,306.820624 190.367935,304.19942 C187.010353,307.065269 180.155288,314.96383 180.714885,315.627868 Z" id="Path" fill="#3C8F7C"></path>
                            <path d="M107.932289,32.6077733 C106.848069,22.7520476 105.728875,12.8264232 97.5447678,5.62685049 C90.9345271,-0.209696291 82.505596,-1.22322837 74.1815893,1.922216 C50.573587,10.799359 62.7448237,31.7340388 32.6664801,52.8434654 C23.3282037,59.4139492 13.0106323,63.8874701 5.9806939,72.7296637 C-3.88220481,85.1017449 -0.139899273,99.9552322 8.81365417,109.880857 C51.7627308,157.377067 99.7132065,93.2449509 103.175713,77.8322735 C105.728875,66.3339268 108.631785,38.9685608 107.932289,32.6077733 Z" id="Path" fill="#2E2E2E"></path>
                            <path d="M99.223559,88.0724424 C95.7260772,81.6068067 92.0886961,76.4692476 92.0886961,76.4692476 C88.4513151,70.0036119 79.043089,66.71837 79.043089,66.71837 C79.043089,66.71837 75.8953553,66.7882688 72.2929491,66.9630157 C72.0831002,67.5571552 71.8382764,67.9765478 71.6284275,68.1512947 C70.2644096,69.1648268 62.5,67.8716996 57.4636262,71.2617897 C40.6407387,85.6958844 45.2923895,155.594648 46.6214326,177.682658 L97.8945159,178.171949 C97.8945159,178.171949 91.4241746,130.64079 101.84667,118.443455 C109.086458,109.985705 104.399832,97.6835224 99.223559,88.0724424 Z" id="Path" fill="#DE4B38"></path>
                            <path d="M76.1052043,43.0925879 C76.1052043,43.0925879 73.272244,63.2234319 71.3136542,68.1163453 C69.3550644,73.0092588 82.1558478,83.459124 92.7881925,86.6395177 C103.420537,89.8199115 89.5355344,75.8401587 89.9902071,70.5977514 C90.4448797,65.3553442 92.3684947,40.6111818 92.3684947,40.6111818 L76.1052043,43.0925879 Z" id="Path" fill="#F7A491"></path>
                            <path d="M91.8088976,47.7408557 C92.123671,43.651778 92.3335199,40.6461311 92.3335199,40.6461311 L76.0702294,43.1275373 C76.0702294,43.1275373 75.6505316,45.5040952 75.195859,48.8242865 C81.8060996,52.6337691 87.7518187,51.4105408 91.8088976,47.7408557 Z" id="Path" fill="#F47458"></path>
                            <path d="M81.1765529,6.36078751 C81.1765529,6.36078751 74.7761612,7.79371216 70.8240067,13.8399552 C66.8718523,19.8861983 64.1438165,37.6055349 77.1894236,45.9234878 C90.200056,54.2064913 100.342753,42.4984484 100.517627,31.0700005 C100.657527,19.6066032 98.2092893,4.33372336 81.1765529,6.36078751 Z" id="Path" fill="#F7A491"></path>
                            <path d="M103.490487,27.4352648 C102.371293,30.196266 100.167879,31.9087857 98.5590375,31.2447474 C96.9501959,30.5807092 96.530498,27.819708 97.6496922,25.0936562 C98.7688864,22.332655 100.9723,20.6201353 102.581142,21.2841736 C104.189983,21.9132625 104.609681,24.6742636 103.490487,27.4352648 Z" id="Path" fill="#F7A491"></path>
                            <path d="M83.1001679,5.9763443 C83.1001679,5.9763443 74.9510353,24.2898204 67.7462227,25.897492 C60.576385,27.5401129 60.6812246,36.7318004 60.6812246,36.7318004 C60.6812246,36.7318004 60.8561835,15.4825762 67.5713486,10.5896627 C74.3214885,5.73169863 83.1001679,5.9763443 83.1001679,5.9763443 Z" id="Path" fill="#2E2E2E"></path>
                            <path d="M70.6141578,29.7069746 C71.5584779,32.6776721 70.6841074,35.6134202 68.6905428,36.242509 C66.6969782,36.8715979 64.2837157,34.9843313 63.3393956,32.0136338 C62.3950755,29.0429364 63.269446,26.1071883 65.2630106,25.4780994 C67.2915501,24.8490105 69.6698377,26.7362772 70.6141578,29.7069746 Z" id="Path" fill="#F7A491"></path>
                            <path d="M162.353106,161.815638 C159.275322,160.697258 154.693621,160.55746 154.76357,160.173017 C155.078344,158.530396 168.648573,163.807753 166.829882,161.396246 C165.815613,160.068169 155.637941,155.350003 153.154729,156.118889 C150.741466,156.887775 135.002798,161.291397 135.002798,161.291397 L91.9487969,151.191026 C91.9487969,151.191026 81.0716284,126.516762 80.0223839,105.302488 C71.0338556,106.525716 64.9132625,108.727527 57.113878,113.06125 C60.8911584,133.331892 70.0195859,166.21926 80.1622832,172.370352 C84.429211,174.956606 135.247622,169.259857 135.247622,169.259857 C135.247622,169.259857 146.439564,168.456021 148.293229,167.757033 C149.692222,167.232792 153.259653,165.205728 155.183268,164.646538 C159.590095,163.38836 167.459429,166.533805 167.494404,165.66007 C167.494404,165.10088 165.500839,162.968968 162.353106,161.815638 Z" id="Path" fill="#F7A491"></path>
                            <path d="M80.3021824,82.6902376 C79.8824846,76.1547032 77.3992725,69.8638144 70.4742585,67.8367503 C66.1723559,66.5785725 61.345831,67.7668515 57.883324,70.5977514 C53.7912703,73.9528921 52.6371013,79.3001475 52.6720761,84.3678079 C52.7070509,95.9011039 53.5114717,107.818843 55.6099608,119.177392 C63.4093453,114.843669 72.5377728,112.257415 81.5263011,111.034186 C81.4913262,110.929338 80.8268047,91.2877855 80.3021824,82.6902376 Z" id="Path" fill="#FF8D8D"></path>
                        </g>
                        <g id="Group" transform="translate(54.053361, 188.766092) rotate(-44.000000) translate(-54.053361, -188.766092) translate(12.053361, 154.766092)">
                            <path d="M69.2851147,67.0329145 L2.51818691,54.6258839 C1.18914382,54.3812382 0.279798545,53.0881111 0.55959709,51.7600346 L8.91857862,6.88502823 C9.16340235,5.55695172 10.4574706,4.64826779 11.7865137,4.92786285 L78.5534415,17.3348934 C79.8824846,17.5795391 80.7918299,18.8726662 80.5120313,20.2007427 L72.1530498,65.0757491 C71.9432009,66.4038256 70.6491326,67.2775602 69.2851147,67.0329145 Z" id="Path" fill="#D36161"></path>
                            <path d="M37.5279799,15.7272219 L17.2076105,11.9526886 C15.8785674,11.7080429 14.9692222,10.4149158 15.2490207,9.08683929 L16.5081142,2.27170982 C16.7529379,0.943633311 18.0470062,0.0349493819 19.3760492,0.314544437 L39.6964186,4.08907768 C41.0254617,4.33372336 41.9348069,5.62685049 41.6550084,6.954927 L40.3959149,13.7700565 C40.1510912,15.098133 38.8570229,15.9718675 37.5279799,15.7272219 Z" id="Path" fill="#D36161"></path>
                            <path d="M72.3279239,65.3203948 C71.9781757,66.5436231 70.7540571,67.3125095 69.4949636,67.0678639 L2.308338,54.5559851 C1.04924454,54.3113395 0.174874091,53.1929593 0.314773363,51.8998321 L3.84722999,11.7080429 C3.91717963,11.0090553 4.26692781,10.3799664 4.8265249,9.96057384 C5.38612199,9.54118126 6.08561835,9.36643435 6.78511472,9.50623188 L81.4213766,23.3811365 C82.120873,23.520934 82.7154449,23.9053772 83.0651931,24.4995167 C83.4149412,25.0936562 83.5198657,25.7926438 83.3449916,26.4566821 L72.3279239,65.3203948 Z" id="Path" fill="#FFC7C7"></path>
                        </g>
                        <polygon id="Path" fill="#50BFA5" points="425.421936 35.0891794 414.020145 38.1996744 411.536933 24.3597192 415.279239 23.6956809 417.02798 33.4465585 424.442641 31.4194943"></polygon>
                        <g id="Group" transform="translate(111.278120, 0.000000)">
                            <path d="M91.2493005,45.9234878 L19.5159485,71.5064354 C17.2076105,72.3452205 14.6544488,71.1219922 13.850028,68.815333 L0.594571908,31.7340388 C-0.244823727,29.4273796 0.979294908,26.8760747 3.2876329,26.0722389 L75.0209849,0.489291347 C77.3293229,-0.349493819 79.8824846,0.873734547 80.6869054,3.18039375 L93.9423615,40.2616879 C94.7817571,42.5683472 93.5576385,45.0847027 91.2493005,45.9234878 Z" id="Path" fill="#86B1F2"></path>
                            <path d="M43.7185227,36.3823066 C46.341634,43.7566261 42.494404,51.8998321 35.1147174,54.5210358 C27.7350308,57.1422394 19.5858982,53.2978074 16.9627868,45.9234878 C14.3396754,38.5491682 18.1869054,30.4059623 25.5665921,27.7847586 C32.9462787,25.1286056 41.0604365,29.007987 43.7185227,36.3823066 Z" id="Path" fill="#FFFFFF"></path>
                            <path d="M32.3517068,34.3901918 C33.1211528,36.5570535 32.0019586,38.9685608 29.798545,39.7374472 C27.6301063,40.5063336 25.2168439,39.3879534 24.4473979,37.1861423 C23.6779519,35.0192807 24.7971461,32.6077733 27.0005596,31.8388869 C29.1689983,31.0700005 31.5822608,32.2233301 32.3517068,34.3901918 Z" id="Path" fill="#86B1F2"></path>
                            <path d="M39.1717963,46.0632853 L26.5808618,50.5717556 L26.0912143,49.1737803 C25.1818691,46.5875261 26.5109121,43.7566261 29.0990487,42.8479422 L32.3517068,41.6946126 C34.9398433,40.7859287 37.7728036,42.1140052 38.6821489,44.7002594 L39.1717963,46.0632853 Z" id="Path" fill="#86B1F2"></path>
                            <path d="M45.4672636,28.6235438 C44.6978176,28.6235438 44.033296,28.1342524 43.7534975,27.4352648 C43.4037493,26.4916315 43.8933968,25.44315 44.8377168,25.1286056 L76.2101287,13.9448034 C76.4199776,13.8749046 76.5948517,13.8399552 76.8047006,13.8399552 C77.5741466,13.8399552 78.2386682,14.3292466 78.5184667,15.0282342 C78.8682149,15.9718675 78.3785674,17.020349 77.4342473,17.3348934 L46.0618355,28.5186956 C45.8869614,28.5885944 45.6771125,28.6235438 45.4672636,28.6235438 Z" id="Path" fill="#FFFFFF"></path>
                            <path d="M53.9311696,36.4522053 C53.1617236,36.4522053 52.497202,35.962914 52.2174035,35.2639263 C51.8676553,34.320293 52.3573027,33.2718116 53.3016228,32.9572671 L77.7839955,24.2199217 C77.9938444,24.1500229 78.1687185,24.1150735 78.3785674,24.1150735 C79.1480134,24.1150735 79.812535,24.6043649 80.0923335,25.3033525 C80.2672076,25.7576945 80.2322328,26.2469858 80.0223839,26.7013278 C79.812535,27.1556697 79.4627868,27.4702142 79.0081142,27.6449611 L54.5257415,36.3823066 C54.3508674,36.4172559 54.1410185,36.4522053 53.9311696,36.4522053 Z" id="Path" fill="#FFFFFF"></path>
                        </g>
                        <path d="M313.992166,325.69329 L140.761891,325.69329 C135.375769,325.69329 131.038892,330.061963 131.038892,335.409218 L131.038892,343.587373 C131.038892,348.969578 135.410744,353.303302 140.761891,353.303302 L313.957191,353.303302 L313.852266,353.198453 C306.47258,345.544539 306.542529,333.347205 313.992166,325.69329 Z" id="Path" fill="#F47458"></path>
                        <path d="M310.914382,329.782368 L218.336038,329.782368 C212.949916,329.782368 208.613039,334.15104 208.613039,339.498296 L208.613039,339.498296 C208.613039,344.880501 212.984891,349.214224 218.336038,349.214224 L310.914382,349.214224 C307.521824,343.20293 307.521824,335.793661 310.914382,329.782368 Z" id="Path" fill="#FDFDFD"></path>
                        <g id="Group" transform="translate(442.139899, 270.158722)">
                            <g id="Path">
                                <path d="M13.6052043,56.3384036 L0.489647454,23.4160859 C-0.174874091,21.7734649 0.629546726,19.8861983 2.308338,19.22216 L49.5593173,0.419392583 C51.2031337,-0.244645673 53.0917739,0.55919011 53.7562955,2.23676044 L66.8718523,35.1590782 C67.5363738,36.8016991 66.731953,38.6889658 65.0531617,39.353004 L17.8021824,58.1557715 C16.158366,58.7848604 14.2697258,57.9810246 13.6052043,56.3384036 Z" fill="#FFFFFF"></path>
                                <path d="M58.1631226,37.2909905 L46.3766088,7.7238134 C46.2017348,7.23452205 46.4115837,6.71028132 46.9012311,6.53553442 L46.9012311,6.53553442 C47.3908786,6.36078751 47.9155008,6.5704838 48.0903749,7.05977514 L59.8768886,36.6269522 C60.0517627,37.1162436 59.8419138,37.6404843 59.3522664,37.8152312 L59.3522664,37.8152312 C58.8975937,37.9899781 58.3729715,37.7802818 58.1631226,37.2909905 Z" fill="#466EB6"></path>
                                <path d="M52.5671517,33.3766597 L42.879127,9.08683929 C42.7042529,8.59754795 42.9141018,8.07330722 43.4037493,7.89856031 L43.4037493,7.89856031 C43.8933968,7.7238134 44.418019,7.93350969 44.5928931,8.42280104 L54.2809177,32.7126215 C54.4557918,33.2019128 54.2459429,33.7261535 53.7562955,33.9009004 L53.7562955,33.9009004 C53.3016228,34.1105967 52.7420257,33.8659511 52.5671517,33.3766597 Z" fill="#466EB6"></path>
                                <path d="M51.1681589,40.086941 L39.3816452,10.519764 C39.2067711,10.0304726 39.41662,9.50623188 39.9062675,9.33148497 L39.9062675,9.33148497 C40.3959149,9.15673806 40.9205372,9.36643435 41.0954113,9.8557257 L52.881925,39.4229028 C53.0567991,39.9121941 52.8469502,40.4364349 52.3573027,40.6111818 L52.3573027,40.6111818 C51.9026301,40.7859287 51.343033,40.5762324 51.1681589,40.086941 Z" fill="#466EB6"></path>
                                <path d="M44.9426413,34.7396856 L35.8491886,11.9177392 C35.6743145,11.4284479 35.8841634,10.9042072 36.3738109,10.7294602 L36.3738109,10.7294602 C36.8634583,10.5547133 37.3880806,10.7644096 37.5629547,11.253701 L46.6564074,34.0756474 C46.8312815,34.5649387 46.6214326,35.0891794 46.1317851,35.2639263 L46.1317851,35.2639263 C45.6771125,35.4386732 45.1524902,35.1940276 44.9426413,34.7396856 Z" fill="#466EB6"></path>
                                <g transform="translate(52.112479, 3.494938)" fill="#355389">
                                    <path d="M5.73587017,1.04848146 L5.49104645,0.454341965 C5.38612199,0.244645673 5.17627308,0.139797528 4.96642417,0.209696291 L0.489647454,1.99211477 C0.279798545,2.06201353 0.174874091,2.30665921 0.279798545,2.55130488 L0.524622272,3.14544437 C0.594571908,3.35514066 0.839395635,3.45998881 1.04924454,3.39009004 L5.52602126,1.60767157 C5.73587017,1.5377728 5.84079463,1.29312713 5.73587017,1.04848146 Z"></path>
                                    <path d="M6.7501399,3.59978634 L6.50531617,3.00564684 C6.43536654,2.79595055 6.19054281,2.69110241 5.9806939,2.76100117 L1.50391718,4.54341965 C1.29406827,4.61331841 1.18914382,4.85796408 1.29406827,5.10260976 L1.538892,5.69674925 C1.60884163,5.90644554 1.85366536,6.01129369 2.06351427,5.94139492 L6.54029099,4.15897645 C6.7501399,4.08907768 6.85506435,3.84443201 6.7501399,3.59978634 Z"></path>
                                    <path d="M7.76440963,6.15109121 L7.5195859,5.55695172 C7.44963626,5.34725543 7.20481253,5.24240728 6.99496363,5.31230605 L2.51818691,7.09472453 C2.308338,7.16462329 2.20341354,7.40926896 2.308338,7.65391464 L2.55316172,8.24805413 C2.62311136,8.45775042 2.86793509,8.56259857 3.077784,8.4926998 L7.55456072,6.71028132 C7.76440963,6.60543318 7.86933408,6.36078751 7.76440963,6.15109121 Z"></path>
                                    <path d="M8.81365417,8.70239609 L8.56883044,8.1082566 C8.46390599,7.89856031 8.25405708,7.79371216 8.04420817,7.86361093 L3.56743145,9.6460294 C3.35758254,9.71592817 3.25265809,9.96057384 3.35758254,10.2052195 L3.60240627,10.799359 C3.70733072,11.0090553 3.91717963,11.1139034 4.12702854,11.0440047 L8.60380526,9.2615862 C8.77867935,9.15673806 8.88360381,8.91209238 8.81365417,8.70239609 Z"></path>
                                    <path d="M9.82792389,11.253701 L9.58310017,10.6595615 C9.51315053,10.4498652 9.2683268,10.345017 9.0584779,10.4149158 L4.58170118,12.1973343 C4.37185227,12.267233 4.26692781,12.5118787 4.37185227,12.7565244 L4.61667599,13.3506639 C4.68662563,13.5603602 4.93144936,13.6652083 5.14129827,13.5953096 L9.61807499,11.8128911 C9.79294908,11.7080429 9.89787353,11.4633973 9.82792389,11.253701 Z"></path>
                                    <path d="M10.8421936,13.8050059 L10.5973699,13.2108664 C10.4924454,13.0011701 10.2825965,12.8963219 10.0727476,12.9662207 L5.5959709,14.7486392 C5.38612199,14.8185379 5.28119754,15.0631836 5.38612199,15.3078293 L5.63094572,15.9019688 C5.70089536,16.1116651 5.94571908,16.2165132 6.15556799,16.1466144 L10.6323447,14.364196 C10.8072188,14.2593478 10.9121433,14.0147021 10.8421936,13.8050059 Z"></path>
                                    <path d="M11.8564633,16.3563107 L11.6116396,15.7621712 C11.54169,15.5524749 11.2968663,15.4476268 11.0870173,15.5175256 L6.61024063,17.299944 C6.40039172,17.3698428 6.29546726,17.6144885 6.40039172,17.8591342 L6.64521544,18.4532736 C6.71516508,18.6629699 6.95998881,18.7678181 7.16983772,18.6979193 L11.6466144,16.9155008 C11.8214885,16.8106527 11.926413,16.566007 11.8564633,16.3563107 Z"></path>
                                    <path d="M12.8707331,18.9076156 L12.6259093,18.3134761 C12.5559597,18.1037798 12.311136,17.9989317 12.1012871,18.0688304 L7.62451035,19.8512489 C7.41466144,19.9211477 7.30973699,20.1657934 7.41466144,20.410439 L7.65948517,21.0045785 C7.72943481,21.2142748 7.97425853,21.319123 8.18410744,21.2492242 L12.6608842,19.4668057 C12.8357583,19.3619576 12.9406827,19.1173119 12.8707331,18.9076156 Z"></path>
                                    <path d="M13.8850028,21.4239711 L13.6401791,20.8298316 C13.5702294,20.6201353 13.3254057,20.5152872 13.1155568,20.5851859 L8.63878008,22.3676044 C8.42893117,22.4375032 8.32400672,22.6821489 8.42893117,22.9267945 L8.6737549,23.520934 C8.77867935,23.7306303 8.98852826,23.8354785 9.19837717,23.7655797 L13.6751539,21.9831612 C13.8850028,21.9132625 13.9549524,21.6686168 13.8850028,21.4239711 Z"></path>
                                    <path d="M14.8992725,23.975276 L14.6544488,23.3811365 C14.5495243,23.1714402 14.3396754,23.0665921 14.1298265,23.1364908 L9.6530498,24.9189093 C9.4432009,24.9888081 9.33827644,25.2334537 9.4432009,25.4780994 L9.68802462,26.0722389 C9.75797426,26.2819352 10.002798,26.3867833 10.2126469,26.3168846 L14.6894236,24.5344661 C14.8992725,24.4645673 14.9692222,24.2199217 14.8992725,23.975276 Z"></path>
                                    <path d="M15.9135422,26.5265809 L15.6687185,25.9324414 C15.5987689,25.7227451 15.3539452,25.6178969 15.1440963,25.6877957 L10.6673195,27.4702142 C10.4574706,27.5401129 10.3525462,27.7847586 10.4574706,28.0294043 L10.7022943,28.6235438 C10.8072188,28.8332401 11.0170677,28.9380882 11.2269166,28.8681894 L15.7036933,27.085771 C15.9135422,27.0158722 15.9834919,26.7712265 15.9135422,26.5265809 Z"></path>
                                    <path d="M16.927812,29.0778857 L16.6829882,28.4837462 C16.6130386,28.27405 16.3682149,28.1692018 16.158366,28.2391006 L11.6815893,30.0215191 C11.4717403,30.0914178 11.3668159,30.3360635 11.4717403,30.5807092 L11.7165641,31.1748487 C11.7865137,31.3845449 12.0313374,31.4893931 12.2411863,31.4194943 L16.7179631,29.6370759 C16.927812,29.5322277 16.9977616,29.287582 16.927812,29.0778857 Z"></path>
                                </g>
                            </g>
                            <g transform="translate(60.506435, 29.357481)" id="Path">
                                <path d="M20.9149412,0.594139492 L2.16843872,27.2605179 C2.13346391,27.3304166 2.09848909,27.4003154 2.06351427,27.4702142 L0.139899273,33.3417103 C-0.0699496363,34.040698 0.699496363,34.5998881 1.29406827,34.1455461 L6.29546726,30.3710129 C6.3654169,30.3360635 6.40039172,30.2661647 6.47034135,30.196266 L25.2867935,3.45998881 C25.5316172,3.11049499 25.4266928,2.65615302 25.0769446,2.41150735 L21.929211,0.384443201 C21.5794628,0.174746909 21.159765,0.279595055 20.9149412,0.594139492 Z" fill="#B75742"></path>
                                <path d="M6.47034135,30.2312153 L6.43536654,30.3011141 L1.60884163,33.9358498 L0.279798545,33.0621153 L2.09848909,27.5051636 C3.46250699,28.27405 5.17627308,29.0778857 6.47034135,30.2312153 Z" fill="#F7CC7F"></path>
                            </g>
                        </g>
                        <g id="Group" transform="translate(316.580302, 6.640383)">
                            <path d="M17.0327364,4.61331841 C19.7257974,6.78018009 24.4124231,13.7001577 30.4280918,18.5581218 C33.9255736,21.3890217 36.6186346,20.6900341 41.0954113,21.2142748 C62.3251259,23.7655797 56.5542809,28.099303 59.1074426,28.553645 C58.3729715,30.2312153 51.7627308,44.2459175 50.5386122,47.1117668 C49.3844432,49.7329704 47.4258534,50.8863 44.5579183,50.5018568 C40.186066,49.9077174 35.7442641,49.4533754 31.4073867,48.5097421 C20.3203693,46.0982347 14.1648013,40.5762324 6.22551763,33.8659511 C4.12702854,32.0835326 3.60240627,29.8467721 4.68662563,27.3304166 C9.79294908,15.5874243 16.4731393,5.69674925 17.0327364,4.61331841 Z" id="Path" fill="#466EB6"></path>
                            <path d="M61.4157806,45.4691459 C61.3108562,50.0824643 61.6606044,51.0260976 59.7020145,50.3271099 C58.5128707,49.9077174 57.3587017,49.3485272 56.2045327,48.7893371 C55.4001119,48.3699445 55.3651371,47.8457038 56.0296586,47.1816656 C56.9739787,46.2380323 57.9532736,45.3293483 58.8975937,44.385715 C58.1980974,42.5683472 59.0025182,40.4713842 60.6813095,39.4578522 C61.0310576,39.2481559 60.7862339,39.6675485 63.7241186,32.8873684 C53.9661444,31.6990894 47.0411304,30.8603042 35.1147174,29.3924302 C31.932009,29.007987 29.0990487,27.7498092 26.6158366,25.6877957 C18.081981,18.5581218 9.58310017,11.4284479 1.08421936,4.33372336 C-0.0699496363,3.35514066 -0.209848909,1.95716539 0.699496363,0.873734547 C1.39899273,0.0349493819 2.34331281,0 3.32260772,0.139797528 C6.05064354,0.489291347 32.7364298,3.80948263 35.4294908,4.12402706 C38.9969222,4.54341965 42.109681,5.87149616 44.8726917,8.17815536 C53.2316732,15.1680317 61.6256295,22.1579081 70.0195859,29.1477845 C71.1737549,30.0914178 71.4885283,31.0001017 71.0688304,32.0485832 C70.6141578,33.2368622 69.6698377,33.7960523 68.2008954,33.4465585 C67.1516508,33.2019128 66.6620034,33.5514066 66.3122552,34.5299893 C64.6684387,38.9336114 63.5142697,39.9121941 63.9339675,41.5548151 C64.2137661,42.7430941 62.7448237,44.9099557 61.4157806,45.4691459 Z" id="Path" fill="#86B1F2"></path>
                        </g>
                        <g id="Group" transform="translate(421.854505, 353.338251)">
                            <path d="M0.384722999,12.721575 L5.24622272,17.3698428 C16.7529379,28.3439487 26.1261891,41.3101694 32.9113039,55.6743654 L33.645775,57.2470876 C33.645775,57.2470876 46.3766088,58.3654678 48.1603246,46.8671211 L48.1603246,46.8671211 C37.0033576,34.2503943 27.8049804,20.7948822 20.2154449,5.83654678 L17.9071069,0.454341965 L0.384722999,12.721575 Z" id="Path" fill="#466EB6"></path>
                            <path d="M17.9071069,0.419392583 C18.5366536,1.32807651 15.1091214,4.78806532 10.2825965,8.14320598 C5.45607163,11.4983466 0.979294908,13.5603602 0.384722999,12.6516762 C-0.244823727,11.7429923 3.18270845,8.24805413 8.04420817,4.89291347 C12.8707331,1.5377728 17.2775602,-0.454341965 17.9071069,0.419392583 Z" id="Path" fill="#86B1F2"></path>
                            <path d="M17.9420817,0.454341965 L17.9420817,0.454341965 C17.9420817,0.454341965 8.21908226,8.63249733 4.23195299,9.47128249 L5.45607163,11.1488528 C6.92501399,10.345017 8.56883044,9.33148497 10.2825965,8.14320598 C15.0741466,4.8230147 18.466704,1.39797528 17.9420817,0.454341965 Z" id="Path" fill="#355389"></path>
                            <g transform="translate(5.945719, 24.115074)" id="Path">
                                <path d="M24.9370453,0.139797528 C24.9370453,1.5377728 24.4124231,7.65391464 14.2697258,10.2052195 C14.9342473,11.1139034 15.5987689,12.0225874 16.2283156,12.9662207 C22.6636821,11.0789541 25.5316172,7.75876278 26.8606603,5.24240728 C27.0705092,4.85796408 27.315333,4.29877397 27.4902071,3.91433077 C26.6158366,2.69110241 25.776441,1.43292466 24.9370453,0.139797528 Z" fill="#B75742"></path>
                                <polygon fill="#B75742" points="15.1790711 8.42280104 0.209848909 7.86361093 3.77728036 10.8692578 1.64381645 14.7136898 15.8086178 11.1139034"></polygon>
                                <polygon fill="#B75742" points="16.543089 11.8827898 11.2269166 21.144376 14.9692222 19.7114514 16.4031897 22.6471995 18.8864018 12.9312713"></polygon>
                                <path d="M18.5716284,14.3991453 C15.9485171,14.5738923 13.6751539,12.5468281 13.465305,9.8557257 C13.2904309,7.16462329 15.2490207,4.8230147 17.8721321,4.61331841 C20.4952434,4.4385715 22.7686066,6.46563565 22.9784555,9.15673806 C23.1533296,11.8827898 21.1947398,14.2243984 18.5716284,14.3991453 Z" fill="#F47458"></path>
                            </g>
                        </g>
                        <g id="Group" transform="translate(445.287633, 131.759170)">
                            <path d="M32.8063794,50.3271099 L1.32904309,22.2627563 C-0.699496363,20.4453884 0.139899273,16.6708552 2.97285954,15.098133 L28.084779,0.873734547 C29.6936206,-0.0349493819 31.5123111,0.0349493819 32.6664801,1.08343084 L64.1438165,29.1477845 C66.1723559,30.9651524 65.3329603,34.7396856 62.5,36.3124078 L37.3880806,50.5368062 C35.7792389,51.4454902 33.9605484,51.3755914 32.8063794,50.3271099 Z" id="Path" fill="#9BC1F9"></path>
                            <path d="M31.3024622,27.9944549 L28.6793509,6.43068627 C28.5744264,5.5919011 29.1689983,4.71816656 30.008394,4.47352088 C30.8477896,4.19392583 31.6172356,4.68321717 31.72216,5.48705296 L34.1354225,25.3383019 L57.9882485,31.1049499 C58.7576945,31.2796968 59.1424175,32.118482 58.7926693,32.9922165 C58.4429211,33.8310017 57.5685506,34.3552424 56.7641298,34.1804955 L31.3024622,27.9944549 Z" id="Path" fill="#FFFFFF"></path>
                        </g>
                        <polygon id="Path" fill="#F7CC7F" points="65.5310576 60.9866714 68.7837157 67.4173577 76.1634024 67.172712 79.2761612 74.6518797 87.0405708 71.9957267 90.9577504 80.2787302 98.4073867 78.706008 103.478735 86.0453782 100.68075 87.9675942 96.9034695 82.4805413 89.0341354 84.1231622 85.2568551 76.1547032 77.387521 78.8807549 73.925014 70.6327008 66.7551763 70.8773465 63.7473419 64.9010022 59.0607163 66.0543318 58.2562955 62.7690899"></polygon>
                        <polygon id="Path" fill="#50BFA5" points="459.207611 225.528361 465.887801 228.219464 471.273923 223.221702 478.548685 226.786539 482.640739 219.691815 491.034695 223.3615 495.616396 217.315257 504.290151 219.517068 503.450755 222.80231 496.980414 221.124739 492.153889 227.555426 484.074706 224.025538 479.912703 231.225111 471.868495 227.27583 466.622272 232.168744 460.431729 229.652388 457.633744 233.601669 454.870733 231.644503"></polygon>
                    </g>
                </g>
            </g>
        </g>
    </g>
</svg>