<?xml version="1.0" encoding="UTF-8"?>
<svg width="699px" height="435px" viewBox="0 0 699 435" version="1.1" xmlns="http://www.w3.org/2000/svg" xmlns:xlink="http://www.w3.org/1999/xlink">
    <title>03</title>
    <g id="Page-1" stroke="none" stroke-width="1" fill="none" fill-rule="evenodd">
        <g id="Home" transform="translate(-77.000000, -3867.000000)">
            <g id="03" transform="translate(37.000000, 3814.000000)">
                <g transform="translate(40.312500, 53.216216)" fill-rule="nonzero" id="Group">
                    <g transform="translate(0.483750, 0.483784)">
                        <path d="M25.8645,375.440405 C25.8645,375.440405 -35.95875,281.417027 31.6936875,179.628919 C91.7270625,89.3064865 186.421125,161.124189 240.069,69.2294595 C313.260375,-56.0705405 678.467437,-7.13581081 632.220937,185.676216 C609.8475,278.973919 733.808437,282.384595 687.682875,375.633919 L25.8645,375.440405 Z" id="Path" fill="#FFEDED"></path>
                        <g transform="translate(464.722500, 159.890541)" fill="#82B378" id="Path">
                            <path d="M22.5185625,27.6724324 C22.5185625,27.6724324 11.3439375,12.8686486 23.22,4.64432432 C23.22,4.64432432 31.782375,0.169324324 38.4823125,0.991756757 C38.4823125,0.991756757 27.9365625,16.4002703 30.9358125,18.1660811 C33.910875,19.9560811 41.4331875,0.169324324 41.4331875,0.169324324 C41.4331875,0.169324324 60.323625,-0.483783784 66.2011875,2.80594595 C66.2011875,2.80594595 49.3183125,14.9489189 52.6561875,15.9406757 C55.9940625,16.9324324 74.1346875,5.12810811 74.1346875,5.12810811 C74.1346875,5.12810811 91.42875,9.19189189 89.832375,19.8109459 C88.236,30.43 81.995625,33.3327027 79.383375,32.8972973 C76.7469375,32.4377027 61.62975,25.567973 61.1701875,27.7208108 C60.6864375,29.8736486 69.5874375,37.5416216 76.093875,38.2914865 C76.093875,38.2914865 62.9116875,51.1117568 54.9781875,46.6851351 C47.0205,42.2585135 46.73025,35.9935135 41.7718125,33.3327027 C36.813375,30.6718919 32.459625,30.4058108 34.4188125,32.9214865 C36.378,35.4371622 45.4725,38.3156757 48.08475,43.6614865 C50.6728125,49.0072973 53.0915625,52.6598649 44.6985,50.8456757 C36.3054375,49.0314865 22.9055625,41.9682432 22.7604375,34.8324324 C22.5185625,27.6724324 22.5185625,27.6724324 22.5185625,27.6724324 Z"></path>
                            <g transform="translate(0.000000, 18.625676)">
                                <path d="M81.221625,0.919189189 C81.221625,0.919189189 33.8625,-3.87027027 22.5185625,9.04675676 C22.5185625,9.04675676 19.7611875,15.8439189 12.238875,21.7218919 L10.93275,24.672973 C10.93275,24.672973 19.7128125,16.5212162 22.687875,16.1583784 C22.6636875,16.1825676 19.108125,-0.919189189 81.221625,0.919189189 Z"></path>
                                <path d="M12.2146875,21.7460811 C12.2146875,21.7460811 1.548,28.64 0,42.065 L1.83825,42.3552703 C1.83825,42.3552703 5.9743125,28.64 12.1905,23.5602703 C18.430875,18.4563514 12.2146875,21.7460811 12.2146875,21.7460811 Z"></path>
                            </g>
                        </g>
                        <g transform="translate(416.105625, 87.806757)" id="Path">
                            <path d="M16.35075,64.3674324 C16.35075,64.3674324 -8.41725,50.507027 3.144375,31.6878378 C3.144375,31.6878378 12.384,20.1254054 22.300875,17.1743243 C22.300875,17.1743243 17.028,45.2337838 22.300875,45.8868919 C27.57375,46.54 25.929,14.1990541 25.929,14.1990541 C25.929,14.1990541 52.003125,1.64486486 62.2344375,2.63662162 C62.2344375,2.63662162 46.053,30.042973 51.3500625,29.3656757 C56.6229375,28.7125676 74.78775,0.967567568 74.78775,0.967567568 C74.78775,0.967567568 101.514938,-3.99121622 105.820313,11.8527027 C110.1015,27.6966216 103.183875,35.6306757 99.217125,36.6224324 C95.250375,37.6141892 69.8293125,37.2755405 70.5065625,40.5894595 C71.159625,43.8791892 88.33275,49.1766216 97.911,46.2013514 C97.911,46.2013514 87.3410625,72.2772973 73.481625,70.9710811 C59.6221875,69.6406757 55.3168125,61.0777027 46.7544375,60.4004054 C38.167875,59.7472973 31.9033125,62.0452703 36.1845,64.3674324 C40.4656875,66.6895946 55.002375,65.1172973 61.92,71.0194595 C68.8618125,76.9216216 74.4733125,80.55 61.581375,83.1866216 C48.713625,85.8232432 25.590375,84.1783784 20.9705625,74.285 C16.35075,64.3674324 16.35075,64.3674324 16.35075,64.3674324 Z" fill="#A8D29F"></path>
                            <g transform="translate(3.144375, 16.690541)" fill="#82B378">
                                <path d="M90.4370625,0.145135135 C90.4370625,0.145135135 21.1156875,22.5927027 13.206375,47.6768919 C13.206375,47.6768919 13.545,58.9006757 6.6031875,71.7693243 L6.6031875,76.7281081 C6.6031875,76.7281081 13.8594375,59.8924324 17.8261875,57.5702703 C17.8261875,57.5944595 2.2978125,35.8 90.4370625,0.145135135 Z"></path>
                                <path d="M6.6031875,71.7935135 C6.6031875,71.7935135 -4.0876875,88.0244595 2.0075625,107.787027 L4.7649375,107.037162 C4.7649375,107.037162 2.1043125,85.2668919 7.691625,74.3333784 C13.2789375,63.3998649 6.6031875,71.7935135 6.6031875,71.7935135 Z"></path>
                            </g>
                        </g>
                        <g transform="translate(207.367500, 80.308108)" id="Path">
                            <path d="M94.52475,78.9777027 C94.52475,78.9777027 123.332063,66.7863514 112.955625,44.7741892 C112.955625,44.7741892 104.223938,30.9863514 93.7265625,26.5355405 C93.7265625,26.5355405 96.121125,57.9331081 90.2435625,58.0056757 C84.366,58.0782432 90.0984375,22.8345946 90.0984375,22.8345946 C90.0984375,22.8345946 63.032625,5.92635135 51.712875,5.78121622 C51.712875,5.78121622 66.128625,37.7593243 60.420375,36.4047297 C54.712125,35.0501351 38.167875,2.44310811 38.167875,2.44310811 C38.167875,2.44310811 9.4573125,-6.21662162 2.854125,10.6190541 C-3.77325,27.4547297 2.8783125,36.9852703 7.0869375,38.5575676 C11.2955625,40.1298649 39.2079375,42.8390541 38.071125,46.3706757 C36.9585,49.9022973 17.4875625,53.6274324 7.3771875,49.2008108 C7.3771875,49.2008108 15.7944375,79.0502703 31.1535,79.2921622 C46.5125625,79.5340541 52.245,70.6324324 61.7265,70.9468919 C71.208,71.2613514 77.8111875,74.5510811 72.8285625,76.5587838 C67.8459375,78.5664865 52.1240625,75.1074324 43.8035625,80.7193243 C35.4830625,86.3312162 28.9040625,89.6451351 42.6909375,94.0959459 C56.4778125,98.5467568 81.995625,99.5385135 88.2601875,89.2581081 C94.52475,78.9777027 94.52475,78.9777027 94.52475,78.9777027 Z" fill="#A8D29F"></path>
                            <g transform="translate(15.480000, 17.416216)" fill="#82B378">
                                <path d="M0.1693125,0.120945946 C0.1693125,0.120945946 73.4090625,33.115 79.04475,61.5856757 C79.04475,61.5856757 77.3274375,73.8495946 83.350125,88.7985135 L82.7454375,94.2168919 C82.7454375,94.2168919 76.8195,74.8897297 72.756,71.8660811 C72.7801875,71.8660811 92.4204375,49.8539189 0.1693125,0.120945946 Z"></path>
                                <path d="M83.3743125,88.7743243 C83.3743125,88.7743243 93.121875,107.859595 84.0515625,128.783243 L81.124875,127.646351 C81.124875,127.646351 86.688,104.11027 81.8746875,91.4351351 C77.0855625,78.76 83.3743125,88.7743243 83.3743125,88.7743243 Z"></path>
                            </g>
                        </g>
                        <path d="M242.802187,230.039189 C237.722812,222.685676 237.142312,215.864324 237.142312,215.864324 C237.142312,215.864324 251.219437,205.753243 242.923125,195.11 C242.923125,195.11 236.513437,188.724054 230.29725,187.587162 C230.29725,187.587162 235.425,204.277703 232.256437,205.027568 C229.087875,205.801622 227.8785,186.039054 227.8785,186.039054 C227.8785,186.039054 211.189125,180.209459 205.0455,181.515676 C205.0455,181.515676 216.75225,197.045135 213.486937,197.020946 C210.245812,196.972568 197.3055,181.370541 197.3055,181.370541 C197.3055,181.370541 180.737062,180.18527 179.21325,190.102838 C177.689437,200.020405 182.454375,204.35027 184.9215,204.688919 C187.388625,205.027568 202.82025,203.068243 202.62675,205.124324 C202.457437,207.180405 192.395437,211.558649 186.37275,210.397568 C186.37275,210.397568 194.572312,225.515811 202.892812,223.774189 C211.213312,222.032568 213.245062,216.517432 218.397,215.525676 C223.573125,214.533919 227.539875,215.501486 225.07275,217.218919 C222.629812,218.912162 213.704625,218.960541 209.883,223.024324 C206.085562,227.088108 202.917,229.676351 210.923062,230.402027 C218.929125,231.127703 232.836937,228.539459 234.965437,222.201892 C235.062187,221.935811 235.13475,221.66973 235.2315,221.403649 C235.110562,221.911622 234.965437,222.201892 234.965437,222.201892 C236.513437,222.879189 239.125687,226.652703 240.963937,229.555405 C241.23,230.063378 241.665375,230.740676 242.270062,231.659865 C242.270062,231.659865 242.270062,231.659865 242.270062,231.659865 C242.511937,232.071081 242.729625,232.433919 242.87475,232.675811 C246.406125,239.25527 246.285187,251.325676 246.285187,251.325676 L248.0025,251.591757 C250.42125,239.182703 242.802187,230.039189 242.802187,230.039189 Z" id="Path" fill="#82B378"></path>
                        <g transform="translate(98.040000, 53.216216)" id="Path">
                            <path d="M50.6244375,7.76472973 C50.4793125,7.01486486 48.6894375,-1.16108108 36.08775,0.241891892 C36.08775,0.241891892 42.3765,0.0725675676 43.82775,2.63662162 C43.82775,2.63662162 39.135375,-0.0967567568 35.8700625,1.47554054 C32.60475,3.04783784 31.4679375,9.33702703 31.734,11.3205405 C32.0000625,13.3040541 34.83,19.3755405 37.0794375,19.5932432 C37.926,19.69 38.8693125,19.4964865 39.715875,19.2062162 C39.2805,20.197973 38.845125,21.2622973 38.458125,22.4717568 C34.9509375,33.4778378 41.554125,42.7906757 45.6418125,41.0490541 C48.2540625,39.9363514 49.7053125,44.4839189 49.7053125,44.4839189 L73.0220625,19.2545946 C72.997875,19.2304054 60.3961875,0.556351351 50.6244375,7.76472973 Z" fill="#2E2E2E"></path>
                            <path d="M81.0039375,311.629324 L75.3440625,313.733784 C75.3440625,313.733784 50.7211875,279.554459 47.6735625,249.511486 C47.1414375,244.141486 47.31075,238.940811 48.4959375,234.151351 C48.4959375,234.151351 48.2540625,232.772568 47.842875,230.353649 C47.649375,229.216757 47.4075,227.862162 47.1414375,226.289865 C46.34325,221.693919 45.230625,215.428919 43.972875,208.268919 C41.070375,191.82027 37.3213125,170.775676 34.394625,155.318784 L35.9184375,154.835 L52.4626875,149.489189 L55.873125,138.628243 L68.1845625,135.386892 C68.1845625,135.386892 70.9419375,140.756892 73.384875,166.17973 C73.8444375,169.517838 74.255625,173.194595 74.5700625,177.185811 C75.5375625,189.352973 75.5859375,204.447027 73.4090625,221.718108 C72.85275,226.14473 72.127125,230.692297 71.256375,235.385 C70.6033125,238.819865 70.5065625,243.512568 70.772625,248.882568 C71.982,273.434595 81.0039375,311.629324 81.0039375,311.629324 Z" fill="#484848"></path>
                            <path d="M74.545875,177.161622 L47.8186875,230.329459 C47.6251875,229.192568 47.3833125,227.837973 47.11725,226.265676 C46.3190625,221.66973 45.2064375,215.40473 43.9486875,208.24473 C41.0461875,191.796081 37.297125,170.751486 34.3704375,155.294595 L35.89425,154.810811 L52.4385,149.465 L55.8489375,138.604054 L68.160375,135.362703 C68.160375,135.362703 70.91775,140.732703 73.3606875,166.155541 C73.82025,169.517838 74.2314375,173.194595 74.545875,177.161622 Z" fill="#3B3B3B"></path>
                            <path d="M62.79075,142.184054 L62.161875,136.886622 C51.7854375,139.644189 24.09075,129.194459 24.09075,129.194459 C24.09075,129.194459 14.0529375,138.023514 15.3590625,159.189054 C16.012125,169.517838 17.173125,213.421216 18.4066875,226.410811 C18.8420625,231.127703 19.2290625,234.465811 19.398375,235.820405 C19.398375,235.820405 19.398375,235.820405 19.398375,235.844595 C19.44675,236.255811 19.301625,236.642838 19.108125,237.005676 C17.2940625,240.077703 15.7944375,243.270676 14.5850625,246.536216 C2.5396875,278.659459 16.4475,318.232973 16.4475,318.232973 L20.0514375,316.781622 C20.0514375,316.781622 27.96075,272.757297 34.394625,253.309189 C35.4830625,250.019459 36.523125,247.407027 37.490625,245.858919 C40.296375,241.335541 42.8844375,233.957838 45.230625,225.201351 C49.681125,208.607568 53.260875,187.030811 55.6554375,170.388649 C55.969875,170.364459 62.79075,142.184054 62.79075,142.184054 Z" fill="#666666"></path>
                            <path d="M79.5043125,99.6594595 C79.6978125,99.8771622 79.9155,100.070676 80.1331875,100.264189 C88.9858125,108.512703 100.934438,115.817838 107.319938,117.438514 C111.528563,118.502838 120.792375,117.075676 128.484,115.503378 C133.61175,114.487432 138.06225,113.37473 139.9005,112.939324 C140.481,112.794189 140.819625,112.697432 140.819625,112.697432 L140.021438,107.520946 C140.021438,107.520946 135.401625,107.158108 129.693375,106.505 C121.7115,105.561622 111.601125,104.134459 109.013063,102.586351 C103.014563,99.0063514 92.4688125,84.0332432 84.0031875,74.6236486 C83.5678125,74.1156757 83.1324375,73.6077027 82.6970625,73.1239189 C82.382625,72.7610811 82.0681875,72.4224324 81.75375,72.0837838 C81.6811875,72.0112162 81.608625,71.9144595 81.511875,71.8418919 C81.124875,71.4790541 80.78625,71.1162162 80.4718125,70.8259459 C80.447625,70.7775676 80.39925,70.7533784 80.350875,70.7291892 C78.85125,69.2294595 76.2148125,67.3910811 76.2148125,67.3910811 C74.739375,66.5444595 73.53,66.3751351 72.65925,67.1008108 C72.65925,67.1008108 71.546625,68.1893243 70.4581875,70.2212162 C70.2163125,70.6566216 69.998625,71.1162162 69.7809375,71.6241892 C69.611625,71.9144595 69.514875,72.2047297 69.418125,72.495 C68.6925,74.3817568 68.1845625,76.7522973 68.2813125,79.5098649 C68.353875,81.5901351 68.740875,83.9122973 69.6841875,86.4521622 C71.11125,90.6127027 74.8603125,95.257027 79.5043125,99.6594595 Z" fill="#FFB27D"></path>
                            <path d="M71.7885,77.7682432 C68.78925,79.7275676 65.0401875,81.2998649 60.372,82.2432432 C42.86025,85.7748649 36.619875,70.8743243 34.394625,60.7148649 C36.813375,59.4328378 39.038625,59.1909459 40.34475,59.07 C41.6025,58.9490541 42.9328125,58.9006757 44.02125,58.8764865 C46.004625,57.4251351 49.100625,51.402027 50.01975,41.9198649 L50.842125,42.1617568 L64.4355,46.2981081 C64.4355,46.2981081 63.6856875,50.627973 63.2503125,54.7401351 C62.9116875,57.9572973 62.79075,61.0293243 63.3954375,61.8033784 C64.4596875,62.0694595 65.0885625,62.2387838 65.0885625,62.2387838 C65.0885625,62.2387838 65.0885625,62.2387838 65.0885625,62.262973 C65.257875,62.5774324 69.0553125,69.2294595 71.7885,77.7682432 Z" fill="#FFB27D"></path>
                            <path d="M77.88375,88.7017568 C77.8111875,89.0645946 77.7144375,89.4274324 77.5935,89.8144595 C74.5216875,100.094865 72.030375,141.143919 72.030375,141.143919 C73.6509375,146.272027 43.82775,147.336351 27.3560625,144.965811 C21.38175,144.095 17.1489375,142.788784 16.8586875,141.047162 C13.9078125,134.419324 21.1156875,122.01027 25.2759375,115.721081 C25.8080625,114.922838 26.2434375,114.100405 26.60625,113.229595 C27.5495625,111.052568 28.009125,108.706216 27.912375,106.311486 C27.7914375,103.045946 27.5011875,99.9013514 27.1625625,96.9260811 C26.5336875,91.3383784 25.6629375,86.4521622 25.2275625,83.0172973 C25.2275625,83.0172973 25.2275625,83.0172973 25.2275625,83.0172973 C26.0983125,82.1464865 26.944875,81.3482432 27.718875,80.5983784 C28.9040625,79.4372973 29.9683125,78.3487838 30.6939375,77.2844595 C31.492125,76.1475676 31.9516875,75.0106757 31.8549375,73.8495946 C31.782375,72.9545946 31.6130625,72.0595946 31.395375,71.1645946 C31.298625,70.7533784 31.1776875,70.317973 31.05675,69.9067568 C29.7264375,65.5285135 27.2593125,61.7308108 27.2593125,61.7308108 C31.7098125,59.1183784 40.296375,59.0458108 40.296375,59.0458108 C40.296375,59.0458108 40.34475,59.5054054 40.4656875,60.2794595 C40.876875,63.3514865 42.0620625,71.2613514 43.2714375,72.5917568 C44.7710625,74.285 68.499,79.147027 69.321375,76.462027 C70.14375,73.8012162 65.2336875,62.65 65.0401875,62.2145946 C65.0401875,62.2145946 65.0401875,62.1904054 65.0401875,62.1904054 C72.6350625,64.0045946 75.94875,66.0364865 76.093875,66.1574324 C76.093875,66.1574324 76.093875,66.1574324 76.093875,66.1574324 C72.0061875,69.8341892 80.0364375,78.8567568 77.88375,88.7017568 Z" fill="#DE4B38"></path>
                            <path d="M64.4113125,46.3222973 C64.4113125,46.3222973 63.6615,50.6521622 63.226125,54.7643243 C55.486125,53.7725676 52.099875,46.2739189 50.79375,42.1859459 L64.4113125,46.3222973 Z" fill="#ED985F"></path>
                            <path d="M66.612375,50.4586486 C66.612375,50.4586486 48.2056875,48.9105405 49.3425,37.4690541 C50.4793125,26.0275676 48.85875,18.1177027 60.66225,18.6256757 C72.46575,19.1336486 74.304,23.7054054 74.8603125,27.6240541 C75.416625,31.5427027 71.4256875,50.5795946 66.612375,50.4586486 Z" fill="#FFB27D"></path>
                            <path d="M74.9570625,21.2139189 C72.46575,17.4887838 70.2405,18.0209459 68.934375,18.9401351 C59.452875,12.4090541 52.14825,19.9318919 52.14825,19.9318919 C50.0923125,28.0110811 43.7068125,32.1232432 43.7068125,32.1232432 C43.7068125,32.1232432 46.8511875,34.517973 54.7605,33.3085135 C57.17925,32.9456757 59.452875,31.4701351 61.43625,29.6317568 C57.7839375,34.5663514 53.164125,37.9044595 53.164125,37.9044595 C62.8149375,34.5663514 67.7975625,22.1089189 68.3055,20.8027027 C69.321375,21.9154054 71.3289375,24.3343243 71.7885,26.5355405 C72.417375,29.535 72.223875,35.5822973 73.9895625,35.5581081 C73.9895625,35.5581081 78.706125,26.8016216 74.9570625,21.2139189 Z" fill="#2E2E2E"></path>
                            <path d="M157.049438,106.79527 C155.211188,108.536892 153.34875,112.939324 147.688875,112.842568 C143.649562,112.818378 139.561875,113.253784 137.5785,113.495676 C136.8045,113.640811 136.369125,113.689189 136.369125,113.689189 L136.175625,107.279054 C136.175625,107.279054 136.248187,107.279054 136.441687,107.254865 C137.820375,107.037162 144.762188,105.972838 147.519562,104.158649 C150.615562,102.078378 157.823437,104.013514 157.823437,104.013514 C157.823437,104.013514 158.911875,105.077838 157.049438,106.79527 Z" fill="#FFB27D"></path>
                            <path d="M37.4180625,321.159865 L8.852625,321.159865 C8.852625,321.159865 8.175375,316.805811 9.6508125,313.491892 C11.077875,310.323108 13.3273125,308.871757 12.7951875,305.049865 C14.60925,306.912432 17.560125,309.016892 21.6961875,308.460541 C22.204125,309.282973 24.9615,313.661216 26.654625,314.894865 C28.5170625,316.22527 36.8375625,315.741486 37.4180625,321.159865 Z" fill="#233862"></path>
                            <path d="M98.7575625,321.159865 L70.1679375,321.159865 C70.1679375,321.159865 69.1036875,316.612297 70.966125,313.491892 C72.6350625,310.758514 71.982,309.186216 70.7484375,306.912432 C72.0545625,307.444595 73.7235,307.928378 75.56175,307.807432 C76.9888125,307.734865 78.4884375,307.081757 79.81875,306.307703 C81.0523125,307.710676 86.301,313.685405 87.94575,314.846486 C89.8565625,316.22527 98.1770625,315.741486 98.7575625,321.159865 Z" fill="#233862"></path>
                            <path d="M62.2344375,43.855 C62.2344375,43.855 62.5005,45.3789189 66.225375,45.3789189 C66.225375,45.3789189 69.3455625,45.3789189 69.36975,43.7340541 C69.3455625,43.7340541 66.3946875,42.3794595 62.2344375,43.855 Z" fill="#FFFFFF"></path>
                            <path d="M31.25025,116.591892 C30.1134375,123.751892 24.9373125,138.12027 27.3560625,144.965811 C21.38175,144.095 17.1489375,142.788784 16.8586875,141.047162 C13.9078125,134.419324 21.1156875,122.01027 25.2759375,115.721081 C25.8080625,114.922838 26.2434375,114.100405 26.60625,113.229595 C27.5495625,111.052568 28.009125,108.706216 27.912375,106.311486 C27.7914375,103.045946 27.5011875,99.9013514 27.1625625,96.9260811 C27.18675,96.9502703 32.459625,108.996486 31.25025,116.591892 Z" fill="#C23C2B"></path>
                            <path d="M71.69175,68.3102703 C71.88525,74.672027 76.480875,92.1366216 77.5935,89.8386486 C78.85125,87.202027 83.6645625,77.2118919 85.9381875,76.8490541 C85.81725,76.3894595 76.52925,66.1090541 76.1180625,66.23 C76.1180625,66.23 73.6025625,66.9798649 71.69175,68.3102703 Z" fill="#DE4B38"></path>
                            <g transform="translate(0.000000, 59.021622)">
                                <path d="M27.8881875,99.5143243 L23.1474375,102.658919 C23.1474375,102.658919 21.9380625,101.159189 20.0514375,98.7644595 C19.495125,98.0387838 19.1806875,97.6033784 19.1806875,97.6033784 C17.6810625,95.6682432 15.9395625,93.2977027 14.02875,90.7094595 L14.0045625,90.6852703 C10.8118125,86.1860811 7.2804375,81.0821622 4.595625,76.462027 C2.7331875,73.1964865 1.2819375,70.1486486 0.5563125,67.7781081 C0.48375,67.5362162 0.435375,67.3185135 0.387,67.0524324 C-1.015875,61.0051351 1.548,48.9831081 5.6115,37.2755405 C6.1678125,35.6548649 6.7483125,34.0583784 7.3288125,32.5102703 C9.4815,26.7532432 11.9244375,21.3590541 14.3431875,17.005 C15.77025,14.3925676 17.1973125,12.0945946 18.576,10.3771622 C19.05975,9.77243243 19.495125,9.19189189 19.978875,8.70810811 C20.2449375,8.41783784 20.511,8.12756757 20.752875,7.86148649 C23.607,8.10337838 29.5813125,9.24027027 34.007625,14.3441892 C33.9350625,14.6102703 33.8625,14.8763514 33.76575,15.1666216 C31.975875,20.9478378 29.1943125,28.0352703 26.3401875,35.0017568 C24.768,38.8236486 23.171625,42.6213514 21.7929375,46.1771622 C20.898,48.3058108 20.0998125,50.3377027 19.3741875,52.2244595 C18.0196875,55.8286486 17.0038125,58.8039189 16.592625,60.9083784 C16.3265625,62.262973 16.7135625,64.827027 17.4391875,67.9716216 C18.6969375,73.4625676 21.0915,80.8402703 23.31675,87.1052703 C24.235875,89.7177027 25.1308125,92.1608108 25.880625,94.1685135 C27.09,97.3856757 27.8881875,99.5143243 27.8881875,99.5143243 Z" fill="#FFB27D"></path>
                                <path d="M29.9683125,32.4377027 C25.2275625,25.3018919 11.658375,22.2298649 11.658375,22.2298649 C19.3258125,-2.08027027 39.425625,0.169324324 39.425625,0.169324324 C39.425625,0.169324324 32.0968125,25.447027 29.9683125,32.4377027 Z" fill="#DE4B38"></path>
                                <path d="M23.1474375,102.683108 C23.1474375,102.683108 24.381,104.521486 24.526125,105.851892 C24.67125,107.182297 25.8564375,111.560541 27.38025,112.939324 C28.9040625,114.342297 32.3870625,117.124054 32.8708125,116.688649 C33.3545625,116.277432 34.7574375,112.987703 33.4513125,110.665541 C32.8708125,109.625405 32.072625,106.698514 31.008375,105.997027 C29.7264375,105.150405 27.864,99.5143243 27.864,99.5143243 L23.1474375,102.683108 Z" fill="#FFB27D"></path>
                                <path d="M27.912375,100.24 C27.912375,100.24 31.685625,102.150946 32.1935625,103.674865 C32.7015,105.198784 34.8058125,108.295 34.588125,108.657838 C34.34625,109.044865 31.0809375,106.940405 29.9683125,105.053649 C28.8556875,103.142703 27.912375,100.24 27.912375,100.24 Z" fill="#FFB27D"></path>
                            </g>
                        </g>
                        <g transform="translate(215.591250, 108.609459)">
                            <path d="M0.048375,86.0651351 L138.06225,3.43486486 C145.681312,-1.1127027 155.162813,-1.1127027 162.781875,3.43486486 L300.79575,86.0651351 L300.79575,220.750541 L0.048375,205.680676 L0.048375,86.0651351 Z" id="Path" fill="#DE4B38"></path>
                            <rect id="Rectangle" fill="#FFFFFF" x="25.929" y="26.3904054" width="248.961937" height="215.187027"></rect>
                            <g transform="translate(32.653125, 32.413514)" fill="#EFCBAB">
                                <ellipse id="Oval" transform="translate(3.442513, 3.364128) rotate(-22.500428) translate(-3.442513, -3.364128) " cx="3.44251254" cy="3.36412842" rx="2.56396596" ry="2.56409257"></ellipse>
                                <path d="M229.370062,3.3622973 C229.370062,1.95932432 230.506875,0.798243243 231.933937,0.798243243 C233.336813,0.798243243 234.497812,1.93513514 234.497812,3.3622973 C234.497812,4.76527027 233.361,5.92635135 231.933937,5.92635135 C230.531062,5.92635135 229.370062,4.78945946 229.370062,3.3622973 Z" id="Path"></path>
                                <rect id="Rectangle" x="3.434625" y="3.09621622" width="228.499312" height="1"></rect>
                                <rect id="Rectangle" x="3.1685625" y="2.34635135" width="1" height="228.51527"></rect>
                                <rect id="Rectangle" x="231.764625" y="2.34635135" width="1" height="228.51527"></rect>
                            </g>
                            <g transform="translate(0.000000, 85.629730)" id="Path">
                                <polygon fill="#FF9385" points="300.79575 0.0725675676 300.79575 180.112703 0.048375 180.112703 0.048375 0.0725675676 150.422062 90.1047297"></polygon>
                                <path d="M0.048375,180.136892 L137.796187,81.3724324 C145.342687,75.9540541 155.501437,75.9540541 163.047937,81.3724324 L300.79575,180.136892 L0.048375,180.136892 Z" fill="#DE4B38"></path>
                            </g>
                            <path d="M196.329937,56.1914865 L105.55425,56.1914865 C104.248125,56.1914865 103.159687,55.102973 103.159687,53.7967568 L103.159687,53.7967568 C103.159687,52.4905405 104.248125,51.402027 105.55425,51.402027 L196.329937,51.402027 C197.636062,51.402027 198.7245,52.4905405 198.7245,53.7967568 L198.7245,53.7967568 C198.7245,55.1271622 197.636062,56.1914865 196.329937,56.1914865 Z" id="Path" fill="#EFCBAB"></path>
                            <path d="M219.71925,65.8187838 L82.189125,65.8187838 C80.883,65.8187838 79.7945625,64.7302703 79.7945625,63.4240541 L79.7945625,63.4240541 C79.7945625,62.1178378 80.883,61.0293243 82.189125,61.0293243 L219.71925,61.0293243 C221.049562,61.0293243 222.113812,62.1178378 222.113812,63.4240541 L222.113812,63.4240541 C222.113812,64.7302703 221.025375,65.8187838 219.71925,65.8187838 Z" id="Path" fill="#EFCBAB"></path>
                            <g transform="translate(82.479375, 92.160811)" fill="#EFCBAB" id="Path">
                                <path d="M119.3895,3.48324324 L19.882125,3.48324324 C18.9388125,3.48324324 18.140625,2.70918919 18.140625,1.74162162 L18.140625,1.74162162 C18.140625,0.798243243 18.914625,0 19.882125,0 L119.3895,0 C120.332812,0 121.131,0.774054054 121.131,1.74162162 L121.131,1.74162162 C121.131,2.70918919 120.357,3.48324324 119.3895,3.48324324 Z"></path>
                                <g transform="translate(0.000000, 8.950000)">
                                    <path d="M29.8715625,3.58 L1.8140625,3.58 C0.87075,3.58 0.0725625,2.80594595 0.0725625,1.83837838 L0.0725625,1.83837838 C0.0725625,0.895 0.8465625,0.0967567568 1.8140625,0.0967567568 L29.8715625,0.0967567568 C30.814875,0.0967567568 31.6130625,0.870810811 31.6130625,1.83837838 L31.6130625,1.83837838 C31.6130625,2.80594595 30.814875,3.58 29.8715625,3.58 Z"></path>
                                    <path d="M72.1996875,3.58 L38.2888125,3.58 C37.3455,3.58 36.5473125,2.80594595 36.5473125,1.83837838 L36.5473125,1.83837838 C36.5473125,0.895 37.3213125,0.0967567568 38.2888125,0.0967567568 L72.1996875,0.0967567568 C73.143,0.0967567568 73.9411875,0.870810811 73.9411875,1.83837838 L73.9411875,1.83837838 C73.917,2.80594595 73.143,3.58 72.1996875,3.58 Z"></path>
                                    <path d="M137.457562,3.58 L78.85125,3.58 C77.9079375,3.58 77.10975,2.80594595 77.10975,1.83837838 L77.10975,1.83837838 C77.10975,0.895 77.88375,0.0967567568 78.85125,0.0967567568 L137.457562,0.0967567568 C138.400875,0.0967567568 139.199062,0.870810811 139.199062,1.83837838 L139.199062,1.83837838 C139.199062,2.80594595 138.425062,3.58 137.457562,3.58 Z"></path>
                                </g>
                                <g transform="translate(15.963750, 19.593243)">
                                    <path d="M56.453625,3.48324324 L1.935,3.48324324 C0.9916875,3.48324324 0.1935,2.70918919 0.1935,1.74162162 L0.1935,1.74162162 C0.1935,0.798243243 0.9675,0 1.935,0 L56.453625,0 C57.3969375,0 58.195125,0.774054054 58.195125,1.74162162 L58.195125,1.74162162 C58.1709375,2.70918919 57.3969375,3.48324324 56.453625,3.48324324 Z"></path>
                                    <path d="M105.409125,3.48324324 L62.4763125,3.48324324 C61.533,3.48324324 60.7348125,2.70918919 60.7348125,1.74162162 L60.7348125,1.74162162 C60.7348125,0.798243243 61.5088125,0 62.4763125,0 L105.409125,0 C106.352437,0 107.150625,0.774054054 107.150625,1.74162162 L107.150625,1.74162162 C107.126437,2.70918919 106.352437,3.48324324 105.409125,3.48324324 Z"></path>
                                </g>
                            </g>
                        </g>
                        <g opacity="0.5" transform="translate(312.825000, 46.443243)" id="Path">
                            <polygon fill="#FC8F8F" points="47.8186875 0.193513514 60.7831875 28.8093243 12.9886875 50.4586486 0.0241875 21.8428378 30.4036875 25.3260811"></polygon>
                            <path d="M0.0241875,21.8428378 L47.7945,0.193513514 L33.4996875,24.2617568 C32.362875,26.1485135 30.186,27.1644595 28.009125,26.7774324 L0.0241875,21.8428378 Z" fill="#FAC0C0"></path>
                        </g>
                        <g opacity="0.5" transform="translate(49.181250, 233.425676)" id="Path">
                            <polygon fill="#FEBEBE" points="30.5488125 0 37.3696875 18.287027 6.820875 29.6801351 0 11.3931081 18.6969375 14.8521622"></polygon>
                            <path d="M0,11.3931081 L30.5488125,0 L20.656125,14.32 C19.882125,15.4568919 18.47925,15.9890541 17.1489375,15.6504054 L0,11.3931081 Z" fill="#FDD7D7"></path>
                        </g>
                        <g opacity="0.5" transform="translate(533.173125, 108.367568)" id="Path">
                            <polygon fill="#FC8F8F" points="69.7325625 16.1825676 60.1543125 52.1035135 0.1693125 36.0902703 9.7475625 0.193513514 34.9509375 26.1485135"></polygon>
                            <path d="M9.7475625,0.193513514 L69.7325625,16.2067568 L38.60325,27.5272973 C36.136125,28.4222973 33.4029375,27.6966216 31.685625,25.7131081 L9.7475625,0.193513514 Z" fill="#FDD7D7"></path>
                        </g>
                        <g transform="translate(39.264375, 276.240541)">
                            <path d="M27.3076875,38.0495946 C27.3076875,38.0495946 27.3076875,38.0495946 27.3076875,38.0495946 C25.8564375,38.0495946 24.4535625,38.0254054 23.12325,37.977027 C22.978125,37.977027 22.8571875,37.8560811 22.8571875,37.6867568 C22.8571875,37.5416216 22.978125,37.4206757 23.1474375,37.4206757 C24.47775,37.4690541 25.880625,37.4690541 27.3076875,37.4690541 C27.4528125,37.4690541 27.57375,37.59 27.57375,37.7593243 C27.5979375,37.9286486 27.4528125,38.0495946 27.3076875,38.0495946 Z M31.492125,38.0254054 C31.347,38.0254054 31.2260625,37.9044595 31.2260625,37.7593243 C31.2260625,37.6141892 31.347,37.4690541 31.492125,37.4690541 C32.8224375,37.4448649 34.2253125,37.4206757 35.6765625,37.3722973 C35.845875,37.3481081 35.9668125,37.4932432 35.9668125,37.6383784 C35.9668125,37.7835135 35.845875,37.9286486 35.70075,37.9286486 C34.2495,37.977027 32.846625,38.0012162 31.492125,38.0254054 C31.492125,38.0254054 31.492125,38.0254054 31.492125,38.0254054 Z M18.963,37.8077027 C18.963,37.8077027 18.963,37.8077027 18.963,37.8077027 C17.463375,37.7109459 16.0605,37.6141892 14.7785625,37.4690541 C14.6334375,37.4448649 14.5125,37.3239189 14.5366875,37.1545946 C14.560875,37.0094595 14.6818125,36.8885135 14.851125,36.9127027 C16.1330625,37.0578378 17.5359375,37.1545946 18.9871875,37.2513514 C19.1323125,37.2513514 19.25325,37.3964865 19.25325,37.5416216 C19.2290625,37.7109459 19.108125,37.8077027 18.963,37.8077027 Z M39.8368125,37.7593243 C39.6916875,37.7593243 39.57075,37.6383784 39.57075,37.4932432 C39.57075,37.3481081 39.6916875,37.202973 39.8368125,37.202973 C41.167125,37.1304054 42.57,37.0578378 43.9970625,36.9852703 C44.1421875,36.9852703 44.2873125,37.082027 44.2873125,37.2513514 C44.2873125,37.3964865 44.1905625,37.5416216 44.02125,37.5416216 C42.618375,37.6141892 41.1913125,37.6867568 39.8368125,37.7593243 C39.861,37.7593243 39.861,37.7593243 39.8368125,37.7593243 Z M48.2056875,37.2755405 C48.0605625,37.2755405 47.939625,37.1545946 47.939625,37.0094595 C47.939625,36.8643243 48.036375,36.7191892 48.2056875,36.7191892 C49.584375,36.6224324 50.9630625,36.5256757 52.3659375,36.4289189 C52.5110625,36.4289189 52.6561875,36.5256757 52.6561875,36.695 C52.6561875,36.8401351 52.5594375,36.9852703 52.390125,36.9852703 C50.98725,37.082027 49.584375,37.1787838 48.2056875,37.2755405 C48.2056875,37.2755405 48.2056875,37.2755405 48.2056875,37.2755405 Z M10.6666875,36.8885135 C10.6425,36.8885135 10.6425,36.8885135 10.6183125,36.8885135 C9.0703125,36.6224324 7.7158125,36.2837838 6.530625,35.8967568 C6.3855,35.8483784 6.3129375,35.7032432 6.3613125,35.5581081 C6.4096875,35.412973 6.5548125,35.3404054 6.6999375,35.3887838 C7.8609375,35.7516216 9.2154375,36.0902703 10.7150625,36.3563514 C10.8601875,36.3805405 10.9569375,36.5256757 10.93275,36.6708108 C10.9085625,36.8159459 10.8118125,36.8885135 10.6666875,36.8885135 Z M56.5261875,36.6466216 C56.3810625,36.6466216 56.260125,36.5256757 56.260125,36.3805405 C56.2359375,36.2354054 56.356875,36.0902703 56.502,36.0902703 C57.8806875,35.9693243 59.259375,35.8483784 60.66225,35.7274324 C60.807375,35.7032432 60.9525,35.8241892 60.9766875,35.9693243 C61.000875,36.1144595 60.8799375,36.2595946 60.7348125,36.2837838 C59.30775,36.4047297 57.9290625,36.5256757 56.5261875,36.6466216 C56.550375,36.6466216 56.550375,36.6466216 56.5261875,36.6466216 Z M64.8466875,35.8967568 C64.7015625,35.8967568 64.580625,35.8 64.580625,35.6548649 C64.5564375,35.5097297 64.677375,35.3645946 64.8225,35.3404054 C66.2011875,35.1952703 67.579875,35.0743243 68.98275,34.9291892 C69.127875,34.905 69.273,35.0259459 69.2971875,35.1710811 C69.321375,35.3162162 69.2004375,35.4613514 69.0553125,35.4855405 C67.6524375,35.6306757 66.27375,35.7758108 64.8950625,35.8967568 C64.870875,35.8967568 64.870875,35.8967568 64.8466875,35.8967568 Z M73.1671875,35.0259459 C73.0220625,35.0259459 72.901125,34.9291892 72.901125,34.7840541 C72.8769375,34.6389189 72.997875,34.4937838 73.143,34.4695946 C74.5216875,34.3244595 75.900375,34.1793243 77.30325,34.01 C77.448375,33.9858108 77.5935,34.1067568 77.6176875,34.2518919 C77.641875,34.397027 77.5209375,34.5421622 77.3758125,34.5663514 C75.9729375,34.7114865 74.59425,34.8808108 73.2155625,35.0259459 C73.191375,35.0259459 73.191375,35.0259459 73.1671875,35.0259459 Z M2.854125,34.1551351 C2.80575,34.1551351 2.7331875,34.1309459 2.6848125,34.1067568 C1.886625,33.5262162 1.306125,32.8489189 0.9433125,32.1232432 C0.7014375,31.5910811 0.48375,31.0589189 0.3144375,30.5509459 C0.2660625,30.4058108 0.338625,30.2364865 0.5079375,30.2122973 C0.6530625,30.1639189 0.822375,30.2364865 0.8465625,30.4058108 C0.9916875,30.8895946 1.209375,31.3975676 1.4270625,31.9055405 C1.7173125,32.5344595 2.2494375,33.1391892 2.9750625,33.6713514 C3.096,33.7681081 3.1201875,33.9374324 3.047625,34.0583784 C3.0234375,34.1309459 2.9266875,34.1551351 2.854125,34.1551351 Z M81.4876875,34.1067568 C81.3425625,34.1067568 81.221625,34.01 81.221625,33.8648649 C81.1974375,33.7197297 81.318375,33.5745946 81.4635,33.5504054 C82.8421875,33.3810811 84.220875,33.2359459 85.62375,33.0666216 C85.768875,33.0424324 85.914,33.1633784 85.9381875,33.3085135 C85.962375,33.4536486 85.8414375,33.5987838 85.6963125,33.622973 C84.317625,33.7922973 82.91475,33.9616216 81.5360625,34.1067568 C81.4876875,34.1067568 81.4876875,34.1067568 81.4876875,34.1067568 Z M89.784,33.0908108 C89.638875,33.0908108 89.5179375,32.9940541 89.5179375,32.8489189 C89.49375,32.7037838 89.6146875,32.5586486 89.7598125,32.5344595 C91.1385,32.3651351 92.5171875,32.1958108 93.895875,32.0022973 C94.041,31.9781081 94.186125,32.0990541 94.2103125,32.2441892 C94.2345,32.3893243 94.1135625,32.5344595 93.9684375,32.5586486 C92.58975,32.727973 91.2110625,32.9214865 89.832375,33.0908108 C89.8081875,33.0908108 89.784,33.0908108 89.784,33.0908108 Z M98.056125,32.0264865 C97.911,32.0264865 97.7900625,31.9297297 97.7900625,31.7845946 C97.765875,31.6394595 97.8868125,31.4943243 98.0319375,31.4701351 C99.410625,31.2766216 100.789312,31.1072973 102.168,30.9137838 C102.313125,30.8895946 102.45825,31.0105405 102.482437,31.1556757 C102.506625,31.3008108 102.385687,31.4459459 102.240562,31.4701351 C100.861875,31.6636486 99.4831875,31.832973 98.1045,32.0264865 C98.0803125,32.0264865 98.056125,32.0264865 98.056125,32.0264865 Z M106.32825,30.9137838 C106.183125,30.9137838 106.062187,30.817027 106.062187,30.6718919 C106.038,30.5267568 106.158937,30.3816216 106.304062,30.3574324 C107.68275,30.1639189 109.061437,29.9704054 110.440125,29.7768919 C110.58525,29.7527027 110.730375,29.8494595 110.754562,30.0187838 C110.77875,30.1639189 110.682,30.3090541 110.512687,30.3332432 C109.134,30.5267568 107.755312,30.7202703 106.376625,30.9137838 C106.352437,30.9137838 106.352437,30.9137838 106.32825,30.9137838 Z M114.624562,29.7285135 C114.479437,29.7285135 114.3585,29.6317568 114.3585,29.4866216 C114.334312,29.3414865 114.431062,29.1963514 114.600375,29.1721622 C115.979062,28.9786486 117.35775,28.7851351 118.736437,28.5674324 C118.881563,28.5432432 119.026688,28.64 119.050875,28.8093243 C119.075062,28.9544595 118.978312,29.0995946 118.809,29.1237838 C117.430312,29.3172973 116.051625,29.535 114.672937,29.7285135 C114.64875,29.7285135 114.624562,29.7285135 114.624562,29.7285135 Z M122.896688,28.5190541 C122.751563,28.5190541 122.630625,28.4222973 122.630625,28.2771622 C122.606437,28.132027 122.703187,27.9868919 122.8725,27.9627027 C124.251188,27.745 125.629875,27.5514865 127.008562,27.3337838 C127.153688,27.3095946 127.298812,27.4063514 127.323,27.5756757 C127.347188,27.7208108 127.250437,27.8659459 127.081125,27.8901351 C125.702437,28.1078378 124.32375,28.3013514 122.945062,28.5190541 C122.920875,28.5190541 122.896688,28.5190541 122.896688,28.5190541 Z M131.144625,27.2612162 C130.9995,27.2612162 130.90275,27.1644595 130.878562,27.0193243 C130.854375,26.8741892 130.951125,26.7290541 131.120438,26.7048649 C132.499125,26.4871622 133.877813,26.2694595 135.2565,26.0759459 C135.401625,26.0517568 135.54675,26.1485135 135.570938,26.3178378 C135.595125,26.462973 135.498375,26.6081081 135.329063,26.6322973 C133.950375,26.85 132.571687,27.0677027 131.193,27.2612162 C131.168813,27.2612162 131.168813,27.2612162 131.144625,27.2612162 Z M0.338625,26.6322973 C0.3144375,26.6322973 0.29025,26.6322973 0.29025,26.6322973 C0.145125,26.6081081 0.048375,26.462973 0.0725625,26.2936486 C0.338625,24.9632432 0.9675,23.6812162 1.935,22.4959459 C2.03175,22.375 2.2010625,22.3508108 2.322,22.4475676 C2.4429375,22.5443243 2.467125,22.7136486 2.370375,22.8345946 C1.45125,23.9472973 0.87075,25.1567568 0.628875,26.3904054 C0.5805,26.5355405 0.4595625,26.6322973 0.338625,26.6322973 Z M139.41675,25.9791892 C139.271625,25.9791892 139.174875,25.8824324 139.150687,25.7372973 C139.1265,25.5921622 139.22325,25.447027 139.392562,25.4228378 C140.77125,25.2051351 142.149937,24.9874324 143.528625,24.7697297 C143.67375,24.7455405 143.818875,24.8422973 143.843062,25.0116216 C143.86725,25.1567568 143.7705,25.3018919 143.601187,25.3260811 C142.246687,25.5437838 140.868,25.7614865 139.465125,25.9791892 C139.440937,25.9791892 139.41675,25.9791892 139.41675,25.9791892 Z M147.664687,24.672973 C147.519562,24.672973 147.422812,24.5762162 147.398625,24.4310811 C147.374437,24.2859459 147.471187,24.1408108 147.6405,24.1166216 C149.019187,23.8989189 150.397875,23.657027 151.776562,23.4393243 C151.921687,23.4151351 152.066812,23.5118919 152.091,23.657027 C152.115187,23.8021622 152.018437,23.9472973 151.873312,23.9714865 C150.518812,24.1891892 149.140125,24.4310811 147.73725,24.6487838 C147.688875,24.672973 147.688875,24.672973 147.664687,24.672973 Z M155.912625,23.3183784 C155.7675,23.3183784 155.67075,23.2216216 155.646562,23.0764865 C155.622375,22.9313514 155.719125,22.7862162 155.86425,22.762027 C157.267125,22.5201351 158.621625,22.3024324 159.976125,22.0847297 C160.12125,22.0605405 160.266375,22.1572973 160.290562,22.3024324 C160.31475,22.4475676 160.218,22.5927027 160.072875,22.6168919 C158.718375,22.8345946 157.339687,23.0764865 155.961,23.2941892 C155.936812,23.3183784 155.936812,23.3183784 155.912625,23.3183784 Z M164.160562,21.9154054 C164.015437,21.9154054 163.918687,21.8186486 163.8945,21.6735135 C163.870312,21.5283784 163.967062,21.3832432 164.112187,21.3590541 C165.515062,21.1171622 166.89375,20.8994595 168.224062,20.6575676 C168.369187,20.6333784 168.514312,20.7301351 168.5385,20.8752703 C168.562687,21.0204054 168.465937,21.1655405 168.320812,21.1897297 C166.966312,21.4316216 165.587625,21.6493243 164.208937,21.8912162 C164.18475,21.9154054 164.18475,21.9154054 164.160562,21.9154054 Z M172.4085,20.5124324 C172.287562,20.5124324 172.166625,20.4156757 172.142437,20.2705405 C172.11825,20.1254054 172.215,19.9802703 172.360125,19.9560811 C173.763,19.7141892 175.141687,19.4722973 176.472,19.2304054 C176.617125,19.2062162 176.76225,19.302973 176.786437,19.4481081 C176.810625,19.5932432 176.713875,19.7383784 176.56875,19.7625676 C175.238437,20.0044595 173.85975,20.2463514 172.456875,20.4882432 C172.432687,20.5124324 172.4085,20.5124324 172.4085,20.5124324 Z M5.2245,20.1737838 C5.12775,20.1737838 5.0551875,20.1254054 5.0068125,20.0528378 C4.9100625,19.9318919 4.9584375,19.7625676 5.079375,19.6658108 C6.1194375,18.9401351 7.353,18.2144595 8.7316875,17.5613514 C8.8768125,17.4887838 9.046125,17.5613514 9.0945,17.6822973 C9.1670625,17.8274324 9.0945,17.9967568 8.9735625,18.0451351 C7.6190625,18.6982432 6.433875,19.3997297 5.3938125,20.1254054 C5.32125,20.1495946 5.272875,20.1737838 5.2245,20.1737838 Z M180.63225,19.0610811 C180.511312,19.0610811 180.390375,18.9643243 180.366187,18.8433784 C180.342,18.6982432 180.43875,18.5531081 180.583875,18.5289189 C182.010937,18.287027 183.389625,18.0209459 184.69575,17.8032432 C184.840875,17.7790541 184.986,17.8758108 185.010187,18.0209459 C185.034375,18.1660811 184.937625,18.3112162 184.7925,18.3354054 C183.462187,18.5772973 182.0835,18.8191892 180.680625,19.0610811 C180.680625,19.0610811 180.656437,19.0610811 180.63225,19.0610811 Z M188.880187,17.5855405 C188.75925,17.5855405 188.638312,17.4887838 188.614125,17.3678378 C188.589937,17.2227027 188.686687,17.0775676 188.831813,17.0533784 C190.283063,16.7872973 191.66175,16.5454054 192.943688,16.3035135 C193.088813,16.2793243 193.233938,16.3760811 193.258125,16.5212162 C193.282313,16.6663514 193.185563,16.8114865 193.040437,16.8356757 C191.7585,17.0775676 190.379812,17.3194595 188.928562,17.5855405 C188.904375,17.5855405 188.904375,17.5855405 188.880187,17.5855405 Z M12.67425,16.4486486 C12.5533125,16.4486486 12.4565625,16.3760811 12.4081875,16.2793243 C12.3598125,16.1341892 12.432375,15.9648649 12.5775,15.9164865 C13.8110625,15.4568919 15.141375,15.0214865 16.5684375,14.5860811 C16.7135625,14.5377027 16.882875,14.6344595 16.9070625,14.7795946 C16.9554375,14.9247297 16.8586875,15.0698649 16.7135625,15.1182432 C15.3106875,15.5294595 13.980375,15.9890541 12.771,16.4244595 C12.7468125,16.4486486 12.722625,16.4486486 12.67425,16.4486486 Z M197.128125,16.0858108 C197.007187,16.0858108 196.88625,15.9890541 196.862063,15.8681081 C196.837875,15.722973 196.934625,15.5778378 197.07975,15.5536486 C198.651938,15.2633784 200.030625,14.9972973 201.191625,14.7795946 C201.33675,14.7554054 201.481875,14.8521622 201.506063,14.9972973 C201.53025,15.1424324 201.4335,15.2875676 201.288375,15.3117568 C200.127375,15.5294595 198.7245,15.7955405 197.1765,16.0858108 C197.152312,16.0858108 197.128125,16.0858108 197.128125,16.0858108 Z M205.376062,14.5377027 C205.255125,14.5377027 205.134187,14.4409459 205.11,14.32 C205.085812,14.1748649 205.182562,14.0297297 205.327687,14.0055405 C205.617937,13.9571622 205.763062,13.9087838 205.811437,13.9087838 C205.98075,13.8604054 206.150062,14.0055405 206.150062,14.1748649 C206.150062,14.4167568 206.125875,14.4167568 205.448625,14.5377027 C205.40025,14.5377027 205.376062,14.5377027 205.376062,14.5377027 Z M20.6803125,14.0297297 C20.559375,14.0297297 20.4384375,13.932973 20.41425,13.812027 C20.365875,13.6668919 20.462625,13.5217568 20.60775,13.4733784 C21.913875,13.1589189 23.2925625,12.8444595 24.6954375,12.5541892 C24.8405625,12.53 24.9856875,12.6267568 25.0340625,12.7718919 C25.05825,12.917027 24.9615,13.0621622 24.816375,13.1105405 C23.4135,13.4008108 22.0348125,13.7152703 20.752875,14.0297297 C20.7286875,14.0297297 20.7045,14.0297297 20.6803125,14.0297297 Z M28.879875,12.3364865 C28.73475,12.3364865 28.638,12.2397297 28.6138125,12.0945946 C28.589625,11.9494595 28.686375,11.8043243 28.8315,11.7801351 C30.1618125,11.5382432 31.5646875,11.3205405 32.9675625,11.127027 C33.1126875,11.1028378 33.2578125,11.1995946 33.282,11.3689189 C33.3061875,11.5140541 33.2094375,11.6591892 33.040125,11.6833784 C31.63725,11.8768919 30.234375,12.1187838 28.9040625,12.3364865 C28.92825,12.3364865 28.9040625,12.3364865 28.879875,12.3364865 Z M37.1761875,11.127027 C37.0310625,11.127027 36.910125,11.0302703 36.910125,10.8851351 C36.8859375,10.74 37.006875,10.5948649 37.152,10.5706757 C38.5306875,10.4013514 39.9335625,10.2562162 41.31225,10.1110811 C41.457375,10.0868919 41.6025,10.2078378 41.6266875,10.352973 C41.650875,10.4981081 41.5299375,10.6432432 41.3848125,10.6674324 C40.006125,10.8125676 38.60325,10.9577027 37.2245625,11.127027 C37.200375,11.127027 37.1761875,11.127027 37.1761875,11.127027 Z M45.4966875,10.3045946 C45.3515625,10.3045946 45.230625,10.1836486 45.230625,10.0385135 C45.230625,9.89337838 45.327375,9.74824324 45.4966875,9.74824324 C48.08475,9.55472973 49.681125,9.48216216 49.7053125,9.48216216 C49.8504375,9.45797297 49.9955625,9.60310811 49.9955625,9.74824324 C49.9955625,9.89337838 49.874625,10.0385135 49.7295,10.0385135 C49.7053125,10.0385135 48.1089375,10.1110811 45.4966875,10.3045946 C45.520875,10.3045946 45.520875,10.3045946 45.4966875,10.3045946 Z" id="Shape" fill="#AFCDFB"></path>
                            <g transform="translate(186.727500, 0.000000)" id="Path">
                                <polygon fill="#E37373" points="27.9365625 29.1963514 62.2344375 9.77243243 30.96 11.6108108 33.3545625 16.9082432 26.8965 24.0682432"></polygon>
                                <polygon fill="#FFFFFF" points="62.2344375 9.77243243 26.2918125 16.3518919 0.145125 34.517973"></polygon>
                                <polygon fill="#FFFFFF" points="30.96 11.6108108 62.2344375 9.77243243 29.50875 0.169324324"></polygon>
                            </g>
                        </g>
                        <g transform="translate(414.170625, 28.301351)" id="Path">
                            <polygon fill="#FEBEBE" points="25.2275625 21.8428378 64.14525 27.9868919 38.5306875 9.94175676 37.1278125 15.5778378 27.5979375 17.1743243"></polygon>
                            <polygon fill="#FFFFFF" points="64.14525 27.9868919 31.9275 10.7641892 0.145125 8.68391892"></polygon>
                            <polygon fill="#FFFFFF" points="38.5306875 9.94175676 64.14525 27.9868919 44.5291875 0.120945946"></polygon>
                        </g>
                        <g id="girl_2_1_" transform="translate(465.448125, 206.091892)">
                            <path d="M91.7915625,1.76581081 C91.7915625,1.76581081 83.8580625,2.32216216 78.0046875,16.617973 C72.1029375,31.0347297 85.3093125,30.8895946 80.8588125,40.0814865 C76.4083125,49.2733784 87.2685,54.7401351 90.558,62.262973 C93.8475,69.7858108 110.464313,87.9277027 111.794625,96.2004054 C113.10075,104.473108 127.879313,87.5890541 127.879313,87.5890541 C127.879313,87.5890541 142.89975,71.5758108 137.505938,62.262973 C128.629125,46.927027 136.32075,43.5889189 136.0305,35.0259459 C135.788625,26.4387838 119.510437,-7.32932432 91.7915625,1.76581081 Z" id="Path" fill="#233862"></path>
                            <path d="M87.4861875,53.0227027 C87.4861875,53.0227027 56.7680625,66.4235135 50.9146875,66.1574324 C45.0855,65.8913514 9.1186875,55.1997297 9.1186875,55.1997297 L10.0378125,61.3921622 C10.0378125,61.3921622 37.780875,77.357027 47.50425,78.252027 C57.0583125,79.147027 89.7114375,69.6890541 92.88,67.6813514 C96.024375,65.6978378 96.65325,55.0545946 87.4861875,53.0227027 Z" id="Path" fill="#FFAD76"></path>
                            <path d="M85.0190625,67.7297297 C87.849,69.6890541 91.380375,71.3097297 95.830875,72.3256757 C112.496062,76.1717568 118.881563,62.0936486 121.276125,52.417973 C119.0025,51.1117568 116.874,50.8214865 115.640437,50.6763514 C114.431062,50.5312162 113.173312,50.4344595 112.109062,50.3860811 C110.246625,48.9589189 107.440875,43.0809459 106.836187,33.9858108 L106.062187,34.2035135 L92.928375,37.8077027 C92.928375,37.8077027 93.5330625,41.9924324 93.8233125,45.9352703 C94.041,49.0314865 94.4521875,50.8214865 93.8716875,51.5471622 C92.8558125,51.7648649 91.864125,53.0710811 91.864125,53.0710811 C91.864125,53.0710811 91.864125,53.0710811 91.864125,53.0952703 C91.670625,53.3371622 87.849,59.6021622 85.0190625,67.7297297 Z" id="Path" fill="#FFB27D"></path>
                            <path d="M92.9041875,37.8077027 C92.9041875,37.8077027 93.508875,41.9682432 93.799125,45.9352703 C101.248875,45.1854054 104.6835,38.097973 106.038,34.2277027 L92.9041875,37.8077027 Z" id="Path" fill="#ED985F"></path>
                            <path d="M90.703125,41.7263514 C90.703125,41.7263514 108.36,40.7587838 107.586,29.7527027 C106.812,18.7708108 108.577688,11.247973 97.2579375,11.3931081 C85.962375,11.5624324 84.0515625,15.8922973 83.4226875,19.6174324 C82.7938125,23.3667568 86.0833125,41.677973 90.703125,41.7263514 Z" id="Path" fill="#FFB27D"></path>
                            <path d="M126.307125,103.626486 C127.9035,95.4747297 133.103813,62.8918919 127.9035,52.417973 C126.041063,48.6444595 118.71225,48.3058108 110.657812,48.6444595 C108.1665,50.2651351 98.6124375,56.3608108 94.71825,55.6109459 C94.669875,55.6109459 94.5973125,55.5867568 94.5005625,55.5625676 C92.6623125,55.102973 92.3236875,52.6356757 93.8716875,51.522973 C93.8716875,51.522973 89.5179375,52.297027 84.5836875,53.2404054 C81.802125,53.7725676 74.255625,57.667027 74.255625,57.667027 C74.255625,57.667027 78.0530625,64.5125676 83.640375,66.8831081 C82.6970625,75.3977027 84.0999375,79.147027 92.928375,98.8128378 C100.378125,115.430811 91.9125,130.37973 91.9125,130.37973 C91.9125,130.37973 135.812813,165.695946 136.054688,147.699189 C136.248188,134.153243 124.251188,114.052027 126.307125,103.626486 Z" id="Path" fill="#DE4B38"></path>
                            <path d="M89.735625,168.743784 C87.3410625,168.477703 85.188375,167.171486 83.8580625,165.163784 C83.640375,164.849324 83.4226875,164.510676 83.1808125,164.147838 C78.174,156.576622 76.239,133.403378 64.9918125,108.730405 C62.258625,102.731486 52.4143125,101.642973 49.7536875,94.8458108 C49.7536875,94.8458108 43.1505,72.8336486 62.3795625,72.1805405 C81.608625,71.5274324 113.87475,133.451757 114.382687,139.958649 C114.866438,146.223649 127.081125,172.952703 89.735625,168.743784 Z" id="Path" fill="#3B3B3B"></path>
                            <path d="M13.3273125,168.235811 L40.683375,168.235811 C40.683375,168.235811 41.69925,163.881757 39.909375,160.906486 C38.313,158.269865 38.9176875,156.770135 40.102875,154.617297 C38.8693125,155.12527 37.24875,155.584865 35.4830625,155.488108 C34.1285625,155.415541 32.6773125,154.786622 31.4195625,154.060946 C30.234375,155.415541 25.203375,161.124189 23.6311875,162.261081 C21.8413125,163.518919 13.883625,163.059324 13.3273125,168.235811 Z" id="Path" fill="#172B4C"></path>
                            <path d="M123.404625,60.9567568 C123.404625,60.9567568 126.960187,93.3702703 103.861125,100.143243 C80.7620625,106.940405 74.20725,70.3421622 92.8558125,67.7055405 C111.528563,65.0689189 123.404625,60.9567568 123.404625,60.9567568 Z" id="Path" fill="#C23C2B"></path>
                            <path d="M49.1248125,78.5181081 C47.4800625,90.8787838 41.0461875,129.847568 29.70225,148.884459 C26.0499375,155.028514 38.9176875,158.463378 38.99025,158.439316 C40.7075625,157.979595 43.585875,155.222027 44.9161875,154.036757 C54.131625,145.739865 72.8289544,122.227973 72.8289544,103.360405 C72.8289544,94.1685135 72.997875,76.6071622 66.2979375,72.1563514 C62.1860625,69.3987838 49.777875,73.6318919 49.1248125,78.5181081 Z" id="Path" fill="#484848"></path>
                            <path d="M106.038,168.235811 C106.038,168.235811 105.022125,166.832838 103.256438,164.147838 C101.152125,160.954865 98.830125,154.689865 96.0001875,146.659054 C93.025125,138.217027 89.5179375,127.839865 85.1158125,117.027297 C83.7613125,113.689189 82.3100625,110.326892 80.78625,106.940405 C78.0530625,100.941486 70.5065625,101.763919 67.8459375,94.9667568 C67.8459375,94.9667568 57.3969375,71.4064865 76.6018125,70.7533784 C95.830875,70.1002703 132.354,133.766216 134.458312,139.934459 C136.756125,146.683243 147.954938,174.694324 106.038,168.235811 Z" id="Path" fill="#666666"></path>
                            <path d="M33.4029375,168.235811 L60.759,168.235811 C60.759,168.235811 61.774875,163.881757 59.985,160.906486 C58.388625,158.269865 58.9933125,156.770135 60.1785,154.617297 C58.9449375,155.12527 57.324375,155.584865 55.5586875,155.488108 C54.2041875,155.415541 52.7529375,154.786622 51.4951875,154.060946 C50.31,155.415541 45.279,161.124189 43.7068125,162.261081 C41.941125,163.518919 33.95925,163.059324 33.4029375,168.235811 Z" id="Path" fill="#233862"></path>
                            <path d="M96.0001875,146.659054 C93.025125,138.217027 89.5179375,127.839865 85.1158125,117.027297 C86.2768125,108.851351 88.7439375,101.691351 92.9041875,98.7886486 C92.9041875,98.7886486 103.014563,130.113649 96.0001875,146.659054 Z" id="Path" fill="#484848"></path>
                            <path d="M65.0885625,77.6472973 C63.4438125,90.007973 61.1218125,129.871757 49.777875,148.884459 C46.1255625,155.028514 58.9933125,158.463378 59.065875,158.439316 C60.7831875,157.979595 63.6615,155.222027 64.9918125,154.036757 C74.20725,145.739865 92.9041875,122.227973 92.9041875,103.360405 C92.9041875,94.1685135 82.1165625,77.357027 75.4408125,72.882027 C71.3289375,70.1486486 65.741625,72.7368919 65.0885625,77.6472973 Z" id="Path" fill="#666666"></path>
                            <path d="M31.2260625,45.257973 C31.2260625,45.257973 29.8231875,41.7021622 27.2835,41.9198649 C24.7438125,42.1617568 1.5721875,45.257973 1.5721875,45.257973 C1.5721875,45.257973 4.2811875,45.9110811 5.2970625,47.6768919 L15.9879375,79.1712162 L43.392375,79.1712162 L31.2260625,45.257973 Z" id="Path" fill="#EBF3FA"></path>
                            <path d="M121.276125,52.417973 C121.276125,52.417973 82.431,66.7137838 76.6018125,66.4235135 C72.8285625,66.23 41.4815625,55.2239189 41.4815625,55.2239189 L38.6758125,60.5455405 C38.6758125,60.5455405 69.2004375,80.162973 77.5693125,80.0662162 C94.13775,79.8727027 122.074313,69.7132432 125.218688,67.7055405 C128.363063,65.6978378 130.443188,54.4498649 121.276125,52.417973 Z" id="Path" fill="#FFBF94"></path>
                            <path d="M41.4815625,55.2239189 C41.4815625,55.2239189 38.6758125,50.8940541 35.8700625,50.7731081 C33.0643125,50.6521622 28.2268125,52.6840541 26.5820625,52.9985135 C24.9373125,53.312973 20.22075,54.8368919 21.623625,57.1348649 C23.0265,59.4328378 29.5329375,59.9408108 32.3145,59.4328378 C35.0960625,58.9248649 38.6758125,60.5455405 38.6758125,60.5455405 L41.4815625,55.2239189 Z" id="Path" fill="#FFBF94"></path>
                            <path d="M36.619875,50.8940541 C36.619875,50.8940541 32.169375,48.837973 30.8874375,48.4751351 C29.6055,48.0881081 29.8715625,48.4751351 30.2585625,49.6845946 C30.6455625,50.8940541 32.943375,52.0551351 32.943375,52.417973 C32.943375,52.805 36.619875,50.8940541 36.619875,50.8940541 Z" id="Path" fill="#FFBF94"></path>
                            <path d="M87.3894375,35.3887838 C87.3894375,35.3887838 89.058375,34.7356757 93.75075,35.0985135 C93.75075,35.0985135 93.508875,36.9368919 90.025875,37.1062162 C88.0666875,37.2271622 87.3894375,35.3887838 87.3894375,35.3887838 Z" id="Path" fill="#FFFFFF"></path>
                            <path d="M101.273062,59.4812162 C101.273062,59.4812162 104.756063,70.4872973 116.6805,72.9787838 C116.6805,72.9787838 136.369125,66.9072973 126.573187,53.4822973 C126.549,53.4822973 116.849813,46.2739189 101.273062,59.4812162 Z" id="Path" fill="#DE4B38"></path>
                            <path d="M1.548,45.257973 C1.548,45.257973 -1.015875,46.2497297 0.919125,49.5878378 L25.977375,46.2497297 C25.977375,46.2497297 25.106625,42.3794595 27.0658125,41.9440541 L1.548,45.257973 Z" id="Path" fill="#FFFFFF"></path>
                            <path d="M10.5215625,53.4822973 C11.12625,51.1117568 11.077875,50.5312162 9.723375,49.0798649 C8.8284375,48.1122973 7.4739375,50.507027 6.7725,51.9341892 C6.5064375,51.3052703 6.0710625,50.2651351 5.9259375,50.2167568 C5.70825,50.1441892 6.2161875,53.4097297 6.2161875,53.4097297 L6.2161875,53.4097297 C6.192,53.5548649 6.192,53.6758108 6.192,53.8209459 L6.192,53.8209459 C6.192,53.8209459 5.1035625,58.6345946 9.8443125,61.247027 L8.949375,58.5862162 C9.5056875,58.4894595 9.916875,55.9012162 10.5215625,53.4822973 Z" id="Path" fill="#FFAD76"></path>
                            <path d="M90.025875,13.812027 C90.025875,13.812027 93.75075,12.5058108 95.540625,16.3035135 C97.3546875,20.1012162 97.911,29.1963514 105.143063,29.9462162 C112.375125,30.6960811 112.641188,14.5377027 112.641188,14.5377027 L94.5489375,7.40189189 L84.994875,13.425 L90.025875,13.812027 Z" id="Path" fill="#233862"></path>
                            <path d="M90.025875,13.812027 C90.025875,13.812027 85.9381875,13.9087838 85.0190625,17.3436486 C84.0999375,20.7785135 85.5511875,27.1886486 83.2775625,27.6482432 C81.028125,28.1078378 78.9721875,16.9808108 83.3259375,13.3524324 C87.6796875,9.72405405 90.025875,13.812027 90.025875,13.812027 Z" id="Path" fill="#233862"></path>
                        </g>
                        <path d="M235.52175,160.325946 C235.52175,160.325946 239.609438,158.777838 240.069,157.713514 C240.528563,156.649189 241.883063,156.189595 243.503625,155.43973 C245.124188,154.689865 246.091688,153.359459 246.333563,153.528784 C246.575438,153.722297 246.623813,154.641486 245.97075,155.342973 C245.317688,156.044459 242.560313,160.906486 241.544438,161.462838 C240.480188,162.019189 235.52175,160.325946 235.52175,160.325946 Z" id="Path" fill="#FFB27D"></path>
                        <path d="M658.875563,374.134189 L632.656313,374.134189 C631.253438,372.948919 633.623813,370.23973 636.115125,370.046216 C637.203563,369.973649 638.558063,370.191351 640.106063,370.53 C640.468875,365.740541 642.524813,344.187973 650.289,345.058784 C659.020688,346.026351 650.289,354.540946 647.821875,359.596486 C645.983625,363.321622 644.072813,368.691622 643.177875,371.231486 C643.879313,371.376622 644.629125,371.545946 645.378938,371.666892 C646.539938,368.111081 650.845313,356.161622 656.311688,356.863108 C662.745563,357.685541 660.1575,362.475 655.61025,365.329324 C652.272375,367.433784 648.1605,370.384865 646.201313,371.836216 C647.846063,372.102297 649.587563,372.295811 651.329063,372.247432 C655.852125,372.102297 658.029,373.432703 658.875563,374.134189 Z" id="Path" fill="#82B378"></path>
                        <g transform="translate(44.343750, 349.291892)" fill="#82B378" id="Path">
                            <path d="M26.79975,25.3744595 C26.79975,25.3744595 16.8345,-2.0077027 9.820125,0.338648649 C2.8299375,2.66081081 26.79975,25.3744595 26.79975,25.3744595 Z"></path>
                            <path d="M22.978125,25.3744595 C22.1315625,25.3744595 6.2161875,8.85324324 5.1519375,13.1831081 C4.0876875,17.512973 22.978125,25.3744595 22.978125,25.3744595 Z"></path>
                            <path d="M39.9335625,25.3744595 C39.9335625,25.3744595 33.3545625,19.3513514 25.0340625,20.9236486 C16.7135625,22.4959459 13.158,24.2133784 7.9093125,23.0281081 C2.6848125,21.8428378 0,25.3986486 0,25.3986486 L39.9335625,25.3986486 L39.9335625,25.3744595 Z"></path>
                        </g>
                        <g transform="translate(230.103750, 338.890541)" id="Path">
                            <path d="M57.1550625,24.8422973 L5.3454375,24.8422973 C2.4429375,24.8422973 0.09675,22.4959459 0.09675,19.5932432 L0.09675,5.46675676 C0.09675,2.56405405 2.4429375,0.217702703 5.3454375,0.217702703 L57.1550625,0.217702703 C60.0575625,0.217702703 62.40375,2.56405405 62.40375,5.46675676 L62.40375,19.5932432 C62.40375,22.4959459 60.0575625,24.8422973 57.1550625,24.8422973 Z" fill="#FCECDB"></path>
                            <g transform="translate(6.772500, 4.595946)" fill="#EFCBAB">
                                <path d="M39.8368125,1.76581081 L0.7981875,1.76581081 C0.3628125,1.76581081 0,1.40297297 0,0.967567568 L0,0.967567568 C0,0.532162162 0.3628125,0.169324324 0.7981875,0.169324324 L39.8368125,0.169324324 C40.2721875,0.169324324 40.635,0.532162162 40.635,0.967567568 L40.635,0.967567568 C40.635,1.40297297 40.2721875,1.76581081 39.8368125,1.76581081 Z"></path>
                                <path d="M7.74,5.17648649 L0.822375,5.17648649 C0.387,5.17648649 0.0241875,4.81364865 0.0241875,4.37824324 L0.0241875,4.37824324 C0.0241875,3.94283784 0.387,3.58 0.822375,3.58 L7.74,3.58 C8.175375,3.58 8.5381875,3.94283784 8.5381875,4.37824324 L8.5381875,4.37824324 C8.514,4.81364865 8.175375,5.17648649 7.74,5.17648649 Z"></path>
                                <path d="M29.5329375,5.17648649 L10.4731875,5.17648649 C10.0378125,5.17648649 9.675,4.81364865 9.675,4.37824324 L9.675,4.37824324 C9.675,3.94283784 10.0378125,3.58 10.4731875,3.58 L29.5329375,3.58 C29.9683125,3.58 30.331125,3.94283784 30.331125,4.37824324 L30.331125,4.37824324 C30.331125,4.81364865 29.9683125,5.17648649 29.5329375,5.17648649 Z"></path>
                            </g>
                            <g transform="translate(6.772500, 14.513514)" fill="#EFCBAB">
                                <path d="M39.8368125,1.59648649 L0.7981875,1.59648649 C0.3628125,1.59648649 0,1.23364865 0,0.798243243 L0,0.798243243 C0,0.362837838 0.3628125,0 0.7981875,0 L39.8368125,0 C40.2721875,0 40.635,0.362837838 40.635,0.798243243 L40.635,0.798243243 C40.635,1.23364865 40.2721875,1.59648649 39.8368125,1.59648649 Z"></path>
                                <path d="M14.9720625,5.00716216 L0.7981875,5.00716216 C0.3628125,5.00716216 5.49960077e-14,4.64432432 5.49960077e-14,4.20891892 L5.49960077e-14,4.20891892 C5.49960077e-14,3.77351351 0.3628125,3.41067568 0.7981875,3.41067568 L14.9720625,3.41067568 C15.4074375,3.41067568 15.77025,3.77351351 15.77025,4.20891892 L15.77025,4.20891892 C15.77025,4.64432432 15.4074375,5.00716216 14.9720625,5.00716216 Z"></path>
                                <path d="M32.21775,5.00716216 L18.043875,5.00716216 C17.6085,5.00716216 17.2456875,4.64432432 17.2456875,4.20891892 L17.2456875,4.20891892 C17.2456875,3.77351351 17.6085,3.41067568 18.043875,3.41067568 L32.21775,3.41067568 C32.653125,3.41067568 33.0159375,3.77351351 33.0159375,4.20891892 L33.0159375,4.20891892 C33.0159375,4.64432432 32.653125,5.00716216 32.21775,5.00716216 Z"></path>
                            </g>
                        </g>
                    </g>
                </g>
                <path d="M66.3602539,428.928078 L727.835889,428.363664 C716.609974,467.46196 603.965511,487.011109 389.9025,487.011109 C201.725521,487.011109 93.8781058,467.650099 66.3602539,428.928078 Z" id="Path-2" fill="#FBC4C4"></path>
            </g>
        </g>
    </g>
</svg>