<?xml version="1.0" encoding="UTF-8"?>
<svg width="100px" height="100px" viewBox="0 0 100 100" version="1.1" xmlns="http://www.w3.org/2000/svg" xmlns:xlink="http://www.w3.org/1999/xlink">
    <title>img_jc_php</title>
    <defs>
        <linearGradient x1="50%" y1="0%" x2="50%" y2="100%" id="linearGradient-1">
            <stop stop-color="#FFF7F7" offset="0%"></stop>
            <stop stop-color="#FFE9E9" offset="59.0444712%"></stop>
            <stop stop-color="#FFD1D1" offset="100%"></stop>
        </linearGradient>
        <polygon id="path-2" points="0 54 54 54 54 0 0 0"></polygon>
    </defs>
    <g id="Page-1" stroke="none" stroke-width="1" fill="none" fill-rule="evenodd">
        <g id="Syllabus" transform="translate(-826.000000, -1015.000000)">
            <g id="img_jc_php" transform="translate(826.000000, 1015.000000)">
                <circle id="Oval-Copy-9" fill="url(#linearGradient-1)" cx="50" cy="50" r="50"></circle>
                <g id="Group-35" transform="translate(24.000000, 23.000000)">
                    <path d="M52.875,5.6251125 C52.875,3.1399875 50.860125,1.1251125 48.375,1.1251125 L5.625,1.1251125 C3.139875,1.1251125 1.125,3.1399875 1.125,5.6251125 L1.125,48.3751125 C1.125,50.8602375 3.139875,52.8751125 5.625,52.8751125 L22.5,52.8751125" id="Stroke-1" stroke="#E80000" stroke-width="2" stroke-linejoin="round"></path>
                    <line x1="4.5" y1="10.1251125" x2="22.5" y2="10.1251125" id="Stroke-3" stroke="#E80000" stroke-width="2" stroke-linejoin="round"></line>
                    <line x1="5.625" y1="5.6251125" x2="7.875" y2="5.6251125" id="Stroke-5" stroke="#E80000" stroke-width="2" stroke-linejoin="round"></line>
                    <line x1="10.125" y1="5.6251125" x2="12.375" y2="5.6251125" id="Stroke-7" stroke="#E80000" stroke-width="2" stroke-linejoin="round"></line>
                    <path d="M27,9.0001125 L51.75,9.0001125 C52.372125,9.0001125 52.875,9.5041125 52.875,10.1251125 L52.875,51.7501125 C52.875,52.3711125 52.372125,52.8751125 51.75,52.8751125 L27,52.8751125 C26.379,52.8751125 25.875,52.3711125 25.875,51.7501125 L25.875,10.1251125 C25.875,9.5041125 26.379,9.0001125 27,9.0001125 Z" id="Stroke-9" stroke="#E80000" stroke-width="2" stroke-linejoin="round"></path>
                    <line x1="25.875" y1="14.6251125" x2="52.875" y2="14.6251125" id="Stroke-11" stroke="#E80000" stroke-width="2" stroke-linejoin="round"></line>
                    <mask id="mask-3" fill="white">
                        <use xlink:href="#path-2"></use>
                    </mask>
                    <g id="Clip-14"></g>
                    <polygon id="Stroke-13" stroke="#E80000" stroke-width="2" stroke-linejoin="round" mask="url(#mask-3)" points="5.625 34.875 21.375 34.875 21.375 14.625 5.625 14.625"></polygon>
                    <polygon id="Stroke-15" stroke="#E80000" stroke-width="2" stroke-linejoin="round" mask="url(#mask-3)" points="5.625 39.375 21.375 39.375 21.375 34.875 5.625 34.875"></polygon>
                    <line x1="13.5" y1="39.3751125" x2="13.5" y2="34.8751125" id="Stroke-16" stroke="#E80000" stroke-width="2" stroke-linejoin="round" mask="url(#mask-3)"></line>
                    <line x1="4.5" y1="43.8751125" x2="6.75" y2="43.8751125" id="Stroke-17" stroke="#E80000" stroke-width="2" stroke-linejoin="round" mask="url(#mask-3)"></line>
                    <line x1="9" y1="43.8751125" x2="11.25" y2="43.8751125" id="Stroke-18" stroke="#E80000" stroke-width="2" stroke-linejoin="round" mask="url(#mask-3)"></line>
                    <line x1="13.5" y1="43.8751125" x2="22.5" y2="43.8751125" id="Stroke-19" stroke="#E80000" stroke-width="2" stroke-linejoin="round" mask="url(#mask-3)"></line>
                    <line x1="4.5" y1="48.3751125" x2="22.5" y2="48.3751125" id="Stroke-20" stroke="#E80000" stroke-width="2" stroke-linejoin="round" mask="url(#mask-3)"></line>
                    <polyline id="Stroke-21" stroke="#E80000" stroke-width="2" stroke-linejoin="round" mask="url(#mask-3)" points="13.5 19.1251125 10.125 19.1251125 10.125 22.5001125"></polyline>
                    <path d="M31.5,20.2501125 L42.75,20.2501125 C43.372125,20.2501125 43.875,20.7541125 43.875,21.3751125 L43.875,23.6251125 C43.875,24.2461125 43.372125,24.7501125 42.75,24.7501125 L31.5,24.7501125 C30.877875,24.7501125 30.375,24.2461125 30.375,23.6251125 L30.375,21.3751125 C30.375,20.7541125 30.877875,20.2501125 31.5,20.2501125 Z" id="Stroke-22" stroke="#E80000" stroke-width="2" stroke-linejoin="round" mask="url(#mask-3)"></path>
                    <line x1="29.25" y1="29.2501125" x2="31.5" y2="29.2501125" id="Stroke-23" stroke="#E80000" stroke-width="2" stroke-linejoin="round" mask="url(#mask-3)"></line>
                    <line x1="46.125" y1="33.7501125" x2="48.375" y2="33.7501125" id="Stroke-24" stroke="#E80000" stroke-width="2" stroke-linejoin="round" mask="url(#mask-3)"></line>
                    <line x1="33.75" y1="29.2501125" x2="36" y2="29.2501125" id="Stroke-25" stroke="#E80000" stroke-width="2" stroke-linejoin="round" mask="url(#mask-3)"></line>
                    <line x1="38.25" y1="38.2501125" x2="40.5" y2="38.2501125" id="Stroke-26" stroke="#E80000" stroke-width="2" stroke-linejoin="round" mask="url(#mask-3)"></line>
                    <line x1="42.75" y1="38.2501125" x2="49.5" y2="38.2501125" id="Stroke-27" stroke="#E80000" stroke-width="2" stroke-linejoin="round" mask="url(#mask-3)"></line>
                    <line x1="38.25" y1="29.2501125" x2="49.5" y2="29.2501125" id="Stroke-28" stroke="#E80000" stroke-width="2" stroke-linejoin="round" mask="url(#mask-3)"></line>
                    <line x1="29.25" y1="33.7501125" x2="43.875" y2="33.7501125" id="Stroke-29" stroke="#E80000" stroke-width="2" stroke-linejoin="round" mask="url(#mask-3)"></line>
                    <line x1="33.75" y1="42.7501125" x2="31.5" y2="42.7501125" id="Stroke-30" stroke="#E80000" stroke-width="2" stroke-linejoin="round" mask="url(#mask-3)"></line>
                    <line x1="48.375" y1="47.2501125" x2="43.875" y2="47.2501125" id="Stroke-31" stroke="#E80000" stroke-width="2" stroke-linejoin="round" mask="url(#mask-3)"></line>
                    <line x1="41.625" y1="47.2501125" x2="29.25" y2="47.2501125" id="Stroke-32" stroke="#E80000" stroke-width="2" stroke-linejoin="round" mask="url(#mask-3)"></line>
                    <line x1="49.5" y1="42.7501125" x2="36" y2="42.7501125" id="Stroke-33" stroke="#E80000" stroke-width="2" stroke-linejoin="round" mask="url(#mask-3)"></line>
                    <line x1="29.25" y1="38.2501125" x2="36" y2="38.2501125" id="Stroke-34" stroke="#E80000" stroke-width="2" stroke-linejoin="round" mask="url(#mask-3)"></line>
                </g>
            </g>
        </g>
    </g>
</svg>