<?xml version="1.0" encoding="UTF-8"?>
<svg width="87px" height="72px" viewBox="0 0 87 72" version="1.1" xmlns="http://www.w3.org/2000/svg" xmlns:xlink="http://www.w3.org/1999/xlink">
    <title>img_benefit4</title>
    <g id="Page-1" stroke="none" stroke-width="1" fill="none" fill-rule="evenodd">
        <g id="Home" transform="translate(-1142.000000, -2397.000000)" fill-rule="nonzero">
            <g id="question" transform="translate(1142.000000, 2397.000000)">
                <path d="M82.4875519,12.96 L82.4875519,66.24 L4.51244813,66.24 L4.51244813,12.96 C4.51720577,11.3713893 5.80740975,10.0847445 7.40041494,10.08 L79.5995851,10.08 C81.1925902,10.0847445 82.4827942,11.3713893 82.4875519,12.96 Z" id="Path" fill="#FFEDED"></path>
                <path d="M82.4875519,12.96 L82.4875519,66.24 L76.7116183,66.24 L76.7116183,12.96 C76.7068606,11.3713893 75.4166566,10.0847445 73.8236515,10.08 L79.5995851,10.08 C81.1925902,10.0847445 82.4827942,11.3713893 82.4875519,12.96 L82.4875519,12.96 Z" id="Path" fill="#FAC0C0"></path>
                <path d="M85.3755187,61.92 L84.3358506,68.1552 C84.0999618,69.5398484 82.8995668,70.554635 81.4912033,70.56 L5.50879668,70.56 C4.10043318,70.554635 2.9000382,69.5398484 2.66414938,68.1552 L1.62448133,61.92 L37.7240664,61.92 L37.7240664,64.8 L49.2759336,64.8 L49.2759336,61.92 L85.3755187,61.92 Z" id="Path" fill="#C6C5CA"></path>
                <path d="M85.3755187,61.92 L84.3358506,68.1552 C84.0999618,69.5398484 82.8995668,70.554635 81.4912033,70.56 L74.2712863,70.56 C75.6796498,70.554635 76.8800448,69.5398484 77.1159336,68.1552 L78.1556017,61.92 L85.3755187,61.92 Z" id="Path" fill="#ACABB1"></path>
                <path d="M76.7116183,2.88 L76.7116183,28.8 C76.7116183,29.59529 76.0651249,30.24 75.2676349,30.24 L72.379668,30.24 L65.159751,38.88 L65.159751,30.24 L47.8319502,30.24 L47.8319502,10.08 C47.8271926,8.49138931 46.5369886,7.20474451 44.9439834,7.2 L39.1680498,7.2 L39.1680498,2.88 C39.1680498,2.08470996 39.8145432,1.44 40.6120332,1.44 L75.2676349,1.44 C76.0651249,1.44 76.7116183,2.08470996 76.7116183,2.88 Z" id="Path" fill="#00D7DF"></path>
                <path d="M76.7116183,2.88 L76.7116183,28.8 C76.7116183,29.59529 76.0651249,30.24 75.2676349,30.24 L72.379668,30.24 L65.159751,38.88 L65.159751,31.968 L66.6037344,30.24 L69.4917012,30.24 C70.2891913,30.24 70.9356846,29.59529 70.9356846,28.8 L70.9356846,2.88 C70.9356846,2.08470996 70.2891913,1.44 69.4917012,1.44 L75.2676349,1.44 C76.0651249,1.44 76.7116183,2.08470996 76.7116183,2.88 Z" id="Path" fill="#00B6BD"></path>
                <path d="M65.6218257,61.92 L49.2759336,61.92 L49.2759336,64.8 L46.5179253,64.8 C47.1462391,60.4030259 50.5920049,56.9374815 54.9956516,56.2736117 C59.3992983,55.6097419 63.7182992,57.9047124 65.6218257,61.92 L65.6218257,61.92 Z" id="Path" fill="#FFDAAA"></path>
                <ellipse id="Oval" fill="#FFDAAA" cx="56.4958506" cy="50.4" rx="5.77593361" ry="5.76"></ellipse>
                <path d="M65.6218257,61.92 L59.860332,61.92 C58.6251345,59.3394201 56.3543847,57.3991795 53.6078838,56.5776 C58.3856409,55.1607408 63.4858714,57.4287284 65.6218257,61.92 Z" id="Path" fill="#FFC477"></path>
                <path d="M62.2717842,50.4 C62.2717842,53.5811602 59.6858107,56.16 56.4958506,56.16 C56.0081637,56.1643967 55.522217,56.1013979 55.0518672,55.9728 C57.5939138,55.3102298 59.3672346,53.0201903 59.3672346,50.4 C59.3672346,47.7798097 57.5939138,45.4897702 55.0518672,44.8272 C55.522217,44.6986021 56.0081637,44.6356033 56.4958506,44.64 C59.6858107,44.64 62.2717842,47.2188398 62.2717842,50.4 L62.2717842,50.4 Z" id="Path" fill="#FFC477"></path>
                <path d="M47.8319502,10.08 L47.8319502,33.12 C47.8271926,34.7086107 46.5369886,35.9952555 44.9439834,36 L21.840249,36 L21.840249,44.64 L16.0643154,36 L13.1763485,36 C11.5833434,35.9952555 10.2931394,34.7086107 10.2883817,33.12 L10.2883817,10.08 C10.2931394,8.49138931 11.5833434,7.20474451 13.1763485,7.2 L44.9439834,7.2 C46.5369886,7.20474451 47.8271926,8.49138931 47.8319502,10.08 Z" id="Path" fill="#FF7956"></path>
                <path d="M47.8319502,10.08 L47.8319502,33.12 C47.8271926,34.7086107 46.5369886,35.9952555 44.9439834,36 L39.1680498,36 C40.761055,35.9952555 42.051259,34.7086107 42.0560166,33.12 L42.0560166,10.08 C42.051259,8.49138931 40.761055,7.20474451 39.1680498,7.2 L44.9439834,7.2 C46.5369886,7.20474451 47.8271926,8.49138931 47.8319502,10.08 Z" id="Path" fill="#FF6243"></path>
                <path d="M40.4820747,64.8 L37.7240664,64.8 L37.7240664,61.92 L21.3781743,61.92 C23.2817008,57.9047124 27.6007017,55.6097419 32.0043484,56.2736117 C36.4079951,56.9374815 39.8537609,60.4030259 40.4820747,64.8 L40.4820747,64.8 Z" id="Path" fill="#FFDAAA"></path>
                <ellipse id="Oval" fill="#FFDAAA" cx="30.5041494" cy="50.4" rx="5.77593361" ry="5.76"></ellipse>
                <path d="M37.7240664,64.8 L37.7240664,61.92 L33.8686307,61.92 C32.6334332,59.3394201 30.3626835,57.3991795 27.6161826,56.5776 C30.4289731,55.7432955 33.4666261,56.1714523 35.9373746,57.7504708 C38.4081231,59.3294894 40.0671668,61.9029215 40.4820747,64.8 L37.7240664,64.8 Z" id="Path" fill="#FFC477"></path>
                <path d="M36.280083,50.4 C36.280083,53.5811602 33.6941094,56.16 30.5041494,56.16 C30.0164625,56.1643967 29.5305158,56.1013979 29.060166,55.9728 C31.6022126,55.3102298 33.3755334,53.0201903 33.3755334,50.4 C33.3755334,47.7798097 31.6022126,45.4897702 29.060166,44.8272 C29.5305158,44.6986021 30.0164625,44.6356033 30.5041494,44.64 C33.6941094,44.64 36.280083,47.2188398 36.280083,50.4 L36.280083,50.4 Z" id="Path" fill="#FFC477"></path>
                <path d="M27.2046473,15.07248 C27.8675218,14.5173014 28.7451653,14.2879255 29.5958838,14.44752 C30.7647734,14.6744164 31.6787333,15.5858549 31.9062573,16.75152 C32.1607812,18.0918897 31.4373938,19.4264648 30.1734772,19.94832 C28.6004143,20.6178499 27.589756,22.1697767 27.6161826,23.8752 L27.6161826,27.36 L30.5041494,27.36 L30.5041494,23.8752 C30.4820729,23.3386238 30.780842,22.839976 31.2651286,22.60512 C33.9446778,21.5014371 35.3886517,18.5878975 34.6404112,15.7947341 C33.8921706,13.0015708 31.1835738,11.1943047 28.3090782,11.5702578 C25.4345827,11.9462108 23.2849119,14.388886 23.2842324,17.28 L26.1721992,17.28 C26.1720161,16.4280985 26.5500416,15.6198267 27.2046473,15.07248 L27.2046473,15.07248 Z" id="Path" fill="#000000"></path>
                <polygon id="Path" fill="#000000" points="27.6161826 28.8 30.5041494 28.8 30.5041494 31.68 27.6161826 31.68"></polygon>
                <polygon id="Path" fill="#000000" points="52.1639004 14.4 55.0518672 14.4 55.0518672 17.28 52.1639004 17.28"></polygon>
                <polygon id="Path" fill="#000000" points="57.939834 14.4 72.379668 14.4 72.379668 17.28 57.939834 17.28"></polygon>
                <polygon id="Path" fill="#000000" points="52.1639004 8.64 57.939834 8.64 57.939834 11.52 52.1639004 11.52"></polygon>
                <polygon id="Path" fill="#000000" points="60.8278008 8.64 72.379668 8.64 72.379668 11.52 60.8278008 11.52"></polygon>
                <polygon id="Path" fill="#000000" points="52.1639004 20.16 63.7157676 20.16 63.7157676 23.04 52.1639004 23.04"></polygon>
                <polygon id="Path" fill="#000000" points="66.6037344 20.16 72.379668 20.16 72.379668 23.04 66.6037344 23.04"></polygon>
                <path d="M86.4729461,60.984 C86.197284,60.6658425 85.7971467,60.4820771 85.3755187,60.48 L83.9315353,60.48 L83.9315353,12.96 C83.9243988,10.577084 81.9890928,8.64711677 79.5995851,8.64 L78.1556017,8.64 L78.1556017,2.88 C78.150844,1.29138931 76.86064,0.0047445136 75.2676349,1.02318154e-14 L40.6120332,1.02318154e-14 C39.019028,0.0047445136 37.728824,1.29138931 37.7240664,2.88 L37.7240664,5.76 L13.1763485,5.76 C11.3463822,5.76939973 9.7183411,6.92085357 9.10431535,8.64 L7.40041494,8.64 C5.01090716,8.64711677 3.07560119,10.577084 3.06846473,12.96 L3.06846473,60.48 L1.62448133,60.48 C1.20041694,60.4787805 0.797251789,60.6635161 0.521960821,60.9851894 C0.246669854,61.3068627 0.127085411,61.7329521 0.194937759,62.1504 L1.24904564,68.3856 C1.58203806,70.472474 3.38983145,72.0063872 5.50879668,72.0000199 L81.4912033,72.0000199 C83.6101686,72.0063872 85.4179619,70.472474 85.7509544,68.3856 L86.8050622,62.1504 C86.8718939,61.7318041 86.7503975,61.3051062 86.4729461,60.984 L86.4729461,60.984 Z M40.6120332,2.88 L75.2676349,2.88 L75.2676349,28.8 L72.379668,28.8 C71.9498217,28.7976793 71.5416523,28.9879853 71.2678008,29.3184 L66.6037344,34.9056 L66.6037344,30.24 C66.6037344,29.44471 65.957241,28.8 65.159751,28.8 L49.2759336,28.8 L49.2759336,10.08 C49.2687972,7.69708397 47.3334912,5.76711677 44.9439834,5.76 L40.6120332,5.76 L40.6120332,2.88 Z M11.7323651,10.08 C11.7323651,9.28470996 12.3788585,8.64 13.1763485,8.64 L44.9439834,8.64 C45.7414734,8.64 46.3879668,9.28470996 46.3879668,10.08 L46.3879668,33.12 C46.3879668,33.91529 45.7414734,34.56 44.9439834,34.56 L21.840249,34.56 C21.042759,34.56 20.3962656,35.20471 20.3962656,36 L20.3962656,39.888 L17.2628216,35.208 C16.9971525,34.8056853 16.5473554,34.5624921 16.0643154,34.56 L13.1763485,34.56 C12.3788585,34.56 11.7323651,33.91529 11.7323651,33.12 L11.7323651,10.08 Z M5.95643154,12.96 C5.95643154,12.16471 6.60292493,11.52 7.40041494,11.52 L8.84439834,11.52 L8.84439834,33.12 C8.8515348,35.502916 10.7868408,37.4328832 13.1763485,37.44 L15.2845643,37.44 L20.6417427,45.432 C20.9044607,45.8375068 21.3561368,46.0817159 21.840249,46.08 C21.9819564,46.0821038 22.1231591,46.0626813 22.2590041,46.0224 C22.8670995,45.8347362 23.2823728,45.2747888 23.2842324,44.64 L23.2842324,37.44 L44.9439834,37.44 C47.3334912,37.4328832 49.2687972,35.502916 49.2759336,33.12 L49.2759336,31.68 L63.7157676,31.68 L63.7157676,38.88 C63.7125744,39.4873666 64.0948612,40.0303337 64.6687967,40.2336 C65.2409702,40.4409361 65.8820777,40.2681418 66.2716183,39.8016 L73.0583402,31.68 L75.2676349,31.68 C76.86064,31.6752555 78.150844,30.3886107 78.1556017,28.8 L78.1556017,11.52 L79.5995851,11.52 C80.3970751,11.52 81.0435685,12.16471 81.0435685,12.96 L81.0435685,60.48 L66.4593361,60.48 C65.2780736,58.3984229 63.4693359,56.7407885 61.2898755,55.7424 C63.5336617,53.7539585 64.3096499,50.5884634 63.2388431,47.7919607 C62.1680362,44.9954579 59.4738458,43.1514055 56.4721297,43.1604491 C53.4704137,43.1694927 50.7874455,45.0297455 49.733602,47.8326495 C48.6797586,50.6355534 49.4749123,53.7963149 51.7307054,55.7712 C48.5578644,57.2066215 46.2063906,59.9962562 45.3338589,63.36 L41.6661411,63.36 C40.7936094,59.9962562 38.4421356,57.2066215 35.2692946,55.7712 C37.5250877,53.7963149 38.3202414,50.6355534 37.266398,47.8326495 C36.2125545,45.0297455 33.5295863,43.1694927 30.5278703,43.1604491 C27.5261542,43.1514055 24.8319638,44.9954579 23.7611569,47.7919607 C22.6903501,50.5884634 23.4663383,53.7539585 25.7101245,55.7424 C23.5306641,56.7407885 21.7219264,58.3984229 20.5406639,60.48 L5.95643154,60.48 L5.95643154,12.96 Z M56.4958506,57.6 C58.9672362,57.5872978 61.3243792,58.6366909 62.9648963,60.48 L50.0990041,60.48 C51.7248222,58.6582053 54.0503483,57.6112026 56.4958506,57.6 L56.4958506,57.6 Z M52.1639004,50.4 C52.1639004,48.0141299 54.1033806,46.08 56.4958506,46.08 C58.8883207,46.08 60.8278008,48.0141299 60.8278008,50.4 C60.8278008,52.7858701 58.8883207,54.72 56.4958506,54.72 C54.1063428,54.7128832 52.1710369,52.782916 52.1639004,50.4 L52.1639004,50.4 Z M30.5041494,57.6 C32.9496517,57.6112026 35.2751778,58.6582053 36.9009959,60.48 L24.0351037,60.48 C25.6756208,58.6366909 28.0327638,57.5872978 30.5041494,57.6 L30.5041494,57.6 Z M26.1721992,50.4 C26.1721992,48.0141299 28.1116793,46.08 30.5041494,46.08 C32.8966194,46.08 34.8360996,48.0141299 34.8360996,50.4 C34.8360996,52.7858701 32.8966194,54.72 30.5041494,54.72 C28.1146416,54.7128832 26.1793356,52.782916 26.1721992,50.4 L26.1721992,50.4 Z M82.9063071,67.9104 C82.7998109,68.6072937 82.198091,69.1216308 81.4912033,69.1200039 L5.50879668,69.1200039 C4.80190899,69.1216308 4.20018908,68.6072937 4.09369295,67.9104 L3.32838174,63.36 L36.280083,63.36 L36.280083,64.8 C36.280083,65.59529 36.9265764,66.24 37.7240664,66.24 L49.2759336,66.24 C50.0734236,66.24 50.719917,65.59529 50.719917,64.8 L50.719917,63.36 L83.6716183,63.36 L82.9063071,67.9104 Z" id="Shape" fill="#000000"></path>
            </g>
        </g>
    </g>
</svg>