<?xml version="1.0" encoding="UTF-8"?>
<svg width="87px" height="75px" viewBox="0 0 87 75" version="1.1" xmlns="http://www.w3.org/2000/svg" xmlns:xlink="http://www.w3.org/1999/xlink">
    <title>img_benefit2</title>
    <g id="Page-1" stroke="none" stroke-width="1" fill="none" fill-rule="evenodd">
        <g id="Home" transform="translate(-530.000000, -2394.000000)" fill-rule="nonzero">
            <g id="practice" transform="translate(530.000000, 2394.000000)">
                <path d="M82.65,15.8653846 L82.65,67.7884615 L4.35,67.7884615 L4.35,15.8653846 C4.35477746,14.2742281 5.65035729,12.9855213 7.25,12.9807692 L79.75,12.9807692 C81.3496427,12.9855213 82.6452225,14.2742281 82.65,15.8653846 Z" id="Path" fill="#FFEDED"></path>
                <path d="M82.65,15.8653846 L82.65,67.7884615 L76.85,67.7884615 L76.85,15.8653846 C76.8452225,14.2742281 75.5496427,12.9855213 73.95,12.9807692 L79.75,12.9807692 C81.3496427,12.9855213 82.6452225,14.2742281 82.65,15.8653846 L82.65,15.8653846 Z" id="Path" fill="#FAC0C0"></path>
                <path d="M85.55,64.9038462 L84.506,71.1490385 C84.2691283,72.5359059 83.0637317,73.5523187 81.6495,73.5576923 L5.3505,73.5576923 C3.93626832,73.5523187 2.73087169,72.5359059 2.494,71.1490385 L1.45,64.9038462 L37.7,64.9038462 L37.7,67.7884615 L49.3,67.7884615 L49.3,64.9038462 L85.55,64.9038462 Z" id="Path" fill="#C6C5CA"></path>
                <path d="M85.55,64.9038462 L84.506,71.1490385 C84.2691283,72.5359059 83.0637317,73.5523187 81.6495,73.5576923 L74.3995,73.5576923 C75.8137317,73.5523187 77.0191283,72.5359059 77.256,71.1490385 L78.3,64.9038462 L85.55,64.9038462 Z" id="Path" fill="#ACABB1"></path>
                <ellipse id="Oval" fill="#FFDE55" cx="73.95" cy="53.3653846" rx="2.9" ry="2.88461538"></ellipse>
                <path d="M69.6,30.2884615 L69.6,36.0576923 C69.5952225,37.6488488 68.2996427,38.9375556 66.7,38.9423077 L60.9,38.9423077 L60.9,27.4038462 L66.7,27.4038462 C68.2996427,27.4085983 69.5952225,28.697305 69.6,30.2884615 Z" id="Path" fill="#00D7DF"></path>
                <path d="M69.6,30.2884615 L69.6,36.0576923 C69.5952225,37.6488488 68.2996427,38.9375556 66.7,38.9423077 L60.9,38.9423077 C62.4996427,38.9375556 63.7952225,37.6488488 63.8,36.0576923 L63.8,30.2884615 C63.7952225,28.697305 62.4996427,27.4085983 60.9,27.4038462 L66.7,27.4038462 C68.2996427,27.4085983 69.5952225,28.697305 69.6,30.2884615 Z" id="Path" fill="#00B6BD"></path>
                <path d="M55.1,14.4230769 L55.1,38.9423077 C55.0952225,40.5334642 53.7996427,41.822171 52.2,41.8269231 L34.8,41.8269231 C33.2003573,41.822171 31.9047775,40.5334642 31.9,38.9423077 L31.9,10.0961538 C31.9047775,8.50499731 33.2003573,7.21629058 34.8,7.21153846 L47.85,7.21153846 L47.85,14.4230769 L55.1,14.4230769 Z" id="Path" fill="#FF7956"></path>
                <path d="M55.1,14.4230769 L55.1,38.9423077 C55.0952225,40.5334642 53.7996427,41.822171 52.2,41.8269231 L46.4,41.8269231 C47.9996427,41.822171 49.2952225,40.5334642 49.3,38.9423077 L49.3,14.4230769 L55.1,14.4230769 Z" id="Path" fill="#FF6243"></path>
                <polygon id="Path" fill="#FFDE55" points="50.75 27.4038462 43.5 36.0576923 36.25 27.4038462 40.6 27.4038462 40.6 18.75 46.4 18.75 46.4 27.4038462"></polygon>
                <path d="M26.1,27.4038462 L26.1,38.9423077 L20.3,38.9423077 C18.7003573,38.9375556 17.4047775,37.6488488 17.4,36.0576923 L17.4,30.2884615 C17.4047775,28.697305 18.7003573,27.4085983 20.3,27.4038462 L26.1,27.4038462 Z" id="Path" fill="#00D7DF"></path>
                <ellipse id="Oval" fill="#FFDE55" cx="13.05" cy="53.3653846" rx="2.9" ry="2.88461538"></ellipse>
                <polygon id="Path" fill="#CD2A00" points="55.1 14.4230769 47.85 14.4230769 47.85 7.21153846"></polygon>
                <polygon id="Path" fill="#000000" points="18.85 46.1538462 27.55 46.1538462 27.55 49.0384615 18.85 49.0384615"></polygon>
                <polygon id="Path" fill="#000000" points="30.45 46.1538462 33.35 46.1538462 33.35 49.0384615 30.45 49.0384615"></polygon>
                <polygon id="Path" fill="#000000" points="59.45 46.1538462 68.15 46.1538462 68.15 49.0384615 59.45 49.0384615"></polygon>
                <polygon id="Path" fill="#000000" points="53.65 46.1538462 56.55 46.1538462 56.55 49.0384615 53.65 49.0384615"></polygon>
                <path d="M86.652,63.9663462 C86.3751893,63.6476788 85.9733849,63.4636189 85.55,63.4615385 L84.1,63.4615385 L84.1,15.8653846 C84.0928338,13.4786498 82.1494641,11.5455897 79.75,11.5384615 L66.0765,11.5384615 C64.1282007,4.72154409 57.8748192,0.013724215 50.75,2.04964251e-14 L36.25,2.04964251e-14 C29.1251808,0.013724215 22.8717993,4.72154409 20.9235,11.5384615 L7.25,11.5384615 C4.85053594,11.5455897 2.90716619,13.4786498 2.9,15.8653846 L2.9,63.4615385 L1.45,63.4615385 C1.02661515,63.4636189 0.624810663,63.6476788 0.348,63.9663462 C0.0760673633,64.291505 -0.0450619309,64.7158278 0.0145,65.1346154 L1.073,71.3798077 C1.40737989,73.470026 3.22270575,75.0063975 5.3505,75.0000199 L81.6495,75.0000199 C83.7772943,75.0063975 85.5926201,73.470026 85.927,71.3798077 L86.9855,65.1346154 C87.0450619,64.7158278 86.9239326,64.291505 86.652,63.9663462 Z M36.25,2.88461538 L50.75,2.88461538 C56.2734787,2.89006409 61.1940283,6.35720402 63.0315,11.5384615 L55.6945,11.5384615 L50.3295,6.1875 C50.0530088,5.92183302 49.6844125,5.7720783 49.3,5.76923077 L34.8,5.76923077 C32.4005359,5.77635894 30.4571662,7.70941904 30.45,10.0961538 L30.45,11.5384615 L23.9685,11.5384615 C25.8059717,6.35720402 30.7265213,2.89006409 36.25,2.88461538 L36.25,2.88461538 Z M47.85,15.8653846 L53.65,15.8653846 L53.65,38.9423077 C53.65,39.7388722 53.0008129,40.3846154 52.2,40.3846154 L34.8,40.3846154 C33.9991871,40.3846154 33.35,39.7388722 33.35,38.9423077 L33.35,10.0961538 C33.35,9.2995893 33.9991871,8.65384615 34.8,8.65384615 L46.4,8.65384615 L46.4,14.4230769 C46.4,15.2196415 47.0491871,15.8653846 47.85,15.8653846 Z M49.3,12.9807692 L49.3,9.24519231 L53.0555,12.9807692 L49.3,12.9807692 Z M5.8,15.8653846 C5.8,15.0688201 6.44918711,14.4230769 7.25,14.4230769 L20.3725,14.4230769 C20.329,14.8990385 20.3,15.375 20.3,15.8653846 L20.3,25.9615385 C17.9005359,25.9686666 15.9571662,27.9017267 15.95,30.2884615 L15.95,36.0576923 C15.9571662,38.4444271 17.9005359,40.3774872 20.3,40.3846154 L26.1,40.3846154 C26.9008129,40.3846154 27.55,39.7388722 27.55,38.9423077 L27.55,27.4038462 C27.55,26.6072816 26.9008129,25.9615385 26.1,25.9615385 L23.2,25.9615385 L23.2,15.8653846 C23.1996433,15.3833075 23.2286967,14.9016531 23.287,14.4230769 L30.45,14.4230769 L30.45,38.9423077 C30.4571662,41.3290425 32.4005359,43.2621026 34.8,43.2692308 L37.7,43.2692308 L37.7,50.4807692 C37.7,51.2773338 37.0508129,51.9230769 36.25,51.9230769 L17.139,51.9230769 C16.4327974,49.9362307 14.390284,48.7444153 12.3021871,49.1007755 C10.2140902,49.4571357 8.68778067,51.258016 8.68778067,53.3653846 C8.68778067,55.4727532 10.2140902,57.2736336 12.3021871,57.6299938 C14.390284,57.986354 16.4327974,56.7945385 17.139,54.8076923 L36.25,54.8076923 C38.6494641,54.8005641 40.5928338,52.867504 40.6,50.4807692 L40.6,43.2692308 L46.4,43.2692308 L46.4,50.4807692 C46.4071662,52.867504 48.3505359,54.8005641 50.75,54.8076923 L69.861,54.8076923 C70.5672026,56.7945385 72.609716,57.986354 74.6978129,57.6299938 C76.7859098,57.2736336 78.3122193,55.4727532 78.3122193,53.3653846 C78.3122193,51.258016 76.7859098,49.4571357 74.6978129,49.1007755 C72.609716,48.7444153 70.5672026,49.9362307 69.861,51.9230769 L50.75,51.9230769 C49.9491871,51.9230769 49.3,51.2773338 49.3,50.4807692 L49.3,43.2692308 L52.2,43.2692308 C54.5994641,43.2621026 56.5428338,41.3290425 56.55,38.9423077 L56.55,14.4230769 L63.713,14.4230769 C63.7713033,14.9016531 63.8003567,15.3833075 63.8,15.8653846 L63.8,25.9615385 L60.9,25.9615385 C60.0991871,25.9615385 59.45,26.6072816 59.45,27.4038462 L59.45,38.9423077 C59.45,39.7388722 60.0991871,40.3846154 60.9,40.3846154 L66.7,40.3846154 C69.0994641,40.3774872 71.0428338,38.4444271 71.05,36.0576923 L71.05,30.2884615 C71.0428338,27.9017267 69.0994641,25.9686666 66.7,25.9615385 L66.7,15.8653846 C66.7,15.375 66.671,14.8990385 66.6275,14.4230769 L79.75,14.4230769 C80.5508129,14.4230769 81.2,15.0688201 81.2,15.8653846 L81.2,63.4615385 L49.3,63.4615385 C48.4991871,63.4615385 47.85,64.1072816 47.85,64.9038462 L47.85,66.3461538 L39.15,66.3461538 L39.15,64.9038462 C39.15,64.1072816 38.5008129,63.4615385 37.7,63.4615385 L5.8,63.4615385 L5.8,15.8653846 Z M24.65,28.8461538 L24.65,37.5 L20.3,37.5 C19.4991871,37.5 18.85,36.8542569 18.85,36.0576923 L18.85,30.2884615 C18.85,29.491897 19.4991871,28.8461538 20.3,28.8461538 L24.65,28.8461538 Z M14.5,53.3653846 C14.5,54.1619492 13.8508129,54.8076923 13.05,54.8076923 C12.2491871,54.8076923 11.6,54.1619492 11.6,53.3653846 C11.6,52.5688201 12.2491871,51.9230769 13.05,51.9230769 C13.8508129,51.9230769 14.5,52.5688201 14.5,53.3653846 Z M72.5,53.3653846 C72.5,52.5688201 73.1491871,51.9230769 73.95,51.9230769 C74.7508129,51.9230769 75.4,52.5688201 75.4,53.3653846 C75.4,54.1619492 74.7508129,54.8076923 73.95,54.8076923 C73.1491871,54.8076923 72.5,54.1619492 72.5,53.3653846 Z M66.7,28.8461538 C67.5008129,28.8461538 68.15,29.491897 68.15,30.2884615 L68.15,36.0576923 C68.15,36.8542569 67.5008129,37.5 66.7,37.5 L62.35,37.5 L62.35,28.8461538 L66.7,28.8461538 Z M83.0705,70.9038462 C82.9635601,71.6018567 82.3593331,72.1170181 81.6495,72.1153885 L5.3505,72.1153885 C4.64066695,72.1170181 4.03643987,71.6018567 3.9295,70.9038462 L3.161,66.3461538 L36.25,66.3461538 L36.25,67.7884615 C36.25,68.5850261 36.8991871,69.2307692 37.7,69.2307692 L49.3,69.2307692 C50.1008129,69.2307692 50.75,68.5850261 50.75,67.7884615 L50.75,66.3461538 L83.839,66.3461538 L83.0705,70.9038462 Z" id="Shape" fill="#000000"></path>
                <path d="M52.0695,26.7980769 C51.8316433,26.2868449 51.3163279,25.9601445 50.75,25.9615385 L47.85,25.9615385 L47.85,18.75 C47.85,17.9534355 47.2008129,17.3076923 46.4,17.3076923 L40.6,17.3076923 C39.7991871,17.3076923 39.15,17.9534355 39.15,18.75 L39.15,25.9615385 L36.25,25.9615385 C35.6870113,25.9606278 35.1743815,26.2839533 34.9351113,26.7908643 C34.6958411,27.2977752 34.773186,27.8966316 35.1335,28.3269231 L42.3835,36.9807692 C42.6589709,37.3114476 43.0682572,37.5028213 43.5,37.5028213 C43.9317428,37.5028213 44.3410291,37.3114476 44.6165,36.9807692 L51.8665,28.3269231 C52.2253743,27.8990935 52.3044022,27.3039137 52.0695,26.7980769 L52.0695,26.7980769 Z M43.5,33.8076923 L39.353,28.8461538 L40.6,28.8461538 C41.4008129,28.8461538 42.05,28.2004107 42.05,27.4038462 L42.05,20.1923077 L44.95,20.1923077 L44.95,27.4038462 C44.95,28.2004107 45.5991871,28.8461538 46.4,28.8461538 L47.647,28.8461538 L43.5,33.8076923 Z" id="Shape" fill="#000000"></path>
            </g>
        </g>
    </g>
</svg>