<?xml version="1.0" encoding="UTF-8"?>
<svg width="100px" height="100px" viewBox="0 0 100 100" version="1.1" xmlns="http://www.w3.org/2000/svg" xmlns:xlink="http://www.w3.org/1999/xlink">
    <title>img_jc_sales</title>
    <defs>
        <linearGradient x1="50%" y1="0%" x2="50%" y2="100%" id="linearGradient-1">
            <stop stop-color="#FFF7F7" offset="0%"></stop>
            <stop stop-color="#FFE9E9" offset="59.0444712%"></stop>
            <stop stop-color="#FFD1D1" offset="100%"></stop>
        </linearGradient>
    </defs>
    <g id="Page-1" stroke="none" stroke-width="1" fill="none" fill-rule="evenodd">
        <g id="Syllabus" transform="translate(-1141.000000, -1015.000000)">
            <g id="img_jc_sales" transform="translate(1141.000000, 1015.000000)">
                <circle id="Oval-Copy-13" fill="url(#linearGradient-1)" cx="50" cy="50" r="50"></circle>
                <g id="Group" transform="translate(21.000000, 24.000000)" stroke="#E80000" stroke-linejoin="round" stroke-width="2">
                    <g id="Group-33">
                        <path d="M4.69565217,0.000117391304 L49.3043478,0.000117391304 C51.8975217,0.000117391304 54,2.10259565 54,4.69576957 L54,49.3044652 C54,51.8976391 51.8975217,54.0001174 49.3043478,54.0001174 L4.69565217,54.0001174 C2.10247826,54.0001174 0,51.8976391 0,49.3044652 L0,4.69576957 C0,2.10259565 2.10247826,0.000117391304 4.69565217,0.000117391304 Z" id="Stroke-1"></path>
                        <line x1="3.52173913" y1="9.39142174" x2="50.4782609" y2="9.39142174" id="Stroke-3"></line>
                        <line x1="4.69565217" y1="4.69576957" x2="7.04347826" y2="4.69576957" id="Stroke-5"></line>
                        <line x1="9.39130435" y1="4.69576957" x2="11.7391304" y2="4.69576957" id="Stroke-7"></line>
                        <line x1="46.9565217" y1="4.69576957" x2="49.3043478" y2="4.69576957" id="Stroke-9"></line>
                        <path d="M18.7826087,16.4349 L35.2173913,16.4349 C35.8665652,16.4349 36.3913043,16.960813 36.3913043,17.608813 L36.3913043,45.7827261 C36.3913043,46.4307261 35.8665652,46.9566391 35.2173913,46.9566391 L18.7826087,46.9566391 C18.1346087,46.9566391 17.6086957,46.4307261 17.6086957,45.7827261 L17.6086957,17.608813 C17.6086957,16.960813 18.1346087,16.4349 18.7826087,16.4349 Z" id="Stroke-11"></path>
                        <path d="M36.3913043,43.4349 L46.9565217,43.4349 C47.6056957,43.4349 48.1304348,42.908987 48.1304348,42.260987 L48.1304348,21.1305522 C48.1304348,20.4825522 47.6056957,19.9566391 46.9565217,19.9566391 L36.3913043,19.9566391" id="Stroke-13"></path>
                        <path d="M17.6086957,19.9566391 L7.04347826,19.9566391 C6.39547826,19.9566391 5.86956522,20.4825522 5.86956522,21.1305522 L5.86956522,42.260987 C5.86956522,42.908987 6.39547826,43.4349 7.04347826,43.4349 L17.6086957,43.4349" id="Stroke-15"></path>
                        <path d="M27,21.1305522 C28.9451739,21.1305522 30.5217391,22.7071174 30.5217391,24.6522913 C30.5217391,26.5974652 28.9451739,28.1740304 27,28.1740304 C25.0548261,28.1740304 23.4782609,26.5974652 23.4782609,24.6522913 C23.4782609,22.7071174 25.0548261,21.1305522 27,21.1305522 Z" id="Stroke-17"></path>
                        <line x1="21.1304348" y1="32.8696826" x2="32.8695652" y2="32.8696826" id="Stroke-19"></line>
                        <line x1="21.1304348" y1="42.260987" x2="32.8695652" y2="42.260987" id="Stroke-21"></line>
                        <line x1="21.1304348" y1="37.5653348" x2="23.4782609" y2="37.5653348" id="Stroke-23"></line>
                        <line x1="25.826087" y1="37.5653348" x2="28.173913" y2="37.5653348" id="Stroke-25"></line>
                        <line x1="30.5217391" y1="37.5653348" x2="32.8695652" y2="37.5653348" id="Stroke-27"></line>
                        <line x1="5.86956522" y1="29.3479435" x2="17.6086957" y2="29.3479435" id="Stroke-29"></line>
                        <line x1="36.3913043" y1="29.3479435" x2="48.1304348" y2="29.3479435" id="Stroke-31"></line>
                    </g>
                </g>
            </g>
        </g>
    </g>
</svg>