<?xml version="1.0" encoding="UTF-8"?>
<svg width="124px" height="126px" viewBox="0 0 124 126" version="1.1" xmlns="http://www.w3.org/2000/svg" xmlns:xlink="http://www.w3.org/1999/xlink">
    <title>account</title>
    <g id="Page-1" stroke="none" stroke-width="1" fill="none" fill-rule="evenodd">
        <g id="Bootcamp" transform="translate(-658.000000, -2672.000000)" fill-rule="nonzero">
            <g id="account" transform="translate(658.000000, 2672.000000)">
                <polygon id="Path" fill="#E0E0DE" points="78.4249393 121.72936 72.6646802 102.508935 51.3319301 102.508935 45.571671 121.72936 38.53228 121.72936 38.53228 126.000566 85.4643303 126.000566 85.4643303 121.72936"></polygon>
                <polygon id="Path" fill="#D6D6D4" points="74.5844195 108.915743 72.6646802 102.508935 51.3319301 102.508935 49.4121908 108.915743"></polygon>
                <path d="M6.53315473,17.0848225 C2.99887642,17.0848225 0.133329688,19.953496 0.133329688,23.4916309 L0.133329688,89.6953179 L123.863281,89.6953179 L123.863281,23.4916309 C123.863281,19.953496 120.997734,17.0848225 117.463456,17.0848225 L6.53315473,17.0848225 Z" id="Path" fill="#FC8F8F"></path>
                <polygon id="Path" fill="#E67070" points="0.133329688 85.4241123 123.863281 85.4241123 123.863281 89.6953179 0.133329688 89.6953179"></polygon>
                <path d="M0.133329688,89.6953179 L0.133329688,96.1021263 C0.133329688,99.6402611 2.99887642,102.508935 6.53315473,102.508935 L117.463456,102.508935 C120.997734,102.508935 123.863281,99.6402611 123.863281,96.1021263 L123.863281,89.6953179 L0.133329688,89.6953179 Z" id="Path" fill="#E0E0DE"></path>
                <path d="M104.663805,0 L19.3328048,0 C15.7985265,0 12.9329798,2.86867356 12.9329798,6.40680842 L12.9329798,89.6953179 L111.06363,89.6953179 L111.06363,6.40680842 C111.06363,2.86867356 108.198084,0 104.663805,0 Z" id="Path" fill="#FAC0C0"></path>
                <path d="M23.5993549,89.6953179 L111.06363,89.6953179 L111.06363,6.40680842 C111.059464,4.97195028 110.567811,3.58088856 109.67096,2.46199125 L23.5993549,89.6953179 Z" id="Path" fill="#E7AFAF"></path>
                <polygon id="Path" fill="#FFFFFF" points="19.3328048 6.40680842 23.5993549 6.40680842 23.5993549 10.678014 19.3328048 10.678014"></polygon>
                <polygon id="Path" fill="#FFFFFF" points="27.8659049 6.40680842 32.1324549 6.40680842 32.1324549 10.678014 27.8659049 10.678014"></polygon>
                <polygon id="Path" fill="#FFFFFF" points="36.3990049 6.40680842 40.665555 6.40680842 40.665555 10.678014 36.3990049 10.678014"></polygon>
                <path d="M36.3990049,59.7968786 L87.5976053,59.7968786 C92.3099765,59.7968786 96.1307054,63.6217766 96.1307054,68.3392898 C96.1307054,73.056803 92.3099765,76.881701 87.5976053,76.881701 L36.3990049,76.881701 C31.6866338,76.881701 27.8659049,73.056803 27.8659049,68.3392898 C27.8659049,63.6217766 31.6866338,59.7968786 36.3990049,59.7968786 Z" id="Path" fill="#E0E0DE"></path>
                <g id="Group" transform="translate(34.132400, 66.203687)" fill="#FC8F8F">
                    <polygon id="Path" points="25.7326299 0 29.9991799 0 29.9991799 4.27120561 25.7326299 4.27120561"></polygon>
                    <polygon id="Path" points="34.2657299 0 38.53228 0 38.53228 4.27120561 34.2657299 4.27120561"></polygon>
                    <polygon id="Path" points="17.1995298 0 21.4660798 0 21.4660798 4.27120561 17.1995298 4.27120561"></polygon>
                    <polygon id="Path" points="8.66642975 0 12.9329798 0 12.9329798 4.27120561 8.66642975 4.27120561"></polygon>
                    <polygon id="Path" points="0.133329688 0 4.39987972 0 4.39987972 4.27120561 0.133329688 4.27120561"></polygon>
                </g>
                <path d="M79.0645053,34.1696449 C79.0645053,43.6057141 71.4240891,51.2544674 61.9983051,51.2544674 C52.5725212,51.2544674 44.932105,43.6057141 44.932105,34.1696449 C44.932105,24.7335757 52.5725212,17.0848225 61.9983051,17.0848225 C71.4240891,17.0848225 79.0645053,24.7335757 79.0645053,34.1696449 Z" id="Path" fill="#FC8F8F"></path>
                <path d="M68.3981302,32.0340421 C68.3981302,35.572177 65.5325834,38.4408505 61.9983051,38.4408505 C58.4640268,38.4408505 55.5984801,35.572177 55.5984801,32.0340421 C55.5984801,28.4959072 58.4640268,25.6272337 61.9983051,25.6272337 C65.5325834,25.6272337 68.3981302,28.4959072 68.3981302,32.0340421 Z" id="Path" fill="#FEC9A3"></path>
                <path d="M73.8552727,46.4410188 C71.8938679,41.6119286 67.2054545,38.4544065 61.9983051,38.4544065 C56.7911557,38.4544065 52.1027423,41.6119286 50.1413375,46.4410188 C56.7463655,52.8582549 67.2502448,52.8582549 73.8552727,46.4410188 Z" id="Path" fill="#E94F4F"></path>
                <polygon id="Path" fill="#FC8F8F" points="12.9329798 85.4241123 111.06363 85.4241123 111.06363 89.6953179 12.9329798 89.6953179"></polygon>
                <path d="M107.513728,87.6170677 C106.274178,87.4053844 105.004421,87.7526283 104.044031,88.56495 C103.08364,89.3772716 102.529489,90.5722914 102.53053,91.8309207 C102.53053,89.4721639 100.620166,87.5597151 98.2639804,87.5597151 C95.9077947,87.5597151 93.9974304,89.4721639 93.9974304,91.8309207 C93.9974304,89.4721639 92.0870661,87.5597151 89.7308803,87.5597151 C87.3746946,87.5597151 85.4643303,89.4721639 85.4643303,91.8309207 L85.4643303,72.6104954 C85.5122458,70.464465 84.0164531,68.5926841 81.9144273,68.1682747 C80.6748778,67.9565914 79.405121,68.3038356 78.4447305,69.116157 C77.4843402,69.9284786 76.9301887,71.1234987 76.9312302,72.3821277 L76.9312302,104.644538 L68.0377235,99.3055305 C66.9325452,98.6391973 65.5638327,98.586016 64.4107392,99.1647558 L64.0763734,99.3336855 C62.8024498,99.9729064 61.9983037,101.276375 61.9983037,102.702891 C61.9972636,103.920852 62.5847475,105.064776 63.5743036,105.771777 L76.9312302,115.322552 L111.06363,115.322552 L111.06363,92.0592884 C111.111546,89.9132577 109.615753,88.0425199 107.513728,87.6170677 L107.513728,87.6170677 Z" id="Path" fill="#FEC9A3"></path>
                <polygon id="Path" fill="#E67070" points="111.06363 17.0848225 115.330181 17.0848225 115.330181 89.6953179 111.06363 89.6953179"></polygon>
                <polygon id="Path" fill="#D6D6D4" points="111.06363 89.6953179 115.330181 89.6953179 115.330181 102.508935 111.06363 102.508935"></polygon>
                <path d="M108.290789,87.82458 C99.9701839,103.380694 85.5841188,111.079501 75.9927143,114.652047 L76.9312302,115.322552 L111.06363,115.322552 L111.06363,92.0592884 C111.08863,90.2135769 109.991785,88.5378377 108.290789,87.82458 L108.290789,87.82458 Z" id="Path" fill="#FEC093"></path>
            </g>
        </g>
    </g>
</svg>