<?xml version="1.0" encoding="UTF-8"?>
<svg width="100px" height="100px" viewBox="0 0 100 100" version="1.1" xmlns="http://www.w3.org/2000/svg" xmlns:xlink="http://www.w3.org/1999/xlink">
    <title>img_jc_java</title>
    <defs>
        <linearGradient x1="50%" y1="0%" x2="50%" y2="100%" id="linearGradient-1">
            <stop stop-color="#FFF7F7" offset="0%"></stop>
            <stop stop-color="#FFE9E9" offset="59.0444712%"></stop>
            <stop stop-color="#FFD1D1" offset="100%"></stop>
        </linearGradient>
        <filter id="filter-2">
            <feColorMatrix in="SourceGraphic" type="matrix" values="0 0 0 0 0.909804 0 0 0 0 0.000000 0 0 0 0 0.000000 0 0 0 1.000000 0"></feColorMatrix>
        </filter>
        <filter id="filter-3">
            <feColorMatrix in="SourceGraphic" type="matrix" values="0 0 0 0 0.909804 0 0 0 0 0.000000 0 0 0 0 0.000000 0 0 0 1.000000 0"></feColorMatrix>
        </filter>
    </defs>
    <g id="Page-1" stroke="none" stroke-width="1" fill="none" fill-rule="evenodd">
        <g id="Syllabus" transform="translate(-197.000000, -1015.000000)">
            <g id="img_jc_java" transform="translate(197.000000, 1015.000000)">
                <circle id="Oval-Copy-8" fill="url(#linearGradient-1)" cx="50" cy="50" r="50"></circle>
                <g id="Group" transform="translate(23.000000, 22.000000)">
                    <g filter="url(#filter-2)" id="3-Development-Copy" stroke-linejoin="round">
                        <g id="3-Development" stroke="#000000" stroke-width="2">
                            <path d="M55,4.7826087 C55,2.14124685 52.8587532,0 50.2173913,0 L4.7826087,0 C2.14124685,0 0,2.14124685 0,4.7826087 L0,50.2173913 C0,52.8587532 2.14124685,55 4.7826087,55 L22.7173913,55" id="Path"></path>
                            <line x1="3.58695652" y1="9.56521739" x2="22.7173913" y2="9.56521739" id="Path"></line>
                            <line x1="4.7826087" y1="4.7826087" x2="7.17391304" y2="4.7826087" id="Path"></line>
                            <line x1="9.56521739" y1="4.7826087" x2="11.9565217" y2="4.7826087" id="Path"></line>
                            <rect id="Rectangle" x="26.3043478" y="8.36956522" width="28.6956522" height="46.6304348" rx="1"></rect>
                            <line x1="26.3043478" y1="14.3478261" x2="55" y2="14.3478261" id="Path"></line>
                            <rect id="Rectangle" x="4.7826087" y="14.3478261" width="16.7391304" height="21.5217391"></rect>
                            <rect id="Rectangle" x="4.7826087" y="35.8695652" width="16.7391304" height="4.7826087"></rect>
                            <line x1="13.1521739" y1="40.6521739" x2="13.1521739" y2="35.8695652" id="Path"></line>
                            <line x1="3.58695652" y1="45.4347826" x2="5.97826087" y2="45.4347826" id="Path"></line>
                            <line x1="8.36956522" y1="45.4347826" x2="10.7608696" y2="45.4347826" id="Path"></line>
                            <line x1="13.1521739" y1="45.4347826" x2="22.7173913" y2="45.4347826" id="Path"></line>
                            <line x1="3.58695652" y1="50.2173913" x2="22.7173913" y2="50.2173913" id="Path"></line>
                            <polyline id="Path" points="13.1521739 19.1304348 9.56521739 19.1304348 9.56521739 22.7173913"></polyline>
                        </g>
                    </g>
                    <g transform="translate(32.438628, 24.000000)" id="android-logo" filter="url(#filter-3)">
                        <g transform="translate(-0.000000, 0.000000)" fill="#000000" fill-rule="nonzero">
                            <path d="M1.32215454,6.79054332 C0.959849067,6.79054332 0.652446424,6.91650542 0.39975651,7.1684296 C0.147066595,7.42035379 0.0206836163,7.72265523 0.0206836163,8.07548556 L0.0206836163,13.4928032 C0.0206836163,13.8544657 0.147028574,14.1606715 0.39975651,14.4126336 C0.652446424,14.6645578 0.959849067,14.7905578 1.32215454,14.7905578 C1.68419387,14.7905578 1.98973347,14.6645957 2.23850718,14.4126336 C2.48678662,14.1607094 2.61126853,13.8544657 2.61126853,13.4928032 L2.61126853,8.07548556 C2.61126853,7.72261733 2.48492357,7.42035379 2.23219564,7.1684296 C1.9794677,6.91650542 1.6760573,6.79054332 1.32215454,6.79054332 Z" id="Path"></path>
                            <path d="M11.785555,1.92741336 L12.6827829,0.277283394 C12.7416779,0.168037906 12.7207282,0.084265343 12.6197435,0.0253592058 C12.5101279,-0.0254350181 12.4259106,0.000303249097 12.3670535,0.100754513 L11.4572786,1.76407581 C10.656739,1.41120758 9.81004148,1.23445126 8.91718604,1.23445126 C8.02414049,1.23445126 7.17736693,1.41124549 6.3771315,1.76407581 L5.46731853,0.100754513 C5.40819533,0.000303249097 5.32397803,-0.0252075812 5.21462862,0.0253592058 C5.11341578,0.0845306859 5.09246601,0.168037906 5.15158922,0.277283394 L6.04885513,1.92741336 C5.13904217,2.38998195 4.41443122,3.03419675 3.87528842,3.86146029 C3.33614563,4.6891787 3.06646017,5.59369495 3.06646017,6.57660108 L14.7552128,6.57660108 C14.7552128,5.59392238 14.4854893,4.68936823 13.9463845,3.86146029 C13.4072037,3.03419675 12.6867751,2.38998195 11.785555,1.92741336 Z M6.59818765,4.32755415 C6.50115715,4.42451805 6.38526807,4.47277256 6.25055841,4.47277256 C6.11558261,4.47277256 6.00205085,4.42451805 5.90943083,4.32755415 C5.81681081,4.23104513 5.77050081,4.11596209 5.77050081,3.98120578 C5.77050081,3.84690433 5.81681081,3.73159386 5.90943083,3.6348574 C6.00205085,3.53834838 6.11584876,3.49009386 6.25055841,3.49009386 C6.38526807,3.49009386 6.50115715,3.53834838 6.59818765,3.6348574 C6.69499001,3.7318213 6.74361933,3.84690433 6.74361933,3.98120578 C6.74335318,4.11573466 6.69476189,4.23104513 6.59818765,4.32755415 Z M11.924447,4.32755415 C11.8316368,4.42451805 11.7178389,4.47277256 11.5833574,4.47277256 C11.4483436,4.47277256 11.3324925,4.42451805 11.2356521,4.32755415 C11.1386597,4.23104513 11.0902585,4.11596209 11.0902585,3.98120578 C11.0902585,3.84690433 11.1386597,3.73159386 11.2356521,3.6348574 C11.3324925,3.53834838 11.4483436,3.49009386 11.5833574,3.49009386 C11.7180671,3.49009386 11.8315988,3.53834838 11.924447,3.6348574 C12.017143,3.7318213 12.063377,3.84690433 12.063377,3.98120578 C12.063377,4.11573466 12.017105,4.23104513 11.924447,4.32755415 Z" id="Shape"></path>
                            <path d="M3.11664836,15.4203682 C3.11664836,15.8070866 3.25135802,16.134444 3.52081535,16.4030848 C3.79050081,16.6717256 4.11885321,16.8060271 4.50648091,16.8060271 L5.44165412,16.8060271 L5.45446732,19.6661968 C5.45446732,20.0273664 5.58081227,20.334065 5.83350219,20.5860271 C6.0861921,20.8379892 6.38964053,20.9639513 6.74331515,20.9639513 C7.1053925,20.9639513 7.41298525,20.8379892 7.66571319,20.5860271 C7.91844112,20.334065 8.04478608,20.0274043 8.04478608,19.6661968 L8.04478608,16.8062924 L9.78859743,16.8062924 L9.78859743,19.6661968 C9.78859743,20.0273664 9.91490437,20.334065 10.1676323,20.5860271 C10.4203602,20.8379892 10.7276868,20.9639513 11.0900303,20.9639513 C11.4521077,20.9639513 11.7597004,20.8379892 12.0124284,20.5860271 C12.2651563,20.334065 12.3914632,20.0274043 12.3914632,19.6661968 L12.3914632,16.8062924 L13.3392595,16.8062924 C13.7182944,16.8062924 14.0424265,16.6719531 14.3123781,16.4033123 C14.5817974,16.1346715 14.7165831,15.8073141 14.7165831,15.4206336 L14.7165831,7.02969314 L3.11664836,7.02969314 L3.11664836,15.4203682 Z" id="Path"></path>
                            <path d="M16.5117233,6.79054332 C16.1577825,6.79054332 15.8546002,6.91464801 15.6018723,7.16217509 C15.3491823,7.41015704 15.2228374,7.71477076 15.2228374,8.07548556 L15.2228374,13.4928032 C15.2228374,13.8544657 15.3491443,14.1606715 15.6018723,14.4126336 C15.8546002,14.6645957 16.1580106,14.7905578 16.5117233,14.7905578 C16.8738006,14.7905578 17.1813933,14.6645957 17.4341213,14.4126336 C17.6868492,14.1606715 17.8131562,13.8544657 17.8131562,13.4928032 L17.8131562,8.07548556 C17.8131562,7.71473285 17.6868492,7.41015704 17.4341213,7.16217509 C17.1813933,6.91464801 16.8738006,6.79054332 16.5117233,6.79054332 Z" id="Path"></path>
                        </g>
                    </g>
                </g>
            </g>
        </g>
    </g>
</svg>