<?xml version="1.0" encoding="UTF-8"?>
<svg width="100px" height="100px" viewBox="0 0 100 100" version="1.1" xmlns="http://www.w3.org/2000/svg" xmlns:xlink="http://www.w3.org/1999/xlink">
    <title>img_jc_freontend</title>
    <defs>
        <linearGradient x1="50%" y1="0%" x2="50%" y2="100%" id="linearGradient-1">
            <stop stop-color="#FFF7F7" offset="0%"></stop>
            <stop stop-color="#FFE9E9" offset="59.0444712%"></stop>
            <stop stop-color="#FFD1D1" offset="100%"></stop>
        </linearGradient>
        <polygon id="path-2" points="0 54 54 54 54 0 0 0"></polygon>
    </defs>
    <g id="Page-1" stroke="none" stroke-width="1" fill="none" fill-rule="evenodd">
        <g id="Home" transform="translate(-512.000000, -1089.000000)">
            <g id="Group" transform="translate(103.000000, 1058.000000)">
                <g id="img_jc_freontend" transform="translate(409.000000, 31.000000)">
                    <circle id="Oval-Copy-7" fill="url(#linearGradient-1)" cx="50" cy="50" r="50"></circle>
                    <g id="Group-33" transform="translate(22.000000, 23.000000)">
                        <path d="M5.625,1.1251125 L48.375,1.1251125 C50.860125,1.1251125 52.875,3.1399875 52.875,5.6251125 L52.875,48.3751125 C52.875,50.8602375 50.860125,52.8751125 48.375,52.8751125 L5.625,52.8751125 C3.139875,52.8751125 1.125,50.8602375 1.125,48.3751125 L1.125,5.6251125 C1.125,3.1399875 3.139875,1.1251125 5.625,1.1251125 Z" id="Stroke-1" stroke="#E80000" stroke-width="2" stroke-linejoin="round"></path>
                        <line x1="4.5" y1="10.1251125" x2="49.5" y2="10.1251125" id="Stroke-3" stroke="#E80000" stroke-width="2" stroke-linejoin="round"></line>
                        <line x1="5.625" y1="5.6251125" x2="7.875" y2="5.6251125" id="Stroke-5" stroke="#E80000" stroke-width="2" stroke-linejoin="round"></line>
                        <line x1="10.125" y1="5.6251125" x2="12.375" y2="5.6251125" id="Stroke-7" stroke="#E80000" stroke-width="2" stroke-linejoin="round"></line>
                        <line x1="46.125" y1="5.6251125" x2="48.375" y2="5.6251125" id="Stroke-9" stroke="#E80000" stroke-width="2" stroke-linejoin="round"></line>
                        <mask id="mask-3" fill="white">
                            <use xlink:href="#path-2"></use>
                        </mask>
                        <g id="Clip-12"></g>
                        <polygon id="Stroke-11" stroke="#E80000" stroke-width="2" stroke-linejoin="round" mask="url(#mask-3)" points="5.625 24.75 16.875 24.75 16.875 15.75 5.625 15.75"></polygon>
                        <polygon id="Stroke-13" stroke="#E80000" stroke-width="2" stroke-linejoin="round" mask="url(#mask-3)" points="37.125 24.75 48.375 24.75 48.375 15.75 37.125 15.75"></polygon>
                        <polygon id="Stroke-14" stroke="#E80000" stroke-width="2" stroke-linejoin="round" mask="url(#mask-3)" points="21.375 24.75 32.625 24.75 32.625 15.75 21.375 15.75"></polygon>
                        <line x1="4.5" y1="29.2501125" x2="12.375" y2="29.2501125" id="Stroke-15" stroke="#E80000" stroke-width="2" stroke-linejoin="round" mask="url(#mask-3)"></line>
                        <line x1="20.25" y1="29.2501125" x2="28.125" y2="29.2501125" id="Stroke-16" stroke="#E80000" stroke-width="2" stroke-linejoin="round" mask="url(#mask-3)"></line>
                        <line x1="36" y1="29.2501125" x2="43.875" y2="29.2501125" id="Stroke-17" stroke="#E80000" stroke-width="2" stroke-linejoin="round" mask="url(#mask-3)"></line>
                        <line x1="11.25" y1="47.2501125" x2="13.5" y2="47.2501125" id="Stroke-18" stroke="#E80000" stroke-width="2" stroke-linejoin="round" mask="url(#mask-3)"></line>
                        <line x1="15.75" y1="47.2501125" x2="18" y2="47.2501125" id="Stroke-19" stroke="#E80000" stroke-width="2" stroke-linejoin="round" mask="url(#mask-3)"></line>
                        <line x1="27" y1="47.2501125" x2="29.25" y2="47.2501125" id="Stroke-20" stroke="#E80000" stroke-width="2" stroke-linejoin="round" mask="url(#mask-3)"></line>
                        <line x1="31.5" y1="47.2501125" x2="33.75" y2="47.2501125" id="Stroke-21" stroke="#E80000" stroke-width="2" stroke-linejoin="round" mask="url(#mask-3)"></line>
                        <line x1="42.75" y1="47.2501125" x2="45" y2="47.2501125" id="Stroke-22" stroke="#E80000" stroke-width="2" stroke-linejoin="round" mask="url(#mask-3)"></line>
                        <line x1="47.25" y1="47.2501125" x2="49.5" y2="47.2501125" id="Stroke-23" stroke="#E80000" stroke-width="2" stroke-linejoin="round" mask="url(#mask-3)"></line>
                        <line x1="4.5" y1="33.7501125" x2="18" y2="33.7501125" id="Stroke-24" stroke="#E80000" stroke-width="2" stroke-linejoin="round" mask="url(#mask-3)"></line>
                        <line x1="4.5" y1="38.2501125" x2="18" y2="38.2501125" id="Stroke-25" stroke="#E80000" stroke-width="2" stroke-linejoin="round" mask="url(#mask-3)"></line>
                        <line x1="4.5" y1="42.7501125" x2="18" y2="42.7501125" id="Stroke-26" stroke="#E80000" stroke-width="2" stroke-linejoin="round" mask="url(#mask-3)"></line>
                        <line x1="20.25" y1="33.7501125" x2="33.75" y2="33.7501125" id="Stroke-27" stroke="#E80000" stroke-width="2" stroke-linejoin="round" mask="url(#mask-3)"></line>
                        <line x1="20.25" y1="38.2501125" x2="33.75" y2="38.2501125" id="Stroke-28" stroke="#E80000" stroke-width="2" stroke-linejoin="round" mask="url(#mask-3)"></line>
                        <line x1="20.25" y1="42.7501125" x2="33.75" y2="42.7501125" id="Stroke-29" stroke="#E80000" stroke-width="2" stroke-linejoin="round" mask="url(#mask-3)"></line>
                        <line x1="36" y1="33.7501125" x2="49.5" y2="33.7501125" id="Stroke-30" stroke="#E80000" stroke-width="2" stroke-linejoin="round" mask="url(#mask-3)"></line>
                        <line x1="36" y1="38.2501125" x2="49.5" y2="38.2501125" id="Stroke-31" stroke="#E80000" stroke-width="2" stroke-linejoin="round" mask="url(#mask-3)"></line>
                        <line x1="36" y1="42.7501125" x2="49.5" y2="42.7501125" id="Stroke-32" stroke="#E80000" stroke-width="2" stroke-linejoin="round" mask="url(#mask-3)"></line>
                    </g>
                </g>
            </g>
        </g>
    </g>
</svg>