<?xml version="1.0" encoding="UTF-8"?>
<svg width="496px" height="504px" viewBox="0 0 496 504" version="1.1" xmlns="http://www.w3.org/2000/svg" xmlns:xlink="http://www.w3.org/1999/xlink">
    <title>Group 104</title>
    <defs>
        <path d="M214.087057,2.11608 C107.044608,16.11594 54.3791948,103.41288 44.4090011,119.14146 L44.4090011,119.14146 C16.5133638,163.14786 0.0280652884,218.74608 0,273.6324 L0,273.6324 L0,273.92922 C0.0293246282,326.18808 14.9874037,377.78004 49.2310134,418.0707 L49.2310134,418.0707 C95.678346,472.72086 159.92267,485.7759 193.158627,492.52986 L193.158627,492.52986 C202.315827,494.3907 225.269095,498.59478 255.314606,498.6 L255.314606,498.6 L255.452413,498.6 C299.24002,498.5892 358.0359,489.6522 411.067061,451.58202 L411.067061,451.58202 C418.68085,446.11596 428.317859,439.19748 438.50268,428.46966 L438.50268,428.46966 C515.683482,347.17356 523.855338,152.7912 409.06669,56.57076 L409.06669,56.57076 C363.350134,18.2493 303.087124,0.02412 246.696943,0.02412 L246.696943,0.02412 C235.634722,0.02412 224.711208,0.72648 214.087057,2.11608" id="path-1"></path>
        <path d="M75.5859383,12.05442 C28.115482,31.761 -12.1715198,83.90502 3.59415597,137.16684 L3.59415597,137.16684 C8.71571128,154.46898 6.02522162,173.55744 23.252811,181.0764 L23.252811,181.0764 C32.573905,185.14476 57.9578789,187.5663 67.6094596,184.36032 L67.6094596,184.36032 C93.2616728,175.83894 110.123154,152.51688 96.1716474,126.65394 L96.1716474,126.65394 C91.7038694,118.3716 85.9213406,110.80548 82.063263,102.222 L82.063263,102.222 C78.2051853,93.63834 76.446967,83.44998 80.3802452,74.89998 L80.3802452,74.89998 C88.1012579,58.11768 113.750053,52.78248 130.383054,53.28594 L130.383054,53.28594 C150.015083,53.88012 167.803798,63.59526 178.3684,80.26164 L178.3684,80.26164 C191.535159,101.03328 194.87061,126.2979 192.94364,150.40908 L192.94364,150.40908 C190.881921,176.20866 180.00932,195.91056 163.715262,215.70246 L163.715262,215.70246 C149.686755,232.74234 134.238253,249.09876 124.914461,269.1072 L124.914461,269.1072 C116.354728,287.47566 113.557554,307.82844 113.170937,327.924 L113.170937,327.924 C113.096096,331.81884 93.7360841,368.52444 93.8192006,379.73826 L93.8192006,379.73826 C93.8308945,381.32244 115.776691,386.5707 117.359861,386.58852 L117.359861,386.58852 C125.62221,386.68086 149.025602,386.94276 157.639486,387.039085 L157.639486,387.039085 C159.411018,387.05868 160.871312,385.64208 160.890922,383.86962 L160.890922,383.86962 C161.504221,329.31252 178.276469,277.299 220.734392,240.6582 L220.734392,240.6582 C236.183254,227.32578 252.821113,216.4689 264.833776,199.6407 L264.833776,199.6407 C281.955581,175.65534 290.402333,152.05104 287.964791,122.44968 L287.964791,122.44968 C285.738458,95.4144 276.840862,68.36436 259.227555,47.38824 L259.227555,47.38824 C240.296978,24.84324 212.589702,10.76418 183.792917,4.68864 L183.792917,4.68864 C170.363856,1.85526 156.160302,0.25596 141.879208,0.14328 L141.879208,0.14328 C141.34093,0.13698 140.798694,0.13698 140.260236,0.13698 L140.260236,0.13698 C117.939877,0.13698 95.4980805,3.7881 75.5859383,12.05442" id="path-3"></path>
        <linearGradient x1="167.342476%" y1="-89.7915527%" x2="-11.0946509%" y2="114.454971%" id="linearGradient-5">
            <stop stop-color="#E1463D" offset="0%"></stop>
            <stop stop-color="#E86059" offset="100%"></stop>
        </linearGradient>
        <path d="M0.0780790715,49.90788 C0.0780790715,69.57594 0.141046065,83.01204 17.6208633,89.33022 L17.6208633,89.33022 C22.4372985,91.07118 40.8605412,91.0214663 46.2771418,91.0214663 L46.2771418,91.0214663 C71.351498,91.0214663 85.2502923,68.8257 85.2502923,43.73802 L85.2502923,43.73802 C85.2502923,18.65034 58.6944128,0.1467 33.6198767,0.1467 L33.6198767,0.1467 C8.54534059,0.1467 0.0780790715,24.8202 0.0780790715,49.90788" id="path-6"></path>
        <linearGradient x1="820.764487%" y1="-652.802042%" x2="-134.923846%" y2="216.785154%" id="linearGradient-8">
            <stop stop-color="#E1463D" offset="0%"></stop>
            <stop stop-color="#E86059" offset="100%"></stop>
        </linearGradient>
        <path d="M75.6417091,11.91744 C28.1712528,31.62402 -12.115749,83.76804 3.64992673,137.03004 L3.64992673,137.03004 C8.77148205,154.332 20.6130548,176.11146 37.8406442,183.63078 L37.8406442,183.63078 C47.1620979,187.69896 58.0136496,187.4295 67.6652303,184.22334 L67.6652303,184.22334 C93.3174436,175.70196 110.178925,152.3799 96.2274182,126.51696 L96.2274182,126.51696 C91.7598201,118.2348 85.9771114,110.66868 82.1190337,102.0852 L82.1190337,102.0852 C78.261136,93.50154 76.5027378,83.313 80.436016,74.76318 L80.436016,74.76318 C88.1570287,57.9807 113.806004,52.6455 130.439005,53.14896 L130.439005,53.14896 C150.070854,53.74332 167.859569,63.45846 178.424171,80.12466 L178.424171,80.12466 C191.590929,100.8963 194.926561,126.16092 192.999591,150.2721 L192.999591,150.2721 C190.937512,176.07168 180.065271,195.77376 163.771032,215.56566 L163.771032,215.56566 C149.742706,232.60536 134.294024,248.96196 124.970231,268.97022 L124.970231,268.97022 C116.410498,287.33886 113.613325,307.69182 113.226707,327.7872 L113.226707,327.7872 C113.151867,331.68204 114.4623,372.3561 114.545416,383.56992 L114.545416,383.56992 C114.55729,385.15392 115.832461,386.4339 117.415811,386.45154 L117.415811,386.45154 C125.67816,386.54406 149.081193,386.80578 157.695077,386.902105 L157.695077,386.902105 C159.466609,386.9217 160.926903,385.50528 160.946873,383.73282 L160.946873,383.73282 C161.559991,329.1759 178.332239,277.16202 220.789983,240.52122 L220.789983,240.52122 C236.239025,227.1888 252.876884,216.33192 264.889547,199.50372 L264.889547,199.50372 C282.011531,175.51854 290.458284,151.91424 288.020561,122.3127 L288.020561,122.3127 C285.794229,95.2776 276.896633,68.22756 259.283505,47.25144 L259.283505,47.25144 C240.352749,24.70626 212.645293,10.62738 183.848688,4.55166 L183.848688,4.55166 C170.419807,1.71828 156.216073,0.11916 141.934979,0.00648 L141.934979,0.00648 C141.395262,0 140.854645,0 140.314748,0 L140.314748,0 C117.995827,0 95.5525919,3.65166 75.6417091,11.91744" id="path-9"></path>
        <linearGradient x1="4.94479623%" y1="106.104264%" x2="159.8479%" y2="-114.180361%" id="linearGradient-11">
            <stop stop-color="#FF918E" offset="0%"></stop>
            <stop stop-color="#FD7062" offset="100%"></stop>
        </linearGradient>
        <path d="M0.134029742,45.4509 C0.134029742,70.53858 20.4606746,90.87606 45.5353906,90.87606 L45.5353906,90.87606 C70.6097468,90.87606 90.9367515,70.53858 90.9367515,45.4509 L90.9367515,45.4509 C90.9367515,20.36322 70.6097468,0.02574 45.5353906,0.02574 L45.5353906,0.02574 C20.4606746,0.02574 0.134029742,20.36322 0.134029742,45.4509" id="path-12"></path>
        <linearGradient x1="152.464622%" y1="-63.342143%" x2="-48.1774649%" y2="158.59972%" id="linearGradient-14">
            <stop stop-color="#FF918E" offset="0%"></stop>
            <stop stop-color="#FD7062" offset="100%"></stop>
        </linearGradient>
        <filter id="filter-15">
            <feColorMatrix in="SourceGraphic" type="matrix" values="0 0 0 0 0.901961 0 0 0 0 0.341176 0 0 0 0 0.313725 0 0 0 1.000000 0"></feColorMatrix>
        </filter>
        <path d="M114.100149,0.05328 L1.97680377,4.25178 C0.875780921,4.29318 0.00899528473,5.02326 0.0442339818,5.87862 L0.0442339818,5.87862 L0.0876140733,6.86466 C0.123775118,7.7112 1.03157925,8.36172 2.12126804,8.32194 L2.12126804,8.32194 L114.249111,4.22514 C115.351034,4.18482 116.219259,3.45438 116.183511,2.5983 L116.183511,2.5983 L116.136142,1.5102 C116.100881,0.68832 115.24417,0.05148 114.197299,0.05148 L114.197299,0.05148 C114.165095,0.05148 114.132712,0.05202 114.100149,0.05328" id="path-16"></path>
        <linearGradient x1="0.00018544299%" y1="49.9986132%" x2="100.000153%" y2="49.9986132%" id="linearGradient-18">
            <stop stop-color="#DAE2FD" offset="0%"></stop>
            <stop stop-color="#E8EFFD" offset="100%"></stop>
        </linearGradient>
        <filter id="filter-19">
            <feColorMatrix in="SourceGraphic" type="matrix" values="0 0 0 0 0.901961 0 0 0 0 0.341176 0 0 0 0 0.313725 0 0 0 1.000000 0"></feColorMatrix>
        </filter>
        <path d="M114.141348,0.01368 L2.01692274,4.19112 C0.915899891,4.23198 0.0500137831,4.98708 0.0879738847,5.87304 L0.0879738847,5.87304 L0.131690968,6.89436 C0.169111353,7.77132 1.07799492,8.44632 2.16750381,8.40672 L2.16750381,8.40672 L114.296427,4.3353 C115.398529,4.29534 116.265314,3.53988 116.227714,2.65302 L116.227714,2.65302 L116.179499,1.52622 C116.142979,0.67374 115.283029,0.01206 114.234359,0.01206 L114.234359,0.01206 C114.203415,0.01206 114.172651,0.0126 114.141348,0.01368" id="path-20"></path>
        <linearGradient x1="3.48488713e-05%" y1="50.0005967%" x2="99.9999077%" y2="50.0005967%" id="linearGradient-22">
            <stop stop-color="#DAE2FD" offset="0%"></stop>
            <stop stop-color="#E8EFFD" offset="100%"></stop>
        </linearGradient>
        <filter id="filter-23">
            <feColorMatrix in="SourceGraphic" type="matrix" values="0 0 0 0 0.901961 0 0 0 0 0.341176 0 0 0 0 0.313725 0 0 0 1.000000 0"></feColorMatrix>
        </filter>
        <path d="M127.240641,0.01458 L2.2461226,4.73634 C1.01880595,4.7826 0.0503735945,5.54904 0.0875943715,6.44382 L0.0875943715,6.44382 L0.132770403,7.47522 C0.170550598,8.36064 1.18072107,9.03834 2.39508451,8.99352 L2.39508451,8.99352 L127.393921,4.3785 C128.622497,4.33296 129.592189,3.56634 129.555136,2.67084 L129.555136,2.67084 L129.505474,1.5327 C129.468773,0.67518 128.519951,0.01242 127.35722,0.01224 L127.35722,0.01224 C127.31854,0.01224 127.279681,0.01296 127.240641,0.01458" id="path-24"></path>
        <linearGradient x1="-1.02952012e-05%" y1="50.0005189%" x2="100.00006%" y2="50.0005189%" id="linearGradient-26">
            <stop stop-color="#DAE2FD" offset="0%"></stop>
            <stop stop-color="#E8EFFD" offset="100%"></stop>
        </linearGradient>
        <filter id="filter-27">
            <feColorMatrix in="SourceGraphic" type="matrix" values="0 0 0 0 0.901961 0 0 0 0 0.341176 0 0 0 0 0.313725 0 0 0 1.000000 0"></feColorMatrix>
        </filter>
        <path d="M62.1610156,0.05742 L1.04903011,1.83978 C0.448864708,1.85742 -6.9388939e-18,2.68146 0.0491142546,3.67596 L0.0491142546,3.67596 L0.105964454,4.82238 C0.154359086,5.80644 0.672487486,6.58692 1.26635618,6.57072 L1.26635618,6.57072 L62.3840987,4.90698 C62.9848038,4.8906 63.434568,4.0662 63.3852738,3.07098 L63.3852738,3.07098 L63.3230265,1.80576 C63.2748118,0.83178 62.7665782,0.05706 62.1804454,0.05706 L62.1804454,0.05706 C62.1739688,0.05706 62.1674922,0.05724 62.1610156,0.05742" id="path-28"></path>
        <linearGradient x1="0.000241176543%" y1="50.0011967%" x2="99.9999777%" y2="50.0011967%" id="linearGradient-30">
            <stop stop-color="#DAE2FD" offset="0%"></stop>
            <stop stop-color="#E8EFFD" offset="100%"></stop>
        </linearGradient>
        <filter id="filter-31">
            <feColorMatrix in="SourceGraphic" type="matrix" values="0 0 0 0 0.901961 0 0 0 0 0.341176 0 0 0 0 0.313725 0 0 0 1.000000 0"></feColorMatrix>
        </filter>
        <path d="M58.7953399,0.10404 L1.03247878,1.76076 C0.465056221,1.77714 0.0437170838,2.60028 0.0930112441,3.5946 L0.0930112441,3.5946 L0.150041349,4.74102 C0.199155604,5.72508 0.691197679,6.50664 1.25250345,6.4917 L1.25250345,6.4917 L59.0214813,4.9536 C59.5889039,4.93848 60.0113225,4.11498 59.9618484,3.11958 L59.9618484,3.11958 L59.8988814,1.85472 C59.8504868,0.87984 59.3670802,0.10386 58.8124309,0.10386 L58.8124309,0.10386 C58.8068538,0.10386 58.8010968,0.10386 58.7953399,0.10404" id="path-32"></path>
        <linearGradient x1="0.000118975054%" y1="49.9991657%" x2="100.000039%" y2="49.9991657%" id="linearGradient-34">
            <stop stop-color="#DAE2FD" offset="0%"></stop>
            <stop stop-color="#E8EFFD" offset="100%"></stop>
        </linearGradient>
        <path d="M0.0239274574,13.10814 C-0.197716358,15.64074 1.75390062,17.83998 4.29290968,17.94582 L4.29290968,17.94582 C12.9184882,18.3051 31.3688966,19.00404 37.9896061,18.70848 L37.9896061,18.70848 C38.9848444,18.6642 39.6355633,17.6445 39.2672963,16.71858 L39.2672963,16.71858 C38.9585782,15.94242 38.3632702,15.31494 37.6047878,14.9661 L37.6047878,14.9661 L7.12804353,0.95166 L1.74634458,0.08118 C1.74634458,0.08118 0.59045049,6.62778 0.0239274574,13.10814" id="path-35"></path>
        <path d="M0.0798781284,1.2744 L1.00855132,9.10512 C1.00855132,9.10512 6.34725281,11.59182 9.99322162,8.79174 L9.99322162,8.79174 L7.78218063,0.06498 L0.0798781284,1.2744 Z" id="path-37"></path>
        <linearGradient x1="5.58953233e-05%" y1="50.0004567%" x2="99.9993302%" y2="50.0004567%" id="linearGradient-39">
            <stop stop-color="#FDBABA" offset="0%"></stop>
            <stop stop-color="#FF918E" offset="100%"></stop>
        </linearGradient>
        <path d="M1.08878926,34.4043 C1.08878926,34.4043 -1.04435256,-19.3095 1.08878926,36.29772 L1.08878926,36.29772 C2.99794849,86.06232 17.6320174,138.15738 20.6859166,148.55508 L20.6859166,148.55508 C21.0221603,149.70006 22.09116,150.4755 23.2832151,150.436848 L23.2832151,150.436848 C27.1333769,150.30612 30.3459528,149.33592 31.984354,148.66614 L31.984354,148.66614 C32.6800493,148.38156 33.0506551,147.6279 32.8763264,146.89674 L32.8763264,146.89674 C22.1924469,102.0825 23.9441886,2.08044 24.3453783,0.03546 L24.3453783,0.03546 L2.34003337,0.03132 L1.08878926,34.4043 Z" id="path-40"></path>
        <path d="M0.127373232,12.1635 C-0.194118244,13.74948 0.913561117,15.2676 2.52335727,15.426 L2.52335727,15.426 C5.37144432,15.70608 9.75610591,16.06644 13.2682249,16.04214 L13.2682249,16.04214 C14.8873761,16.03098 16.1508538,14.62068 15.9558361,13.01238 L15.9558361,13.01238 C15.5667,9.80676 14.3546754,4.54752 10.610658,0.44838 L10.610658,0.44838 L3.74851505,0.07632 C3.74851505,0.07632 1.90879942,3.3813 0.127373232,12.1635" id="path-42"></path>
        <path d="M0.153639463,0.62442 L2.32348205,12.46644 C2.32348205,12.46644 4.46885745,14.06322 8.71283279,12.90564 L8.71283279,12.90564 L7.67711571,0.16434 L0.153639463,0.62442 Z" id="path-44"></path>
        <linearGradient x1="-0.000120018497%" y1="49.9999115%" x2="100.000297%" y2="49.9999115%" id="linearGradient-46">
            <stop stop-color="#FDBABA" offset="0%"></stop>
            <stop stop-color="#FF918E" offset="100%"></stop>
        </linearGradient>
        <path d="M3.46714255,5.62428 C-5.27069713,58.38624 5.36262894,136.02978 8.94886906,151.22628 L8.94886906,151.22628 C9.16835401,152.15688 9.91892057,152.86968 10.8612666,153.02574 L10.8612666,153.02574 C12.4622474,153.29142 15.0976859,153.50814 17.6958839,152.75304 L17.6958839,152.75304 C18.5910947,152.49276 19.2198651,151.68492 19.2565658,150.7527 L19.2565658,150.7527 C19.7376337,138.46662 18.8715676,63.0423 27.0135597,33.23412 L27.0135597,33.23412 C27.4260834,31.72338 28.3481001,30.40596 29.6238114,29.49858 L29.6238114,29.49858 L45.4265477,18.25848 L46.6380326,0.08964 L3.46714255,5.62428 Z" id="path-47"></path>
        <path d="M58.9658905,4.29066 C32.7797171,3.85776 3.88650272,11.1699 3.88650272,11.1699 L3.88650272,11.1699 C-3.91906565,56.7387 2.52155822,109.29906 2.52155822,109.29906 L2.52155822,109.29906 C22.7940515,114.61824 45.6627639,106.047 45.6627639,106.047 L45.6627639,106.047 C49.0323975,87.0003 64.7530968,33.39666 64.7530968,33.39666 L64.7530968,33.39666 C77.5474501,31.80798 88.0874052,28.11474 96.7667755,23.23152 L96.7667755,23.23152 C90.1462459,15.55344 87.025062,5.78322 85.6694726,0.00774 L85.6694726,0.00774 C76.4111658,2.88648 67.0425767,4.42422 58.9658905,4.29066" id="path-49"></path>
        <path d="M44.8515691,0.42174 C40.9979891,16.70796 20.7926007,29.91294 0.0343619877,36.36774 L0.0343619877,36.36774 C1.3899514,42.14322 4.51113529,51.91344 11.1316649,59.59152 L11.1316649,59.59152 C45.5819862,40.21164 50.6796141,2.05974 50.6796141,2.05974 L50.6796141,2.05974 C49.3580268,0.4626 47.8556344,0.0741599301 46.7074762,0.0741599301 L46.7074762,0.0741599301 C45.6208458,0.0741599301 44.8515691,0.42174 44.8515691,0.42174" id="path-51"></path>
        <linearGradient x1="75.0388201%" y1="-49.1945404%" x2="50.0319888%" y2="34.8141631%" id="linearGradient-53">
            <stop stop-color="#FDBABA" offset="0%"></stop>
            <stop stop-color="#FF918E" offset="100%"></stop>
        </linearGradient>
        <path d="M0.493841132,16.47378 C-0.508413493,17.84106 0.51147189,25.03044 0.575698223,26.70858 L0.575698223,26.70858 C2.41091621,30.20994 5.52814218,28.90638 5.25864345,28.0503 L5.25864345,28.0503 C5.25864345,28.0503 8.32639536,28.02726 10.4780675,24.96888 L10.4780675,24.96888 C11.6147116,23.35266 12.8168415,21.28788 13.6981995,19.69938 L13.6981995,19.69938 C14.5761393,18.11646 14.8542735,16.25796 14.3996518,14.5188 L14.3996518,14.5188 C13.7993065,12.22254 12.5183779,10.61964 11.4682684,8.72118 L11.4682684,8.72118 L16.4887167,3.4884 C16.4887167,3.4884 17.9297613,1.79208 16.1807182,0.06534 L16.1807182,0.06534 C16.1807182,0.06534 5.83164309,9.19278 0.493841132,16.47378" id="path-54"></path>
        <linearGradient x1="59.0678294%" y1="4.02305689%" x2="23.6029166%" y2="176.744149%" id="linearGradient-56">
            <stop stop-color="#FDBABA" offset="0%"></stop>
            <stop stop-color="#FF918E" offset="100%"></stop>
        </linearGradient>
        <path d="M1.45903518,3.93678 L0.0226681175,7.80012 L4.10184984,12.32766 C4.10184984,12.32766 5.47327095,4.662 6.49261661,3.00276 L6.49261661,3.00276 C7.51196228,1.34388 6.98339935,0.54144 6.0342169,0.05616 L6.0342169,0.05616 L1.45903518,3.93678 Z" id="path-57"></path>
        <linearGradient x1="16.4843785%" y1="171.604466%" x2="77.9306756%" y2="-45.0843944%" id="linearGradient-59">
            <stop stop-color="#FDBABA" offset="0%"></stop>
            <stop stop-color="#FF918E" offset="100%"></stop>
        </linearGradient>
        <path d="M0.05181284,37.71972 C4.67341023,38.06028 13.0831019,39.26304 21.3148669,43.4214 L21.3148669,43.4214 C23.1236387,33.46686 38.5775379,25.3791 38.5775379,25.3791 L38.5775379,25.3791 L28.5335829,0.0099 C28.5335829,0.0099 4.07432427,16.63758 0.05181284,37.71972" id="path-60"></path>
        <path d="M3.75265288,20.0466 C19.9835647,49.75272 64.1261255,18.40482 64.1261255,18.40482 L64.1261255,18.40482 L60.4918506,11.63034 C60.4918506,11.63034 33.0303257,27.15858 23.7642829,13.89942 L23.7642829,13.89942 C21.8405513,11.14614 21.3805325,8.41014 21.854584,5.8014 L21.854584,5.8014 C13.622819,1.64304 5.21312731,0.44028 0.591529924,0.09972 L0.591529924,0.09972 C-0.621214363,6.45534 0.0201494378,13.2147 3.75265288,20.0466" id="path-62"></path>
        <linearGradient x1="-4.14310316e-05%" y1="49.9998742%" x2="99.9998953%" y2="49.9998742%" id="linearGradient-64">
            <stop stop-color="#FDBABA" offset="0%"></stop>
            <stop stop-color="#FF918E" offset="100%"></stop>
        </linearGradient>
        <path d="M0.378701487,6.2667 C-0.463257164,9.31374 1.62418861,17.90316 1.62418861,17.90316 L1.62418861,17.90316 C5.13576786,18.40176 7.2408444,16.90416 8.76716431,15.40692 L8.76716431,15.40692 C10.4070047,13.7979 11.3788553,12.1887 12.7092579,13.05594 L12.7092579,13.05594 C15.2781313,14.73012 16.7776453,12.11976 16.7776453,12.11976 L16.7776453,12.11976 L14.3933551,9.48816 C17.8851447,11.1861 18.2512528,8.00784 18.2512528,8.00784 L18.2512528,8.00784 L15.6879565,6.02352 C19.8216496,7.30404 20.1456598,3.33468 20.1456598,3.33468 L20.1456598,3.33468 C20.1456598,3.33468 13.7302227,1.04238 8.29131375,0.17172 L8.29131375,0.17172 C7.76670874,0.08784 7.27826478,0.04842 6.82184403,0.04842 L6.82184403,0.04842 C2.54584548,0.04878 1.13970258,3.51306 0.378701487,6.2667" id="path-65"></path>
        <linearGradient x1="-0.000468052763%" y1="50.0000465%" x2="100.000457%" y2="50.0000465%" id="linearGradient-67">
            <stop stop-color="#FDBABA" offset="0%"></stop>
            <stop stop-color="#FF918E" offset="100%"></stop>
        </linearGradient>
        <path d="M8.514037,0.1206 L0.182064563,24.22872 C0.0440768952,24.62814 0.208150889,25.0704 0.577857091,25.2747 L0.577857091,25.2747 C2.84898658,26.53128 11.0316373,30.16278 20.8926282,23.90742 L20.8926282,23.90742 C21.9198897,23.256 22.6191832,22.1931 22.7751614,20.9862 L22.7751614,20.9862 L25.473387,0.1206 L8.514037,0.1206 Z" id="path-68"></path>
        <linearGradient x1="5.18105004e-05%" y1="49.999776%" x2="99.9999475%" y2="49.999776%" id="linearGradient-70">
            <stop stop-color="#FDBABA" offset="0%"></stop>
            <stop stop-color="#FF918E" offset="100%"></stop>
        </linearGradient>
        <path d="M0.0696235038,6.50934 L6.98879652,25.11576 C16.890626,30.7692 28.2299021,31.26888 29.4025274,24.30828 L29.4025274,24.30828 C30.5755125,17.3475 21.4260486,0.11574 21.4260486,0.11574 L21.4260486,0.11574 L0.0696235038,6.50934 Z" id="path-71"></path>
        <linearGradient x1="89.0495923%" y1="67.6174014%" x2="-5.5982491%" y2="10.073779%" id="linearGradient-73">
            <stop stop-color="#FDBABA" offset="0%"></stop>
            <stop stop-color="#FF918E" offset="100%"></stop>
        </linearGradient>
        <path d="M27.9550062,3.65508 C27.6707552,4.02426 27.1137671,4.03218 26.8302358,3.66282 L26.8302358,3.66282 C25.6056177,2.0682 22.3860254,-1.24146 17.9164483,0.76482 L17.9164483,0.76482 C13.733461,2.64276 13.2624679,5.70942 13.3200377,7.25526 L13.3200377,7.25526 C13.336589,7.70976 12.930362,8.06328 12.4836561,7.97814 L12.4836561,7.97814 C10.3688647,7.57458 5.29408487,7.2279 2.92526659,12.43674 L2.92526659,12.43674 C0.974189336,16.72722 2.24216467,19.15578 3.39715923,20.34378 L3.39715923,20.34378 C3.77136308,20.72862 3.60728908,21.36222 3.09419804,21.51918 L3.09419804,21.51918 C1.70442655,21.94488 -0.0903126587,23.12406 0.0892332245,26.38206 L0.0892332245,26.38206 C0.337862894,30.8862 5.3707247,30.4893 6.80367356,30.28428 L6.80367356,30.28428 C7.0386304,30.25044 7.27520638,30.33126 7.43424302,30.50694 L7.43424302,30.50694 C8.66299891,31.86756 14.198877,37.64412 20.1904563,38.34054 L20.1904563,38.34054 C20.7093043,38.40066 21.1113935,37.88802 20.9415626,37.39392 L20.9415626,37.39392 L18.3484019,29.85246 C18.2278651,29.50236 18.3955372,29.11806 18.7339398,28.96812 L18.7339398,28.96812 L20.0199057,28.39824 C20.4221748,28.21986 20.5707769,27.7272 20.3295234,27.35874 L20.3295234,27.35874 C19.5965876,26.23842 18.2226478,23.9526 17.7842176,21.95136 L17.7842176,21.95136 C17.7842176,21.95136 16.1393399,20.89728 21.9704432,19.5012 L21.9704432,19.5012 C27.8017265,18.10458 36.4972884,15.93702 38.3249503,10.971 L38.3249503,10.971 C39.624769,7.43976 37.4855103,0.00648 33.3341864,0.00648 L33.3341864,0.00648 C31.7938339,0.00648 29.9766065,1.0296 27.9550062,3.65508" id="path-74"></path>
        <path d="M0.0390395357,1.58274 C-0.436811026,5.34852 5.90540443,7.03746 9.04673776,5.63346 L9.04673776,5.63346 L7.0294552,2.2887 C7.0294552,2.2887 3.8035662,0.07434 1.72619514,0.07416 L1.72619514,0.07416 C0.851313747,0.07416 0.1800856,0.46674 0.0390395357,1.58274" id="path-76"></path>
        <linearGradient x1="193.86547%" y1="112.772235%" x2="-83.6393803%" y2="-0.647671195%" id="linearGradient-78">
            <stop stop-color="#FDBABA" offset="0%"></stop>
            <stop stop-color="#FF918E" offset="100%"></stop>
        </linearGradient>
    </defs>
    <g id="Page-1" stroke="none" stroke-width="1" fill="none" fill-rule="evenodd">
        <g id="FAQ-Page" transform="translate(-103.000000, -527.000000)">
            <g id="Group-104" transform="translate(103.000000, 527.000000)">
                <g id="Group-3" transform="translate(0.000000, 5.400000)">
                    <mask id="mask-2" fill="white">
                        <use xlink:href="#path-1"></use>
                    </mask>
                    <g id="Clip-2"></g>
                    <path d="M214.087057,2.11608 C107.044608,16.11594 54.3791948,103.41288 44.4090011,119.14146 L44.4090011,119.14146 C16.5133638,163.14786 0.0280652884,218.74608 0,273.6324 L0,273.6324 L0,273.92922 C0.0293246282,326.18808 14.9874037,377.78004 49.2310134,418.0707 L49.2310134,418.0707 C95.678346,472.72086 159.92267,485.7759 193.158627,492.52986 L193.158627,492.52986 C202.315827,494.3907 225.269095,498.59478 255.314606,498.6 L255.314606,498.6 L255.452413,498.6 C299.24002,498.5892 358.0359,489.6522 411.067061,451.58202 L411.067061,451.58202 C418.68085,446.11596 428.317859,439.19748 438.50268,428.46966 L438.50268,428.46966 C515.683482,347.17356 523.855338,152.7912 409.06669,56.57076 L409.06669,56.57076 C363.350134,18.2493 303.087124,0.02412 246.696943,0.02412 L246.696943,0.02412 C235.634722,0.02412 224.711208,0.72648 214.087057,2.11608" id="Fill-1" fill="#FFDEDE" mask="url(#mask-2)"></path>
                </g>
                <g id="Group-6" transform="translate(126.653609, 5.580000)">
                    <mask id="mask-4" fill="white">
                        <use xlink:href="#path-3"></use>
                    </mask>
                    <g id="Clip-5"></g>
                    <path d="M75.5859383,12.05442 C28.115482,31.761 -12.1715198,83.90502 3.59415597,137.16684 L3.59415597,137.16684 C8.71571128,154.46898 6.02522162,173.55744 23.252811,181.0764 L23.252811,181.0764 C32.573905,185.14476 57.9578789,187.5663 67.6094596,184.36032 L67.6094596,184.36032 C93.2616728,175.83894 110.123154,152.51688 96.1716474,126.65394 L96.1716474,126.65394 C91.7038694,118.3716 85.9213406,110.80548 82.063263,102.222 L82.063263,102.222 C78.2051853,93.63834 76.446967,83.44998 80.3802452,74.89998 L80.3802452,74.89998 C88.1012579,58.11768 113.750053,52.78248 130.383054,53.28594 L130.383054,53.28594 C150.015083,53.88012 167.803798,63.59526 178.3684,80.26164 L178.3684,80.26164 C191.535159,101.03328 194.87061,126.2979 192.94364,150.40908 L192.94364,150.40908 C190.881921,176.20866 180.00932,195.91056 163.715262,215.70246 L163.715262,215.70246 C149.686755,232.74234 134.238253,249.09876 124.914461,269.1072 L124.914461,269.1072 C116.354728,287.47566 113.557554,307.82844 113.170937,327.924 L113.170937,327.924 C113.096096,331.81884 93.7360841,368.52444 93.8192006,379.73826 L93.8192006,379.73826 C93.8308945,381.32244 115.776691,386.5707 117.359861,386.58852 L117.359861,386.58852 C125.62221,386.68086 149.025602,386.94276 157.639486,387.039085 L157.639486,387.039085 C159.411018,387.05868 160.871312,385.64208 160.890922,383.86962 L160.890922,383.86962 C161.504221,329.31252 178.276469,277.299 220.734392,240.6582 L220.734392,240.6582 C236.183254,227.32578 252.821113,216.4689 264.833776,199.6407 L264.833776,199.6407 C281.955581,175.65534 290.402333,152.05104 287.964791,122.44968 L287.964791,122.44968 C285.738458,95.4144 276.840862,68.36436 259.227555,47.38824 L259.227555,47.38824 C240.296978,24.84324 212.589702,10.76418 183.792917,4.68864 L183.792917,4.68864 C170.363856,1.85526 156.160302,0.25596 141.879208,0.14328 L141.879208,0.14328 C141.34093,0.13698 140.798694,0.13698 140.260236,0.13698 L140.260236,0.13698 C117.939877,0.13698 95.4980805,3.7881 75.5859383,12.05442" id="Fill-4" fill="url(#linearGradient-5)" mask="url(#mask-4)"></path>
                </g>
                <g id="Group-9" transform="translate(225.421835, 410.040000)">
                    <mask id="mask-7" fill="white">
                        <use xlink:href="#path-6"></use>
                    </mask>
                    <g id="Clip-8"></g>
                    <path d="M0.0780790715,49.90788 C0.0780790715,69.57594 0.141046065,83.01204 17.6208633,89.33022 L17.6208633,89.33022 C22.4372985,91.07118 40.8605412,91.0214663 46.2771418,91.0214663 L46.2771418,91.0214663 C71.351498,91.0214663 85.2502923,68.8257 85.2502923,43.73802 L85.2502923,43.73802 C85.2502923,18.65034 58.6944128,0.1467 33.6198767,0.1467 L33.6198767,0.1467 C8.54534059,0.1467 0.0780790715,24.8202 0.0780790715,49.90788" id="Fill-7" fill="url(#linearGradient-8)" mask="url(#mask-7)"></path>
                </g>
                <g id="Group-12" transform="translate(104.885020, 0.000000)">
                    <mask id="mask-10" fill="white">
                        <use xlink:href="#path-9"></use>
                    </mask>
                    <g id="Clip-11"></g>
                    <path d="M75.6417091,11.91744 C28.1712528,31.62402 -12.115749,83.76804 3.64992673,137.03004 L3.64992673,137.03004 C8.77148205,154.332 20.6130548,176.11146 37.8406442,183.63078 L37.8406442,183.63078 C47.1620979,187.69896 58.0136496,187.4295 67.6652303,184.22334 L67.6652303,184.22334 C93.3174436,175.70196 110.178925,152.3799 96.2274182,126.51696 L96.2274182,126.51696 C91.7598201,118.2348 85.9771114,110.66868 82.1190337,102.0852 L82.1190337,102.0852 C78.261136,93.50154 76.5027378,83.313 80.436016,74.76318 L80.436016,74.76318 C88.1570287,57.9807 113.806004,52.6455 130.439005,53.14896 L130.439005,53.14896 C150.070854,53.74332 167.859569,63.45846 178.424171,80.12466 L178.424171,80.12466 C191.590929,100.8963 194.926561,126.16092 192.999591,150.2721 L192.999591,150.2721 C190.937512,176.07168 180.065271,195.77376 163.771032,215.56566 L163.771032,215.56566 C149.742706,232.60536 134.294024,248.96196 124.970231,268.97022 L124.970231,268.97022 C116.410498,287.33886 113.613325,307.69182 113.226707,327.7872 L113.226707,327.7872 C113.151867,331.68204 114.4623,372.3561 114.545416,383.56992 L114.545416,383.56992 C114.55729,385.15392 115.832461,386.4339 117.415811,386.45154 L117.415811,386.45154 C125.67816,386.54406 149.081193,386.80578 157.695077,386.902105 L157.695077,386.902105 C159.466609,386.9217 160.926903,385.50528 160.946873,383.73282 L160.946873,383.73282 C161.559991,329.1759 178.332239,277.16202 220.789983,240.52122 L220.789983,240.52122 C236.239025,227.1888 252.876884,216.33192 264.889547,199.50372 L264.889547,199.50372 C282.011531,175.51854 290.458284,151.91424 288.020561,122.3127 L288.020561,122.3127 C285.794229,95.2776 276.896633,68.22756 259.283505,47.25144 L259.283505,47.25144 C240.352749,24.70626 212.645293,10.62738 183.848688,4.55166 L183.848688,4.55166 C170.419807,1.71828 156.216073,0.11916 141.934979,0.00648 L141.934979,0.00648 C141.395262,0 140.854645,0 140.314748,0 L140.314748,0 C117.995827,0 95.5525919,3.65166 75.6417091,11.91744" id="Fill-10" fill="url(#linearGradient-11)" mask="url(#mask-10)"></path>
                </g>
                <g id="Group-15" transform="translate(203.653246, 408.780000)">
                    <mask id="mask-13" fill="white">
                        <use xlink:href="#path-12"></use>
                    </mask>
                    <g id="Clip-14"></g>
                    <path d="M0.134029742,45.4509 C0.134029742,70.53858 20.4606746,90.87606 45.5353906,90.87606 L45.5353906,90.87606 C70.6097468,90.87606 90.9367515,70.53858 90.9367515,45.4509 L90.9367515,45.4509 C90.9367515,20.36322 70.6097468,0.02574 45.5353906,0.02574 L45.5353906,0.02574 C20.4606746,0.02574 0.134029742,20.36322 0.134029742,45.4509" id="Fill-13" fill="url(#linearGradient-14)" mask="url(#mask-13)"></path>
                </g>
                <g id="Group-30" transform="translate(121.076532, 13.860000)">
                    <path d="M2.48651259,117.95256 C2.21935263,117.95256 1.978279,117.76752 1.9183704,117.49536 C-1.26344171,103.12182 -1.7306568,80.61318 14.1125583,55.00746 C29.5758125,30.01536 51.2665024,13.29282 78.5824836,5.3037 C107.782617,-3.23532 142.449905,-1.40724 181.625449,10.73754 C181.932908,10.83294 182.105258,11.15964 182.009548,11.46708 C181.914737,11.77452 181.58587,11.94732 181.28111,11.85138 C106.018642,-11.48184 47.0030973,4.06314 15.1029391,55.62108 C-0.533744215,80.89344 -0.0789426188,103.08078 3.05591411,117.24354 C3.12535771,117.55782 2.92710163,117.86904 2.61298629,117.93852 C2.57088836,117.94806 2.5280708,117.95256 2.48651259,117.95256" id="Fill-16" fill="#FFFFFF"></path>
                    <path d="M12.0369863,141.07905 C11.8570806,141.07905 11.6802333,140.99625 11.5661731,140.84001 C11.4283653,140.65137 8.15642046,136.12851 5.11367544,128.16261 C4.99907552,127.86165 5.14929677,127.52487 5.450279,127.41003 C5.74892245,127.29573 6.08732506,127.44495 6.20246471,127.74627 C9.18476141,135.55413 12.4739772,140.10723 12.5072598,140.15241 C12.6967005,140.41233 12.6396704,140.77701 12.3800664,140.96673 C12.2762609,141.04251 12.155724,141.07905 12.0369863,141.07905" id="Fill-18" fill="#FFFFFF"></path>
                    <path d="M143.303827,410.92911 C143.215313,410.92911 143.125001,410.90895 143.040625,410.86575 C138.388444,408.50487 133.365657,407.30787 128.111871,407.30787 C127.790019,407.30787 127.529336,407.04687 127.529336,406.72485 C127.529336,406.40283 127.790019,406.14183 128.111871,406.14183 C133.55024,406.14183 138.750414,407.38149 143.567929,409.82625 C143.854878,409.97187 143.969298,410.32251 143.823934,410.60979 C143.721028,410.81247 143.516296,410.92911 143.303827,410.92911" id="Fill-20" fill="#FFFFFF"></path>
                    <path d="M109.309549,468.853758 C109.197287,468.853758 109.083947,468.821358 108.984279,468.753498 C99.5394101,462.369798 93.9009857,451.759158 93.9009857,440.370918 C93.9009857,427.744998 100.812423,416.184678 111.937251,410.201658 C112.220603,410.048658 112.573758,410.155218 112.726318,410.439258 C112.878878,410.722938 112.772733,411.076458 112.489562,411.228558 C101.742175,417.008358 95.0658751,428.174658 95.0658751,440.370918 C95.0658751,451.371618 100.51306,461.620818 109.636077,467.787798 C109.902698,467.967978 109.973221,468.330498 109.792955,468.597078 C109.680694,468.763758 109.496651,468.853758 109.309549,468.853758" id="Fill-22" fill="#FFFFFF"></path>
                    <polygon id="Fill-24" fill="#FFCBC8" points="204.943134 140.539752 180.26565 165.796452 209.867153 157.884912"></polygon>
                    <path d="M351.781514,150.99408 L211.559778,157.80276 C207.958605,157.97772 204.943206,155.10366 204.943206,151.49646 L204.943206,93.77856 C204.943206,87.5052 209.923176,82.36602 216.19037,82.17198 L342.566385,78.25932 C351.977612,78.25932 359.606692,85.8924 359.606692,95.30838 L359.606692,142.77564 C359.606692,147.16494 356.163118,150.78132 351.781514,150.99408" id="Fill-26" fill="#FFCBC8"></path>
                    <path d="M340.650731,80.43021 L218.299027,84.12705 C212.358361,84.30651 207.70492,88.99011 207.70492,94.78953 L207.70492,146.80989 C207.70492,149.03721 208.591855,151.11009 210.202551,152.64747 C211.813427,154.18449 213.922821,154.97559 216.148075,154.86723 L349.558222,148.54527 C353.64478,148.35195 356.845482,145.07469 356.845482,141.08409 L356.845482,96.23475 C356.845482,87.52023 349.58089,80.43021 340.650731,80.43021 M215.753361,155.48499 C213.518573,155.48499 211.412777,154.64241 209.782831,153.08757 C208.051059,151.43445 207.096839,149.20497 207.096839,146.80989 L207.096839,94.78953 C207.096839,88.65891 212.009344,83.70819 218.281216,83.51883 L340.641736,79.82199 C349.915515,79.82199 357.453383,87.18471 357.453383,96.23475 L357.453383,141.08409 C357.453383,145.39995 353.997935,148.94415 349.586647,149.15295 L216.1765,155.47491 C216.035274,155.48157 215.894048,155.48499 215.753361,155.48499" id="Fill-28" fill="#FFFFFF"></path>
                </g>
                <g filter="url(#filter-15)" id="Group-33">
                    <g transform="translate(347.217991, 104.760000)">
                        <mask id="mask-17" fill="white">
                            <use xlink:href="#path-16"></use>
                        </mask>
                        <g id="Clip-32"></g>
                        <path d="M114.100149,0.05328 L1.97680377,4.25178 C0.875780921,4.29318 0.00899528473,5.02326 0.0442339818,5.87862 L0.0442339818,5.87862 L0.0876140733,6.86466 C0.123775118,7.7112 1.03157925,8.36172 2.12126804,8.32194 L2.12126804,8.32194 L114.249111,4.22514 C115.351034,4.18482 116.219259,3.45438 116.183511,2.5983 L116.183511,2.5983 L116.136142,1.5102 C116.100881,0.68832 115.24417,0.05148 114.197299,0.05148 L114.197299,0.05148 C114.165095,0.05148 114.132712,0.05202 114.100149,0.05328" id="Fill-31" fill="url(#linearGradient-18)" mask="url(#mask-17)"></path>
                    </g>
                </g>
                <g filter="url(#filter-19)" id="Group-36">
                    <g transform="translate(337.143272, 133.200000)">
                        <mask id="mask-21" fill="white">
                            <use xlink:href="#path-20"></use>
                        </mask>
                        <g id="Clip-35"></g>
                        <path d="M114.141348,0.01368 L2.01692274,4.19112 C0.915899891,4.23198 0.0500137831,4.98708 0.0879738847,5.87304 L0.0879738847,5.87304 L0.131690968,6.89436 C0.169111353,7.77132 1.07799492,8.44632 2.16750381,8.40672 L2.16750381,8.40672 L114.296427,4.3353 C115.398529,4.29534 116.265314,3.53988 116.227714,2.65302 L116.227714,2.65302 L116.179499,1.52622 C116.142979,0.67374 115.283029,0.01206 114.234359,0.01206 L114.234359,0.01206 C114.203415,0.01206 114.172651,0.0126 114.141348,0.01368" id="Fill-34" fill="url(#linearGradient-22)" mask="url(#mask-21)"></path>
                    </g>
                </g>
                <g filter="url(#filter-23)" id="Group-39">
                    <g transform="translate(337.143272, 145.080000)">
                        <mask id="mask-25" fill="white">
                            <use xlink:href="#path-24"></use>
                        </mask>
                        <g id="Clip-38"></g>
                        <path d="M127.240641,0.01458 L2.2461226,4.73634 C1.01880595,4.7826 0.0503735945,5.54904 0.0875943715,6.44382 L0.0875943715,6.44382 L0.132770403,7.47522 C0.170550598,8.36064 1.18072107,9.03834 2.39508451,8.99352 L2.39508451,8.99352 L127.393921,4.3785 C128.622497,4.33296 129.592189,3.56634 129.555136,2.67084 L129.555136,2.67084 L129.505474,1.5327 C129.468773,0.67518 128.519951,0.01242 127.35722,0.01224 L127.35722,0.01224 C127.31854,0.01224 127.279681,0.01296 127.240641,0.01458" id="Fill-37" fill="url(#linearGradient-26)" mask="url(#mask-25)"></path>
                    </g>
                </g>
                <g filter="url(#filter-27)" id="Group-42">
                    <g transform="translate(337.682989, 121.500000)">
                        <mask id="mask-29" fill="white">
                            <use xlink:href="#path-28"></use>
                        </mask>
                        <g id="Clip-41"></g>
                        <path d="M62.1610156,0.05742 L1.04903011,1.83978 C0.448864708,1.85742 -6.9388939e-18,2.68146 0.0491142546,3.67596 L0.0491142546,3.67596 L0.105964454,4.82238 C0.154359086,5.80644 0.672487486,6.58692 1.26635618,6.57072 L1.26635618,6.57072 L62.3840987,4.90698 C62.9848038,4.8906 63.434568,4.0662 63.3852738,3.07098 L63.3852738,3.07098 L63.3230265,1.80576 C63.2748118,0.83178 62.7665782,0.05706 62.1804454,0.05706 L62.1804454,0.05706 C62.1739688,0.05706 62.1674922,0.05724 62.1610156,0.05742" id="Fill-40" fill="url(#linearGradient-30)" mask="url(#mask-29)"></path>
                    </g>
                </g>
                <g filter="url(#filter-31)" id="Group-45">
                    <g transform="translate(408.385927, 119.340000)">
                        <mask id="mask-33" fill="white">
                            <use xlink:href="#path-32"></use>
                        </mask>
                        <g id="Clip-44"></g>
                        <path d="M58.7953399,0.10404 L1.03247878,1.76076 C0.465056221,1.77714 0.0437170838,2.60028 0.0930112441,3.5946 L0.0930112441,3.5946 L0.150041349,4.74102 C0.199155604,5.72508 0.691197679,6.50664 1.25250345,6.4917 L1.25250345,6.4917 L59.0214813,4.9536 C59.5889039,4.93848 60.0113225,4.11498 59.9618484,3.11958 L59.9618484,3.11958 L59.8988814,1.85472 C59.8504868,0.87984 59.3670802,0.10386 58.8124309,0.10386 L58.8124309,0.10386 C58.8068538,0.10386 58.8010968,0.10386 58.7953399,0.10404" id="Fill-43" fill="url(#linearGradient-34)" mask="url(#mask-33)"></path>
                    </g>
                </g>
                <g id="Group-48" transform="translate(111.361625, 483.120000)">
                    <mask id="mask-36" fill="white">
                        <use xlink:href="#path-35"></use>
                    </mask>
                    <g id="Clip-47"></g>
                    <path d="M0.0239274574,13.10814 C-0.197716358,15.64074 1.75390062,17.83998 4.29290968,17.94582 L4.29290968,17.94582 C12.9184882,18.3051 31.3688966,19.00404 37.9896061,18.70848 L37.9896061,18.70848 C38.9848444,18.6642 39.6355633,17.6445 39.2672963,16.71858 L39.2672963,16.71858 C38.9585782,15.94242 38.3632702,15.31494 37.6047878,14.9661 L37.6047878,14.9661 L7.12804353,0.95166 L1.74634458,0.08118 C1.74634458,0.08118 0.59045049,6.62778 0.0239274574,13.10814" id="Fill-46" fill="#3A3A3A" mask="url(#mask-36)"></path>
                </g>
                <g id="Group-51" transform="translate(112.081248, 478.080000)">
                    <mask id="mask-38" fill="white">
                        <use xlink:href="#path-37"></use>
                    </mask>
                    <g id="Clip-50"></g>
                    <path d="M0.0798781284,1.2744 L1.00855132,9.10512 C1.00855132,9.10512 6.34725281,11.59182 9.99322162,8.79174 L9.99322162,8.79174 L7.78218063,0.06498 L0.0798781284,1.2744 Z" id="Fill-49" fill="url(#linearGradient-39)" mask="url(#mask-38)"></path>
                </g>
                <g id="Group-54" transform="translate(88.513602, 332.100000)">
                    <mask id="mask-41" fill="white">
                        <use xlink:href="#path-40"></use>
                    </mask>
                    <g id="Clip-53"></g>
                    <path d="M1.08878926,34.4043 C1.08878926,34.4043 -1.04435256,-19.3095 1.08878926,36.29772 L1.08878926,36.29772 C2.99794849,86.06232 17.6320174,138.15738 20.6859166,148.55508 L20.6859166,148.55508 C21.0221603,149.70006 22.09116,150.4755 23.2832151,150.436848 L23.2832151,150.436848 C27.1333769,150.30612 30.3459528,149.33592 31.984354,148.66614 L31.984354,148.66614 C32.6800493,148.38156 33.0506551,147.6279 32.8763264,146.89674 L32.8763264,146.89674 C22.1924469,102.0825 23.9441886,2.08044 24.3453783,0.03546 L24.3453783,0.03546 L2.34003337,0.03132 L1.08878926,34.4043 Z" id="Fill-52" fill="#3A3A3A" mask="url(#mask-41)"></path>
                </g>
                <g id="Group-57" transform="translate(74.301052, 486.540000)">
                    <mask id="mask-43" fill="white">
                        <use xlink:href="#path-42"></use>
                    </mask>
                    <g id="Clip-56"></g>
                    <path d="M0.127373232,12.1635 C-0.194118244,13.74948 0.913561117,15.2676 2.52335727,15.426 L2.52335727,15.426 C5.37144432,15.70608 9.75610591,16.06644 13.2682249,16.04214 L13.2682249,16.04214 C14.8873761,16.03098 16.1508538,14.62068 15.9558361,13.01238 L15.9558361,13.01238 C15.5667,9.80676 14.3546754,4.54752 10.610658,0.44838 L10.610658,0.44838 L3.74851505,0.07632 C3.74851505,0.07632 1.90879942,3.3813 0.127373232,12.1635" id="Fill-55" fill="#3A3A3A" mask="url(#mask-43)"></path>
                </g>
                <g id="Group-60" transform="translate(76.280015, 475.920000)">
                    <mask id="mask-45" fill="white">
                        <use xlink:href="#path-44"></use>
                    </mask>
                    <g id="Clip-59"></g>
                    <path d="M0.153639463,0.62442 L2.32348205,12.46644 C2.32348205,12.46644 4.46885745,14.06322 8.71283279,12.90564 L8.71283279,12.90564 L7.67711571,0.16434 L0.153639463,0.62442 Z" id="Fill-58" fill="url(#linearGradient-46)" mask="url(#mask-45)"></path>
                </g>
                <g id="Group-63" transform="translate(67.104824, 329.580000)">
                    <mask id="mask-48" fill="white">
                        <use xlink:href="#path-47"></use>
                    </mask>
                    <g id="Clip-62"></g>
                    <path d="M3.46714255,5.62428 C-5.27069713,58.38624 5.36262894,136.02978 8.94886906,151.22628 L8.94886906,151.22628 C9.16835401,152.15688 9.91892057,152.86968 10.8612666,153.02574 L10.8612666,153.02574 C12.4622474,153.29142 15.0976859,153.50814 17.6958839,152.75304 L17.6958839,152.75304 C18.5910947,152.49276 19.2198651,151.68492 19.2565658,150.7527 L19.2565658,150.7527 C19.7376337,138.46662 18.8715676,63.0423 27.0135597,33.23412 L27.0135597,33.23412 C27.4260834,31.72338 28.3481001,30.40596 29.6238114,29.49858 L29.6238114,29.49858 L45.4265477,18.25848 L46.6380326,0.08964 L3.46714255,5.62428 Z" id="Fill-61" fill="#3A3A3A" mask="url(#mask-48)"></path>
                </g>
                <g id="Group-66" transform="translate(67.284730, 230.940000)">
                    <mask id="mask-50" fill="white">
                        <use xlink:href="#path-49"></use>
                    </mask>
                    <g id="Clip-65"></g>
                    <path d="M58.9658905,4.29066 C32.7797171,3.85776 3.88650272,11.1699 3.88650272,11.1699 L3.88650272,11.1699 C-3.91906565,56.7387 2.52155822,109.29906 2.52155822,109.29906 L2.52155822,109.29906 C22.7940515,114.61824 45.6627639,106.047 45.6627639,106.047 L45.6627639,106.047 C49.0323975,87.0003 64.7530968,33.39666 64.7530968,33.39666 L64.7530968,33.39666 C77.5474501,31.80798 88.0874052,28.11474 96.7667755,23.23152 L96.7667755,23.23152 C90.1462459,15.55344 87.025062,5.78322 85.6694726,0.00774 L85.6694726,0.00774 C76.4111658,2.88648 67.0425767,4.42422 58.9658905,4.29066" id="Fill-64" fill="#E36767" mask="url(#mask-50)"></path>
                </g>
                <g id="Group-69" transform="translate(152.919840, 194.580000)">
                    <mask id="mask-52" fill="white">
                        <use xlink:href="#path-51"></use>
                    </mask>
                    <g id="Clip-68"></g>
                    <path d="M44.8515691,0.42174 C40.9979891,16.70796 20.7926007,29.91294 0.0343619877,36.36774 L0.0343619877,36.36774 C1.3899514,42.14322 4.51113529,51.91344 11.1316649,59.59152 L11.1316649,59.59152 C45.5819862,40.21164 50.6796141,2.05974 50.6796141,2.05974 L50.6796141,2.05974 C49.3580268,0.4626 47.8556344,0.0741599301 46.7074762,0.0741599301 L46.7074762,0.0741599301 C45.6208458,0.0741599301 44.8515691,0.42174 44.8515691,0.42174" id="Fill-67" fill="url(#linearGradient-53)" mask="url(#mask-52)"></path>
                </g>
                <g id="Group-72" transform="translate(197.716358, 169.380000)">
                    <mask id="mask-55" fill="white">
                        <use xlink:href="#path-54"></use>
                    </mask>
                    <g id="Clip-71"></g>
                    <path d="M0.493841132,16.47378 C-0.508413493,17.84106 0.51147189,25.03044 0.575698223,26.70858 L0.575698223,26.70858 C2.41091621,30.20994 5.52814218,28.90638 5.25864345,28.0503 L5.25864345,28.0503 C5.25864345,28.0503 8.32639536,28.02726 10.4780675,24.96888 L10.4780675,24.96888 C11.6147116,23.35266 12.8168415,21.28788 13.6981995,19.69938 L13.6981995,19.69938 C14.5761393,18.11646 14.8542735,16.25796 14.3996518,14.5188 L14.3996518,14.5188 C13.7993065,12.22254 12.5183779,10.61964 11.4682684,8.72118 L11.4682684,8.72118 L16.4887167,3.4884 C16.4887167,3.4884 17.9297613,1.79208 16.1807182,0.06534 L16.1807182,0.06534 C16.1807182,0.06534 5.83164309,9.19278 0.493841132,16.47378" id="Fill-70" fill="url(#linearGradient-56)" mask="url(#mask-55)"></path>
                </g>
                <g id="Group-75" transform="translate(200.954661, 181.440000)">
                    <mask id="mask-58" fill="white">
                        <use xlink:href="#path-57"></use>
                    </mask>
                    <g id="Clip-74"></g>
                    <path d="M1.45903518,3.93678 L0.0226681175,7.80012 L4.10184984,12.32766 C4.10184984,12.32766 5.47327095,4.662 6.49261661,3.00276 L6.49261661,3.00276 C7.51196228,1.34388 6.98339935,0.54144 6.0342169,0.05616 L6.0342169,0.05616 L1.45903518,3.93678 Z" id="Fill-73" fill="url(#linearGradient-59)" mask="url(#mask-58)"></path>
                </g>
                <g id="Group-78" transform="translate(42.637650, 242.100000)">
                    <mask id="mask-61" fill="white">
                        <use xlink:href="#path-60"></use>
                    </mask>
                    <g id="Clip-77"></g>
                    <path d="M0.05181284,37.71972 C4.67341023,38.06028 13.0831019,39.26304 21.3148669,43.4214 L21.3148669,43.4214 C23.1236387,33.46686 38.5775379,25.3791 38.5775379,25.3791 L38.5775379,25.3791 L28.5335829,0.0099 C28.5335829,0.0099 4.07432427,16.63758 0.05181284,37.71972" id="Fill-76" fill="#E36767" mask="url(#mask-61)"></path>
                </g>
                <g id="Group-81" transform="translate(42.097933, 279.720000)">
                    <mask id="mask-63" fill="white">
                        <use xlink:href="#path-62"></use>
                    </mask>
                    <g id="Clip-80"></g>
                    <path d="M3.75265288,20.0466 C19.9835647,49.75272 64.1261255,18.40482 64.1261255,18.40482 L64.1261255,18.40482 L60.4918506,11.63034 C60.4918506,11.63034 33.0303257,27.15858 23.7642829,13.89942 L23.7642829,13.89942 C21.8405513,11.14614 21.3805325,8.41014 21.854584,5.8014 L21.854584,5.8014 C13.622819,1.64304 5.21312731,0.44028 0.591529924,0.09972 L0.591529924,0.09972 C-0.621214363,6.45534 0.0201494378,13.2147 3.75265288,20.0466" id="Fill-79" fill="url(#linearGradient-64)" mask="url(#mask-63)"></path>
                </g>
                <g id="Group-88" transform="translate(99.128038, 249.120000)">
                    <path d="M0.16205905,61.875 L15.1496427,9.50778 C15.3196535,8.9136 15.8264479,8.4798 16.440466,8.40834 C19.1559626,8.09136 27.0241381,7.20144 36.1091958,6.43248 C47.0521396,5.50656 59.7601381,4.75614 67.3541374,5.3946 C68.4337515,5.48514 69.0862694,6.6276 68.6061011,7.59942 C64.2876448,16.34058 46.5246561,51.8976 37.6295788,63.54576 C37.3347134,63.93168 36.8790123,64.15722 36.3936267,64.1527861 L1.6201947,63.8289 C0.608225172,63.81972 -0.116434966,62.84826 0.16205905,61.875" id="Fill-82" fill="#787878"></path>
                    <path d="M37.6637969,1.892556 L48.5299209,0.081036 C49.1086775,-0.015444 49.5827291,0.537876 49.3988654,1.095336 L48.3232093,4.356576 C48.2294784,4.640436 47.9821081,4.845816 47.6858034,4.885236 L37.2291447,6.282936 C36.6885281,6.355116 36.242362,5.863356 36.3666768,5.331636 L37.0325078,2.484396 C37.1042902,2.177856 37.3532797,1.944396 37.6637969,1.892556" id="Fill-84" fill="#969696"></path>
                    <path d="M29.5274539,11.09655 L30.4226646,6.43131 C30.5124376,5.96331 30.8985152,5.60997 31.3722069,5.56173 L53.3194423,3.33351 C54.0581351,3.25845 54.649665,3.93579 54.4764158,4.65813 L53.0808873,10.47141 C52.9691659,10.93653 52.564558,11.27259 52.0869084,11.29653 L30.6401706,12.37671 C29.9421365,12.41217 29.3957629,11.78325 29.5274539,11.09655" id="Fill-86" fill="#969696"></path>
                </g>
                <g id="Group-91" transform="translate(101.286906, 280.440000)">
                    <mask id="mask-66" fill="white">
                        <use xlink:href="#path-65"></use>
                    </mask>
                    <g id="Clip-90"></g>
                    <path d="M0.378701487,6.2667 C-0.463257164,9.31374 1.62418861,17.90316 1.62418861,17.90316 L1.62418861,17.90316 C5.13576786,18.40176 7.2408444,16.90416 8.76716431,15.40692 L8.76716431,15.40692 C10.4070047,13.7979 11.3788553,12.1887 12.7092579,13.05594 L12.7092579,13.05594 C15.2781313,14.73012 16.7776453,12.11976 16.7776453,12.11976 L16.7776453,12.11976 L14.3933551,9.48816 C17.8851447,11.1861 18.2512528,8.00784 18.2512528,8.00784 L18.2512528,8.00784 L15.6879565,6.02352 C19.8216496,7.30404 20.1456598,3.33468 20.1456598,3.33468 L20.1456598,3.33468 C20.1456598,3.33468 13.7302227,1.04238 8.29131375,0.17172 L8.29131375,0.17172 C7.76670874,0.08784 7.27826478,0.04842 6.82184403,0.04842 L6.82184403,0.04842 C2.54584548,0.04878 1.13970258,3.51306 0.378701487,6.2667" id="Fill-89" fill="url(#linearGradient-67)" mask="url(#mask-66)"></path>
                </g>
                <g id="Group-94" transform="translate(91.212187, 213.840000)">
                    <mask id="mask-69" fill="white">
                        <use xlink:href="#path-68"></use>
                    </mask>
                    <g id="Clip-93"></g>
                    <path d="M8.514037,0.1206 L0.182064563,24.22872 C0.0440768952,24.62814 0.208150889,25.0704 0.577857091,25.2747 L0.577857091,25.2747 C2.84898658,26.53128 11.0316373,30.16278 20.8926282,23.90742 L20.8926282,23.90742 C21.9198897,23.256 22.6191832,22.1931 22.7751614,20.9862 L22.7751614,20.9862 L25.473387,0.1206 L8.514037,0.1206 Z" id="Fill-92" fill="url(#linearGradient-70)" mask="url(#mask-69)"></path>
                </g>
                <g id="Group-97" transform="translate(96.429452, 191.520000)">
                    <mask id="mask-72" fill="white">
                        <use xlink:href="#path-71"></use>
                    </mask>
                    <g id="Clip-96"></g>
                    <path d="M0.0696235038,6.50934 L6.98879652,25.11576 C16.890626,30.7692 28.2299021,31.26888 29.4025274,24.30828 L29.4025274,24.30828 C30.5755125,17.3475 21.4260486,0.11574 21.4260486,0.11574 L21.4260486,0.11574 L0.0696235038,6.50934 Z" id="Fill-95" fill="url(#linearGradient-73)" mask="url(#mask-72)"></path>
                </g>
                <g id="Group-100" transform="translate(83.836054, 179.100000)">
                    <mask id="mask-75" fill="white">
                        <use xlink:href="#path-74"></use>
                    </mask>
                    <g id="Clip-99"></g>
                    <path d="M27.9550062,3.65508 C27.6707552,4.02426 27.1137671,4.03218 26.8302358,3.66282 L26.8302358,3.66282 C25.6056177,2.0682 22.3860254,-1.24146 17.9164483,0.76482 L17.9164483,0.76482 C13.733461,2.64276 13.2624679,5.70942 13.3200377,7.25526 L13.3200377,7.25526 C13.336589,7.70976 12.930362,8.06328 12.4836561,7.97814 L12.4836561,7.97814 C10.3688647,7.57458 5.29408487,7.2279 2.92526659,12.43674 L2.92526659,12.43674 C0.974189336,16.72722 2.24216467,19.15578 3.39715923,20.34378 L3.39715923,20.34378 C3.77136308,20.72862 3.60728908,21.36222 3.09419804,21.51918 L3.09419804,21.51918 C1.70442655,21.94488 -0.0903126587,23.12406 0.0892332245,26.38206 L0.0892332245,26.38206 C0.337862894,30.8862 5.3707247,30.4893 6.80367356,30.28428 L6.80367356,30.28428 C7.0386304,30.25044 7.27520638,30.33126 7.43424302,30.50694 L7.43424302,30.50694 C8.66299891,31.86756 14.198877,37.64412 20.1904563,38.34054 L20.1904563,38.34054 C20.7093043,38.40066 21.1113935,37.88802 20.9415626,37.39392 L20.9415626,37.39392 L18.3484019,29.85246 C18.2278651,29.50236 18.3955372,29.11806 18.7339398,28.96812 L18.7339398,28.96812 L20.0199057,28.39824 C20.4221748,28.21986 20.5707769,27.7272 20.3295234,27.35874 L20.3295234,27.35874 C19.5965876,26.23842 18.2226478,23.9526 17.7842176,21.95136 L17.7842176,21.95136 C17.7842176,21.95136 16.1393399,20.89728 21.9704432,19.5012 L21.9704432,19.5012 C27.8017265,18.10458 36.4972884,15.93702 38.3249503,10.971 L38.3249503,10.971 C39.624769,7.43976 37.4855103,0.00648 33.3341864,0.00648 L33.3341864,0.00648 C31.7938339,0.00648 29.9766065,1.0296 27.9550062,3.65508" id="Fill-98" fill="#2D2D2D" mask="url(#mask-75)"></path>
                </g>
                <g id="Group-103" transform="translate(97.868698, 206.280000)">
                    <mask id="mask-77" fill="white">
                        <use xlink:href="#path-76"></use>
                    </mask>
                    <g id="Clip-102"></g>
                    <path d="M0.0390395357,1.58274 C-0.436811026,5.34852 5.90540443,7.03746 9.04673776,5.63346 L9.04673776,5.63346 L7.0294552,2.2887 C7.0294552,2.2887 3.8035662,0.07434 1.72619514,0.07416 L1.72619514,0.07416 C0.851313747,0.07416 0.1800856,0.46674 0.0390395357,1.58274" id="Fill-101" fill="url(#linearGradient-78)" mask="url(#mask-77)"></path>
                </g>
            </g>
        </g>
    </g>
</svg>